<svg id="Layer_1" data-name="Layer 1" xmlns="http://www.w3.org/2000/svg" viewBox="0 0 450 450"><defs><style>.cls-1{fill:#18173f;}.cls-2{fill:#8795a2;}</style></defs><title>Addtitional configurations 2</title><g id="_Group_" data-name="&lt;Group&gt;"><path id="_Path_" data-name="&lt;Path&gt;" class="cls-1" d="M75.19,99.69c0-.07,0-.14,0-.21A50.13,50.13,0,0,1,76.76,87H25v25H76.67a50.05,50.05,0,0,1-1.49-12.1C75.19,99.83,75.19,99.76,75.19,99.69Z"/><path id="_Path_2" data-name="&lt;Path&gt;" class="cls-1" d="M175.14,99.48c0,.07,0,.14,0,.21s0,.14,0,.21a50.05,50.05,0,0,1-1.49,12.1H425V87H173.57A50.13,50.13,0,0,1,175.14,99.48Z"/><path id="_Path_3" data-name="&lt;Path&gt;" class="cls-1" d="M375.17,224.5c0,.07,0,.14,0,.21s0,.14,0,.21A50.06,50.06,0,0,1,373.68,237H425V212H373.59A50.1,50.1,0,0,1,375.17,224.5Z"/><path id="_Path_4" data-name="&lt;Path&gt;" class="cls-1" d="M275.21,224.71c0-.07,0-.14,0-.21a50.1,50.1,0,0,1,1.58-12.5H25v25H276.69a50.06,50.06,0,0,1-1.48-12.08C275.21,224.85,275.21,224.78,275.21,224.71Z"/><path id="_Path_5" data-name="&lt;Path&gt;" class="cls-1" d="M75.19,349.71c0-.07,0-.14,0-.21A50.1,50.1,0,0,1,76.76,337H25v25H76.67a50.06,50.06,0,0,1-1.48-12.08C75.19,349.85,75.19,349.78,75.19,349.71Z"/><path id="_Path_6" data-name="&lt;Path&gt;" class="cls-1" d="M175.14,349.5c0,.07,0,.14,0,.21s0,.14,0,.21A50.06,50.06,0,0,1,173.66,362H425V337H173.57A50.1,50.1,0,0,1,175.14,349.5Z"/><path id="_Path_7" data-name="&lt;Path&gt;" class="cls-2" d="M175.14,99.69a50,50,0,0,0-99.94,0c0,.07,0,.14,0,.21A50.05,50.05,0,0,0,76.67,112c0,.14.06.28.1.42a50,50,0,0,0,96.79,0c0-.14.06-.28.1-.42a50.05,50.05,0,0,0,1.49-12.1C175.14,99.83,175.14,99.76,175.14,99.69Z"/><path id="_Path_8" data-name="&lt;Path&gt;" class="cls-2" d="M175.14,349.71a50,50,0,0,0-99.94,0c0,.07,0,.14,0,.21A50.06,50.06,0,0,0,76.67,362c0,.14.06.28.09.42a50,50,0,0,0,96.8,0c0-.14.06-.28.09-.42a50.06,50.06,0,0,0,1.48-12.08C175.14,349.85,175.14,349.78,175.14,349.71Z"/><path id="_Path_9" data-name="&lt;Path&gt;" class="cls-2" d="M375.16,224.71a50,50,0,0,0-99.94,0c0,.07,0,.14,0,.21A50.06,50.06,0,0,0,276.69,237c0,.14.06.28.09.42a50,50,0,0,0,96.81,0c0-.14.06-.28.09-.42a50.06,50.06,0,0,0,1.48-12.08C375.17,224.85,375.16,224.78,375.16,224.71Z"/></g></svg>