<svg id="Layer_1" data-name="Layer 1" xmlns="http://www.w3.org/2000/svg" viewBox="0 0 450 450"><defs><style>.cls-1{fill:#18173f;}.cls-2{fill:#8795a2;}</style></defs><title>Announcments</title><g id="_Group_" data-name="&lt;Group&gt;"><path id="_Path_" data-name="&lt;Path&gt;" class="cls-1" d="M32,255.78h0l34.51,8.63a232.3,232.3,0,0,1-3.85-34.48c-.28-5.78-.42-11.86-.42-18.14,0-7.25.2-14.23.56-20.79.48-8.7,1.25-16.64,2.25-23.45q.67-4.55,1.46-8.37L32,167.83c-4.22,0-7.64,19.69-7.64,44S28,255.78,32,255.78Z"/><g id="_Group_2" data-name="&lt;Group&gt;"><path id="_Path_2" data-name="&lt;Path&gt;" class="cls-2" d="M347.76,349l.08,0a4.11,4.11,0,0,0,.75.11l-1.6-.4A4.6,4.6,0,0,0,347.76,349Z"/></g><g id="_Group_3" data-name="&lt;Group&gt;"><path id="_Path_3" data-name="&lt;Path&gt;" class="cls-2" d="M62.79,191c-.36,6.56-.56,13.54-.56,20.79,0,6.28.39,12.36.67,18.14.65,13.67,2.1,25.63,4.1,34.48h0c2,10,4.41,15.57,7.33,15.57H74v.46l24.5,6.1c-6.75-2.82-12-35.2-12-74.77,0-39.4,5.31-71.76,12-74.81l-24.33,6h0s-.05.09-.08.09a2.38,2.38,0,0,0-.83.25c-2.56,1.11-4.89,6.9-6.75,15.83-.53,2.55-1,5.35-1.46,8.38C64,174.36,63.27,182.31,62.79,191Z"/></g><g id="_Group_4" data-name="&lt;Group&gt;"><path id="_Path_4" data-name="&lt;Path&gt;" class="cls-2" d="M99.55,286.79l-.16,0,.16,0v0Z"/></g><g id="_Group_5" data-name="&lt;Group&gt;"><path id="_Path_5" data-name="&lt;Path&gt;" class="cls-2" d="M348.25,74.55l-.25,0-.25.06-.33.1-.14.05-.37.16,1.85-.46A3.86,3.86,0,0,0,348.25,74.55Z"/></g><polygon id="_Path_6" data-name="&lt;Path&gt;" class="cls-1" points="124 293.01 124 348.63 299 389.02 299 336.76 274 330.51 274 357.59 149 328.74 149 299.26 124 293.01"/><path id="_Path_7" data-name="&lt;Path&gt;" class="cls-2" d="M98.55,137.05l.91-.23A2.53,2.53,0,0,0,98.55,137.05Z"/><g id="_Group_6" data-name="&lt;Group&gt;"><path id="_Path_8" data-name="&lt;Path&gt;" class="cls-1" d="M86.51,211.8c0,39.56,5.33,71.95,12.08,74.77a2.79,2.79,0,0,0,.8.3c.05,0,.33.13.39.13H100v-.19h0l24.56,6.2,24.89,6.25,124.94,31.25,25,6.25L347,348.68l1.59.4,48.95,12.24c-12.87-6.1-23-70.71-23-149.51,0-78.64,10.09-143.13,22.92-149.47l-14.12,3.53-34.6,8.65L346.9,75,99.55,136.81h-.09l-.91.23,0,0C91.79,140.12,86.51,172.4,86.51,211.8Z"/></g><path id="_Path_9" data-name="&lt;Path&gt;" class="cls-2" d="M374.55,211.8c0,78.8,10.13,143.41,23,149.51h0a5,5,0,0,0,.9.32l.08,0a4.38,4.38,0,0,0,.88.12h.13c13.81,0,25-67.15,25-150s-11.19-150-25-150a4.23,4.23,0,0,0-.58,0l-.28.05-.27.06-.37.12-.14.06-.44.19h0C384.63,68.67,374.55,133.17,374.55,211.8Z"/></g></svg>