<svg id="Layer_1" data-name="Layer 1" xmlns="http://www.w3.org/2000/svg" viewBox="0 0 450 450"><defs><style>.cls-1{fill:none;}.cls-2{fill:#18173f;}.cls-3{fill:#8795a2;}</style></defs><title>Block explorer2</title><g id="_Group_" data-name="&lt;Group&gt;"><path id="_Compound_Path_" data-name="&lt;Compound Path&gt;" class="cls-1" d="M325.44,225.59c0,37.15-20.44,69.4-50.44,86.76v-174c0-.17-.53-.34-.83-.51-2.72-1.53-5.44-2.94-8.32-4.22h0q-1.42-.63-2.87-1.23l-.06,0q-1.42-.58-2.86-1.12l-.14,0q-1.41-.52-2.83-1l-.24-.08q-1.38-.46-2.78-.88l-.35-.1c-.9-.27-1.8-.52-2.7-.77l-.5-.13c-.86-.23-1.73-.44-2.6-.65l-.65-.14c-.83-.19-1.66-.37-2.49-.54l-.82-.15c-.78-.15-1.56-.3-2.35-.43l-1-.16c-.73-.11-1.45-.23-2.18-.32l-1.27-.15c-.66-.08-1.32-.16-2-.23l-1.55-.13-1.74-.14c-.66,0-1.32-.07-2-.1l-1.34-.07q-1.67-.06-3.36-.06t-3.36.06l-1.34.07c-.66,0-1.32.06-2,.1l-1.74.14-1.55.13c-.67.07-1.33.15-2,.23l-1.27.15c-.73.1-1.46.21-2.18.32l-1,.16c-.79.13-1.57.28-2.36.43l-.82.15c-.84.17-1.67.35-2.49.54l-.64.14c-.87.2-1.74.42-2.6.65l-.49.13c-.91.24-1.81.5-2.7.77l-.35.1q-1.4.42-2.78.88l-.24.08q-1.43.48-2.83,1l-.14,0q-1.44.54-2.86,1.12l-.07,0c-1,.39-1.93.8-2.88,1.23h0c-2.87,1.28-5.71,2.69-8.43,4.22-.3.17-1,.33-1,.51V312.25l.15.09.95.53q1.34.75,2.71,1.47h0q1.37.72,2.77,1.39h0q1.4.68,2.82,1.31l0,0q1.41.63,2.84,1.21l.1,0q1.41.57,2.83,1.1l.16.06q1.39.52,2.81,1l.26.08q1.37.46,2.76.88l.37.11c.89.26,1.78.52,2.68.76l.5.13c.86.23,1.73.44,2.6.65l.65.14c.83.19,1.65.37,2.49.53l.83.15c.78.15,1.56.3,2.34.43l1,.16c.73.11,1.45.23,2.19.32l1.27.15c.66.08,1.32.16,2,.23l1.54.13,1.75.14c.65,0,1.31.07,2,.1l1.36.07q1.67.06,3.36.06t3.36-.06l1.36-.07c.66,0,1.32-.06,2-.1l1.75-.14,1.55-.13c.67-.07,1.33-.15,2-.23l1.27-.15c.73-.1,1.46-.21,2.19-.32l1-.16c.79-.13,1.56-.28,2.34-.43l.83-.15c.83-.17,1.66-.35,2.49-.53l.65-.14c.87-.2,1.74-.42,2.6-.65l.49-.13c.9-.24,1.8-.5,2.69-.76l.37-.11q1.39-.42,2.76-.88l.25-.08q1.42-.48,2.81-1l.16-.06q1.43-.53,2.84-1.11l.09,0q1.43-.59,2.85-1.21l0,0q1.43-.64,2.83-1.31h0c.94-.45,1.86-.91,2.78-1.39h0c.91-.48,1.82-.94,2.72-1.45.31-.18.63-.28.94-.46a100.23,100.23,0,0,0,50.36-86.87A98,98,0,0,0,310.45,173,98,98,0,0,1,325.44,225.59ZM176.07,137.85h0q4.08-2.3,8.39-4.22Q180.15,135.55,176.07,137.85Z"/><polygon id="_Path_" data-name="&lt;Path&gt;" class="cls-1" points="74.89 358.05 83.73 366.87 74.91 358.03 74.89 358.05"/><rect id="_Path_2" data-name="&lt;Path&gt;" class="cls-2" x="25" y="25" width="400" height="25"/><path id="_Path_3" data-name="&lt;Path&gt;" class="cls-3" d="M225.15,100a125,125,0,0,1,89.68,37.87l.13.14H425V50H25v88H135.29l.19-.2A124.94,124.94,0,0,1,225.15,100Z"/><path id="_Path_4" data-name="&lt;Path&gt;" class="cls-3" d="M176.07,137.85q4.08-2.3,8.39-4.22-4.31,1.92-8.39,4.22Z"/><path id="_Path_5" data-name="&lt;Path&gt;" class="cls-3" d="M103.74,194H25v88h88.15a125.85,125.85,0,0,1-13.35-56.5s0-.06,0-.1,0-.07,0-.1A125.6,125.6,0,0,1,103.74,194Z"/><path id="_Path_6" data-name="&lt;Path&gt;" class="cls-3" d="M351,225.44v.06A126.24,126.24,0,0,1,337.16,282H425V169H337.16A125.24,125.24,0,0,1,351,225.39Z"/><path id="_Path_7" data-name="&lt;Path&gt;" class="cls-3" d="M425,338H280.42a125.19,125.19,0,0,1-110.53,0H130.33L92.57,375.72l-8.84-8.86L74.89,358l0,0,0,0L95,338H25v87H425Z"/><path id="_Path_8" data-name="&lt;Path&gt;" class="cls-3" d="M175,281.6V173H139.86a98,98,0,0,0-15.07,52.59A100,100,0,0,0,175,312.25V281.6Z"/><path id="_Path_9" data-name="&lt;Path&gt;" class="cls-3" d="M275,281.6v30.74c30-17.35,50.44-49.61,50.44-86.76a98,98,0,0,0-15-52.59H275V281.6Z"/><path id="_Compound_Path_2" data-name="&lt;Compound Path&gt;" class="cls-2" d="M74.89,358l0,0,8.82,8.84,8.84,8.86L130.33,338h39.55a125.19,125.19,0,0,0,110.53,0H425V313H314.83A125.41,125.41,0,0,0,351,225.44v-.06A126.8,126.8,0,0,0,315,138l-.16-.14a125.21,125.21,0,0,0-179.37-.06l-.19.2a137,137,0,0,0-22.15,31H25v25h78.74a125.6,125.6,0,0,0-3.94,31.3s0,.07,0,.1a124.67,124.67,0,0,0,13.35,56.17,126.46,126.46,0,0,0,15,23.16L120,313H25v25H95Zm200.26-45.55c-.31.18-.63.29-.94.46-.9.5-1.8,1-2.72,1.45h0c-.92.48-1.85.94-2.78,1.39h0q-1.4.68-2.83,1.31l0,0q-1.41.63-2.85,1.21l-.09,0q-1.41.57-2.84,1.11l-.16.06q-1.4.52-2.81,1l-.25.08q-1.37.46-2.76.88l-.37.11c-.89.27-1.79.52-2.69.76l-.49.13c-.86.23-1.73.45-2.6.65l-.65.14c-.83.19-1.65.37-2.49.53l-.83.15c-.78.15-1.56.3-2.34.43l-1,.16c-.73.11-1.45.23-2.19.32l-1.27.15c-.66.08-1.32.16-2,.23l-1.55.13-1.75.14c-.65,0-1.31.07-2,.1l-1.36.07q-1.67.06-3.36.06t-3.36-.06l-1.36-.07c-.66,0-1.31-.06-2-.1l-1.75-.14-1.54-.13c-.67-.07-1.33-.15-2-.23l-1.27-.15c-.73-.1-1.46-.21-2.19-.32l-1-.16c-.79-.13-1.56-.28-2.34-.43l-.83-.15c-.83-.17-1.66-.35-2.49-.53l-.65-.14c-.87-.2-1.74-.42-2.6-.65l-.5-.13c-.9-.24-1.79-.5-2.68-.76l-.37-.11q-1.39-.42-2.76-.88l-.26-.08q-1.41-.48-2.81-1l-.16-.06q-1.43-.53-2.83-1.1l-.1,0q-1.43-.58-2.84-1.21l0,0q-1.42-.63-2.82-1.31h0q-1.4-.68-2.77-1.39h0q-1.37-.71-2.71-1.47l-.95-.53-.15-.09a100,100,0,0,1-50.21-86.66A98,98,0,0,1,139.86,173H175V138.36c0-.17.69-.34,1-.51,2.72-1.53,5.56-2.94,8.43-4.22h0c1-.42,1.92-.83,2.88-1.23l.07,0q1.42-.58,2.86-1.12l.14,0q1.41-.52,2.83-1l.24-.08q1.38-.46,2.78-.88l.35-.1c.9-.27,1.8-.52,2.7-.77l.49-.13c.86-.23,1.73-.45,2.6-.65l.64-.14c.83-.19,1.66-.37,2.49-.54l.82-.15c.78-.15,1.57-.3,2.36-.43l1-.16c.73-.11,1.45-.23,2.18-.32l1.27-.15c.66-.08,1.32-.16,2-.23l1.55-.13,1.74-.14c.66,0,1.32-.07,2-.1l1.34-.07q1.67-.06,3.36-.06t3.36.06l1.34.07c.66,0,1.33.06,2,.1l1.74.14,1.55.13c.66.07,1.32.15,2,.23l1.27.15c.73.1,1.46.21,2.18.32l1,.16c.79.13,1.57.28,2.35.43l.82.15c.83.17,1.66.35,2.49.54l.65.14c.87.2,1.74.42,2.6.65l.5.13c.91.24,1.81.5,2.7.77l.35.1q1.4.42,2.78.88l.24.08q1.43.48,2.83,1l.14,0q1.44.54,2.86,1.12l.06,0q1.45.59,2.87,1.23h0c2.87,1.28,5.59,2.69,8.32,4.22.3.17.83.33.83.51V173h35.45a98,98,0,0,1,15.07,52.59A100.23,100.23,0,0,1,275.15,312.46Z"/></g></svg>