<svg id="Layer_1" data-name="Layer 1" xmlns="http://www.w3.org/2000/svg" viewBox="0 0 450 450"><defs><style>.cls-1{fill:#8795a2;}.cls-2{fill:#18173f;}.cls-3{fill:#132f4b;}</style></defs><title>Connect</title><g id="_Group_" data-name="&lt;Group&gt;"><path id="_Compound_Path_" data-name="&lt;Compound Path&gt;" class="cls-1" d="M393.54,141H394V85H338v56h55.54ZM375,104h10v19H375Zm-28,0h10v19H347Z"/><path id="_Compound_Path_2" data-name="&lt;Compound Path&gt;" class="cls-2" d="M316,125V45H216V65C122,65,46,141.26,46,235s76.24,170,170,170,170-76,170-170H403V141H328v94h17.93a129.94,129.94,0,0,1-130,130c-71.68,0-130-58.32-130-130A130,130,0,0,1,216,105v20ZM269,66h19V76H269Zm0,28h19v10H269Z"/><rect id="_Path_" data-name="&lt;Path&gt;" class="cls-3" x="347" y="104" width="10" height="19"/><rect id="_Path_2" data-name="&lt;Path&gt;" class="cls-3" x="375" y="104" width="10" height="19"/><rect id="_Path_3" data-name="&lt;Path&gt;" class="cls-1" x="269" y="94" width="19" height="10"/><rect id="_Path_4" data-name="&lt;Path&gt;" class="cls-1" x="269" y="66" width="19" height="10"/></g></svg>