<svg id="Layer_1" data-name="Layer 1" xmlns="http://www.w3.org/2000/svg" viewBox="0 0 450 450"><defs><style>.cls-1{fill:none;}.cls-2{fill:#8795a2;}.cls-3{fill:#18173f;}</style></defs><title>Cryptocurrency</title><g id="_Group_" data-name="&lt;Group&gt;"><path id="_Path_" data-name="&lt;Path&gt;" class="cls-1" d="M339.85,234.79l.57-.57a73.93,73.93,0,0,0-37.62-20.29,73.92,73.92,0,0,1,37.62,20.29Z"/><path id="_Path_2" data-name="&lt;Path&gt;" class="cls-1" d="M322.81,322.4l0,0,17.07,17.13Z"/><path id="_Path_3" data-name="&lt;Path&gt;" class="cls-1" d="M287.57,337a49.5,49.5,0,0,1-35.22-14.59A49.46,49.46,0,0,0,287.56,337Z"/><path id="_Path_4" data-name="&lt;Path&gt;" class="cls-1" d="M275,213.36a74.68,74.68,0,0,0-62.42,73.82,74.76,74.76,0,0,1,21.93-53A73.72,73.72,0,0,1,275,213.36Z"/><path id="_Path_5" data-name="&lt;Path&gt;" class="cls-1" d="M287.56,237.39A49.64,49.64,0,0,1,322.75,252l0,0A49.66,49.66,0,0,0,287.56,237.39Z"/><path id="_Path_6" data-name="&lt;Path&gt;" class="cls-1" d="M162.76,112.74a49.64,49.64,0,0,1,35.19,14.57l0,0A49.66,49.66,0,0,0,162.76,112.74Z"/><path id="_Path_7" data-name="&lt;Path&gt;" class="cls-2" d="M125.05,294.71c-.11-2.5-.18-5-.18-7.52a161.8,161.8,0,0,1,9.64-55.26h0A75,75,0,0,1,109.7,109.57,73.49,73.49,0,0,1,150,88.74V50h25V88.73a74.25,74.25,0,0,1,40.62,20.84L198,127.3l0,0,0,0A49.8,49.8,0,1,0,144.84,209,162.54,162.54,0,0,1,287.56,124.5c2.52,0,5,.06,7.53.18a137.56,137.56,0,1,0-170,170Z"/><path id="_Path_8" data-name="&lt;Path&gt;" class="cls-3" d="M127.56,127.3a49.87,49.87,0,0,1,70.42,0l0,0,17.61-17.73A74.25,74.25,0,0,0,175,88.73V50H150V88.74a73.49,73.49,0,0,0-40.3,20.83,75,75,0,0,0,24.78,122.35h0q1.47-4.06,3.17-8.06A163.4,163.4,0,0,1,144.84,209a49.84,49.84,0,0,1-17.29-81.72Z"/><path id="_Compound_Path_" data-name="&lt;Compound Path&gt;" class="cls-2" d="M149.88,287.18A137.68,137.68,0,1,0,287.56,149.5,137.68,137.68,0,0,0,149.88,287.18ZM302.8,213.93a73.93,73.93,0,0,1,37.62,20.29l-.57.57-17,17.16,0,0,0,0a49.82,49.82,0,1,0,0,70.45l0,0,0,0,17,17.16.57.57A75.33,75.33,0,0,1,300,361v39H275V361a75,75,0,0,1-40.55-126.83A73.89,73.89,0,0,1,275,213.36V175h25v38.41Q301.41,213.65,302.8,213.93Z"/><path id="_Path_9" data-name="&lt;Path&gt;" class="cls-3" d="M275,175v38.36a73.72,73.72,0,0,0-40.49,20.86A74.87,74.87,0,0,0,275,361v39h25V361a75.33,75.33,0,0,0,40.42-20.86l-.57-.57-17.07-17.13,0,0A49.41,49.41,0,0,1,287.57,337h0a49.81,49.81,0,1,1,35.22-85.07l0,0,17-17.16.57-.57a73.92,73.92,0,0,0-37.62-20.29q-1.39-.29-2.8-.52V175Z"/></g></svg>