<svg id="Layer_1" data-name="Layer 1" xmlns="http://www.w3.org/2000/svg" viewBox="0 0 450 450"><defs><style>.cls-1{fill:none;}.cls-2{fill:#8795a2;}.cls-3{fill:#18173f;}</style></defs><title>Decred network</title><g id="_Group_" data-name="&lt;Group&gt;"><path id="_Path_" data-name="&lt;Path&gt;" class="cls-1" d="M274.13,296.45l.05,0a50.8,50.8,0,0,0,22.7-18.38A50.88,50.88,0,0,1,274.13,296.45Z"/><path id="_Path_2" data-name="&lt;Path&gt;" class="cls-1" d="M255.34,199A50.59,50.59,0,0,1,306,249.56v0A50.54,50.54,0,0,0,255.34,199Z"/><path id="_Compound_Path_" data-name="&lt;Compound Path&gt;" class="cls-2" d="M425,287.22a76.24,76.24,0,0,0-69-75.81,131.31,131.31,0,0,0-259-23.7,88.66,88.66,0,0,0,17.12,175.67,91.54,91.54,0,0,0,11.93-.79V363H352v.31C392,361.73,425,328.28,425,287.22ZM194.52,324a50.71,50.71,0,0,1-19.08-97.67L143.87,199H180l54.56,47h-40a27,27,0,0,0,0,54h12.75l27.28,24ZM306,249.59a50.38,50.38,0,0,1-9,28.54,51,51,0,0,1-22.77,18.38L305.7,324H269.57L215,276h40a27,27,0,0,0,0-54H242.29L215,199h40c28,0,51,22.54,51,50.52v.07Z"/><path id="_Path_3" data-name="&lt;Path&gt;" class="cls-3" d="M255,199H215l27.28,23H255a27,27,0,0,1,0,54H215l54.56,48H305.7l-31.52-27.5-.05,0A51.29,51.29,0,0,0,297,278.13a50.38,50.38,0,0,0,9-28.54v0C306,221.6,283,199,255,199Z"/><path id="_Path_4" data-name="&lt;Path&gt;" class="cls-3" d="M194.52,300a27,27,0,0,1,0-54h40L180,199H143.87l31.57,27.33A50.71,50.71,0,0,0,194.52,324h40l-27.28-24Z"/></g></svg>