<svg id="Layer_1" data-name="Layer 1" xmlns="http://www.w3.org/2000/svg" viewBox="0 0 450 450"><defs><style>.cls-1{fill:none;}.cls-2{fill:#8795a2;}.cls-3{fill:#18173f;}</style></defs><title>Harddrive</title><g id="_Group_" data-name="&lt;Group&gt;"><circle id="_Path_" data-name="&lt;Path&gt;" class="cls-1" cx="337.65" cy="87.18" r="12.35"/><circle id="_Path_2" data-name="&lt;Path&gt;" class="cls-1" cx="112.5" cy="87.17" r="12.35"/><circle id="_Path_3" data-name="&lt;Path&gt;" class="cls-1" cx="337.65" cy="387.18" r="12.35"/><rect id="_Path_4" data-name="&lt;Path&gt;" class="cls-2" x="75" y="25" width="300" height="25"/><path id="_Compound_Path_" data-name="&lt;Compound Path&gt;" class="cls-3" d="M375,50H75V425H375ZM112.5,74.82a12.35,12.35,0,1,1-12.35,12.35A12.35,12.35,0,0,1,112.5,74.82ZM337.65,399.53A12.35,12.35,0,1,1,350,387.18,12.35,12.35,0,0,1,337.65,399.53ZM225,362.18a125,125,0,1,1,125-125A125,125,0,0,1,225,362.18ZM337.65,99.53A12.35,12.35,0,1,1,350,87.18,12.35,12.35,0,0,1,337.65,99.53Z"/><path id="_Compound_Path_2" data-name="&lt;Compound Path&gt;" class="cls-2" d="M225,112.18a125,125,0,1,0,125,125A125,125,0,0,0,225,112.18Zm.12,149.89a25,25,0,1,1,25-25A25,25,0,0,1,225.13,262.07Z"/><circle id="_Path_5" data-name="&lt;Path&gt;" class="cls-3" cx="225.13" cy="237.05" r="25.02"/></g></svg>