<svg id="Layer_1" data-name="Layer 1" xmlns="http://www.w3.org/2000/svg" viewBox="0 0 450 450"><defs><style>.cls-1{fill:none;}.cls-2{fill:#8795a2;}.cls-3{fill:#18173f;}</style></defs><title>Incubator</title><g id="_Group_" data-name="&lt;Group&gt;"><path id="_Path_" data-name="&lt;Path&gt;" class="cls-1" d="M317.6,182.14h0a117.56,117.56,0,0,1-.77,13.39A117.55,117.55,0,0,0,317.6,182.14Z"/><path id="_Path_2" data-name="&lt;Path&gt;" class="cls-1" d="M288.54,123.65q-.59-2.61-1.27-5.22Q287.95,121,288.54,123.65Z"/><path id="_Path_3" data-name="&lt;Path&gt;" class="cls-1" d="M250.59,44c17,21.4,29.81,48.08,36.6,74.15C280.41,92.09,267.55,65.41,250.6,44Z"/><path id="_Path_4" data-name="&lt;Path&gt;" class="cls-2" d="M271.11,200h13.43a116.37,116.37,0,0,0,8.06-42.86q0-5.09-.42-10.38c-.12-1.53-.28-3.08-.45-4.63s-.4-3.37-.65-5.07c0-.15,0-.3-.07-.45q-.45-3.05-1-6.14l-.07-.35c-.41-2.14-.87-4.3-1.36-6.46q-.59-2.61-1.27-5.22l-.07-.26c-6.79-26.08-19.65-52.76-36.6-74.15h0c39.63,30.39,67,91.25,67,138.13h0a117.55,117.55,0,0,1-.77,13.39q-.25,2.22-.59,4.47h25a120.53,120.53,0,0,0,1.35-17.86C342.6,117,289.83,25,224.74,25S106.88,117,106.88,182.14A120.38,120.38,0,0,0,108.23,200H271.11Z"/><path id="_Path_5" data-name="&lt;Path&gt;" class="cls-3" d="M317.6,182.14h0c0-46.88-27.37-107.74-67-138.13h0c17,21.4,29.81,48.07,36.6,74.15l.07.26q.68,2.62,1.27,5.22c.49,2.16,1,4.32,1.36,6.46l.07.35q.58,3.09,1,6.14c0,.15,0,.3.07.45.25,1.7.46,3.39.65,5.07s.33,3.1.45,4.63q.42,5.28.42,10.38A116.37,116.37,0,0,1,284.54,200h31.71q.33-2.25.59-4.47A117.56,117.56,0,0,0,317.6,182.14Z"/><path id="_Path_6" data-name="&lt;Path&gt;" class="cls-3" d="M309.56,225H24.74c0,110,89.54,200,200,200s200-90,200-200H309.56Z"/></g></svg>