<svg id="Layer_1" data-name="Layer 1" xmlns="http://www.w3.org/2000/svg" viewBox="0 0 450 450"><defs><style>.cls-1{fill:#18173f;}.cls-2{fill:#8795a2;}</style></defs><title>Marketplace</title><g id="_Group_" data-name="&lt;Group&gt;"><polygon id="_Path_" data-name="&lt;Path&gt;" class="cls-1" points="75 143.28 75 143.28 75 143.28 75 143.28"/><path id="_Compound_Path_" data-name="&lt;Compound Path&gt;" class="cls-1" d="M375,350V143.28A48.7,48.7,0,0,1,350,150a49.7,49.7,0,0,1-25-6.71,49.91,49.91,0,0,1-50,0,49.91,49.91,0,0,1-50,0,49.91,49.91,0,0,1-50,0,49.86,49.86,0,0,1-50,0,49.86,49.86,0,0,1-50,0V350ZM125,200H325V300H125Z"/><rect id="_Path_2" data-name="&lt;Path&gt;" class="cls-2" x="125" y="200" width="200" height="100"/><path id="_Path_3" data-name="&lt;Path&gt;" class="cls-2" d="M100,125a24.88,24.88,0,0,0,25-25h0s0-.05,0-.08V25H75v75h0v0h0A24.88,24.88,0,0,0,100,125Z"/><path id="_Path_4" data-name="&lt;Path&gt;" class="cls-2" d="M175,99.92V100a25,25,0,0,0,50,0h0s0-.08,0-.12V25H175V99.92Z"/><path id="_Path_5" data-name="&lt;Path&gt;" class="cls-2" d="M275,100v0a25,25,0,0,0,50,0v0c0-.05,0-.1,0-.15s0-.08,0-.12V25H275v75Z"/><polygon id="_Path_6" data-name="&lt;Path&gt;" class="cls-1" points="275 25 275 25 275 25 275 25"/><path id="_Path_7" data-name="&lt;Path&gt;" class="cls-1" d="M225,99.88s0,.08,0,.12a25,25,0,0,0,50,0v0h0V25H225V99.88Z"/><polygon id="_Path_8" data-name="&lt;Path&gt;" class="cls-1" points="375 25 375 25 375 25 375 25"/><path id="_Path_9" data-name="&lt;Path&gt;" class="cls-1" d="M325,99.84c0,.05,0,.1,0,.15v0a25,25,0,0,0,50,0h0V25H325V99.73S325,99.8,325,99.84Z"/><path id="_Path_10" data-name="&lt;Path&gt;" class="cls-1" d="M125,100h0a25,25,0,0,0,50,0V25H125V99.92S125,100,125,100Z"/><rect id="_Path_11" data-name="&lt;Path&gt;" class="cls-2" x="75" y="375" width="300" height="50"/></g></svg>