<svg id="Layer_1" data-name="Layer 1" xmlns="http://www.w3.org/2000/svg" viewBox="0 0 450 450"><defs><style>.cls-1{fill:#8795a2;}.cls-2{fill:#18173f;}</style></defs><title>Meetups</title><g id="_Group_" data-name="&lt;Group&gt;"><path id="_Path_" data-name="&lt;Path&gt;" class="cls-1" d="M357,321.36l-.06,0q-1.22-.53-2.45-1l-.14-.06q-1.19-.48-2.4-.93l-.23-.09q-1.16-.43-2.34-.84l-.32-.11q-1.14-.39-2.28-.76l-.39-.13-2.23-.68-.48-.14-2.17-.6-.56-.15-.38-.1a49.87,49.87,0,0,0-25.17-91c-1,0-1.95-.05-2.93-.05s-2,0-2.93.05a49.87,49.87,0,0,0-25.17,91l-.37.1-.61.17-2.11.58-.55.16-2.15.65-.47.15-2.21.73-.38.14-2.27.81-.31.12q-1.17.44-2.32.9l-.22.09q-1.2.48-2.38,1l-.14.06q-1.22.53-2.43,1.08l-.05,0a112.32,112.32,0,0,0-17.27,9.92h0a113.13,113.13,0,0,0-16.25,13.81,86.92,86.92,0,0,0,7.58,14.24c.52.79,1.51,1.57,1.51,2.34h0a8.44,8.44,0,0,1,1.77,2.27c.13.17.32.35.45.52.58.75,1.19,1.49,1.79,2.21s1.22,1.43,1.84,2.13l.45.5c.63.7,1.26,1.39,1.91,2.07h0c.64.67,1.3,1.33,2,2l.48.47c.67.65,1.36,1.3,2.05,1.93h0c.69.63,1.39,1.24,2.1,1.84l.52.44c.72.6,1.45,1.2,2.18,1.78h0c.73.58,1.48,1.14,2.23,1.69l.55.4c.76.55,1.53,1.09,2.31,1.62h0c.77.52,1.56,1,2.35,1.53l.58.36c.8.5,1.61,1,2.42,1.45h0c.81.47,1.63.92,2.46,1.36l.61.32c.84.44,1.68.87,2.53,1.28h0c.85.41,1.7.8,2.56,1.18l.64.28c.87.38,1.75.75,2.63,1.1h0c.88.35,1.77.68,2.66,1l.67.24c.9.31,1.8.62,2.72.9h0c.91.28,1.83.55,2.75.8l.69.19c.93.25,1.86.49,2.8.7h0c.93.22,1.88.41,2.82.6l.72.14c1,.18,1.91.35,2.88.5h0c1,.15,1.93.27,2.9.39.24,0,.49-.14.73-.11a26.87,26.87,0,0,0,2.94.08h0c1,0,2,.33,3,.37.25,0,.5.12.75.13,1,0,2,.11,3,.11s2,0,3,0c.25,0,.5-.2.75-.22,1,0,2-.36,3-.36h0a26.87,26.87,0,0,0,2.94-.08c.24,0,.49,0,.73,0,1-.12,1.94-.19,2.9-.34v0c1-.15,1.92-.3,2.88-.48.24,0,.48-.29.71-.34.95-.19,1.89.2,2.83-.8h0a11.05,11.05,0,0,0,2.8-.5c.23-.06.46,0,.69-.09.92-.25,1.84-.47,2.75-.75v0c.92-.29,1.82-.58,2.72-.89l.66-.23q2.7-1,5.31-2.09l.63-.27q2.6-1.15,5.12-2.47l.6-.32q2.5-1.33,4.91-2.82l.57-.35q2.4-1.51,4.68-3.16l.53-.39q2.27-1.67,4.44-3.49l.51-.43q2.14-1.83,4.17-3.79l.48-.47c.66-.65,1.32-1.31,2-2l0,0c.65-.68,1.28-1.37,1.91-2.07l.45-.5c.61-.69,1.21-1.39,1.8-2.1l0,0c.6-.72,1.18-1.46,1.75-2.2l.42-.55c.55-.73,1.1-1.46,1.63-2.21l0-.06c.54-.76,1.07-1.53,1.59-2.31l.38-.59q.74-1.14,1.46-2.3l.06-.09c.48-.79,1-1.6,1.41-2.41l.35-.63c.43-.78.86-1.57,1.27-2.36l.07-.13c.42-.83.83-1.66,1.23-2.5l.32-.69c.37-.79.73-1.59,1.07-2.4l.07-.16h0A112.67,112.67,0,0,0,357,321.36Z"/><path id="_Path_2" data-name="&lt;Path&gt;" class="cls-1" d="M187.38,274.52a49.87,49.87,0,0,0-46.95-49.79c-1,0-1.95-.05-2.93-.05s-2,0-2.93.05a49.87,49.87,0,0,0-25.17,91,112.35,112.35,0,0,0-52.49,30.49,87.49,87.49,0,0,0,161.17,0,112.33,112.33,0,0,0-52.49-30.49A49.82,49.82,0,0,0,187.38,274.52Z"/><path id="_Compound_Path_" data-name="&lt;Compound Path&gt;" class="cls-2" d="M318.42,199.83a112.49,112.49,0,1,0-186.83,0,112.49,112.49,0,1,0,93.42,183,112.49,112.49,0,1,0,93.42-183ZM137.5,399.65a87.62,87.62,0,0,1-80.59-53.43,112.35,112.35,0,0,1,52.49-30.49,49.87,49.87,0,0,1,25.17-91c1,0,1.95-.05,2.93-.05s2,0,2.93.05a49.87,49.87,0,0,1,25.17,91,112.33,112.33,0,0,1,52.49,30.49A87.62,87.62,0,0,1,137.5,399.65Zm6.91-228.45a112.34,112.34,0,0,1,52.49-30.49,49.87,49.87,0,0,1,25.17-91c1,0,1.95-.05,2.93-.05s2,0,2.93.05a49.87,49.87,0,0,1,25.17,91,112.33,112.33,0,0,1,52.49,30.49,87.49,87.49,0,0,1-161.17,0Zm248.67,175-.07.16c-.34.81-.7,1.61-1.07,2.4l-.32.69c-.4.84-.8,1.67-1.23,2.5l-.07.13c-.41.79-.83,1.58-1.27,2.36l-.35.63c-.46.81-.93,1.62-1.41,2.41l-.06.09q-.71,1.16-1.46,2.3l-.38.59c-.52.78-1,1.55-1.59,2.31l0,.06c-.53.75-1.08,1.48-1.63,2.21l-.42.55c-.57.74-1.15,1.48-1.75,2.2l0,0c-.59.71-1.19,1.41-1.8,2.1l-.45.5c-.63.7-1.26,1.39-1.91,2.07l0,0c-.64.67-1.3,1.33-2,2l-.48.47q-2,2-4.17,3.79l-.51.43q-2.16,1.81-4.44,3.49l-.53.39q-2.29,1.66-4.68,3.16l-.57.35q-2.4,1.49-4.91,2.83l-.6.32q-2.51,1.32-5.12,2.47l-.63.28q-2.61,1.13-5.31,2.1l-.66.23c-.9.31-1.81.62-2.72.9h0c-.91.28-1.83.55-2.75.8-.23.06-.46-.08-.69,0a11.05,11.05,0,0,1-2.8.5h0c-.94,1-1.88.62-2.83.8-.24,0-.48.2-.71.24-1,.18-1.91.4-2.88.55v0c-1,.15-1.93.29-2.9.4-.24,0-.49-.14-.73-.11a26.87,26.87,0,0,1-2.94.09h0c-1,0-2,.33-3,.37-.25,0-.5.12-.75.13-1,0-2,.11-3,.11s-2,0-3,0c-.25,0-.5-.2-.75-.22-1,0-2-.36-3-.36h0a26.87,26.87,0,0,1-2.94-.08c-.24,0-.49,0-.73,0-1-.12-1.94-.19-2.9-.34v0c-1-.15-1.92-.3-2.87-.48l-.72-.13c-.95-.19-1.89-.38-2.82-.59h0c-.94-.22-1.87-.45-2.8-.7l-.69-.19c-.92-.25-1.84-.52-2.75-.8h0c-.91-.28-1.82-.59-2.72-.9l-.67-.24c-.89-.32-1.78-.65-2.66-1h0c-.89-.35-1.76-.72-2.63-1.1l-.64-.28c-.86-.38-1.72-.77-2.56-1.18h0c-.85-.41-1.69-.84-2.53-1.28l-.61-.32c-.83-.44-1.65-.89-2.46-1.36h0c-.82-.47-1.62-1-2.42-1.45l-.58-.36c-.79-.5-1.58-1-2.35-1.53h0c-.78-.53-1.55-1.07-2.31-1.62l-.55-.4c-.75-.55-1.5-1.12-2.23-1.69h0c-.74-.58-1.46-1.18-2.18-1.78l-.52-.44c-.71-.6-1.41-1.21-2.1-1.84h0c-.69-.63-1.38-1.28-2.05-1.93l-.48-.47c-.67-.65-1.32-1.31-2-2h0c-.65-.68-1.28-1.37-1.91-2.07l-.44-.5c-.62-.7-1.23-1.41-1.83-2.13s-1.19-1.47-1.76-2.21c-.13-.17-.37-.35-.5-.52a8.44,8.44,0,0,0-1.77-2.27h0c0-.77-1-1.55-1.51-2.34a87.15,87.15,0,0,1-7.63-14.24,113.33,113.33,0,0,1,16.27-13.81h0a112.38,112.38,0,0,1,17.28-9.92l.06,0q1.21-.56,2.43-1.08l.14-.06q1.18-.51,2.38-1l.22-.09q1.15-.46,2.32-.9l.31-.12,2.27-.81.38-.14,2.21-.73.47-.15,2.15-.65.55-.16,2.11-.58.61-.17.37-.1a49.87,49.87,0,0,1,25.17-91c1,0,1.95-.05,2.93-.05s2,0,2.93.05a49.87,49.87,0,0,1,25.17,91l.38.1.56.15,2.17.6.48.14,2.23.68.39.13q1.15.37,2.28.76l.32.11q1.17.41,2.34.84l.23.09q1.2.45,2.4.93l.14.06q1.23.5,2.45,1l.06,0a112.67,112.67,0,0,1,36.06,24.86h0Z"/><path id="_Path_3" data-name="&lt;Path&gt;" class="cls-1" d="M305.59,171.21a112.33,112.33,0,0,0-52.49-30.49,49.87,49.87,0,0,0-25.17-91c-1,0-1.95-.05-2.93-.05s-2,0-2.93.05a49.87,49.87,0,0,0-25.17,91,112.34,112.34,0,0,0-52.49,30.49,87.49,87.49,0,0,0,161.17,0Z"/></g></svg>