<svg id="Layer_1" data-name="Layer 1" xmlns="http://www.w3.org/2000/svg" viewBox="0 0 450 450"><defs><style>.cls-1{fill:#8795a2;}.cls-2{fill:#18173f;}</style></defs><title>Offtopic</title><g id="_Group_" data-name="&lt;Group&gt;"><path id="_Path_" data-name="&lt;Path&gt;" class="cls-1" d="M41,226,66.81,327h0a71.15,71.15,0,0,0,70.09,60.39c38,0,69.08-30.39,70.81-67.39H208V233l-90.94-91.4Z"/><path id="_Path_2" data-name="&lt;Path&gt;" class="cls-1" d="M33.58,196.91,104,118.66V83h25v35.3l79,79.28V151h-.25v.06A91.4,91.4,0,1,0,30.87,186.25h0Z"/><polygon id="_Path_3" data-name="&lt;Path&gt;" class="cls-2" points="129 83 104 83 104 118.66 33.58 196.91 41.02 226.02 117.06 141.64 208 233.04 208 197.57 129 118.3 129 83"/><path id="_Path_4" data-name="&lt;Path&gt;" class="cls-1" d="M321,83h25v35.7L416.44,197l2.71-10.67h-.24a11.37,11.37,0,0,0,1.09-3.8h0c2-3.82,2.49-7.76,3.24-11.79,0,0,.13-.05.13-.08.23-1.27.49-2.54.67-3.83,0-.13.07-.27.09-.4.17-1.23.32-2.48.44-3.72,0-.17,0-.35.05-.52.11-1.24.2-2.49.26-3.75,0-.15,0-.29,0-.44.06-1.31.09-2.62.09-3.95a91.47,91.47,0,0,0-91.47-91.46c-1.36,0-2.71,0-4.06.09l-.4,0c-1.28.06-2.55.15-3.81.27l-.57.05q-1.85.18-3.68.43l-.62.09q-1.82.26-3.62.59l-.57.11c-1.22.23-2.43.49-3.62.77l-.42.1c-1.25.3-2.49.62-3.72,1l-.1,0q-1.85.53-3.67,1.14l-.29.09c-1.18.4-2.34.82-3.5,1.26l-.47.18q-1.68.65-3.33,1.37l-.52.23q-1.64.73-3.24,1.51l-.48.24q-1.63.81-3.21,1.68l-.36.2q-1.65.91-3.26,1.89l-.09.06q-1.66,1-3.26,2.09l-.11.07q-1.57,1.05-3.08,2.17l-.3.22q-1.47,1.09-2.9,2.24l-.35.28q-1.41,1.15-2.78,2.35l-.32.28q-1.38,1.23-2.71,2.51l-.22.21q-1.38,1.34-2.7,2.73h0q-2.74,2.89-5.22,6l-.09.11q-1.19,1.51-2.32,3.06l-.16.21q-1.11,1.54-2.17,3.13l-.14.22q-1.06,1.61-2.05,3.27l-.08.13a91.05,91.05,0,0,0-7,14.56l0,.09q-.7,1.88-1.33,3.79l0,.13q-.62,1.92-1.16,3.88v.05a91,91,0,0,0-2.48,12.29q-.59,4.49-.73,9.1l0,46.47L321,118.34Z"/><path id="_Path_5" data-name="&lt;Path&gt;" class="cls-1" d="M242.16,320c0,.77.1,1.48.16,2.24,0,.42.05.81.1,1.23.07.73.17,1.44.26,2.17.06.44.1.88.17,1.31.1.7.23,1.39.36,2.09.08.45.15.91.24,1.36.13.68.29,1.34.44,2,.11.46.2.92.32,1.38.16.65.35,1.3.53,1.94.13.46.25.93.39,1.39.19.63.4,1.25.61,1.87.15.46.3.93.47,1.38.22.61.45,1.21.69,1.82s.35.92.54,1.37.5,1.17.76,1.75.4.91.61,1.36.55,1.13.83,1.69.45.9.69,1.34.59,1.09.9,1.62.5.89.76,1.32.63,1,1,1.56.55.87.83,1.3.67,1,1,1.5.6.85.9,1.27.71,1,1.08,1.43.64.83,1,1.24.75.92,1.13,1.37l1,1.2q.58.66,1.18,1.3l1.11,1.16q.61.62,1.23,1.23l1.18,1.12c.42.39.84.78,1.27,1.16l1.24,1.08c.43.37.87.73,1.31,1.09l1.31,1c.45.34.9.69,1.35,1s.91.65,1.37,1,.92.64,1.38.95,1,.62,1.43.92.94.59,1.42.88,1,.58,1.49.86,1,.54,1.45.8,1,.53,1.55.79,1,.5,1.47.73,1.07.49,1.61.73,1,.45,1.5.66,1.11.44,1.67.66,1,.39,1.52.58,1.15.39,1.73.59,1,.34,1.52.5,1.2.34,1.8.51,1,.29,1.53.42,1.25.29,1.87.43,1,.24,1.51.34,1.31.24,2,.35c.5.09,1,.18,1.48.26.69.1,1.39.18,2.09.27.47.06.94.13,1.42.17.78.08,1.56.13,2.35.18l1.21.09q1.79.09,3.6.09c1.17,0,2.33,0,3.49-.09l1.15-.08c.77,0,1.54-.1,2.3-.17l1.35-.15c.69-.08,1.38-.16,2.06-.26l1.41-.23c.65-.11,1.31-.22,2-.35l1.42-.3,1.89-.44,1.4-.36,1.86-.53,1.36-.42c.62-.2,1.24-.41,1.85-.63l1.3-.46c.64-.24,1.27-.49,1.9-.75l1.18-.48c.71-.3,1.4-.62,2.09-.95l.91-.42q1.48-.72,2.92-1.5l.47-.26c.8-.44,1.6-.89,2.38-1.37l1-.62c.6-.37,1.19-.75,1.78-1.14l1.09-.75c.53-.37,1.06-.74,1.59-1.13l1.11-.84c.5-.38,1-.77,1.48-1.16l1.09-.9q.71-.6,1.41-1.22l1-.95q.69-.63,1.35-1.29l1-1c.45-.45.88-.91,1.31-1.38s.62-.66.92-1c.45-.5.88-1,1.31-1.51.27-.32.55-.63.81-1,.49-.6,1-1.21,1.44-1.83.19-.25.39-.49.57-.74q1-1.3,1.88-2.64c.17-.25.32-.5.49-.75.43-.66.86-1.32,1.28-2,.22-.37.43-.74.65-1.11.34-.57.67-1.14,1-1.73.23-.41.44-.83.66-1.24s.58-1.11.86-1.67.42-.88.63-1.32.51-1.11.76-1.68.39-.91.58-1.37.45-1.13.67-1.7.35-.94.52-1.41.4-1.15.59-1.74.31-1,.46-1.44.35-1.2.51-1.8.27-1,.39-1.43c.16-.63.3-1.28.44-1.92.1-.46.21-.91.3-1.37.15-.75.28-1.5.4-2.26.06-.36.13-.72.19-1.08v0h0l25.81-101-76-84.44-90.88,91.44,0,83.45.08,3.43h0S242.15,319.95,242.16,320Z"/><polygon id="_Path_6" data-name="&lt;Path&gt;" class="cls-2" points="408.97 226.12 416.44 197.01 346 118.7 346 83 321 83 321 118.34 242.14 197.65 242.11 233.12 332.98 141.68 408.97 226.12"/></g></svg>