<svg id="Layer_1" data-name="Layer 1" xmlns="http://www.w3.org/2000/svg" viewBox="0 0 450 450"><defs><style>.cls-1{fill:none;}.cls-2{fill:#8795a2;}.cls-3{fill:#18173f;}</style></defs><title>Pool</title><g id="_Group_" data-name="&lt;Group&gt;"><path id="_Path_" data-name="&lt;Path&gt;" class="cls-1" d="M299.94,228.49c-.1,2.12-.3,4.24-.59,6.34A37.15,37.15,0,0,0,299.94,228.49Z"/><path id="_Path_2" data-name="&lt;Path&gt;" class="cls-2" d="M387.46,159.94a177,177,0,0,1,10.9,41A173.53,173.53,0,0,0,387.46,159.94Z"/><path id="_Path_3" data-name="&lt;Path&gt;" class="cls-2" d="M210.2,151.47a75.28,75.28,0,0,1,26.2-.61,73.08,73.08,0,0,0-26.2.61Z"/><path id="_Path_4" data-name="&lt;Path&gt;" class="cls-2" d="M299.94,228.49q0-.6,0-1.21a75.19,75.19,0,0,1-.63,7.67l0-.12C299.64,232.73,299.84,230.61,299.94,228.49Z"/><path id="_Path_5" data-name="&lt;Path&gt;" class="cls-2" d="M62.53,290a177,177,0,0,1-10.88-41A173.53,173.53,0,0,0,62.53,290Z"/><polygon id="_Path_6" data-name="&lt;Path&gt;" class="cls-2" points="392.33 276.22 392.33 276.23 392.33 276.23 392.33 276.22"/><path id="_Path_7" data-name="&lt;Path&gt;" class="cls-2" d="M298.77,383.67A176,176,0,0,0,389.38,285l-93.94-34.24A75.42,75.42,0,0,1,254.36,294c.76-.32,1.51-.65,2.26-1Z"/><path id="_Path_8" data-name="&lt;Path&gt;" class="cls-2" d="M394,270.48v0h0Z"/><polygon id="_Path_9" data-name="&lt;Path&gt;" class="cls-2" points="392.82 274.62 392.82 274.62 392.82 274.62 392.82 274.62"/><polygon id="_Path_10" data-name="&lt;Path&gt;" class="cls-2" points="389.39 285.03 389.39 285.03 389.45 284.86 389.45 284.86 389.45 284.86 389.39 285.03"/><path id="_Path_11" data-name="&lt;Path&gt;" class="cls-2" d="M290,387.49a177,177,0,0,1-41,10.87A173.54,173.54,0,0,0,290,387.49Z"/><path id="_Path_12" data-name="&lt;Path&gt;" class="cls-2" d="M66.35,298.83a176,176,0,0,0,98.56,90.53L175,362l24-66.58h0l.07.28.1-.28A75.42,75.42,0,0,1,156,254.36c.33.77.66,1.53,1,2.28Z"/><path id="_Path_13" data-name="&lt;Path&gt;" class="cls-2" d="M239.78,298.54a75.25,75.25,0,0,1-26.16.61,73.08,73.08,0,0,0,26.16-.61Z"/><path id="_Path_14" data-name="&lt;Path&gt;" class="cls-2" d="M151.46,239.78a75.27,75.27,0,0,1-.61-26.18,73.09,73.09,0,0,0,.61,26.18Z"/><path id="_Path_15" data-name="&lt;Path&gt;" class="cls-2" d="M383.6,151.07a176,176,0,0,0-98.3-90.34L267.78,107.6,251,154.65l-.15-.05a75.42,75.42,0,0,1,43.13,41c-.33-.78-.67-1.55-1-2.32Z"/><path id="_Path_16" data-name="&lt;Path&gt;" class="cls-2" d="M60.55,165.14l-.13.37.22-.58h0Z"/><path id="_Path_17" data-name="&lt;Path&gt;" class="cls-2" d="M151.12,66.38a176,176,0,0,0-90.48,98.56l29.23,10.79,64.67,23.56A75.42,75.42,0,0,1,195.64,156c-.78.33-1.55.67-2.31,1Z"/><path id="_Path_18" data-name="&lt;Path&gt;" class="cls-2" d="M160,62.53a177,177,0,0,1,41-10.87A173.52,173.52,0,0,0,160,62.53Z"/><path id="_Path_19" data-name="&lt;Path&gt;" class="cls-3" d="M154.54,200l0-.28-.09.24.12,0Z"/><path id="_Path_20" data-name="&lt;Path&gt;" class="cls-3" d="M50.94,243.24c.07.69.15,1.37.24,2.05.13,1.06.25,2.12.39,3.17l.07.53a177,177,0,0,0,10.88,41l.14.34q.71,1.75,1.45,3.49c.29.67.58,1.33.87,2l.77,1.72c.19.42.37.85.57,1.27h0L157,256.64c-.35-.75-.68-1.52-1-2.28l-.22-.53q-.58-1.4-1.12-2.83c-.11-.29-.2-.58-.31-.86q-.38-1.05-.72-2.12c-.15-.46-.3-.92-.44-1.39q-.33-1.1-.63-2.21c-.1-.37-.2-.73-.29-1.1q-.35-1.4-.65-2.83l-.15-.71a73.09,73.09,0,0,1-.61-26.18v0c.17-1.11.37-2.21.59-3.3,0-.21.08-.42.13-.63.18-.86.39-1.72.6-2.57.09-.37.17-.73.27-1.1.17-.66.37-1.31.56-2s.28-1,.44-1.51c.09-.28.19-.55.28-.82.23-.69.45-1.1.69-1.72L89.87,176.08l-29.24-11-.08.12C58.83,170,57.32,174.7,56,179.52l-.13.46c-.26,1-.51,1.93-.75,2.9l-.31,1.28c-.19.77-.37,1.54-.54,2.31s-.33,1.5-.49,2.26c-.1.49-.21,1-.31,1.45A173.94,173.94,0,0,0,50,225c0,5.68.3,11.37.86,17C50.86,242.43,50.9,242.83,50.94,243.24Z"/><path id="_Path_21" data-name="&lt;Path&gt;" class="cls-3" d="M199,295.42,175,362l-10,27.35v0l.22.07c1.58.57,3.16,1.12,4.75,1.64l.77.25q1.76.57,3.52,1.11l1,.3c1.44.43,2.88.84,4.32,1.23l.45.12c1,.26,2,.51,2.94.76l1.26.31,2.34.55,2.22.48,1.5.32A174,174,0,0,0,225,400c5.67,0,11.35-.3,17-.86l1.23-.12,2-.23c1.07-.13,2.14-.25,3.2-.4l.5-.07a177,177,0,0,0,41-10.87l.29-.12q1.78-.71,3.54-1.47l2-.88,1.7-.76,1.25-.56v0L256.62,293c-.75.35-1.5.68-2.26,1l-.55.23q-1.37.57-2.77,1.1l-.91.33q-1,.37-2.1.71l-1.4.44q-1.1.33-2.2.63l-1.11.29q-1.4.35-2.81.65l-.72.15a73.08,73.08,0,0,1-26.16.61h-.05c-1.1-.17-2.19-.37-3.27-.59l-.65-.13c-.86-.18-1.7-.38-2.55-.59l-1.12-.28c-.65-.17-1.29-.36-1.93-.55s-1-.29-1.54-.45c-.34-.11-.67,0-1-.08a7,7,0,0,0-2.14-.47h-.21l-.07-.3-.07-.28Z"/><path id="_Path_22" data-name="&lt;Path&gt;" class="cls-3" d="M267.78,107.6,285.3,60.73h0l-.64-.23-.33-.12-.5-.18q-1.76-.63-3.52-1.22l-1.54-.5-2.68-.84-1.58-.48c-1.37-.41-2.75-.8-4.13-1.17l-.44-.12c-1-.26-1.92-.5-2.88-.74l-1.3-.32-2.26-.53-2.27-.49-1.44-.3A173.94,173.94,0,0,0,225,50c-5.7,0-11.4.3-17.09.87l-1.14.11-2.13.24c-1,.12-2.07.24-3.1.39l-.62.09a177,177,0,0,0-41,10.87l-.51.21q-1.67.67-3.32,1.38l-2.07.91-1.62.73-1.34.6v0L193.33,157c.76-.36,1.54-.69,2.31-1l.51-.21q1.42-.59,2.87-1.13l.82-.29q1.08-.38,2.17-.74l1.34-.42q1.12-.34,2.26-.64l1.06-.28q1.42-.36,2.86-.66l.67-.14a73.08,73.08,0,0,1,26.2-.61h0c1.11.17,2.22.37,3.32.59l.62.12c.87.18,1.73.39,2.59.6l1.08.27c.67.18,1.33.37,2,.57.49.14,1,.28,1.48.43s1,.34,1.5.51,1.11.36,1.66.56l.22.08.15.05Z"/><path id="_Path_23" data-name="&lt;Path&gt;" class="cls-3" d="M389.39,285l.07-.18h0c0-.12.18-.25.23-.37s.32-.43.32-.65h0c0-1.12,1-2.25,1-3.38h0a5.09,5.09,0,0,1,.46-1.42c0-.05-.14-.1-.12-.15a9,9,0,0,0,.67-2.65h0a1.65,1.65,0,0,1,.66-1.23h.08a22,22,0,0,1,1.21-4h0c0-1,0-.26,0-.27s.08-.4.12-.54c.27-1,.52-2,.77-3,.1-.4.2-.83.3-1.23.19-.79.38-1.6.56-2.4s.32-1.45.47-2.16c.11-.52.22-1,.33-1.56A174,174,0,0,0,400,225c0-5.66-.3-11.33-.86-17,0-.43-.08-.87-.13-1.3-.07-.67-.15-1.34-.23-2-.13-1.08-.26-2.16-.4-3.23l-.07-.51a177,177,0,0,0-10.9-41l-.21-.52q-.67-1.66-1.38-3.3c-.29-.69-.6-1.37-.9-2l-.74-1.64c-.21-.45-.4-.91-.61-1.36h0L293,193.31c.36.77.7,1.54,1,2.32l.23.54q.59,1.4,1.12,2.83c.11.28.2.57.3.86q.38,1.05.72,2.12.23.7.44,1.41.33,1.08.62,2.18c.1.37.2.73.29,1.1q.35,1.4.65,2.82l.15.72A74.43,74.43,0,0,1,300,225c0,.76,0,1.52,0,2.27q0,.6,0,1.21a37.15,37.15,0,0,1-.59,6.34l0,.12c-.1.48-.21,1-.34,1.45h0a17.19,17.19,0,0,1-.53,3.36c0,.18,0,.37-.08.55-.19.91-.38,1.81-.61,2.71-.08.32-.14.64-.23,1-.19.73-.4,1.46-.62,2.19-.13.43-.24.86-.37,1.29-.19.59-.39,1.17-.6,1.76s-.3.93-.47,1.38l-.07.18h0L389.38,285Z"/></g></svg>