<svg id="Layer_1" data-name="Layer 1" xmlns="http://www.w3.org/2000/svg" viewBox="0 0 450 450"><defs><style>.cls-1{fill:none;}.cls-2{fill:#8795a2;}</style></defs><title>Program options 1</title><g id="_Group_" data-name="&lt;Group&gt;"><path id="_Path_" data-name="&lt;Path&gt;" class="cls-1" d="M275.28,128.14c0-23.2-16.28-42.76-37.28-48.32V128H213V79.82a49.89,49.89,0,1,0,62.28,48.32Z"/><path id="_Path_2" data-name="&lt;Path&gt;" class="cls-1" d="M119.17,371.65A49.93,49.93,0,0,0,132,273.42V322H107V273.42a49.88,49.88,0,0,0,12.17,98.22Z"/><path id="_Path_3" data-name="&lt;Path&gt;" class="cls-1" d="M344,273.42V322H319V273.42a49.89,49.89,0,0,0,12.35,98.22,50,50,0,0,0,50-49.91C381.33,298.54,365,279,344,273.42Z"/><path id="_Compound_Path_" data-name="&lt;Compound Path&gt;" class="cls-2" d="M58.15,365l-14,14.09,17.68,17.71,14.19-14a71.73,71.73,0,0,0,31,12.83V415h25V395.58a75.8,75.8,0,0,0,30.69-12.81l13.95,14,17.64-17.68-14-14.15A71.51,71.51,0,0,0,193,334h20V309H193a76,76,0,0,0-12.81-30.73l14-14-17.68-17.65-13.87,14A75.76,75.76,0,0,0,132,247.9V228H107v19.9a71.7,71.7,0,0,0-31,12.81l-14.11-14L44.16,264.36l14,13.91A76,76,0,0,0,45.33,309H26v25H45.33A71.54,71.54,0,0,0,58.15,365ZM107,273.42V322h25V273.42a49.93,49.93,0,0,1-12.74,98.22A49.89,49.89,0,0,1,107,273.42Z"/><path id="_Compound_Path_2" data-name="&lt;Compound Path&gt;" class="cls-2" d="M344,247.9V228H319v19.9a71.44,71.44,0,0,0-30.95,12.81l-14.08-14-17.7,17.68,14,13.91A76,76,0,0,0,257.46,309H238v25h19.46a71.54,71.54,0,0,0,12.81,31l-14,14.09,17.68,17.71,14.13-14A71.46,71.46,0,0,0,319,395.58V415h25V395.58a76.06,76.06,0,0,0,30.75-12.81l14,14,17.65-17.68-14-14.15a71.52,71.52,0,0,0,12.8-31H425V309H405.15a76,76,0,0,0-12.81-30.73l14-14-17.68-17.65-13.93,14A76,76,0,0,0,344,247.9ZM331.31,371.65A49.89,49.89,0,0,1,319,273.42V322h25V273.42c21,5.56,37.31,25.12,37.31,48.32A50,50,0,0,1,331.31,371.65Z"/><path id="_Compound_Path_3" data-name="&lt;Compound Path&gt;" class="cls-2" d="M238,222V202a75.93,75.93,0,0,0,30.72-12.81l14,14,17.65-17.68-14-13.85A75.69,75.69,0,0,0,299.08,141H319V116H299.08a71.77,71.77,0,0,0-12.81-31l14-14.12L282.62,53.13l-13.9,14A76,76,0,0,0,238,54.3V34H213V54.3a71.57,71.57,0,0,0-31,12.81l-14.09-14L150.22,70.76l14,14.21a71.79,71.79,0,0,0-12.83,31H132v25h19.4a75.73,75.73,0,0,0,12.81,30.67l-14,13.94,17.68,17.63L182,189.19A71.55,71.55,0,0,0,213,202v20Zm-62.54-93.86A49.54,49.54,0,0,1,213,79.82V128h25V79.82c21,5.56,37.28,25.12,37.28,48.32a49.91,49.91,0,1,1-99.81,0Z"/></g></svg>