<svg id="Layer_1" data-name="Layer 1" xmlns="http://www.w3.org/2000/svg" viewBox="0 0 450 450"><defs><style>.cls-1{fill:none;}.cls-2{fill:#132f4b;}.cls-3{fill:#18173f;}.cls-4{fill:#8795a2;}</style></defs><title>Program options 2</title><g id="_Group_" data-name="&lt;Group&gt;"><path id="_Path_" data-name="&lt;Path&gt;" class="cls-1" d="M125.17,125.14a25,25,0,1,0-25-25A25,25,0,0,0,125.17,125.14Z"/><path id="_Path_2" data-name="&lt;Path&gt;" class="cls-1" d="M325.19,250.16a25,25,0,1,0-25-25A25,25,0,0,0,325.19,250.16Z"/><path id="_Path_3" data-name="&lt;Path&gt;" class="cls-1" d="M125.17,375.16a25,25,0,1,0-25-25A25,25,0,0,0,125.17,375.16Z"/><path id="_Path_4" data-name="&lt;Path&gt;" class="cls-2" d="M75.19,100.48c0-.05,0-.11,0-.16s0-.11,0-.16A50.05,50.05,0,0,1,76.69,88H25v25H76.77A50,50,0,0,1,75.19,100.48Z"/><path id="_Path_5" data-name="&lt;Path&gt;" class="cls-3" d="M175.14,100.32c0,.05,0,.11,0,.16A50,50,0,0,1,173.56,113H425V88H173.64a50.05,50.05,0,0,1,1.5,12.16C175.14,100.21,175.14,100.26,175.14,100.32Z"/><path id="_Path_6" data-name="&lt;Path&gt;" class="cls-2" d="M375.16,225.34c0,.05,0,.11,0,.16a50.11,50.11,0,0,1-1.58,12.5H425V213H373.66a50.06,50.06,0,0,1,1.5,12.18C375.17,225.23,375.16,225.29,375.16,225.34Z"/><path id="_Path_7" data-name="&lt;Path&gt;" class="cls-3" d="M275.21,225.5c0-.05,0-.11,0-.16s0-.11,0-.16a50.06,50.06,0,0,1,1.5-12.18H25v25H276.78A50.11,50.11,0,0,1,275.21,225.5Z"/><path id="_Path_8" data-name="&lt;Path&gt;" class="cls-2" d="M75.19,350.5c0-.05,0-.11,0-.16s0-.11,0-.16A50.06,50.06,0,0,1,76.69,338H25v25H76.76A50.1,50.1,0,0,1,75.19,350.5Z"/><path id="_Path_9" data-name="&lt;Path&gt;" class="cls-3" d="M175.14,350.34c0,.05,0,.11,0,.16a50.1,50.1,0,0,1-1.58,12.5H425V338H173.64a50.06,50.06,0,0,1,1.5,12.18C175.14,350.23,175.14,350.29,175.14,350.34Z"/><path id="_Compound_Path_" data-name="&lt;Compound Path&gt;" class="cls-4" d="M75.19,100.32a50,50,0,0,0,99.95,0c0-.05,0-.11,0-.16A50.05,50.05,0,0,0,173.64,88c0-.11,0-.22-.07-.32a50,50,0,0,0-96.82,0c0,.11,0,.22-.07.32a50.05,50.05,0,0,0-1.5,12.16C75.19,100.21,75.19,100.26,75.19,100.32Zm50-25.14a25,25,0,1,1-25,25A25,25,0,0,1,125.17,75.18Z"/><path id="_Compound_Path_2" data-name="&lt;Compound Path&gt;" class="cls-4" d="M75.19,350.34a50,50,0,0,0,99.95,0c0-.05,0-.11,0-.16a50.06,50.06,0,0,0-1.5-12.18c0-.11,0-.22-.07-.32a50,50,0,0,0-96.8,0c0,.11,0,.21-.07.32a50.06,50.06,0,0,0-1.5,12.18C75.19,350.23,75.19,350.29,75.19,350.34Zm50-25.14a25,25,0,1,1-25,25A25,25,0,0,1,125.17,325.2Z"/><path id="_Compound_Path_3" data-name="&lt;Compound Path&gt;" class="cls-4" d="M275.21,225.34a50,50,0,0,0,99.95,0c0-.05,0-.11,0-.16a50.06,50.06,0,0,0-1.5-12.18c0-.11,0-.22-.07-.32a50,50,0,0,0-96.8,0c0,.11,0,.21-.07.32a50.06,50.06,0,0,0-1.5,12.18C275.21,225.23,275.21,225.29,275.21,225.34Zm50-25.14a25,25,0,1,1-25,25A25,25,0,0,1,325.19,200.2Z"/></g></svg>