<svg id="Layer_1" data-name="Layer 1" xmlns="http://www.w3.org/2000/svg" viewBox="0 0 450 450"><defs><style>.cls-1{fill:#132f4b;}.cls-2{fill:#18173f;}.cls-3{fill:#8795a2;}</style></defs><title>Proof of work mining</title><g id="_Group_" data-name="&lt;Group&gt;"><path id="_Path_" data-name="&lt;Path&gt;" class="cls-1" d="M122.89,89.12l0,0A25,25,0,0,0,89.08,123,200.84,200.84,0,0,1,122.89,89.12Z"/><path id="_Path_2" data-name="&lt;Path&gt;" class="cls-2" d="M146.44,181.8,340.89,376.23a25,25,0,0,0,35.35-35.36L181.8,146.45Z"/><path id="_Path_3" data-name="&lt;Path&gt;" class="cls-3" d="M119.93,172.95l17.68,17.68,8.82-8.82,35.36-35.36,8.85-8.85L173,119.92l8.6-8.82L246,46.45h0A197.57,197.57,0,0,0,122.93,89.09l0,0A200.84,200.84,0,0,0,89.08,123l0,0A199.45,199.45,0,0,0,46.42,246.45l64.65-64.64Z"/></g></svg>