<svg id="Layer_1" data-name="Layer 1" xmlns="http://www.w3.org/2000/svg" viewBox="0 0 450 450"><defs><style>.cls-1{fill:none;}.cls-2{fill:#18173f;}.cls-3{fill:#8795a2;}</style></defs><title>Questions</title><g id="_Group_" data-name="&lt;Group&gt;"><path id="_Path_" data-name="&lt;Path&gt;" class="cls-1" d="M275,200v0a49.7,49.7,0,0,0-8.94-28.47,50.26,50.26,0,0,0-41.33-21.59,50.06,50.06,0,1,1,0,100.12A50.16,50.16,0,0,0,275,200Z"/><path id="_Compound_Path_" data-name="&lt;Compound Path&gt;" class="cls-2" d="M224.74,25c-110.46,0-200,89.55-200,200s89.54,200,200,200h200l-59.21-58a199.38,199.38,0,0,0,59.21-142C424.74,114.53,335.19,25,224.74,25ZM237,350H212V325h25Zm0-75.59V300H212V250h12.74a50.06,50.06,0,1,0,0-100.12c-27.7,0-50.23,23.12-50.23,50.12h-25c0-41,33.75-75.12,75.23-75.12A75.29,75.29,0,0,1,237,274.41Z"/><path id="_Path_2" data-name="&lt;Path&gt;" class="cls-3" d="M224.74,124.88c-41.48,0-75.23,34.12-75.23,75.12h25c0-27,22.53-50.12,50.23-50.12a50.26,50.26,0,0,1,41.33,21.59A49.7,49.7,0,0,1,275,199.94v0a50.16,50.16,0,0,1-50.26,50H212v50h25V274.41a75.29,75.29,0,0,0-12.26-149.54Z"/><rect id="_Path_3" data-name="&lt;Path&gt;" class="cls-3" x="212" y="325" width="25" height="25"/></g></svg>