<svg id="Layer_1" data-name="Layer 1" xmlns="http://www.w3.org/2000/svg" viewBox="0 0 450 450"><defs><style>.cls-1{fill:none;}.cls-2{fill:#8795a2;}.cls-3{fill:#18173f;}</style></defs><title>Receive funds</title><g id="_Group_" data-name="&lt;Group&gt;"><path id="_Path_" data-name="&lt;Path&gt;" class="cls-1" d="M220.15,199.48l1.11.89Z"/><path id="_Path_2" data-name="&lt;Path&gt;" class="cls-1" d="M218.74,198.35l.37.28Z"/><path id="_Path_3" data-name="&lt;Path&gt;" class="cls-1" d="M254.09,245.14l.27.66Z"/><path id="_Path_4" data-name="&lt;Path&gt;" class="cls-1" d="M253.35,243.34a112.5,112.5,0,0,0-31.77-42.71A112.81,112.81,0,0,1,253.35,243.34Z"/><polygon id="_Path_5" data-name="&lt;Path&gt;" class="cls-1" points="149.7 224.68 84.59 289.76 102.21 307.44 84.65 289.76 149.7 224.68"/><path id="_Path_6" data-name="&lt;Path&gt;" class="cls-2" d="M92.24,100H362V79.93A29.86,29.86,0,0,0,332.2,50h-240A30.12,30.12,0,0,0,62.67,75,30.15,30.15,0,0,0,92.24,100Z"/><path id="_Path_7" data-name="&lt;Path&gt;" class="cls-3" d="M412,319.39V287.18c-34,0-62.5-28-62.5-62.5s28.5-62.5,62.5-62.5V129.91A29.8,29.8,0,0,0,382.24,100h-290a30,30,0,0,1-29.4-25L63,75v0h-.17c-.06.36-.2.71-.24,1.08,0,.09-.07.19-.08.28,0,.31-.09.63-.12.94s0,.39-.06.59-.16.47-.17.71c0,.46-.16.92-.16,1.38V216.49A112.82,112.82,0,0,1,149.61,175h.12a111.87,111.87,0,0,1,69,23.5c.12.09.25.11.37.21.35.28.7.52,1,.8s.74.57,1.11.87l.32.26a112.48,112.48,0,0,1,31.77,42.7c.25.59.49,1.19.73,1.79l.27.66A112.64,112.64,0,0,1,243.71,349H382.24A29.55,29.55,0,0,0,412,319.39Z"/><path id="_Path_8" data-name="&lt;Path&gt;" class="cls-2" d="M349.5,224.68c0,34.52,28.5,62.5,62.5,62.5v-125C378,162.18,349.5,190.16,349.5,224.68Z"/><path id="_Compound_Path_" data-name="&lt;Compound Path&gt;" class="cls-2" d="M254.35,245.79l-.27-.66c-.24-.6-.48-1.2-.73-1.79a112.81,112.81,0,0,0-31.77-42.71l-.32-.27-1.11-.89-1-.84c-.12-.1-.25,0-.37-.13a111.87,111.87,0,0,0-69-23.5h-.06a112.36,112.36,0,1,0,93.79,174.41l.25-.4a112.66,112.66,0,0,0,10.64-103.22ZM197,307.43l-35-34.9V357H137V272.53l-34.79,34.9L84.59,289.76l65.11-65.08,65.05,65.08Z"/><polygon id="_Path_9" data-name="&lt;Path&gt;" class="cls-3" points="84.65 289.76 102.21 307.44 137 272.53 137 357 162 357 162 272.53 197.02 307.44 214.75 289.76 149.7 224.68 84.65 289.76"/></g></svg>