<svg id="Layer_1" data-name="Layer 1" xmlns="http://www.w3.org/2000/svg" viewBox="0 0 450 450"><defs><style>.cls-1{fill:#18173f;}.cls-2{fill:#8795a2;}.cls-3{fill:#fff;}</style></defs><title>Rocket</title><g id="_Group_" data-name="&lt;Group&gt;"><path id="_Path_" data-name="&lt;Path&gt;" class="cls-1" d="M75,424.94l50-100,35.36-13.08a198.87,198.87,0,0,1-32.43-79.26L75,274.94Z"/><path id="_Path_2" data-name="&lt;Path&gt;" class="cls-1" d="M289.64,311.86,325,324.94l50,100v-150L322.33,231A198.86,198.86,0,0,1,289.64,311.86Z"/><path id="_Compound_Path_" data-name="&lt;Compound Path&gt;" class="cls-2" d="M225,25a199.78,199.78,0,0,0-64.64,286.68A107.93,107.93,0,0,0,168.07,322h-.5l-5,28h53.08v-.06L212,322.28V274.94l12.5-21.37L237,274.94v45.2L233.95,350h53.51l-5-28h-.5a107.86,107.86,0,0,0,7.71-10.28A198.56,198.56,0,0,0,322.33,231,200.19,200.19,0,0,0,225,25Zm62.5,149.91a62.5,62.5,0,1,1-62.5-62.5A62.5,62.5,0,0,1,287.5,174.94Z"/><polygon id="_Path_3" data-name="&lt;Path&gt;" class="cls-2" points="230.96 375 227.98 400 300 400 300 375 292 375 230.96 375"/><polygon id="_Path_4" data-name="&lt;Path&gt;" class="cls-2" points="218.79 375 158 375 150 375 150 400 221.9 400 221.89 399.94 218.79 375"/><polygon id="_Path_5" data-name="&lt;Path&gt;" class="cls-3" points="218.79 375 218.79 374.94 215.63 350 162.54 350 150 350 150 375 158 375 218.79 375"/><polygon id="_Path_6" data-name="&lt;Path&gt;" class="cls-3" points="230.96 375 292 375 300 375 300 350 287.46 350 233.95 350 230.96 375"/><g id="_Group_2" data-name="&lt;Group&gt;"><circle id="_Path_7" data-name="&lt;Path&gt;" class="cls-1" cx="225" cy="174.94" r="62.5"/></g><polygon id="_Path_8" data-name="&lt;Path&gt;" class="cls-1" points="224.5 253.58 212 274.94 212 322.28 215.62 349.94 215.63 350 218.79 374.94 218.79 375 221.89 399.94 221.9 400 224.97 424.94 227.97 399.94 230.83 374.94 233.7 349.94 237 320.15 237 274.94 224.5 253.58"/></g></svg>