<svg id="Layer_1" data-name="Layer 1" xmlns="http://www.w3.org/2000/svg" viewBox="0 0 450 450"><defs><style>.cls-1{fill:#18173f;}.cls-2{fill:#8795a2;}</style></defs><title>See also sources</title><g id="_Group_" data-name="&lt;Group&gt;"><path id="_Path_" data-name="&lt;Path&gt;" class="cls-1" d="M50.37,52.24h0c0,.2,0,.39,0,.59s-.16.47-.17.71c0,.46-.16.92-.16,1.38V394.67A30.58,30.58,0,0,0,80.24,425H400V75H200V224.67l-37.5-25-37.5,25V75H80.24a29.9,29.9,0,0,1-3.9-.31c-.36,0-.73,0-1.1,0A25,25,0,0,1,50.37,52.24Z"/><path id="_Path_2" data-name="&lt;Path&gt;" class="cls-2" d="M125,75V224.67l37.5-25,37.5,25V75H400.24l-25-50h-295c-.41,0-.82,0-1.23,0a25.25,25.25,0,0,0-3.77-.3,25,25,0,1,0,0,50c.37,0,.73,0,1.1,0a29.9,29.9,0,0,0,3.9.31Z"/></g></svg>