<svg id="Layer_1" data-name="Layer 1" xmlns="http://www.w3.org/2000/svg" viewBox="0 0 450 450"><defs><style>.cls-1{fill:none;}.cls-2{fill:#8795a2;}.cls-3{fill:#18173f;}</style></defs><title>Sell Goods</title><g id="_Group_" data-name="&lt;Group&gt;"><circle id="_Path_" data-name="&lt;Path&gt;" class="cls-1" cx="390.8" cy="218.61" r="12.5"/><path id="_Path_2" data-name="&lt;Path&gt;" class="cls-2" d="M299,342.74l65.46-57.4c.48-.43.95-.87,1.4-1.31l-16.59,14.57a30,30,0,0,1-19.8,7.41H75V175H25V350H279.23A29.81,29.81,0,0,0,299,342.74Z"/><path id="_Compound_Path_" data-name="&lt;Compound Path&gt;" class="cls-3" d="M329.49,306a30,30,0,0,0,19.8-7.41L365.88,284l48.87-42.9a30,30,0,0,0,0-45.05l-65.46-57.55a30.05,30.05,0,0,0-19.8-7.51H75V306Zm61.3-99.89a12.5,12.5,0,1,1-12.5,12.5A12.5,12.5,0,0,1,390.8,206.11ZM255.26,156a50.68,50.68,0,0,1,19.08,97.62L305.92,281H269.79l-54.56-47h40a27,27,0,0,0,0-54H242.51l-27.28-24Zm-75.05,0,54.56,47h-40a27,27,0,0,0,0,54h12.75l27.28,24h-40a50.65,50.65,0,0,1-19.08-97.57L144.08,156Z"/><path id="_Path_3" data-name="&lt;Path&gt;" class="cls-2" d="M242.51,180h12.76a27,27,0,0,1,0,54h-40l54.56,47h36.13l-31.57-27.35A50.7,50.7,0,0,0,255.26,156h-40Z"/><path id="_Path_4" data-name="&lt;Path&gt;" class="cls-2" d="M175.65,183.46A50.63,50.63,0,0,0,194.74,281h40l-27.28-24H194.74a27,27,0,0,1,0-54h40l-54.56-47H144.08Z"/></g></svg>