<svg id="Layer_1" data-name="Layer 1" xmlns="http://www.w3.org/2000/svg" viewBox="0 0 450 450"><defs><style>.cls-1{fill:none;}.cls-2{fill:#8795a2;}.cls-3{fill:#18173f;}</style></defs><title>Sign up for pool</title><g id="_Group_" data-name="&lt;Group&gt;"><path id="_Path_" data-name="&lt;Path&gt;" class="cls-1" d="M253.83,294.24l.52-.22a75.42,75.42,0,0,0,41.05-43.16h0l0-.15c.27-.74.51-1.55.76-2.3.1-.31.21-.61.31-.92.16-.51.3-1,.45-1.53s.38-1.29.55-1.94c.1-.37.18-.74.27-1.11.21-.85.41-1.7.59-2.56,0-.21.09-.43.13-.64.22-1.09.42-2.18.59-3.29v0a75.27,75.27,0,0,0-.61-26.19l-.14-.69q-.3-1.44-.66-2.85c-.09-.36-.19-.71-.28-1.07q-.3-1.12-.63-2.23-.21-.68-.42-1.36-.35-1.09-.74-2.17c-.1-.28-.19-.55-.29-.83q-.54-1.45-1.13-2.86l-.21-.51a75.42,75.42,0,0,0-43.16-41.05l-.2-.07c-.51-.19-1-.35-1.53-.52s-1.08-.38-1.63-.55-1-.28-1.46-.43c-.67-.2-1.34-.4-2-.57l-1.07-.26c-.86-.21-1.73-.42-2.6-.6l-.61-.12c-1.1-.22-2.21-.42-3.33-.6h0a75.3,75.3,0,0,0-26.21.61l-.66.14q-1.44.3-2.87.66l-1.06.28q-1.14.31-2.28.65l-1.31.41q-1.1.36-2.19.74l-.8.29q-1.45.54-2.88,1.14l-.5.21a75.42,75.42,0,0,0-41.11,43.32h0c-.23.63-.43,1.27-.65,1.9a112.55,112.55,0,0,1,94.91,94.91l1.35-.46.88-.31Q252.44,294.82,253.83,294.24Z"/><path id="_Path_2" data-name="&lt;Path&gt;" class="cls-2" d="M299.14,236.39a73.1,73.1,0,0,0-.61-26.19,75.27,75.27,0,0,1,.61,26.19Z"/><path id="_Path_3" data-name="&lt;Path&gt;" class="cls-2" d="M236.4,150.86a73.1,73.1,0,0,0-26.21.61,75.3,75.3,0,0,1,26.21-.61Z"/><path id="_Path_4" data-name="&lt;Path&gt;" class="cls-2" d="M295.41,251l0-.13h0A75.42,75.42,0,0,1,254.36,294c.76-.32,1.52-.65,2.27-1l42.15,90.66A176,176,0,0,0,389.39,285l-94-34Z"/><path id="_Path_5" data-name="&lt;Path&gt;" class="cls-2" d="M251.16,154.7l-.3-.11A75.42,75.42,0,0,1,294,195.64c-.33-.78-.67-1.56-1-2.33l90.62-42.24a176,176,0,0,0-98.44-90.4l-17.38,46.92Z"/><path id="_Path_6" data-name="&lt;Path&gt;" class="cls-2" d="M195.65,156c-.78.33-1.55.67-2.31,1L151.12,66.38A176,176,0,0,0,60.59,165l93.94,34.25A75.42,75.42,0,0,1,195.65,156Z"/><path id="_Path_7" data-name="&lt;Path&gt;" class="cls-2" d="M290,387.49a177,177,0,0,1-41,10.87A173.53,173.53,0,0,0,290,387.49Z"/><path id="_Path_8" data-name="&lt;Path&gt;" class="cls-2" d="M160,62.53a177,177,0,0,1,41-10.87A173.54,173.54,0,0,0,160,62.53Z"/><path id="_Path_9" data-name="&lt;Path&gt;" class="cls-2" d="M387.46,160a176.94,176.94,0,0,1,10.88,41A173.52,173.52,0,0,0,387.46,160Z"/><path id="_Path_10" data-name="&lt;Path&gt;" class="cls-3" d="M294,195.64l.21.51q.59,1.42,1.13,2.86c.1.27.19.55.29.83q.38,1.08.74,2.17.22.68.42,1.36.33,1.11.63,2.23c.1.36.19.71.28,1.07q.36,1.42.66,2.85l.14.69a73.1,73.1,0,0,1,.61,26.19v0c-.17,1.1-.37,2.2-.59,3.29,0,.21-.08.43-.13.64-.18.86-.38,1.71-.59,2.56-.09.37-.18.74-.27,1.11-.17.65-.36,1.3-.55,1.94s-.29,1-.45,1.53c-.1.31-.21.61-.31.92-.25.74-.49,1.56-.76,2.3l0,.15,0,.13h0l94,34h0v0l0-.1.13-.37.21-.61q.61-1.71,1.18-3.43c.17-.52.34-1,.51-1.56q.43-1.33.84-2.66c.16-.54.33-1.07.49-1.61.41-1.37.8-2.75,1.18-4.13l.12-.45c.26-1,.51-2,.76-2.95l.31-1.25q.28-1.17.55-2.34c.17-.74.33-1.49.49-2.23.1-.49.21-1,.31-1.48A173.92,173.92,0,0,0,400,225c0-5.68-.3-11.37-.87-17,0-.4-.07-.81-.12-1.21-.07-.69-.16-1.39-.24-2.08-.12-1-.25-2.1-.39-3.15l-.08-.59a176.94,176.94,0,0,0-10.88-41l-.25-.61q-.65-1.61-1.34-3.21c-.3-.71-.62-1.42-.93-2.12l-.7-1.55c-.21-.46-.41-.93-.63-1.4h0L293,193.31C293.34,194.08,293.68,194.86,294,195.64Z"/><path id="_Path_11" data-name="&lt;Path&gt;" class="cls-3" d="M137.5,200a113.38,113.38,0,0,1,16.39,1.19c.21-.64.42-1.27.65-1.9h0L60.59,165h0l-.05.15-.12.34-.24.69q-.6,1.67-1.16,3.34c-.18.53-.35,1.06-.52,1.59q-.42,1.31-.83,2.62c-.17.54-.34,1.09-.5,1.63-.41,1.37-.8,2.74-1.17,4.12l-.12.45c-.26,1-.51,1.95-.75,2.92l-.31,1.27q-.28,1.15-.54,2.31c-.17.75-.33,1.5-.49,2.25-.1.49-.21,1-.31,1.46A174,174,0,0,0,50,225c0,5.31.26,10.63.76,15.94A112.26,112.26,0,0,1,137.5,200Z"/><path id="_Path_12" data-name="&lt;Path&gt;" class="cls-3" d="M195.65,156l.5-.21q1.42-.6,2.88-1.14l.8-.29q1.09-.39,2.19-.74l1.31-.41q1.13-.34,2.28-.65l1.06-.28q1.42-.36,2.87-.66l.66-.14a73.1,73.1,0,0,1,26.21-.61h0c1.12.17,2.22.38,3.33.6l.61.12c.87.18,1.74.39,2.6.6l1.07.26c.68.18,1.34.38,2,.57.49.14,1,.27,1.46.43s1.08.37,1.63.55,1,.34,1.53.52l.2.07.3.11,16.62-47.11,17.38-46.92h0l-.58-.21-.31-.11-.57-.2q-1.73-.62-3.47-1.19l-1.56-.51L276,57.6l-1.61-.49c-1.37-.4-2.75-.8-4.13-1.17l-.39-.11c-1-.26-1.92-.5-2.88-.74l-1.29-.32-2.25-.52-2.25-.49-1.44-.3A173.93,173.93,0,0,0,225,50c-5.7,0-11.41.3-17.1.87l-1.13.11-2.13.24c-1,.12-2.07.24-3.1.39l-.62.09a177,177,0,0,0-41,10.87l-.5.2q-1.67.67-3.33,1.39l-2.07.91-1.63.73-1.33.6v0L193.33,157C194.1,156.65,194.87,156.31,195.65,156Z"/><path id="_Path_13" data-name="&lt;Path&gt;" class="cls-3" d="M254.36,294l-.52.22q-1.39.58-2.81,1.11l-.88.31-1.35.47A112.59,112.59,0,0,1,209,399.31Q217,400,225,400c5.67,0,11.35-.3,17-.86l1.24-.12,2-.23c1.07-.13,2.14-.25,3.21-.4l.49-.07a177,177,0,0,0,41-10.87l.28-.11c1.19-.48,2.38-1,3.56-1.48l2-.88,1.71-.77,1.24-.56v0L256.62,293C255.87,293.36,255.12,293.69,254.36,294Z"/><path id="_Compound_Path_" data-name="&lt;Compound Path&gt;" class="cls-2" d="M137.5,425A112.48,112.48,0,0,0,250,312.5a113.38,113.38,0,0,0-1.19-16.37l1.35-.47-1.35.46A112.49,112.49,0,1,0,137.5,425ZM75,300h50V250h25v50h50v25H150v50H125V325H75Z"/><polygon id="_Path_14" data-name="&lt;Path&gt;" class="cls-3" points="125 375 150 375 150 325 200 325 200 300 150 300 150 250 125 250 125 300 75 300 75 325 125 325 125 375"/></g></svg>