<svg id="Layer_1" data-name="Layer 1" xmlns="http://www.w3.org/2000/svg" viewBox="0 0 450 450"><defs><style>.cls-1{fill:#8795a2;}.cls-2{fill:#18173f;}</style></defs><title>User</title><g id="_Group_" data-name="&lt;Group&gt;"><path id="_Path_" data-name="&lt;Path&gt;" class="cls-1" d="M278.22,232a87.5,87.5,0,1,0-105.95,0A200.13,200.13,0,0,0,67.85,301.52a175.19,175.19,0,0,0,314.77,0A200.12,200.12,0,0,0,278.22,232Z"/><path id="_Compound_Path_" data-name="&lt;Compound Path&gt;" class="cls-2" d="M225.24,24.86c-110.45,0-200,89.53-200,200s89.54,200,200,200,200-89.54,200-200S335.69,24.86,225.24,24.86ZM349,348.59A175.19,175.19,0,0,1,67.85,301.52,200.13,200.13,0,0,1,172.27,232a87.5,87.5,0,1,1,105.95,0,200.12,200.12,0,0,1,104.41,69.51A175.23,175.23,0,0,1,349,348.59Z"/></g></svg>