<svg id="Layer_1" data-name="Layer 1" xmlns="http://www.w3.org/2000/svg" viewBox="0 0 450 450"><defs><style>.cls-1{fill:#121f3c;}.cls-2{fill:#8795a2;}.cls-3{fill:none;}</style></defs><title>Announcments</title><path id="_Path_" data-name="&lt;Path&gt;" class="cls-1" d="M32,255.78h0l34.51,8.63A231.73,231.73,0,0,1,62.66,230c-.28-5.79-.43-11.86-.43-18.15,0-7.25.2-14.23.56-20.79.48-8.7,1.26-16.64,2.26-23.45.44-3,.94-5.82,1.46-8.37L32,167.83c-4.23,0-7.64,19.69-7.64,44S28,255.78,32,255.78Z"/><g id="_Group_" data-name="&lt;Group&gt;"><path class="cls-2" d="M347.76,349l.08,0a4.8,4.8,0,0,0,.76.11l-1.6-.4A4.61,4.61,0,0,0,347.76,349Z"/></g><g id="_Group_2" data-name="&lt;Group&gt;"><path class="cls-2" d="M62.79,191c-.36,6.56-.56,13.54-.56,20.79,0,6.29.15,12.36.43,18.15a231.73,231.73,0,0,0,3.85,34.48h0c2.07,10,4.74,16,7.66,16h0v0l24.42,6.11c-6.76-2.82-12.08-35.21-12.08-74.77,0-39.4,5.28-71.68,12-74.72l-24.34,6.08h-.08a2.26,2.26,0,0,0-.83.21c-2.56,1.11-4.89,6.88-6.75,15.81-.52,2.55-1,5.34-1.46,8.37C64.05,174.37,63.27,182.31,62.79,191Z"/></g><g id="_Group_3" data-name="&lt;Group&gt;"><path class="cls-2" d="M99.55,286.79l-.16,0,.16,0v0Z"/></g><polygon id="_Path_2" data-name="&lt;Path&gt;" class="cls-1" points="124 293.01 124 348.63 299 389.02 299 336.76 274 330.51 274 357.59 149 328.74 149 299.26 124 293.01"/><path id="_Path_3" data-name="&lt;Path&gt;" class="cls-2" d="M98.55,137.05l.91-.22A2.48,2.48,0,0,0,98.55,137.05Z"/><g id="_Group_4" data-name="&lt;Group&gt;"><path class="cls-2" d="M348.25,74.55l-.26,0-.25.06-.33.1-.14,0-.37.17,1.85-.47A4,4,0,0,0,348.25,74.55Z"/></g><g id="_Group_5" data-name="&lt;Group&gt;"><path class="cls-1" d="M86.51,211.8c0,39.56,5.32,71.95,12.08,74.77a2.54,2.54,0,0,0,.8.2l.16,0h0v0h0l24.78,6.2,25,6.25,125,31.25,25,6.25L347,348.68l1.6.4,48.95,12.24c-12.87-6.11-23-70.71-23-149.52,0-78.63,10.08-143.13,22.92-149.47l-14.12,3.53-34.6,8.65L346.9,75,99.55,136.81h0l-.09,0-.91.22,0,0C91.79,140.12,86.51,172.4,86.51,211.8Z"/></g><path id="_Path_4" data-name="&lt;Path&gt;" class="cls-2" d="M374.55,211.8c0,78.81,10.13,143.41,23,149.52h0a5.39,5.39,0,0,0,.9.32l.08,0a4.43,4.43,0,0,0,.88.12h.14c13.8,0,25-67.15,25-150s-11.2-150-25-150a3.68,3.68,0,0,0-.58,0l-.28,0-.27.06c-.12,0-.25.07-.37.12l-.14,0-.44.19h0C384.63,68.67,374.55,133.17,374.55,211.8Z"/><rect class="cls-3" width="450" height="450"/></svg>