<svg id="Layer_1" data-name="Layer 1" xmlns="http://www.w3.org/2000/svg" viewBox="0 0 450 450"><defs><style>.cls-1{fill:#121f3c;}.cls-2{fill:#8795a2;}.cls-3{fill:none;}</style></defs><title>AtoB</title><circle class="cls-1" cx="376.99" cy="107.97" r="26.4" transform="translate(-13.11 67.99) rotate(-10.13)"/><path class="cls-1" d="M365.61,213.3H84.39A23.43,23.43,0,0,1,61,189.89V143.08a23.43,23.43,0,0,1,23.4-23.41H271.55v23.41l47-35.11-47-35.12V96.26H84.39a46.82,46.82,0,0,0-46.81,46.82v46.81a46.82,46.82,0,0,0,46.81,46.82H365.61A23.43,23.43,0,0,1,389,260.12v46.81a23.43,23.43,0,0,1-23.4,23.41H130.89v23.41H365.61a46.82,46.82,0,0,0,46.81-46.82V260.12A46.82,46.82,0,0,0,365.61,213.3ZM286.73,107.44l.71.53-.71.52Z"/><path id="_Compound_Path_" data-name="&lt;Compound Path&gt;" class="cls-2" d="M341.88,108.08A35.12,35.12,0,0,0,411,116.75a35.45,35.45,0,0,0,1.1-8.67V108a35.46,35.46,0,0,0-1.05-8.56,1.89,1.89,0,0,1-.05-.23,35.12,35.12,0,0,0-68,0,1.89,1.89,0,0,0-.05.23,35,35,0,0,0-1.06,8.56ZM377,90.42A17.55,17.55,0,1,1,359.44,108,17.57,17.57,0,0,1,377,90.42Z"/><circle class="cls-2" cx="72.69" cy="342.03" r="30.66"/><path id="_Compound_Path_2" data-name="&lt;Compound Path&gt;" class="cls-1" d="M37.58,342.15a35.12,35.12,0,0,0,69.12,8.67,35.45,35.45,0,0,0,1.1-8.67V342a35.44,35.44,0,0,0-1-8.55,1.89,1.89,0,0,1,0-.23,35.12,35.12,0,0,0-68,0,1.89,1.89,0,0,0,0,.23A35,35,0,0,0,37.58,342Zm35.11-17.66A17.55,17.55,0,1,1,55.14,342,17.56,17.56,0,0,1,72.69,324.49Z"/><rect class="cls-3" width="450" height="450"/></svg>