<svg width="375" height="305" viewBox="0 0 375 305" fill="none" xmlns="http://www.w3.org/2000/svg">
<path d="M344.037 61.1252C358.39 58.5608 367.946 44.8463 365.382 30.4933C362.817 16.1403 349.103 6.58381 334.75 9.14823C320.397 11.7126 310.841 25.4268 313.405 39.7799C315.969 54.1329 329.684 63.6896 344.037 61.1252Z" fill="#091440"/>
<path d="M328.03 140.45H46.8101C40.6047 140.442 34.656 137.973 30.269 133.584C25.8821 129.195 23.4153 123.245 23.41 117.04V70.23C23.4153 64.0246 25.8821 58.0746 30.269 53.6858C34.656 49.297 40.6047 46.8278 46.8101 46.8198H233.97V70.23L280.97 35.1199L233.97 0V23.4099H46.8101C34.3944 23.4126 22.488 28.3465 13.7097 37.1267C4.93143 45.9069 -2.83191e-07 57.8143 0 70.23V117.04C-2.8319e-07 129.456 4.93143 141.363 13.7097 150.143C22.488 158.923 34.3944 163.857 46.8101 163.86H328.03C334.236 163.868 340.184 166.337 344.571 170.726C348.958 175.115 351.425 181.065 351.43 187.27V234.08C351.425 240.285 348.958 246.235 344.571 250.624C340.184 255.013 334.236 257.482 328.03 257.49H93.3101V280.9H328.03C340.446 280.897 352.352 275.963 361.13 267.183C369.909 258.403 374.84 246.496 374.84 234.08V187.27C374.84 174.854 369.909 162.947 361.13 154.167C352.352 145.387 340.446 140.453 328.03 140.45ZM249.15 34.5898L249.86 35.1199L249.15 35.6399V34.5898Z" fill="#091440"/>
<path d="M304.301 35.2302C304.332 43.7656 307.47 51.9975 313.129 58.3872C318.788 64.777 326.581 68.8872 335.05 69.9495C343.519 71.0118 352.085 68.9535 359.147 64.1594C366.209 59.3653 371.283 52.1634 373.421 43.9001C374.144 41.0666 374.513 38.1545 374.521 35.2302V35.1501C374.537 32.2668 374.201 29.3922 373.521 26.5901C373.5 26.5145 373.483 26.4377 373.471 26.3601C371.521 18.8256 367.124 12.1522 360.97 7.38794C354.816 2.62372 347.254 0.0385742 339.471 0.0385742C331.688 0.0385742 324.126 2.62372 317.972 7.38794C311.818 12.1522 307.421 18.8256 305.471 26.3601C305.466 26.4367 305.466 26.5135 305.471 26.5901C304.766 29.3888 304.41 32.264 304.411 35.1501L304.301 35.2302ZM339.411 17.5701C342.882 17.5701 346.275 18.5994 349.161 20.5278C352.047 22.4563 354.297 25.1972 355.625 28.4041C356.953 31.6109 357.301 35.1396 356.624 38.5439C355.947 41.9483 354.275 45.0754 351.821 47.5298C349.366 49.9842 346.239 51.6558 342.835 52.333C339.43 53.0102 335.902 52.6625 332.695 51.3342C329.488 50.0059 326.747 47.7564 324.819 44.8704C322.89 41.9843 321.861 38.5912 321.861 35.1201C321.866 30.4655 323.718 26.003 327.01 22.7126C330.303 19.4222 334.766 17.5727 339.421 17.5701H339.411Z" fill="#C4CBD2"/>
<path d="M35.1091 299.84C52.0422 299.84 65.7692 286.113 65.7692 269.18C65.7692 252.247 52.0422 238.52 35.1091 238.52C18.1761 238.52 4.44922 252.247 4.44922 269.18C4.44922 286.113 18.1761 299.84 35.1091 299.84Z" fill="#C4CBD2"/>
<path d="M0 269.3C0.0310232 277.835 3.16935 286.067 8.82837 292.457C14.4874 298.847 22.2797 302.957 30.7488 304.019C39.2178 305.082 47.784 303.023 54.8458 298.229C61.9077 293.435 66.9818 286.233 69.12 277.97C69.8429 275.136 70.2124 272.224 70.2201 269.3V269.15C70.2354 266.27 69.8996 263.399 69.2201 260.6C69.2154 260.523 69.2154 260.446 69.2201 260.37C67.2703 252.835 62.873 246.162 56.719 241.398C50.5649 236.633 43.0028 234.048 35.2201 234.048C27.4374 234.048 19.8751 236.633 13.7211 241.398C7.56702 246.162 3.16987 252.835 1.22009 260.37C1.21542 260.446 1.21542 260.523 1.22009 260.6C0.515997 263.395 0.159908 266.267 0.160034 269.15L0 269.3ZM35.11 251.64C38.5815 251.64 41.975 252.67 44.8613 254.598C47.7476 256.527 49.9971 259.269 51.3251 262.476C52.6531 265.684 53.0001 269.213 52.3221 272.617C51.6442 276.022 49.9716 279.149 47.5162 281.603C45.0608 284.057 41.9327 285.728 38.5277 286.404C35.1227 287.08 31.5936 286.731 28.387 285.401C25.1803 284.071 22.4402 281.82 20.5129 278.933C18.5857 276.045 17.5581 272.651 17.5601 269.18C17.5654 264.528 19.4164 260.068 22.7068 256.78C25.9972 253.491 30.458 251.643 35.11 251.64Z" fill="#091440"/>
</svg>
