<svg id="Layer_1" data-name="Layer 1" xmlns="http://www.w3.org/2000/svg" viewBox="0 0 450 450"><defs><style>.cls-1{fill:#121f3c;}.cls-2{fill:#8795a2;}.cls-3{fill:none;}</style></defs><title>BlockHeader</title><rect id="_Path_" data-name="&lt;Path&gt;" class="cls-1" x="25" y="312" width="188" height="25"/><polygon id="_Path_2" data-name="&lt;Path&gt;" class="cls-2" points="25 399.68 25 425 213 425 213 399.68 213 337 25 337 25 399.68"/><rect id="_Path_3" data-name="&lt;Path&gt;" class="cls-1" x="238" y="312" width="187" height="25"/><polygon id="_Path_4" data-name="&lt;Path&gt;" class="cls-2" points="425 399.68 425 337 238 337 238 399.68 238 425 425 425 425 399.68"/><rect id="_Path_5" data-name="&lt;Path&gt;" class="cls-1" x="25" y="168" width="188" height="25"/><polygon id="_Path_6" data-name="&lt;Path&gt;" class="cls-2" points="213 255.93 213 193 25 193 25 255.93 25 281 213 281 213 255.93"/><rect id="_Path_7" data-name="&lt;Path&gt;" class="cls-1" x="238" y="168" width="187" height="25"/><polygon id="_Path_8" data-name="&lt;Path&gt;" class="cls-2" points="425 255.93 425 193 238 193 238 255.93 238 281 425 281 425 255.93"/><polygon id="_Path_9" data-name="&lt;Path&gt;" class="cls-2" points="425 50 425 25 275.24 25 25 25 25 50 275.24 50 425 50"/><polygon id="_Path_10" data-name="&lt;Path&gt;" class="cls-1" points="425 112.18 425 50 275.24 50 25 50 25 112.18 25 137 275.24 137 425 137 425 112.18"/><rect class="cls-3" width="450" height="450"/></svg>