<svg width="400" height="400" viewBox="0 0 400 400" fill="none" xmlns="http://www.w3.org/2000/svg">
<path d="M78.7402 169H0V257H88.1499C79.3521 239.466 74.7771 220.117 74.79 200.5C74.79 200.5 74.79 200.44 74.79 200.4C74.79 200.36 74.79 200.33 74.79 200.3C74.7824 189.742 76.1098 179.225 78.7402 169Z" fill="#C4CBD2"/>
<path d="M326 200.44V200.5C325.85 220.154 321.111 239.501 312.16 257H400V144H312.16C321.124 161.454 325.864 180.769 326 200.39V200.44Z" fill="#C4CBD2"/>
<path d="M400 313H255.42C238.225 321.46 219.318 325.86 200.155 325.86C180.992 325.86 162.085 321.46 144.89 313H105.33L67.5698 350.72L58.73 341.87L49.8901 333.05L70 313H0V400H400V313Z" fill="#C4CBD2"/>
<path d="M150 256.6V148H114.86C104.949 163.745 99.7224 181.985 99.7897 200.59C99.8009 218.174 104.449 235.444 113.264 250.659C122.079 265.874 134.75 278.495 150 287.25V256.6Z" fill="#C4CBD2"/>
<path d="M250 256.6V287.34C280 269.99 300.44 237.73 300.44 200.59C300.532 181.992 295.329 163.752 285.44 148H250V256.6Z" fill="#C4CBD2"/>
<path d="M400 0H0V25H400V0Z" fill="#091440"/>
<path d="M200.15 75C216.871 74.9932 233.424 78.3413 248.828 84.8461C264.232 91.351 278.175 100.88 289.83 112.87L289.96 113.01H399.96V25H0V113H110.29L110.48 112.8C122.138 100.821 136.081 91.304 151.483 84.8111C166.886 78.3182 183.435 74.982 200.15 75Z" fill="#C4CBD2"/>
<path d="M289.83 288C312.877 264.669 325.863 233.235 326 200.44V200.39C325.937 189.798 324.512 179.258 321.76 169.03H400V144H312.22C306.431 132.603 298.946 122.151 290.02 113C290.02 113 289.91 112.91 289.86 112.86C278.199 100.88 264.256 91.3573 248.855 84.853C233.454 78.3487 216.906 74.9949 200.188 74.9893C183.469 74.9837 166.919 78.3265 151.514 84.8204C136.108 91.3144 122.16 100.828 110.49 112.8L110.3 113C101.506 122.249 94.0508 132.684 88.1499 144H0V169H78.7402C76.1098 179.225 74.7824 189.742 74.79 200.3C74.79 200.3 74.79 200.37 74.79 200.4C74.7813 219.913 79.3541 239.156 88.1401 256.58C92.2773 264.823 97.3075 272.586 103.14 279.73L95 288H0V313H70L49.9102 333L58.73 341.84L67.5698 350.69L105.33 313H144.89C162.085 321.46 180.992 325.86 200.155 325.86C219.318 325.86 238.225 321.46 255.42 313H400V288H289.83ZM250.15 287.46C249.84 287.64 249.53 287.75 249.21 287.93C248.32 288.43 247.41 288.93 246.5 289.37C245.58 289.86 244.65 290.31 243.72 290.77C242.79 291.22 241.85 291.66 240.9 292.08C239.96 292.5 239.01 292.9 238.05 293.29H237.96C237.02 293.67 236.08 294.04 235.12 294.39L234.97 294.45C234.03 294.8 233.1 295.13 232.15 295.45L231.9 295.53C230.99 295.83 230.07 296.13 229.14 296.41L228.77 296.51C227.88 296.78 226.99 297.04 226.09 297.28L225.59 297.4C224.73 297.63 223.86 297.85 222.99 298.05L222.34 298.19C221.52 298.38 220.69 298.56 219.86 298.73L219.02 298.88C218.24 299.03 217.46 299.18 216.68 299.31L215.68 299.46C214.95 299.58 214.23 299.69 213.49 299.79L212.23 299.94C211.57 300.02 210.91 300.1 210.23 300.16C209.72 300.22 209.23 300.25 208.69 300.29L206.94 300.44L204.94 300.54C204.49 300.54 204.04 300.54 203.58 300.6C202.467 300.64 201.347 300.66 200.22 300.66C199.094 300.66 197.973 300.64 196.86 300.6L195.51 300.54L193.51 300.44C192.92 300.44 192.34 300.34 191.76 300.29C191.18 300.24 190.76 300.22 190.22 300.16C189.55 300.1 188.89 300.02 188.22 299.94L186.95 299.79C186.22 299.69 185.5 299.58 184.77 299.46L183.77 299.31C182.98 299.18 182.2 299.03 181.43 298.88L180.59 298.73C179.76 298.56 178.93 298.38 178.11 298.19L177.46 298.05C176.59 297.85 175.72 297.63 174.86 297.4L174.36 297.28C173.46 297.04 172.57 296.78 171.68 296.52L171.31 296.41C170.38 296.13 169.46 295.83 168.55 295.53L168.29 295.45C167.35 295.13 166.42 294.8 165.49 294.45L165.32 294.39C164.37 294.04 163.43 293.67 162.49 293.29H162.4C161.4 292.9 160.5 292.5 159.56 292.08H159.51C158.56 291.66 157.62 291.22 156.69 290.77C155.76 290.32 154.83 289.85 153.92 289.37C153.01 288.89 152.11 288.37 151.21 287.9L150.21 287.37L150.06 287.28C134.811 278.525 122.139 265.904 113.324 250.689C104.509 235.474 99.8613 218.204 99.8501 200.62C99.7591 182.011 104.965 163.76 114.86 148H150V113.36C150 113.18 150.69 113.02 151 112.85C153.72 111.32 156.56 109.91 159.43 108.63C160.38 108.21 161.35 107.8 162.31 107.41H162.38C163.38 107.02 164.29 106.65 165.25 106.29H165.38C166.32 105.94 167.26 105.6 168.22 105.29L168.45 105.22C169.37 104.91 170.3 104.61 171.23 104.33L171.58 104.23C172.47 103.96 173.37 103.71 174.28 103.46L174.78 103.34C175.64 103.11 176.5 102.89 177.38 102.69L178.02 102.55L180.51 102.01L181.33 101.86C182.12 101.71 182.9 101.56 183.69 101.43L184.69 101.28C185.42 101.16 186.14 101.05 186.87 100.95L188.14 100.8C188.8 100.73 189.46 100.64 190.14 100.58C190.65 100.52 191.14 100.49 191.68 100.45C192.22 100.41 192.84 100.34 193.43 100.3L195.43 100.2C195.88 100.2 196.32 100.15 196.77 100.14C197.89 100.1 199.01 100.08 200.13 100.08C201.26 100.08 202.38 100.08 203.5 100.14L204.84 100.2L206.84 100.3L208.58 100.45C209.1 100.45 209.58 100.52 210.13 100.58C210.8 100.64 211.45 100.72 212.13 100.8L213.41 100.95C214.14 101.05 214.86 101.16 215.59 101.28L216.59 101.43C217.38 101.56 218.16 101.71 218.94 101.86L219.77 102.01L222.26 102.55L222.9 102.69C223.77 102.89 224.64 103.11 225.5 103.34L226 103.46C226.9 103.71 227.8 103.96 228.7 104.23L229.05 104.33C229.98 104.61 230.91 104.91 231.83 105.22L232.06 105.29C233.06 105.61 233.96 105.95 234.89 106.29H235.03C236.03 106.65 236.95 107.02 237.89 107.41H237.96C238.96 107.8 239.88 108.21 240.83 108.63C243.7 109.91 246.42 111.32 249.15 112.85C249.45 113.02 249.98 113.18 249.98 113.36V148H285.43C295.338 163.746 300.561 181.986 300.49 200.59C300.482 218.218 295.822 235.532 286.984 250.784C278.145 266.036 265.44 278.687 250.15 287.46Z" fill="#091440"/>
</svg>
