<svg id="Layer_1" data-name="Layer 1" xmlns="http://www.w3.org/2000/svg" viewBox="0 0 450 450"><defs><style>.cls-1{fill:#121f3c;}.cls-2{fill:#8795a2;}.cls-3{fill:none;}</style></defs><title>BlockchainHeight</title><polygon id="_Path_" data-name="&lt;Path&gt;" class="cls-1" points="225 338 425 338 425 337.5 425 313 225 313 225 338"/><rect id="_Path_2" data-name="&lt;Path&gt;" class="cls-2" x="225" y="338" width="200" height="87"/><rect id="_Path_3" data-name="&lt;Path&gt;" class="cls-2" x="75" y="375" width="125" height="25"/><rect id="_Path_4" data-name="&lt;Path&gt;" class="cls-2" x="138" y="313" width="62" height="25"/><polygon id="_Path_5" data-name="&lt;Path&gt;" class="cls-1" points="180.08 50 425 50 425 25 150.91 25 180.08 50"/><polygon id="_Path_6" data-name="&lt;Path&gt;" class="cls-2" points="216.27 81.02 225 88.5 225 100 225 138 425 138 425 112.5 425 50 180.08 50 216.27 81.02"/><rect id="_Path_7" data-name="&lt;Path&gt;" class="cls-1" x="225" y="169" width="200" height="25"/><polygon id="_Path_8" data-name="&lt;Path&gt;" class="cls-2" points="225 256.25 225 281 425 281 425 256.25 425 194 225 194 225 256.25"/><polygon id="_Path_9" data-name="&lt;Path&gt;" class="cls-1" points="200 400 75 400 75 375 200 375 200 338 138 338 138 313 200 313 200 281.25 200 275 138 275 138 250 200 250 200 213 138 213 138 188 200 188 200 150 75 150 75 125 200 125 200 100 112.5 25 25 100 25 193.75 25 256.25 25 281.25 25 312.5 25 337.5 25 337.5 25 425 200 425 200 400"/><polygon id="_Path_10" data-name="&lt;Path&gt;" class="cls-2" points="138 275 200 275 200 256.25 200 250 138 250 138 275"/><polygon id="_Path_11" data-name="&lt;Path&gt;" class="cls-2" points="138 213 200 213 200 193.75 200 188 138 188 138 213"/><rect id="_Path_12" data-name="&lt;Path&gt;" class="cls-2" x="75" y="125" width="125" height="25"/><rect class="cls-3" width="450" height="450"/></svg>