<svg id="Layer_1" data-name="Layer 1" xmlns="http://www.w3.org/2000/svg" viewBox="0 0 450 450"><defs><style>.cls-1{fill:none;}.cls-2{fill:#8795a2;}.cls-3{fill:#121f3c;}</style></defs><title>BlockExplorer</title><polygon id="_Path_" data-name="&lt;Path&gt;" class="cls-1" points="74.89 358.05 83.73 366.87 74.91 358.03 74.89 358.05"/><path id="_Path_2" data-name="&lt;Path&gt;" class="cls-2" d="M176.07,137.85q4.08-2.29,8.39-4.22-4.31,1.92-8.39,4.22Z"/><path id="_Path_3" data-name="&lt;Path&gt;" class="cls-2" d="M103.74,194H25v88h88.15a125.8,125.8,0,0,1-13.36-56.5s0-.06,0-.1,0-.07,0-.1A125.27,125.27,0,0,1,103.74,194Z"/><path id="_Path_4" data-name="&lt;Path&gt;" class="cls-2" d="M351,225.44v.06A126.19,126.19,0,0,1,337.16,282H425V169H337.16A125.33,125.33,0,0,1,351,225.39Z"/><path id="_Path_5" data-name="&lt;Path&gt;" class="cls-2" d="M425,338H280.42a125.18,125.18,0,0,1-110.53,0H130.33L92.57,375.72l-8.84-8.85-8.84-8.82,0,0,0,0L95,338H25v87H425Z"/><path id="_Path_6" data-name="&lt;Path&gt;" class="cls-2" d="M175,281.6V173H139.86a98.06,98.06,0,0,0-15.07,52.59A100,100,0,0,0,175,312.25V281.6Z"/><path id="_Path_7" data-name="&lt;Path&gt;" class="cls-2" d="M275,281.6v30.74c30-17.35,50.44-49.61,50.44-86.75a98,98,0,0,0-15-52.59H275V281.6Z"/><path id="_Compound_Path_" data-name="&lt;Compound Path&gt;" class="cls-1" d="M325.44,225.59c0,37.14-20.44,69.4-50.44,86.75v-174c0-.18-.53-.34-.83-.51-2.73-1.53-5.45-2.94-8.32-4.22h0c-.95-.42-1.91-.83-2.87-1.22l-.07,0c-.94-.39-1.9-.76-2.86-1.12l-.14-.05c-.93-.34-1.88-.68-2.83-1l-.23-.07c-.92-.31-1.85-.61-2.78-.89l-.35-.1c-.9-.27-1.8-.52-2.7-.77l-.5-.12c-.86-.23-1.73-.45-2.6-.65l-.64-.14q-1.25-.28-2.49-.54l-.83-.15c-.78-.15-1.56-.3-2.35-.43l-1-.15c-.73-.12-1.45-.23-2.18-.33l-1.28-.15c-.66-.08-1.31-.16-2-.22-.51-.06-1-.09-1.55-.13l-1.74-.15-2-.1-1.34-.06c-1.12,0-2.24-.06-3.37-.06s-2.24,0-3.36.06c-.45,0-.89,0-1.34.06l-2,.1c-.59,0-1.16.1-1.75.15s-1,.07-1.54.13c-.67.06-1.33.15-2,.22l-1.27.15c-.73.1-1.45.21-2.18.33l-1,.15c-.79.13-1.57.28-2.36.43l-.82.15q-1.25.26-2.49.54l-.64.14c-.88.2-1.74.42-2.6.65l-.5.12c-.91.25-1.81.5-2.7.77l-.35.1c-.93.28-1.86.58-2.78.89l-.23.07c-1,.32-1.9.66-2.84,1l-.13,0c-1,.36-1.92.73-2.87,1.12l-.07,0c-1,.39-1.93.8-2.88,1.22h0c-2.87,1.28-5.71,2.69-8.43,4.22-.3.17-1,.33-1,.51V312.25l.15.09.95.53c.9.5,1.8,1,2.71,1.47h0c.91.48,1.84.95,2.77,1.4h0c.93.45,1.87.89,2.82,1.31l.05,0c.94.42,1.88.82,2.84,1.21l.09,0c.94.38,1.88.75,2.83,1.1l.17.06c.93.35,1.86.68,2.8,1l.26.08c.91.3,1.83.6,2.76.88l.37.11c.89.26,1.78.52,2.68.76l.5.12c.86.23,1.73.45,2.6.65l.65.14c.82.19,1.65.37,2.48.54l.84.15c.77.15,1.55.3,2.34.43l1,.15c.73.12,1.45.23,2.18.33l1.27.15c.66.08,1.32.16,2,.22.51.06,1,.09,1.54.13s1.16.11,1.75.15l2,.1,1.35.06q1.68.06,3.36.06t3.36-.06c.46,0,.91,0,1.36-.06l2-.1,1.75-.15c.51,0,1-.07,1.54-.13.67-.06,1.33-.14,2-.22l1.26-.15c.74-.1,1.46-.21,2.19-.33l1-.15c.78-.13,1.56-.28,2.34-.43l.84-.15c.83-.17,1.66-.35,2.48-.54l.65-.14c.87-.2,1.74-.42,2.6-.65l.5-.12c.9-.24,1.79-.5,2.68-.77l.37-.1c.93-.28,1.85-.58,2.76-.88l.25-.08c.95-.32,1.88-.65,2.82-1l.15-.06c1-.35,1.9-.72,2.84-1.1l.09,0c1-.39,1.91-.79,2.85-1.21l0,0c.95-.42,1.89-.86,2.82-1.31h0c.93-.46,1.86-.91,2.78-1.4h0c.91-.48,1.82-.94,2.71-1.44.32-.18.63-.29.94-.47a100.21,100.21,0,0,0,50.36-86.87A98.05,98.05,0,0,0,310.45,173,98,98,0,0,1,325.44,225.59ZM176.07,137.85h0q4.08-2.29,8.39-4.22Q180.16,135.55,176.07,137.85Z"/><rect id="_Path_8" data-name="&lt;Path&gt;" class="cls-3" x="25" y="25" width="400" height="25"/><path id="_Path_9" data-name="&lt;Path&gt;" class="cls-2" d="M225.15,100a125,125,0,0,1,89.68,37.87l.13.14H425V50H25v88H135.29l.19-.2A124.94,124.94,0,0,1,225.15,100Z"/><path id="_Compound_Path_2" data-name="&lt;Compound Path&gt;" class="cls-3" d="M74.89,358l0,0,8.82,8.84,8.84,8.85L130.33,338h39.56a125.18,125.18,0,0,0,110.53,0H425V313H314.83A125.34,125.34,0,0,0,351,225.44v-.05a126.51,126.51,0,0,0-13.72-56.27A126.22,126.22,0,0,0,315,138c0-.05-.12-.09-.16-.14a125.2,125.2,0,0,0-179.37-.06l-.19.2a136.78,136.78,0,0,0-22.15,31H25v25h78.74a125.27,125.27,0,0,0-3.95,31.3s0,.07,0,.1a124.65,124.65,0,0,0,13.35,56.18,125.93,125.93,0,0,0,15,23.15L120,313H25v25H95Zm200.26-45.55c-.31.18-.62.29-.94.47-.89.5-1.8,1-2.71,1.44h0c-.92.49-1.85.94-2.78,1.4h0c-.93.45-1.87.89-2.82,1.31l0,0c-.94.42-1.89.82-2.85,1.21l-.09,0c-.94.38-1.88.75-2.84,1.1l-.15.06c-.94.35-1.87.68-2.82,1l-.25.08c-.91.3-1.83.6-2.76.88l-.37.1c-.89.27-1.78.53-2.68.77l-.5.12c-.86.23-1.73.45-2.6.65l-.65.14c-.82.19-1.65.37-2.48.54l-.84.15c-.78.15-1.56.3-2.34.43l-1,.15c-.73.12-1.45.23-2.19.33l-1.26.15c-.66.08-1.32.16-2,.22-.51.06-1,.09-1.54.13l-1.75.15-2,.1c-.45,0-.9.05-1.36.06q-1.66.06-3.36.06t-3.36-.06l-1.35-.06-2-.1c-.59,0-1.17-.1-1.75-.15s-1-.07-1.54-.13c-.67-.06-1.33-.14-2-.22l-1.27-.15c-.73-.1-1.45-.21-2.18-.33l-1-.15c-.79-.13-1.57-.28-2.34-.43l-.84-.15c-.83-.17-1.66-.35-2.48-.54l-.65-.14c-.87-.2-1.74-.42-2.6-.65l-.5-.12c-.9-.24-1.79-.5-2.68-.76l-.37-.11c-.93-.28-1.85-.58-2.76-.88l-.26-.08c-.94-.32-1.87-.65-2.8-1l-.17-.06c-.95-.35-1.89-.72-2.83-1.1l-.09,0c-1-.39-1.9-.79-2.84-1.21l-.05,0c-.95-.42-1.89-.86-2.82-1.31h0c-.93-.45-1.86-.92-2.77-1.4h0c-.91-.48-1.81-1-2.71-1.47l-.95-.53-.15-.09a100,100,0,0,1-50.21-86.66A98.06,98.06,0,0,1,139.86,173H175V138.36c0-.18.69-.34,1-.51,2.72-1.53,5.56-2.94,8.43-4.22h0c1-.42,1.92-.83,2.88-1.22l.07,0c.95-.39,1.91-.76,2.87-1.12l.13,0c.94-.35,1.88-.69,2.84-1l.23-.07c.92-.31,1.85-.61,2.78-.89l.35-.1c.89-.27,1.79-.52,2.7-.77l.5-.12c.86-.23,1.72-.45,2.6-.65l.64-.14q1.25-.28,2.49-.54l.82-.15c.79-.15,1.57-.3,2.36-.43l1-.15c.73-.12,1.45-.23,2.18-.33l1.27-.15c.66-.07,1.32-.16,2-.22.51-.06,1-.09,1.54-.13s1.16-.11,1.75-.15l2-.1c.45,0,.89,0,1.34-.06q1.68-.06,3.36-.06c1.13,0,2.25,0,3.37.06l1.34.06,2,.1,1.74.15c.52,0,1,.07,1.55.13.67.06,1.32.14,2,.22l1.28.15c.73.1,1.45.21,2.18.33l1,.15c.79.13,1.57.28,2.35.43l.83.15q1.25.26,2.49.54l.64.14c.87.2,1.74.42,2.6.65l.5.12c.9.25,1.8.5,2.7.77l.35.1c.93.28,1.86.58,2.78.89l.23.07c.95.32,1.9.66,2.83,1l.14.05c1,.36,1.92.73,2.86,1.12l.07,0c1,.39,1.92.8,2.87,1.22h0c2.87,1.28,5.59,2.69,8.32,4.22.3.17.83.33.83.51V173h35.45a98.05,98.05,0,0,1,15.06,52.59A100.21,100.21,0,0,1,275.15,312.46Z"/><rect class="cls-1" width="450" height="450"/></svg>