<svg width="325" height="375" viewBox="0 0 325 375" fill="none" xmlns="http://www.w3.org/2000/svg">
<path d="M266.39 0C266.39 8.72193 264.672 17.3586 261.333 25.4165C257.995 33.4744 253.103 40.7955 246.935 46.9624C240.767 53.1293 233.445 58.0211 225.387 61.3579C217.328 64.6947 208.692 66.4115 199.97 66.4102C191.248 66.4115 182.611 64.6947 174.553 61.3579C166.494 58.0211 159.172 53.1293 153.004 46.9624C146.837 40.7955 141.944 33.4744 138.606 25.4165C135.268 17.3586 133.55 8.72193 133.55 0H75.2695V349.55H133.55C133.55 331.934 140.548 315.04 153.004 302.584C165.46 290.128 182.354 283.13 199.97 283.13C217.585 283.13 234.479 290.128 246.936 302.584C259.392 315.04 266.39 331.934 266.39 349.55H324.67V0H266.39Z" fill="#091440"/>
<path d="M125.43 174.77C125.43 160.028 129.802 145.616 137.992 133.358C146.183 121.1 157.824 111.546 171.444 105.904C185.065 100.262 200.052 98.7862 214.512 101.662C228.971 104.538 242.253 111.638 252.677 122.063C263.102 132.487 270.201 145.769 273.078 160.228C275.954 174.688 274.478 189.675 268.836 203.296C263.194 216.916 253.64 228.557 241.382 236.748C229.124 244.938 214.712 249.31 199.97 249.31C180.2 249.31 161.241 241.457 147.262 227.478C133.283 213.499 125.43 194.539 125.43 174.77Z" fill="#091440"/>
<path d="M112.47 374.77C127.244 374.774 141.875 371.867 155.526 366.214C169.177 360.562 181.58 352.275 192.028 341.828C202.475 331.381 210.762 318.978 216.414 305.327C222.066 291.676 224.974 277.045 224.97 262.27C224.969 256.792 224.572 251.321 223.78 245.9L225.12 245.43L223.78 245.89C220.64 224.572 211.444 204.605 197.285 188.362C183.126 172.12 164.6 160.286 143.91 154.267C123.22 148.249 101.237 148.299 80.5747 154.413C59.9125 160.526 41.4406 172.445 27.3564 188.752C13.2721 205.06 4.16799 225.07 1.12641 246.401C-1.91518 267.733 1.23387 289.49 10.1992 309.083C19.1645 328.677 33.5686 345.285 51.6987 356.929C69.8288 368.574 90.9221 374.766 112.47 374.77ZM49.9697 249.77H99.9697V199.77H124.97V249.77H174.97V274.77H124.97V324.77H99.9697V274.77H49.9697V249.77Z" fill="#C4CBD2"/>
<path d="M99.9688 324.77H124.969V274.77H174.969V249.77H124.969V199.77H99.9688V249.77H49.9688V274.77H99.9688V324.77Z" fill="#091440"/>
</svg>
