<svg id="Layer_1" data-name="Layer 1" xmlns="http://www.w3.org/2000/svg" viewBox="0 0 450 450"><defs><style>.cls-1{fill:#121f3c;}.cls-2{fill:none;}.cls-3{fill:#8795a2;}</style></defs><title>BuyTicket</title><g id="Layer_2" data-name="Layer 2"><g id="Layer_1-2" data-name="Layer 1-2"><g id="Symbol_7_1" data-name="Symbol 7 1"><g id="Group_369" data-name="Group 369"><g id="_Group_2" data-name=" Group 2"><path id="_Path_2" data-name=" Path 2" class="cls-1" d="M291.42,50.22A66.42,66.42,0,0,1,225,116.64h0a66.42,66.42,0,0,1-66.42-66.42H100.3V399.78h58.28a66.42,66.42,0,0,1,132.84,0H349.7V50.22Z"/><path id="_Path_3" data-name=" Path 3" class="cls-1" d="M150.46,225A74.54,74.54,0,1,1,225,299.54,74.54,74.54,0,0,1,150.46,225Z"/></g></g></g></g></g><rect class="cls-2" width="450" height="450"/><path id="_Compound_Path_" data-name="&lt;Compound Path&gt;" class="cls-3" d="M137.5,425A112.47,112.47,0,0,0,250,312.5a113.25,113.25,0,0,0-1.19-16.37l1.34-.47c-.44.16-.89.3-1.34.45A112.49,112.49,0,1,0,137.5,425ZM75,300h50V250h25v50h50v25H150v50H125V325H75Z"/><polygon id="_Path_" data-name="&lt;Path&gt;" class="cls-1" points="125 375 150 375 150 325 200 325 200 300 150 300 150 250 125 250 125 300 75 300 75 325 125 325 125 375"/></svg>