<svg id="Layer_1" data-name="Layer 1" xmlns="http://www.w3.org/2000/svg" viewBox="0 0 450 450"><defs><style>.cls-1{fill:#8795a2;}.cls-2{fill:#121f3c;}.cls-3{fill:none;}</style></defs><title>Chat</title><path id="_Path_" data-name="&lt;Path&gt;" class="cls-1" d="M206.52,336.2a175.27,175.27,0,0,1-104-192.8A150,150,0,0,0,69.05,381.49L24.64,425h150a149.6,149.6,0,0,0,129.93-75H274.64A174,174,0,0,1,206.52,336.2Z"/><path id="_Compound_Path_" data-name="&lt;Compound Path&gt;" class="cls-2" d="M274.64,24.92a150,150,0,0,0,0,300.08h150l-44.4-43.51A150,150,0,0,0,274.64,24.92Zm-75,175a25,25,0,1,1,25-25A25,25,0,0,1,199.64,199.92Zm75,0a25,25,0,1,1,25-25A25,25,0,0,1,274.64,199.92Zm75,0a25,25,0,1,1,25-25A25,25,0,0,1,349.64,199.92Z"/><circle id="_Path_2" data-name="&lt;Path&gt;" class="cls-1" cx="274.64" cy="174.92" r="25" transform="translate(-32.84 67.78) rotate(-13.28)"/><circle id="_Path_3" data-name="&lt;Path&gt;" class="cls-1" cx="199.64" cy="174.92" r="25" transform="translate(-34.85 50.55) rotate(-13.28)"/><circle id="_Path_4" data-name="&lt;Path&gt;" class="cls-1" cx="349.64" cy="174.92" r="25" transform="translate(-30.83 85.01) rotate(-13.28)"/><rect class="cls-3" width="450" height="450"/></svg>