<svg width="400" height="325" viewBox="0 0 400 325" fill="none" xmlns="http://www.w3.org/2000/svg">
<path d="M0 250L50 275V250L24.99 237.5L50 225V200L0 225V250Z" fill="#C4CBD2"/>
<path d="M350 275L375 287.5L350 300V325L400 300V275L350 250V275Z" fill="#C4CBD2"/>
<path d="M324.99 275.01H74.9902V300.01H324.99V275.01Z" fill="#091440"/>
<path d="M178.99 225.01H74.9902V250.01H178.99V225.01Z" fill="#091440"/>
<path d="M324.99 225.01H199.99V250.01H324.99V225.01Z" fill="#091440"/>
<path d="M199.99 175.01H74.9902V200.01H199.99V175.01Z" fill="#091440"/>
<path d="M324.99 175.01H220.99V200.01H324.99V175.01Z" fill="#091440"/>
<path d="M0 50L50 75V50L24.99 37.5L50 25V0L0 25V50Z" fill="#C4CBD2"/>
<path d="M350 175L375 187.5L350 200V225L400 200V175L350 150V175Z" fill="#C4CBD2"/>
<path d="M324.99 25.01H74.9902V50.01H324.99V25.01Z" fill="#091440"/>
<path d="M199.99 75.01H74.9902V100.01H199.99V75.01Z" fill="#091440"/>
<path d="M324.99 125.01H74.9902V150.01H324.99V125.01Z" fill="#091440"/>
</svg>
