<svg width="400" height="350" viewBox="0 0 400 350" fill="none" xmlns="http://www.w3.org/2000/svg">
<path d="M50.19 50.2718V49.9518C50.1866 45.8521 50.6904 41.7678 51.69 37.7918H0V62.7918H51.77C50.7186 58.7016 50.1877 54.495 50.19 50.2718V50.2718Z" fill="#091440"/>
<path d="M350.16 175.132V175.292C350.166 179.508 349.638 183.708 348.59 187.792H400V162.792H348.66C349.659 166.775 350.163 170.866 350.16 174.972V175.132Z" fill="#091440"/>
<path d="M250.21 175.292V174.972C250.212 170.866 250.716 166.776 251.71 162.792H0V187.792H251.78C250.737 183.707 250.209 179.508 250.21 175.292V175.292Z" fill="#091440"/>
<path d="M50.19 300.292V299.972C50.1872 295.866 50.691 291.775 51.69 287.792H0V312.792H51.76C50.7117 308.708 50.1842 304.508 50.19 300.292V300.292Z" fill="#091440"/>
<path d="M150.14 300.132V300.292C150.146 304.508 149.619 308.708 148.57 312.792H400V287.792H148.64C149.639 291.775 150.143 295.866 150.14 299.972V300.132Z" fill="#091440"/>
<path d="M50.1895 50.1118C50.6001 63.0924 56.0453 75.4039 65.3726 84.4408C74.6999 93.4777 87.1774 98.5309 100.164 98.5309C113.152 98.5309 125.629 93.4777 134.956 84.4408C144.284 75.4039 149.729 63.0924 150.139 50.1118V49.9518C150.143 45.8521 149.639 41.7677 148.639 37.7918C148.622 37.6839 148.599 37.5771 148.569 37.4718C145.793 26.7454 139.533 17.245 130.772 10.4626C122.01 3.6802 111.244 0 100.164 0C89.0847 0 78.3187 3.6802 69.5574 10.4626C60.796 17.245 54.5357 26.7454 51.7595 37.4718C51.7303 37.5771 51.707 37.6839 51.6895 37.7918C50.6899 41.7677 50.186 45.8521 50.1895 49.9518V50.1118ZM100.189 24.9718C105.134 24.9718 109.967 26.438 114.079 29.1851C118.19 31.9321 121.394 35.8366 123.286 40.4047C125.179 44.9729 125.674 49.9995 124.709 54.8491C123.744 59.6986 121.363 64.1531 117.867 67.6495C114.371 71.1458 109.916 73.5268 105.067 74.4914C100.217 75.4561 95.1905 74.961 90.6224 73.0688C86.0542 71.1766 82.1498 67.9723 79.4027 63.861C76.6557 59.7498 75.1895 54.9163 75.1895 49.9718C75.1895 43.3466 77.8193 36.9923 82.5012 32.3047C87.1831 27.6172 93.5343 24.9797 100.159 24.9718H100.189Z" fill="#C4CBD2"/>
<path d="M50.1895 300.132C50.2042 304.294 50.7315 308.439 51.7595 312.472C54.5357 323.198 60.796 332.699 69.5574 339.481C78.3187 346.263 89.0847 349.944 100.164 349.944C111.244 349.944 122.01 346.263 130.772 339.481C139.533 332.699 145.793 323.198 148.569 312.472C149.597 308.439 150.125 304.294 150.139 300.132V299.972C150.142 295.866 149.639 291.775 148.639 287.792C148.639 287.682 148.639 287.572 148.569 287.472C145.793 276.745 139.533 267.245 130.772 260.463C122.01 253.68 111.244 250 100.164 250C89.0847 250 78.3187 253.68 69.5574 260.463C60.796 267.245 54.5357 276.745 51.7595 287.472C51.7595 287.572 51.7595 287.682 51.6895 287.792C50.6904 291.775 50.1866 295.866 50.1895 299.972V300.132ZM100.189 274.992C105.134 274.992 109.967 276.458 114.079 279.205C118.19 281.952 121.394 285.857 123.286 290.425C125.179 294.993 125.674 300.02 124.709 304.869C123.744 309.719 121.363 314.173 117.867 317.669C114.371 321.166 109.916 323.547 105.067 324.511C100.217 325.476 95.1905 324.981 90.6224 323.089C86.0542 321.197 82.1498 317.992 79.4027 313.881C76.6557 309.77 75.1895 304.936 75.1895 299.992C75.1895 293.367 77.8193 287.012 82.5012 282.325C87.1831 277.637 93.5343 275 100.159 274.992H100.189Z" fill="#C4CBD2"/>
<path d="M250.211 175.132C250.226 179.294 250.753 183.439 251.781 187.472C254.844 199.213 262.073 209.44 272.119 216.246C282.166 223.052 294.344 225.972 306.385 224.462C318.425 222.951 329.505 217.114 337.559 208.038C345.614 198.962 350.093 187.266 350.161 175.132V174.972C350.164 170.866 349.66 166.775 348.661 162.792C348.661 162.682 348.661 162.572 348.591 162.472C345.815 151.745 339.554 142.245 330.793 135.463C322.032 128.68 311.266 125 300.186 125C289.106 125 278.34 128.68 269.579 135.463C260.817 142.245 254.557 151.745 251.781 162.472C251.781 162.572 251.781 162.682 251.711 162.792C250.717 166.776 250.213 170.866 250.211 174.972V175.132ZM300.211 149.992C305.155 149.992 309.989 151.458 314.1 154.205C318.211 156.952 321.416 160.857 323.308 165.425C325.2 169.993 325.695 175.02 324.731 179.869C323.766 184.719 321.385 189.173 317.889 192.669C314.392 196.166 309.938 198.547 305.088 199.511C300.239 200.476 295.212 199.981 290.644 198.089C286.076 196.197 282.171 192.992 279.424 188.881C276.677 184.77 275.211 179.936 275.211 174.992C275.211 168.365 277.842 162.009 282.526 157.321C287.21 152.633 293.564 149.997 300.191 149.992H300.211Z" fill="#C4CBD2"/>
<path d="M150.141 50.1118V50.2718C150.143 54.495 149.612 58.7016 148.561 62.7918H400.001V37.7918H148.641C149.64 41.7678 150.144 45.8521 150.141 49.9518V50.1118Z" fill="#091440"/>
</svg>
