<svg id="Layer_1" data-name="Layer 1" xmlns="http://www.w3.org/2000/svg" viewBox="0 0 450 450"><defs><style>.cls-1{fill:#121f3c;}.cls-2{fill:#8795a2;}.cls-3{fill:none;}</style></defs><title>Config2</title><path id="_Path_" data-name="&lt;Path&gt;" class="cls-1" d="M75.19,99.69v-.21A49.92,49.92,0,0,1,76.76,87H25v25H76.67a50.31,50.31,0,0,1-1.48-12.1Z"/><path id="_Path_2" data-name="&lt;Path&gt;" class="cls-1" d="M175.14,99.48v.42a50.31,50.31,0,0,1-1.48,12.1H425V87H173.57A49.92,49.92,0,0,1,175.14,99.48Z"/><path id="_Path_3" data-name="&lt;Path&gt;" class="cls-1" d="M375.17,224.5c0,.07,0,.14,0,.21s0,.14,0,.21A50.09,50.09,0,0,1,373.68,237H425V212H373.59A50,50,0,0,1,375.17,224.5Z"/><path id="_Path_4" data-name="&lt;Path&gt;" class="cls-1" d="M275.21,224.71v-.21a50.48,50.48,0,0,1,1.57-12.5H25v25H276.69a50.08,50.08,0,0,1-1.48-12.08Z"/><path id="_Path_5" data-name="&lt;Path&gt;" class="cls-1" d="M75.19,349.71v-.21A50,50,0,0,1,76.76,337H25v25H76.67a50.08,50.08,0,0,1-1.48-12.08Z"/><path id="_Path_6" data-name="&lt;Path&gt;" class="cls-1" d="M175.14,349.5v.42A50.08,50.08,0,0,1,173.66,362H425V337H173.57A50,50,0,0,1,175.14,349.5Z"/><path id="_Path_7" data-name="&lt;Path&gt;" class="cls-2" d="M175.14,349.71a50,50,0,0,0-99.95,0v.21A50.08,50.08,0,0,0,76.67,362l.09.42a50,50,0,0,0,96.81,0l.09-.42a50.08,50.08,0,0,0,1.48-12.08Z"/><path id="_Path_8" data-name="&lt;Path&gt;" class="cls-2" d="M375.16,224.71a50,50,0,0,0-100,0v.21A50.08,50.08,0,0,0,276.69,237l.09.42a50,50,0,0,0,96.81,0c0-.14.06-.28.09-.42a50.09,50.09,0,0,0,1.49-12.08C375.17,224.85,375.16,224.78,375.16,224.71Z"/><path id="_Path_9" data-name="&lt;Path&gt;" class="cls-2" d="M175.14,99.69a50,50,0,0,0-99.95,0v.21A50.31,50.31,0,0,0,76.67,112c0,.14.06.28.1.42a50,50,0,0,0,96.79,0c0-.14.06-.28.1-.42a50.31,50.31,0,0,0,1.48-12.1Z"/><rect class="cls-3" width="450" height="450"/></svg>