<svg id="Layer_1" data-name="Layer 1" xmlns="http://www.w3.org/2000/svg" viewBox="0 0 450 450"><defs><style>.cls-1{fill:none;}.cls-2{fill:#132f4b;}.cls-3{fill:#121f3c;}.cls-4{fill:#8795a2;}</style></defs><title>Config1</title><circle id="_Path_" data-name="&lt;Path&gt;" class="cls-1" cx="125.17" cy="100.16" r="24.98" transform="translate(-19.66 31.44) rotate(-13.28)"/><circle id="_Path_2" data-name="&lt;Path&gt;" class="cls-1" cx="325.19" cy="225.18" r="24.98" transform="translate(-7.3 439.44) rotate(-67.5)"/><circle id="_Path_3" data-name="&lt;Path&gt;" class="cls-1" cx="125.17" cy="350.18" r="24.98" transform="translate(-122.76 73) rotate(-22.14)"/><path id="_Path_4" data-name="&lt;Path&gt;" class="cls-2" d="M75.19,100.48v-.32A49.7,49.7,0,0,1,76.69,88H25v25H76.77A50.18,50.18,0,0,1,75.19,100.48Z"/><path id="_Path_5" data-name="&lt;Path&gt;" class="cls-2" d="M375.16,225.34v.16a50,50,0,0,1-1.57,12.5H425V213H373.66a49.92,49.92,0,0,1,1.5,12.18Z"/><path id="_Path_6" data-name="&lt;Path&gt;" class="cls-3" d="M275.21,225.5v-.32a50.41,50.41,0,0,1,1.5-12.18H25v25H276.78A50.48,50.48,0,0,1,275.21,225.5Z"/><path id="_Path_7" data-name="&lt;Path&gt;" class="cls-2" d="M75.19,350.5v-.32A49.92,49.92,0,0,1,76.69,338H25v25H76.76A50,50,0,0,1,75.19,350.5Z"/><path id="_Path_8" data-name="&lt;Path&gt;" class="cls-3" d="M175.14,350.34v.16a50,50,0,0,1-1.57,12.5H425V338H173.64a49.92,49.92,0,0,1,1.5,12.18Z"/><path id="_Compound_Path_" data-name="&lt;Compound Path&gt;" class="cls-4" d="M75.19,100.32a50,50,0,0,0,99.95,0v-.16A49.7,49.7,0,0,0,173.64,88a3,3,0,0,0-.07-.32,50,50,0,0,0-96.81,0,3,3,0,0,0-.07.32,49.7,49.7,0,0,0-1.5,12.16Zm50-25.14a25,25,0,1,1-25,25A25,25,0,0,1,125.16,75.18Z"/><path id="_Compound_Path_2" data-name="&lt;Compound Path&gt;" class="cls-4" d="M75.19,350.34a50.69,50.69,0,0,0,1.57,12.34,50,50,0,0,0,96.81,0,50.69,50.69,0,0,0,1.57-12.34v-.16a49.92,49.92,0,0,0-1.5-12.18c0-.11,0-.22-.07-.32a50,50,0,0,0-96.81,0c0,.1,0,.21-.07.32a49.92,49.92,0,0,0-1.5,12.18Zm50-25.14a25,25,0,1,1-25,25A25,25,0,0,1,125.16,325.2Z"/><path id="_Compound_Path_3" data-name="&lt;Compound Path&gt;" class="cls-4" d="M275.21,225.34a50.69,50.69,0,0,0,1.57,12.34,50,50,0,0,0,98.38-12.34v-.16a49.92,49.92,0,0,0-1.5-12.18c0-.11,0-.22-.07-.32a50,50,0,0,0-96.81,0c0,.1,0,.21-.07.32a50.41,50.41,0,0,0-1.5,12.18Zm50-25.14a25,25,0,1,1-25,25A25,25,0,0,1,325.19,200.2Z"/><path id="_Path_9" data-name="&lt;Path&gt;" class="cls-3" d="M175.14,100.32v.16A50.18,50.18,0,0,1,173.56,113H425V88H173.64a49.7,49.7,0,0,1,1.5,12.16Z"/><rect class="cls-1" width="450" height="450"/></svg>