<svg id="Layer_1" data-name="Layer 1" xmlns="http://www.w3.org/2000/svg" viewBox="0 0 450 450"><defs><style>.cls-1{fill:#121f3c;}.cls-2{fill:#8997a5;}.cls-3{fill:none;}</style></defs><title>Constitution</title><path class="cls-1" d="M224.48,131.16a49.46,49.46,0,0,1-22.66-5.48L212,369.48h25l10.16-243.8A49.46,49.46,0,0,1,224.48,131.16Z"/><path class="cls-1" d="M395.3,235.49l0-.06H374.44l0,.06H300.28v-.06H279.48l0,.06h-14v10A71.58,71.58,0,0,0,337,317h0a71.58,71.58,0,0,0,71.49-71.49v-10Z"/><path class="cls-1" d="M171.33,235.43H150.48l0,.06H76.32v-.06H55.52l0,.06h-14v10a71.49,71.49,0,0,0,143,0v-10H171.34Z"/><path class="cls-1" d="M320.3,94.07,286.69,210.46H307.5l29.56-102.35,30.05,102.35H388L353.78,94.07h20.7v-25h-102a49.93,49.93,0,0,1,0,25Z"/><path class="cls-1" d="M83.54,210.46,113.1,108.11l30.05,102.35H164L129.82,94.07h46.66a49.93,49.93,0,0,1,0-25h-102v25H96.34L62.73,210.46Z"/><circle id="_Path_" data-name="&lt;Path&gt;" class="cls-2" cx="224.48" cy="81.57" r="26.04"/><path id="_Path_2" data-name="&lt;Path&gt;" class="cls-2" d="M262,369.48a37.5,37.5,0,0,0-75,0Z"/><path id="_Rectangle_" data-name="&lt;Rectangle&gt;" class="cls-1" d="M174.48,369.48h100a25,25,0,0,1,25,25v0a0,0,0,0,1,0,0h-150a0,0,0,0,1,0,0v0A25,25,0,0,1,174.48,369.48Z"/><rect class="cls-3" width="450" height="450"/></svg>