<svg width="367" height="339" viewBox="0 0 367 339" fill="none" xmlns="http://www.w3.org/2000/svg">
<path d="M182.99 75.6294C175.108 75.6344 167.339 73.7556 160.33 70.1494L170.49 313.949H195.49L205.65 70.1494C198.641 73.7556 190.872 75.6344 182.99 75.6294Z" fill="#091440"/>
<path d="M353.811 179.959V179.899H332.97V179.959H258.791V179.899H237.98V179.959H223.98V189.959C223.999 208.923 231.542 227.104 244.953 240.511C258.364 253.919 276.547 261.456 295.51 261.469C314.464 261.446 332.633 253.906 346.035 240.504C359.437 227.102 366.977 208.933 367 189.979V179.979L353.811 179.959Z" fill="#091440"/>
<path d="M129.84 179.899H108.99V179.959H34.8101V179.899H14V179.959H0V189.959C0 208.922 7.53304 227.109 20.9419 240.518C34.3507 253.926 52.537 261.459 71.5 261.459C90.463 261.459 108.649 253.926 122.058 240.518C135.467 227.109 143 208.922 143 189.959V179.959H129.83L129.84 179.899Z" fill="#091440"/>
<path d="M278.809 38.54L245.199 154.93H266.009L295.569 52.5801L325.619 154.93H346.509L312.329 38.54H333.029V13.54H231.029C233.149 21.7385 233.149 30.3415 231.029 38.54H278.809Z" fill="#091440"/>
<path d="M42.0503 154.93L71.6104 52.5801L101.66 154.93H122.51L88.3303 38.54H134.99C132.87 30.3415 132.87 21.7385 134.99 13.54H32.9902V38.54H54.8503L21.2402 154.93H42.0503Z" fill="#091440"/>
<path d="M182.989 52.0801C197.371 52.0801 209.029 40.4215 209.029 26.04C209.029 11.6585 197.371 0 182.989 0C168.608 0 156.949 11.6585 156.949 26.04C156.949 40.4215 168.608 52.0801 182.989 52.0801Z" fill="#C4CBD2"/>
<path d="M220.51 313.95C220.51 304.004 216.559 294.466 209.526 287.433C202.494 280.4 192.955 276.45 183.01 276.45C173.064 276.45 163.526 280.4 156.493 287.433C149.461 294.466 145.51 304.004 145.51 313.95H220.51Z" fill="#C4CBD2"/>
<path d="M132.99 313.95H232.99C239.621 313.95 245.98 316.584 250.668 321.272C255.356 325.96 257.99 332.319 257.99 338.95H107.99C107.99 332.319 110.624 325.96 115.312 321.272C120.001 316.584 126.36 313.95 132.99 313.95Z" fill="#091440"/>
</svg>
