<svg width="375" height="350" viewBox="0 0 375 350" fill="none" xmlns="http://www.w3.org/2000/svg">
<path d="M312.5 174.79C312.5 209.3 341 237.29 375 237.29V112.29C341 112.29 312.5 140.27 312.5 174.79Z" fill="#C4CBD2"/>
<path d="M112.73 124.81C90.4819 124.81 68.7331 131.407 50.2342 143.768C31.7353 156.129 17.3172 173.697 8.80308 194.252C0.288976 214.807 -1.9387 237.425 2.40175 259.246C6.7422 281.067 17.4558 301.11 33.1878 316.842C48.9199 332.574 68.9636 343.288 90.7846 347.629C112.605 351.969 135.223 349.741 155.778 341.227C176.333 332.713 193.902 318.295 206.262 299.796C218.623 281.297 225.22 259.548 225.22 237.3C225.251 222.519 222.362 207.878 216.719 194.216C211.077 180.555 202.792 168.142 192.34 157.69C181.889 147.238 169.476 138.954 155.814 133.311C142.153 127.669 127.511 124.78 112.73 124.81ZM175 250H125V300H100V250H50.0003V225H100V175H125V225H175V250Z" fill="#C4CBD2"/>
<path d="M125 175H100V225H50V250H100V300H125V250H175V225H125V175Z" fill="#121F3C"/>
<path d="M55.2399 50H325V30C325 22.078 321.867 14.4776 316.284 8.8572C310.701 3.23682 303.122 0.0528131 295.2 0H55.1999C48.126 0.0375979 41.2909 2.56298 35.8919 7.13377C30.4929 11.7046 26.8743 18.0293 25.6699 25C26.8755 31.9775 30.4999 38.3074 35.9072 42.879C41.3145 47.4506 48.1591 49.9718 55.2399 50Z" fill="#C4CBD2"/>
<path d="M25.83 25C25.77 25.36 25.64 25.72 25.59 26.08C25.59 26.18 25.52 26.27 25.51 26.37C25.51 26.68 25.42 27 25.39 27.31L25.33 27.9C25.33 28.14 25.17 28.38 25.16 28.62C25.16 29.08 25 29.54 25 30V166.6C46 141.11 77.27 124.81 112.61 124.81C174.73 124.81 225.16 175.42 225.16 237.55C225.188 259.75 218.684 281.468 206.46 300H345.24C361.74 300 375 286 375 269.5V237.29C341 237.29 312.5 209.29 312.5 174.79C312.5 140.29 341 112.29 375 112.29V80C375.027 72.0769 371.907 64.4672 366.327 58.8423C360.747 53.2173 353.163 50.0371 345.24 50H55.24C48.1779 50.0328 41.3394 47.5259 35.9718 42.9366C30.6041 38.3473 27.065 31.9814 26 25H25.83Z" fill="#091440"/>
</svg>
