<svg width="400" height="400" viewBox="0 0 400 400" fill="none" xmlns="http://www.w3.org/2000/svg">
<path d="M200 0C89.54 0 0 89.54 0 200C0 310.46 89.54 400 200 400C310.46 400 400 310.45 400 200C400 89.55 310.45 0 200 0ZM254.33 217L259.11 231.72L287.91 320.42V320.49L200 256.59L112.08 320.49V320.42L140.88 231.72L145.66 217L57.75 153H166.42L200 49.6499L233.58 153H342.26L254.33 217Z" fill="#091440"/>
<path d="M200 49.6499L166.42 153H57.75L145.66 217.02L140.88 231.74L112.08 320.44L112.1 320.43L200 256.6L287.91 320.5L287.89 320.43L259.11 231.74L254.33 217.02V217.01L342.25 153H233.58L200 49.6499Z" fill="#C4CBD2"/>
</svg>
