<svg id="Layer_1" data-name="Layer 1" xmlns="http://www.w3.org/2000/svg" viewBox="0 0 450 450"><defs><style>.cls-1{fill:none;}.cls-2{fill:#121f3c;}.cls-3{fill:#8795a2;}</style></defs><title>Credits</title><polygon id="_Path_" data-name="&lt;Path&gt;" class="cls-1" points="170.4 242.02 165.62 256.74 170.4 242.02 170.4 242.02"/><polygon id="_Path_2" data-name="&lt;Path&gt;" class="cls-1" points="136.82 345.5 224.74 281.6 136.84 345.43 136.82 345.5"/><polygon id="_Path_3" data-name="&lt;Path&gt;" class="cls-1" points="312.65 345.44 283.85 256.74 312.63 345.43 312.65 345.44"/><polygon id="_Path_4" data-name="&lt;Path&gt;" class="cls-1" points="279.07 242.02 366.99 178 279.07 242.01 279.07 242.02"/><path id="_Compound_Path_" data-name="&lt;Compound Path&gt;" class="cls-2" d="M224.74,25c-110.46,0-200,89.54-200,200s89.54,200,200,200,200-89.55,200-200S335.19,25,224.74,25Zm54.33,217,4.78,14.72,28.8,88.7h0l0,.07-87.91-63.9-87.92,63.9,0-.07h0l28.8-88.7L170.4,242,82.49,178H191.16L224.74,74.65,258.32,178H367Z"/><polygon id="_Path_5" data-name="&lt;Path&gt;" class="cls-3" points="224.74 74.65 191.16 178 82.49 178 170.4 242.02 170.4 242.02 165.62 256.74 136.82 345.44 136.84 345.43 224.74 281.6 312.65 345.5 312.63 345.43 283.85 256.74 279.07 242.02 279.07 242.01 366.99 178 258.32 178 224.74 74.65"/><rect class="cls-1" width="450" height="450"/></svg>