<svg id="Layer_1" data-name="Layer 1" xmlns="http://www.w3.org/2000/svg" viewBox="0 0 450 450"><defs><style>.cls-1{fill:none;}.cls-2{fill:#121f3c;}.cls-3{fill:#8795a2;}</style></defs><title>Cryptocurrency</title><path id="_Path_" data-name="&lt;Path&gt;" class="cls-1" d="M339.85,234.79l.57-.57a73.91,73.91,0,0,0-37.62-20.29,73.91,73.91,0,0,1,37.62,20.29Z"/><path id="_Path_2" data-name="&lt;Path&gt;" class="cls-1" d="M322.81,322.4l0,0,17.07,17.13Z"/><path id="_Path_3" data-name="&lt;Path&gt;" class="cls-1" d="M287.57,337a49.47,49.47,0,0,1-35.22-14.59A49.45,49.45,0,0,0,287.56,337Z"/><path id="_Path_4" data-name="&lt;Path&gt;" class="cls-1" d="M275,213.36a74.67,74.67,0,0,0-62.42,73.82,74.74,74.74,0,0,1,21.93-53A73.75,73.75,0,0,1,275,213.36Z"/><path id="_Path_5" data-name="&lt;Path&gt;" class="cls-1" d="M287.56,237.39A49.63,49.63,0,0,1,322.75,252l0,0A49.64,49.64,0,0,0,287.56,237.39Z"/><path id="_Path_6" data-name="&lt;Path&gt;" class="cls-1" d="M162.76,112.74A49.65,49.65,0,0,1,198,127.3l0,0A49.64,49.64,0,0,0,162.76,112.74Z"/><path id="_Path_7" data-name="&lt;Path&gt;" class="cls-2" d="M127.56,127.3a49.88,49.88,0,0,1,70.41,0l0,0,17.61-17.73A74.27,74.27,0,0,0,175,88.73V50H150V88.74a73.57,73.57,0,0,0-40.3,20.83,75,75,0,0,0,24.78,122.35h0c1-2.71,2-5.4,3.16-8.06q3.24-7.62,7.19-14.83a49.85,49.85,0,0,1-17.28-81.72Z"/><path id="_Compound_Path_" data-name="&lt;Compound Path&gt;" class="cls-3" d="M149.88,287.18A137.68,137.68,0,1,0,287.56,149.5,137.68,137.68,0,0,0,149.88,287.18ZM302.8,213.93a73.91,73.91,0,0,1,37.62,20.29l-.57.57-17,17.16,0,0,0,0a49.83,49.83,0,1,0,0,70.45l0,0,0,0,17,17.16.57.58A75.32,75.32,0,0,1,300,361v39H275V361.05a75,75,0,0,1-40.55-126.83A73.92,73.92,0,0,1,275,213.36V175h25v38.41C300.94,213.57,301.87,213.74,302.8,213.93Z"/><path id="_Path_8" data-name="&lt;Path&gt;" class="cls-2" d="M275,175v38.36a73.75,73.75,0,0,0-40.49,20.86A74.88,74.88,0,0,0,275,361.05V400h25V361a75.32,75.32,0,0,0,40.42-20.85l-.57-.58-17.07-17.13,0,0A49.42,49.42,0,0,1,287.57,337h0a49.81,49.81,0,1,1,35.22-85.07l0,0,17-17.16.57-.57a73.91,73.91,0,0,0-37.62-20.29c-.93-.19-1.86-.36-2.8-.52V175Z"/><path id="_Path_9" data-name="&lt;Path&gt;" class="cls-3" d="M125.05,294.7q-.17-3.74-.17-7.52a161.91,161.91,0,0,1,9.63-55.26h0A75,75,0,0,1,109.7,109.57,73.57,73.57,0,0,1,150,88.74V50h25V88.73a74.27,74.27,0,0,1,40.62,20.84L198,127.3l0,0,0,0A49.8,49.8,0,1,0,144.84,209,162.51,162.51,0,0,1,287.56,124.5q3.76,0,7.52.17a137.56,137.56,0,1,0-170,170Z"/><rect class="cls-1" width="450" height="450"/></svg>