<svg id="Layer_1" data-name="Layer 1" xmlns="http://www.w3.org/2000/svg" viewBox="0 0 450 450"><defs><style>.cls-1{fill:#8795a2;}.cls-2{fill:#121f3c;}.cls-3{fill:none;}</style></defs><title>Darkroom</title><path id="_Path_" data-name="&lt;Path&gt;" class="cls-1" d="M44.19,404.62s48.72-13.67,157-112.37l-44.66-44.66C54.87,358.59,44.19,404.62,44.19,404.62Z"/><path id="_Path_2" data-name="&lt;Path&gt;" class="cls-1" d="M284.5,210.73l65.67-80.57a62.48,62.48,0,0,1-31.5-31.55l-80.13,66.16Z"/><polygon id="_Path_3" data-name="&lt;Path&gt;" class="cls-2" points="220.15 181.73 108.63 70.22 61.55 117.29 173.53 229.28 219.5 275.24 373.42 429.17 420.5 382.09 267.07 228.66 220.15 181.73"/><polygon id="_Path_4" data-name="&lt;Path&gt;" class="cls-2" points="20.33 29 43.87 99.62 90.95 52.54 20.33 29"/><g id="_Group_" data-name="&lt;Group&gt;"><path class="cls-1" d="M349.19,46.65a37.45,37.45,0,1,0,53,53C428.63,73.13,419.8,29,419.8,29S375.67,20.17,349.19,46.65Z"/></g><rect class="cls-3" width="450" height="450"/></svg>