<svg width="333" height="257" viewBox="0 0 333 257" fill="none" xmlns="http://www.w3.org/2000/svg">
<path d="M103.908 207.656C89.215 207.656 75.1244 201.808 64.7351 191.397C54.3459 180.986 48.5091 166.867 48.5091 152.144C48.5091 137.421 54.3459 123.302 64.7351 112.891C75.1244 102.48 89.215 96.632 103.908 96.632H185.979L74.1155 0H0.00435561L64.7797 56.1904C42.4503 65.3091 23.9746 81.9163 12.511 103.173C1.04735 124.43 -2.69262 149.016 1.93042 172.73C6.55346 196.444 19.2526 217.812 37.8569 233.183C56.4612 248.554 79.8156 256.972 103.928 257H186L130.006 207.656H103.908Z" fill="#091440"/>
<path d="M228.135 0H146L202.016 47.288H228.135C242.838 47.288 256.94 53.1365 267.337 63.547C277.734 73.9575 283.575 88.0773 283.575 102.8C283.575 117.523 277.734 131.642 267.337 142.053C256.94 152.464 242.838 158.312 228.135 158.312H146L258.032 257H332.219L267.497 200.46C286.499 192.756 302.842 179.665 314.52 162.794C326.465 145.556 332.909 125.097 333 104.116C332.856 46.4656 285.629 0 228.135 0Z" fill="#091440"/>
</svg>
