<?xml version="1.0" encoding="UTF-8" standalone="no"?>
<!-- Created with Inkscape (http://www.inkscape.org/) -->

<svg
   xmlns:dc="http://purl.org/dc/elements/1.1/"
   xmlns:cc="http://creativecommons.org/ns#"
   xmlns:rdf="http://www.w3.org/1999/02/22-rdf-syntax-ns#"
   xmlns:svg="http://www.w3.org/2000/svg"
   xmlns="http://www.w3.org/2000/svg"
   xmlns:sodipodi="http://sodipodi.sourceforge.net/DTD/sodipodi-0.dtd"
   xmlns:inkscape="http://www.inkscape.org/namespaces/inkscape"
   width="74.612503mm"
   height="62.177082mm"
   viewBox="0 0 74.612503 62.177082"
   version="1.1"
   id="svg3777"
   inkscape:version="0.92.3 (2405546, 2018-03-11)"
   sodipodi:docname="22drawing.svg">
  <defs
     id="defs3771" />
  <sodipodi:namedview
     id="base"
     pagecolor="#ffffff"
     bordercolor="#666666"
     borderopacity="1.0"
     inkscape:pageopacity="0.0"
     inkscape:pageshadow="2"
     inkscape:zoom="0.35"
     inkscape:cx="621"
     inkscape:cy="-365.35715"
     inkscape:document-units="mm"
     inkscape:current-layer="layer1"
     showgrid="false"
     inkscape:window-width="1600"
     inkscape:window-height="848"
     inkscape:window-x="-8"
     inkscape:window-y="-8"
     inkscape:window-maximized="1"
     fit-margin-top="0"
     fit-margin-left="0"
     fit-margin-right="0"
     fit-margin-bottom="0" />
  <metadata
     id="metadata3774">
    <rdf:RDF>
      <cc:Work
         rdf:about="">
        <dc:format>image/svg+xml</dc:format>
        <dc:type
           rdf:resource="http://purl.org/dc/dcmitype/StillImage" />
        <dc:title></dc:title>
      </cc:Work>
    </rdf:RDF>
  </metadata>
  <g
     inkscape:label="Layer 1"
     inkscape:groupmode="layer"
     id="layer1"
     transform="translate(58.472917,10.011161)">
    <path
       id="path3745"
       d="M -42.928646,5.5331105 -58.472917,-10.011161 h 16.787812 l 24.870834,24.870833 h -16.787813 a 12.435417,12.435417 0 0 0 0,24.870834 h 6.217709 l 12.435416,12.435416 H -33.602084 A 24.870833,24.870833 0 0 1 -58.472917,27.295089 c 0,-10.085917 4.974167,-18.2165625 15.544271,-21.7619785 z"
       class="b"
       inkscape:connector-curvature="0"
       style="fill:#091440;stroke-width:0.26458332" />
    <path
       id="path3747"
       d="M 0.59531233,36.621651 16.139583,52.165922 H -0.64822967 L -25.519063,27.295089 h 16.7878133 a 12.435417,12.435417 0 0 0 0,-24.8708325 H -14.948959 L -27.384375,-10.011161 H -8.7312497 A 24.870833,24.870833 0 0 1 16.139583,14.859672 c 0,10.085917 -4.974167,18.216563 -15.54427067,21.761979 z"
       class="b"
       inkscape:connector-curvature="0"
       style="fill:#091440;stroke-width:0.26458332" />
  </g>
</svg>
