<svg width="375" height="350" viewBox="0 0 375 350" fill="none" xmlns="http://www.w3.org/2000/svg">
<path d="M312.26 174.79C312.26 209.3 340.76 237.29 374.76 237.29V112.29C340.76 112.29 312.26 140.27 312.26 174.79Z" fill="#C4CBD2"/>
<path d="M55.001 50H324.761V30C324.761 22.078 321.628 14.4776 316.045 8.8572C310.462 3.23682 302.883 0.0528131 294.961 0H54.9609C47.8802 0.0282263 41.0352 2.54936 35.6279 7.12096C30.2206 11.6926 26.5962 18.0225 25.3906 25C26.5974 31.9842 30.228 38.3194 35.6436 42.8919C41.0591 47.4643 47.9133 49.9812 55.001 50Z" fill="#C4CBD2"/>
<path d="M25.5898 25C25.5298 25.36 25.3996 25.72 25.3496 26.08C25.3496 26.18 25.2795 26.27 25.2695 26.37C25.2695 26.68 25.1799 27 25.1499 27.31L25.0898 27.9C25.0898 28.14 24.9299 28.38 24.9199 28.62C24.9199 29.08 24.7598 29.54 24.7598 30V166.6C45.7598 141.11 77.0296 124.81 112.37 124.81C174.49 124.81 224.92 175.42 224.92 237.55C224.947 259.75 218.444 281.468 206.22 300H345C361.5 300 374.76 286 374.76 269.5V237.29C340.76 237.29 312.26 209.29 312.26 174.79C312.26 140.29 340.76 112.29 374.76 112.29V80C374.786 72.0769 371.667 64.4672 366.087 58.8423C360.507 53.2173 352.923 50.0371 345 50H55C47.938 50.0328 41.0991 47.5259 35.7314 42.9366C30.3638 38.3473 26.8248 31.9814 25.7598 25H25.5898Z" fill="#091440"/>
<path d="M112.49 124.81C90.2417 124.81 68.4929 131.407 49.994 143.768C31.4951 156.129 17.077 173.697 8.56287 194.252C0.04877 214.807 -2.17895 237.425 2.1615 259.246C6.50196 281.067 17.2156 301.11 32.9476 316.842C48.6796 332.574 68.7234 343.288 90.5443 347.629C112.365 351.969 134.983 349.741 155.538 341.227C176.093 332.713 193.662 318.295 206.022 299.796C218.383 281.297 224.98 259.548 224.98 237.3C225.011 222.519 222.121 207.878 216.479 194.216C210.836 180.555 202.552 168.142 192.1 157.69C181.648 147.238 169.236 138.954 155.574 133.311C141.912 127.669 127.271 124.78 112.49 124.81Z" fill="#C4CBD2"/>
<path d="M175.141 224.99H50.1406V249.99H175.141V224.99Z" fill="#091440"/>
</svg>
