<svg id="Layer_1" data-name="Layer 1" xmlns="http://www.w3.org/2000/svg" viewBox="0 0 450 450"><defs><style>.cls-1{fill:#8795a2;}.cls-2{fill:#121f3c;}.cls-3{fill:none;}</style></defs><title>DeleteWallet</title><path id="_Path_" data-name="&lt;Path&gt;" class="cls-1" d="M349.5,224.79c0,34.51,28.5,62.5,62.5,62.5v-125C378,162.29,349.5,190.27,349.5,224.79Z"/><path id="_Compound_Path_" data-name="&lt;Compound Path&gt;" class="cls-1" d="M149.73,174.81A112.49,112.49,0,1,0,262.22,287.3,112.26,112.26,0,0,0,149.73,174.81ZM212,300H87V275H212Z"/><rect id="_Path_2" data-name="&lt;Path&gt;" class="cls-2" x="87" y="275" width="125" height="25"/><path id="_Path_3" data-name="&lt;Path&gt;" class="cls-1" d="M92.24,100H362V80a30,30,0,0,0-29.8-30h-240A30.13,30.13,0,0,0,62.67,75,30.13,30.13,0,0,0,92.24,100Z"/><path id="_Path_4" data-name="&lt;Path&gt;" class="cls-2" d="M62.83,75c-.06.36-.19.72-.24,1.08,0,.1-.07.19-.08.29,0,.31-.09.63-.12.94l-.06.59c0,.24-.16.48-.17.72,0,.46-.16.92-.16,1.38V216.6c21-25.49,52.27-41.79,87.61-41.79,62.12,0,112.55,50.61,112.55,112.74A113.16,113.16,0,0,1,243.46,350H382.24c16.5,0,29.76-14,29.76-30.5V287.29c-34,0-62.5-28-62.5-62.5s28.5-62.5,62.5-62.5V130a29.9,29.9,0,0,0-29.76-30h-290A29.44,29.44,0,0,1,63,75h-.17Z"/><rect class="cls-3" width="450" height="450"/></svg>