<svg id="Layer_1" data-name="Layer 1" xmlns="http://www.w3.org/2000/svg" viewBox="0 0 450 450"><defs><style>.cls-1{fill:#8795a2;}.cls-2{fill:#121f3c;}.cls-3{fill:none;}</style></defs><title>Exchanges</title><polygon id="_Path_" data-name="&lt;Path&gt;" class="cls-1" points="100 400 75 400 75 363 74.71 363 50 363 50 400 25 400 25 425 100 425 100 400"/><polygon id="_Path_2" data-name="&lt;Path&gt;" class="cls-1" points="75 213 75 175 100 175 100 150 25 150 25 175 50 175 50 213 74.71 213 75 213"/><polygon id="_Path_3" data-name="&lt;Path&gt;" class="cls-2" points="75 363 100 363 100 213 75 213 74.71 213 50 213 49.71 213 25 213 25 363 49.71 363 50 363 74.71 363 75 363"/><polygon id="_Path_4" data-name="&lt;Path&gt;" class="cls-1" points="158 288 158 325 133 325 133 350 208 350 208 325 183 325 183 288 158.05 288 158 288"/><polygon id="_Path_5" data-name="&lt;Path&gt;" class="cls-1" points="241 275 241 300 316 300 316 275 291 275 291 238 266.38 238 266 238 266 275 241 275"/><polygon id="_Path_6" data-name="&lt;Path&gt;" class="cls-1" points="375 313 375 350 350 350 350 375 425 375 425 350 400 350 400 313 399.71 313 375 313"/><polygon id="_Path_7" data-name="&lt;Path&gt;" class="cls-1" points="350 125 375 125 375 163 399.71 163 400 163 400 125 425 125 425 100 350 100 350 125"/><polygon id="_Path_8" data-name="&lt;Path&gt;" class="cls-2" points="375 163 374.71 163 350 163 350 313 374.71 313 375 313 399.71 313 400 313 425 313 425 163 400 163 399.71 163 375 163"/><polygon id="_Path_9" data-name="&lt;Path&gt;" class="cls-1" points="133 100 158 100 158 138 158.05 138 183 138 183 100 208 100 208 75 133 75 133 100"/><polygon id="_Path_10" data-name="&lt;Path&gt;" class="cls-2" points="158 138 133 138 133 288 158 288 158.05 288 183 288 183.05 288 208 288 208 138 183.05 138 183 138 158.05 138 158 138"/><polygon id="_Path_11" data-name="&lt;Path&gt;" class="cls-1" points="291 88 291 50 316 50 316 25 241 25 241 50 266 50 266 88 266.38 88 291 88"/><polygon id="_Path_12" data-name="&lt;Path&gt;" class="cls-2" points="291 238 291.38 238 316 238 316 88 291.38 88 291 88 266.38 88 266 88 241 88 241 238 266 238 266.38 238 291 238"/><rect class="cls-3" width="450" height="450"/></svg>