<svg id="Layer_1" data-name="Layer 1" xmlns="http://www.w3.org/2000/svg" viewBox="0 0 450 450"><defs><style>.cls-1{fill:#8795a2;}.cls-2{fill:#121f3c;}.cls-3{fill:none;}</style></defs><title>Eye</title><circle id="_Path_" data-name="&lt;Path&gt;" class="cls-1" cx="225.24" cy="224.92" r="25"/><path id="_Compound_Path_" data-name="&lt;Compound Path&gt;" class="cls-1" d="M225.24,75.23c-93.1,0-171.34,63.67-193.54,149.84,22.2,86.18,100.44,149.85,193.54,149.85s171.34-63.67,193.54-149.85C396.58,138.9,318.35,75.23,225.24,75.23Zm0,249.84a100,100,0,1,1,39.31-192,37.49,37.49,0,1,0,52.66,52.67,100,100,0,0,1-92,139.3Z"/><path id="_Compound_Path_2" data-name="&lt;Compound Path&gt;" class="cls-2" d="M287.82,200a37.5,37.5,0,0,1-23.27-66.9,100,100,0,1,0,52.66,52.67A37.41,37.41,0,0,1,287.82,200Zm-62.58,49.92a25,25,0,1,1,25-25A25,25,0,0,1,225.24,249.92Z"/><rect class="cls-3" width="450" height="450"/></svg>