<svg id="Layer_1" data-name="Layer 1" xmlns="http://www.w3.org/2000/svg" viewBox="0 0 450 450"><defs><style>.cls-1{fill:#121f3c;}.cls-2{fill:#8795a2;}.cls-3{fill:#132f4b;}.cls-4{fill:none;}</style></defs><title>Flag</title><rect class="cls-1" x="350" y="262.5" width="24.99" height="125"/><rect id="_Rectangle_" data-name="&lt;Rectangle&gt;" class="cls-2" x="200" y="87.5" width="175" height="150"/><path id="_Rectangle_2" data-name="&lt;Rectangle&gt;" class="cls-1" d="M362.5,62.5h0A12.5,12.5,0,0,1,375,75V87.5a0,0,0,0,1,0,0H350a0,0,0,0,1,0,0V75a12.5,12.5,0,0,1,12.5-12.5Z"/><polygon id="_Path_" data-name="&lt;Path&gt;" class="cls-3" points="224.76 237.74 200 237.5 225 262.5 224.76 237.74"/><polygon class="cls-2" points="75 112.5 100 187.5 75 262.5 225 262.5 225 112.5 75 112.5"/><rect class="cls-4" width="450" height="450"/></svg>