<svg id="Layer_1" data-name="Layer 1" xmlns="http://www.w3.org/2000/svg" viewBox="0 0 450 450"><defs><style>.cls-1{fill:#121f3c;}.cls-2{fill:#8795a2;}.cls-3{fill:none;}</style></defs><title>Governance</title><rect id="_Path_" data-name="&lt;Path&gt;" class="cls-1" x="25" y="400" width="400" height="25"/><rect id="_Path_2" data-name="&lt;Path&gt;" class="cls-1" x="75" y="350" width="301" height="25"/><rect id="_Path_3" data-name="&lt;Path&gt;" class="cls-1" x="75" y="175" width="37" height="50"/><rect id="_Path_4" data-name="&lt;Path&gt;" class="cls-1" x="337" y="175" width="38" height="50"/><rect id="_Path_5" data-name="&lt;Path&gt;" class="cls-1" x="272" y="175" width="37" height="50"/><rect id="_Path_6" data-name="&lt;Path&gt;" class="cls-1" x="206" y="175" width="37" height="50"/><rect id="_Path_7" data-name="&lt;Path&gt;" class="cls-1" x="140" y="175" width="38" height="50"/><rect id="_Path_8" data-name="&lt;Path&gt;" class="cls-2" x="75" y="225" width="37" height="100"/><rect id="_Path_9" data-name="&lt;Path&gt;" class="cls-2" x="337" y="225" width="38" height="100"/><rect id="_Path_10" data-name="&lt;Path&gt;" class="cls-2" x="272" y="225" width="37" height="100"/><rect id="_Path_11" data-name="&lt;Path&gt;" class="cls-2" x="206" y="225" width="37" height="100"/><rect id="_Path_12" data-name="&lt;Path&gt;" class="cls-2" x="140" y="225" width="38" height="100"/><polygon id="_Path_13" data-name="&lt;Path&gt;" class="cls-1" points="25 125 25 150 425 150 425 125 225 25 25 125"/><rect class="cls-3" width="450" height="450"/></svg>