<svg id="Layer_1" data-name="Layer 1" xmlns="http://www.w3.org/2000/svg" viewBox="0 0 450 450"><defs><style>.cls-1{fill:#8795a2;}.cls-2{fill:#121f3c;}.cls-3{fill:none;}</style></defs><title>Groups</title><path id="_Path_" data-name="&lt;Path&gt;" class="cls-1" d="M357,321.36l-.06,0c-.82-.35-1.63-.69-2.46-1l-.14-.06q-1.19-.48-2.4-.93l-.23-.09c-.77-.29-1.55-.56-2.33-.84l-.32-.11-2.28-.75-.4-.13-2.23-.68-.47-.14c-.72-.21-1.45-.4-2.17-.6l-.57-.15-.37-.1a49.88,49.88,0,0,0-25.17-91c-1,0-1.95,0-2.93,0s-2,0-2.93,0a49.87,49.87,0,0,0-25.16,91l-.37.1-.61.16c-.71.19-1.42.38-2.12.59l-.55.16-2.15.65-.47.16c-.74.23-1.48.47-2.21.73l-.38.13-2.27.82-.31.11c-.77.29-1.55.59-2.32.9l-.21.09c-.8.32-1.59.65-2.38,1l-.14.06c-.81.35-1.62.71-2.42,1.08l-.06,0a111.25,111.25,0,0,0-17.27,9.92h0a113.34,113.34,0,0,0-16.24,13.81,87.35,87.35,0,0,0,7.57,14.24c.53.78,1.51,1.56,1.51,2.34h0a8.09,8.09,0,0,1,1.77,2.26c.14.18.32.35.46.53.57.74,1.18,1.48,1.78,2.21s1.22,1.43,1.84,2.13l.45.5c.63.7,1.27,1.4,1.92,2.08h0c.64.68,1.3,1.34,2,2l.48.47c.68.66,1.36,1.3,2.05,1.93h0c.69.63,1.39,1.24,2.1,1.85l.51.43c.72.61,1.45,1.2,2.19,1.78h0c.74.57,1.49,1.14,2.24,1.69l.55.4q1.14.82,2.31,1.62h0c.77.52,1.56,1,2.35,1.53l.58.36c.8.49,1.6,1,2.42,1.45h0c.81.47,1.63.92,2.46,1.36l.61.32c.83.44,1.67.87,2.53,1.28h0c.85.41,1.7.8,2.57,1.18l.63.28c.87.38,1.75.75,2.64,1.1h0c.88.35,1.77.68,2.66,1l.67.23c.9.32,1.81.62,2.72.9h0c.9.28,1.82.54,2.74.8l.69.19c.93.24,1.86.48,2.8.7h0c.93.22,1.87.41,2.82.6l.71.14c1,.18,1.92.34,2.88.49h0c1,.15,1.93.28,2.9.39.24,0,.48-.14.73-.11a26.11,26.11,0,0,0,2.94.08h0c1,0,2,.33,3,.37.25,0,.5.12.75.13,1,0,2,.1,3,.1s2,0,3,0c.25,0,.5-.2.75-.21,1-.05,2-.36,3-.36h0a26.11,26.11,0,0,0,2.94-.08c.25,0,.49,0,.73,0,1-.11,1.94-.19,2.9-.34v0c1-.15,1.92-.31,2.88-.49.24,0,.47-.29.71-.33.95-.19,1.89.2,2.83-.8h0a10.93,10.93,0,0,0,2.8-.5c.23-.06.46,0,.69-.08.92-.26,1.84-.47,2.75-.75v0c.91-.29,1.82-.58,2.72-.89l.66-.23q2.7-1,5.31-2.09l.63-.28q2.61-1.15,5.12-2.47l.6-.31q2.5-1.34,4.91-2.83l.57-.35c1.59-1,3.16-2.06,4.68-3.17l.53-.38q2.28-1.68,4.44-3.49l.51-.43q2.14-1.83,4.17-3.79l.48-.47c.66-.65,1.31-1.31,2-2v0c.65-.67,1.28-1.37,1.91-2.07l.45-.5c.61-.69,1.21-1.39,1.8-2.11l0,0c.6-.72,1.18-1.45,1.75-2.2l.42-.54c.55-.73,1.1-1.46,1.63-2.21l0-.06q.81-1.14,1.59-2.31l.38-.58c.5-.76,1-1.53,1.46-2.3a.41.41,0,0,0,.05-.09c.49-.79,1-1.6,1.41-2.41l.36-.64c.43-.78.86-1.56,1.27-2.36l.07-.13c.42-.82.82-1.66,1.22-2.5.11-.23.22-.46.32-.69q.56-1.18,1.08-2.4l.06-.15h0A112.81,112.81,0,0,0,357,321.36Z"/><path id="_Path_2" data-name="&lt;Path&gt;" class="cls-1" d="M187.38,274.52a49.88,49.88,0,0,0-46.95-49.79c-1,0-2,0-2.93,0s-2,0-2.93,0a49.87,49.87,0,0,0-25.16,91,112.36,112.36,0,0,0-52.5,30.49,87.49,87.49,0,0,0,161.18,0,112.29,112.29,0,0,0-52.49-30.49A49.82,49.82,0,0,0,187.38,274.52Z"/><path id="_Compound_Path_" data-name="&lt;Compound Path&gt;" class="cls-2" d="M318.41,199.83a112.49,112.49,0,1,0-186.83,0,112.49,112.49,0,1,0,93.42,183,112.49,112.49,0,1,0,93.41-183ZM137.5,399.65a87.63,87.63,0,0,1-80.59-53.43,112.36,112.36,0,0,1,52.5-30.49,49.87,49.87,0,0,1,25.16-91c1,0,2,0,2.93,0s2,0,2.93,0a49.88,49.88,0,0,1,25.17,91,112.29,112.29,0,0,1,52.49,30.49A87.63,87.63,0,0,1,137.5,399.65Zm6.91-228.44a112.29,112.29,0,0,1,52.49-30.49,49.88,49.88,0,0,1,25.17-91c1,0,2-.06,2.93-.06s2,0,2.93.06a49.88,49.88,0,0,1,25.17,91,112.29,112.29,0,0,1,52.49,30.49,87.49,87.49,0,0,1-161.18,0Zm248.67,175-.06.15q-.52,1.22-1.08,2.4c-.1.23-.21.46-.32.69-.4.84-.8,1.68-1.22,2.5l-.07.13c-.41.8-.84,1.58-1.27,2.36l-.36.64c-.45.81-.92,1.62-1.41,2.41a.41.41,0,0,1-.05.09c-.47.77-1,1.54-1.46,2.3l-.38.58q-.78,1.17-1.59,2.31l0,.06c-.53.75-1.08,1.48-1.63,2.21l-.42.54c-.57.75-1.15,1.48-1.75,2.2l0,0c-.59.72-1.19,1.42-1.8,2.11l-.45.5c-.63.7-1.26,1.4-1.91,2.07v0c-.65.67-1.3,1.33-2,2l-.48.47q-2,2-4.17,3.79l-.51.43q-2.16,1.82-4.44,3.49l-.53.38c-1.52,1.11-3.09,2.16-4.68,3.17l-.57.35q-2.4,1.5-4.91,2.83l-.6.32c-1.67.87-3.38,1.7-5.12,2.46l-.63.28q-2.61,1.14-5.31,2.1l-.66.23c-.9.31-1.81.62-2.72.9h0c-.91.28-1.83.54-2.75.8-.23.06-.46-.08-.69,0a10.93,10.93,0,0,1-2.8.5h0c-.94,1-1.88.62-2.83.8-.24.05-.47.2-.71.24-1,.18-1.91.4-2.88.55v0c-1,.14-1.93.28-2.9.4-.24,0-.48-.14-.73-.11a26.1,26.1,0,0,1-2.94.09h0c-1,0-2,.33-3,.37-.25,0-.5.12-.75.13-1,0-2,.1-3,.1s-2,0-3,0c-.25,0-.5-.2-.75-.21-1-.05-2-.36-3-.36h0a26.11,26.11,0,0,1-2.94-.08c-.25,0-.49,0-.73,0-1-.11-1.94-.19-2.9-.34v0c-1-.15-1.92-.31-2.88-.49l-.71-.13c-.95-.18-1.89-.38-2.82-.59h0c-.94-.22-1.87-.46-2.8-.71l-.69-.18c-.92-.26-1.84-.52-2.74-.8h0c-.91-.28-1.82-.58-2.72-.9l-.67-.23c-.89-.32-1.78-.65-2.66-1h0c-.89-.35-1.77-.72-2.64-1.1l-.63-.28c-.87-.38-1.72-.77-2.57-1.18h0c-.86-.41-1.7-.84-2.53-1.28l-.61-.32c-.83-.44-1.65-.89-2.46-1.36h0c-.82-.47-1.62-1-2.42-1.45l-.58-.36c-.79-.5-1.58-1-2.35-1.53h0q-1.17-.79-2.31-1.62l-.55-.4c-.75-.55-1.5-1.12-2.24-1.69h0c-.74-.58-1.47-1.17-2.19-1.78l-.51-.43c-.71-.61-1.41-1.22-2.1-1.85h0c-.69-.63-1.37-1.27-2.05-1.93l-.48-.47c-.66-.65-1.32-1.31-2-2h0c-.65-.68-1.28-1.38-1.91-2.08-.15-.16-.3-.33-.44-.5-.62-.7-1.24-1.41-1.83-2.13s-1.19-1.47-1.77-2.21c-.13-.18-.36-.35-.5-.53a8.09,8.09,0,0,0-1.77-2.26h0c0-.78-1-1.56-1.51-2.34a87.59,87.59,0,0,1-7.62-14.24,113,113,0,0,1,16.27-13.81h0a111.91,111.91,0,0,1,17.29-9.92l.05,0,2.43-1.08.14-.06c.79-.34,1.58-.67,2.38-1l.21-.09c.77-.31,1.55-.61,2.32-.9l.31-.11,2.27-.82.38-.13c.73-.26,1.47-.5,2.21-.73l.47-.16,2.15-.65.55-.16c.7-.21,1.41-.4,2.12-.59l.61-.16.37-.1a49.87,49.87,0,0,1,25.16-91c1,0,1.95,0,2.93,0s2,0,2.93,0a49.88,49.88,0,0,1,25.17,91l.37.1.57.15c.72.2,1.45.39,2.17.6l.47.14,2.23.68.4.13,2.28.75.32.11c.78.28,1.56.55,2.33.84l.23.09q1.21.45,2.4.93l.14.06c.83.33,1.64.67,2.46,1l.06,0a112.81,112.81,0,0,1,36.06,24.86Z"/><path id="_Path_3" data-name="&lt;Path&gt;" class="cls-1" d="M305.59,171.21a112.29,112.29,0,0,0-52.49-30.49,49.88,49.88,0,0,0-25.17-91c-1,0-2-.06-2.93-.06s-2,0-2.93.06a49.88,49.88,0,0,0-25.17,91,112.29,112.29,0,0,0-52.49,30.49,87.49,87.49,0,0,0,161.18,0Z"/><rect class="cls-3" width="450" height="450"/></svg>