<svg id="Layer_1" data-name="Layer 1" xmlns="http://www.w3.org/2000/svg" viewBox="0 0 450 450"><defs><style>.cls-1{fill:none;}.cls-2{fill:#121f3c;}.cls-3{fill:#8795a2;}</style></defs><title>Harddrive</title><path id="_Path_" data-name="&lt;Path&gt;" class="cls-1" d="M112.5,99.53a12.36,12.36,0,1,0-12.35-12.36A12.35,12.35,0,0,0,112.5,99.53Z"/><path id="_Path_2" data-name="&lt;Path&gt;" class="cls-2" d="M225.13,212a25,25,0,1,0,25,25A25,25,0,0,0,225.13,212Z"/><path id="_Path_3" data-name="&lt;Path&gt;" class="cls-1" d="M337.65,74.82A12.36,12.36,0,1,0,350,87.18,12.35,12.35,0,0,0,337.65,74.82Z"/><path id="_Path_4" data-name="&lt;Path&gt;" class="cls-1" d="M337.65,374.82A12.36,12.36,0,1,0,350,387.18,12.35,12.35,0,0,0,337.65,374.82Z"/><rect id="_Path_5" data-name="&lt;Path&gt;" class="cls-3" x="75" y="25" width="300" height="25"/><path id="_Compound_Path_" data-name="&lt;Compound Path&gt;" class="cls-2" d="M375,50H75V425H375ZM112.5,74.82a12.36,12.36,0,1,1-12.35,12.35A12.35,12.35,0,0,1,112.5,74.82ZM337.65,399.53A12.36,12.36,0,1,1,350,387.18,12.35,12.35,0,0,1,337.65,399.53Zm-225.15,0a12.36,12.36,0,1,1,12.35-12.35A12.35,12.35,0,0,1,112.5,399.53ZM225,362.18a125,125,0,1,1,125-125A125,125,0,0,1,225,362.18ZM337.65,99.53A12.36,12.36,0,1,1,350,87.18,12.35,12.35,0,0,1,337.65,99.53Z"/><path id="_Compound_Path_2" data-name="&lt;Compound Path&gt;" class="cls-3" d="M225,112.18a125,125,0,1,0,125,125A125,125,0,0,0,225,112.18Zm.13,149.89a25,25,0,1,1,25-25A25,25,0,0,1,225.13,262.07Z"/><rect class="cls-1" width="450" height="450"/></svg>