<svg id="Layer_1" data-name="Layer 1" xmlns="http://www.w3.org/2000/svg" viewBox="0 0 450 450"><defs><style>.cls-1{fill:none;}.cls-2{fill:#121f3c;}.cls-3{fill:#8795a2;}</style></defs><title>HarddriveAdd</title><path id="_Path_" data-name="&lt;Path&gt;" class="cls-1" d="M162.74,74.53a12.36,12.36,0,1,0-12.35-12.36A12.35,12.35,0,0,0,162.74,74.53Z"/><path id="_Path_2" data-name="&lt;Path&gt;" class="cls-1" d="M387.89,374.82a12.36,12.36,0,1,0,12.35,12.36A12.35,12.35,0,0,0,387.89,374.82Z"/><circle id="_Path_3" data-name="&lt;Path&gt;" class="cls-2" cx="274.7" cy="225.21" r="26.34" transform="translate(-78.79 260.21) rotate(-45)"/><polygon id="_Path_4" data-name="&lt;Path&gt;" class="cls-3" points="150 375 150 325 200 325 200 300 150 300 150 250 125 250 125 300 75 300 75 325 125 325 125 375 150 375"/><path id="_Path_5" data-name="&lt;Path&gt;" class="cls-1" d="M387.89,49.82a12.36,12.36,0,1,0,12.35,12.36A12.35,12.35,0,0,0,387.89,49.82Z"/><path id="_Compound_Path_" data-name="&lt;Compound Path&gt;" class="cls-2" d="M425,25H125V200.38C69,206.6,25,254.27,25,312.18S69,417.75,125,424v1H425ZM162.74,49.82a12.36,12.36,0,1,1-12.35,12.35A12.35,12.35,0,0,1,162.74,49.82ZM75,325V300h50V250h25v50h50v25H150v50H125V325Zm312.89,74.53a12.36,12.36,0,1,1,12.35-12.35A12.35,12.35,0,0,1,387.89,399.53ZM274.7,350.75a125.84,125.84,0,0,1-30-3.62,112.55,112.55,0,0,0-93.09-146.59A125.55,125.55,0,1,1,274.7,350.75ZM387.89,74.53a12.36,12.36,0,1,1,12.35-12.35A12.35,12.35,0,0,1,387.89,74.53Z"/><path id="_Compound_Path_2" data-name="&lt;Compound Path&gt;" class="cls-3" d="M274.7,99.68A125.58,125.58,0,0,0,151.59,200.54a112.55,112.55,0,0,1,93.09,146.59,125.55,125.55,0,1,0,30-247.45Zm0,151.87A26.34,26.34,0,1,1,301,225.21,26.34,26.34,0,0,1,274.7,251.55Z"/><rect class="cls-1" width="450" height="450"/></svg>