<svg width="300" height="400" viewBox="0 0 300 400" fill="none" xmlns="http://www.w3.org/2000/svg">
<path d="M150.129 187C145.184 187 140.351 188.466 136.24 191.213C132.128 193.96 128.924 197.865 127.032 202.433C125.14 207.001 124.645 212.028 125.609 216.877C126.574 221.727 128.955 226.181 132.451 229.678C135.948 233.174 140.402 235.555 145.252 236.52C150.101 237.484 155.128 236.989 159.696 235.097C164.264 233.205 168.169 230.001 170.916 225.889C173.663 221.778 175.129 216.945 175.129 212C175.129 205.37 172.495 199.011 167.807 194.322C163.118 189.634 156.759 187 150.129 187Z" fill="#091440"/>
<path d="M300 0H0V25H300V0Z" fill="#C4CBD2"/>
<path d="M300 25H0V400H300V25ZM37.5 49.82C39.9454 49.818 42.3365 50.5415 44.3706 51.8989C46.4047 53.2562 47.9905 55.1865 48.9272 57.4454C49.864 59.7043 50.1095 62.1903 49.6329 64.5889C49.1563 66.9874 47.9791 69.1907 46.2499 70.9199C44.5207 72.649 42.3174 73.8264 39.9188 74.303C37.5203 74.7796 35.0343 74.534 32.7754 73.5972C30.5165 72.6605 28.5863 71.0747 27.2289 69.0406C25.8715 67.0065 25.148 64.6154 25.15 62.17C25.15 58.8946 26.4511 55.7533 28.7672 53.4373C31.0833 51.1212 34.2246 49.82 37.5 49.82ZM262.65 374.53C260.204 374.532 257.813 373.808 255.779 372.451C253.745 371.094 252.159 369.164 251.223 366.905C250.286 364.646 250.04 362.16 250.517 359.761C250.994 357.363 252.171 355.159 253.9 353.43C255.629 351.701 257.833 350.524 260.231 350.047C262.63 349.57 265.116 349.816 267.375 350.753C269.633 351.689 271.564 353.275 272.921 355.309C274.279 357.344 275.002 359.735 275 362.18C275 365.455 273.699 368.597 271.383 370.913C269.067 373.229 265.925 374.53 262.65 374.53ZM37.5 374.53C35.0546 374.532 32.6635 373.808 30.6294 372.451C28.5953 371.094 27.0095 369.164 26.0728 366.905C25.136 364.646 24.8905 362.16 25.3671 359.761C25.8437 357.363 27.0209 355.159 28.7501 353.43C30.4793 351.701 32.6826 350.524 35.0812 350.047C37.4797 349.57 39.9657 349.816 42.2246 350.753C44.4835 351.689 46.4137 353.275 47.7711 355.309C49.1285 357.344 49.852 359.735 49.85 362.18C49.85 365.455 48.5489 368.597 46.2328 370.913C43.9167 373.229 40.7754 374.53 37.5 374.53ZM150 337.18C125.277 337.18 101.11 329.849 80.5537 316.114C59.9976 302.379 43.976 282.856 34.515 260.015C25.0541 237.175 22.5787 212.041 27.4019 187.794C32.225 163.546 44.1301 141.273 61.6117 123.792C79.0933 106.31 101.366 94.405 125.614 89.5818C149.861 84.7587 174.995 87.2341 197.835 96.6951C220.676 106.156 240.198 122.178 253.934 142.734C267.669 163.29 275 187.457 275 212.18C275 245.332 261.83 277.126 238.388 300.568C214.946 324.01 183.152 337.18 150 337.18ZM262.65 74.53C260.204 74.532 257.813 73.8085 255.779 72.4511C253.745 71.0937 252.159 69.1635 251.223 66.9046C250.286 64.6457 250.04 62.1596 250.517 59.7611C250.994 57.3626 252.171 55.1594 253.9 53.4302C255.629 51.701 257.833 50.5236 260.231 50.047C262.63 49.5704 265.116 49.816 267.375 50.7527C269.633 51.6895 271.564 53.2753 272.921 55.3094C274.279 57.3435 275.002 59.7346 275 62.18C275 65.4554 273.699 68.5967 271.383 70.9128C269.067 73.2289 265.925 74.53 262.65 74.53Z" fill="#091440"/>
<path d="M150 87.1799C125.277 87.1799 101.11 94.511 80.5538 108.246C59.9976 121.981 43.976 141.504 34.5151 164.344C25.0541 187.185 22.5788 212.319 27.4019 236.566C32.2251 260.814 44.1302 283.087 61.6118 300.568C79.0933 318.05 101.366 329.955 125.614 334.778C149.861 339.601 174.995 337.126 197.836 327.665C220.676 318.204 240.198 302.182 253.934 281.626C267.669 261.07 275 236.903 275 212.18C275 179.028 261.831 147.234 238.388 123.792C214.946 100.35 183.152 87.1799 150 87.1799ZM150.13 237.07C145.186 237.07 140.352 235.604 136.241 232.857C132.13 230.11 128.925 226.205 127.033 221.637C125.141 217.069 124.646 212.042 125.61 207.193C126.575 202.343 128.956 197.889 132.452 194.392C135.949 190.896 140.403 188.515 145.253 187.55C150.102 186.586 155.129 187.081 159.697 188.973C164.265 190.865 168.17 194.069 170.917 198.181C173.664 202.292 175.13 207.125 175.13 212.07C175.13 218.7 172.496 225.059 167.808 229.748C163.119 234.436 156.76 237.07 150.13 237.07Z" fill="#C4CBD2"/>
</svg>
