<svg id="Layer_1" data-name="Layer 1" xmlns="http://www.w3.org/2000/svg" viewBox="0 0 450 450"><defs><style>.cls-1{fill:none;}.cls-2{fill:#121f3c;}.cls-3{fill:#8795a2;}</style></defs><title>Incubator</title><path id="_Path_" data-name="&lt;Path&gt;" class="cls-1" d="M317.6,182.14h0a118.71,118.71,0,0,1-.77,13.39A118.71,118.71,0,0,0,317.6,182.14Z"/><path id="_Path_2" data-name="&lt;Path&gt;" class="cls-1" d="M288.54,123.65c-.39-1.74-.82-3.48-1.27-5.22C287.72,120.17,288.15,121.91,288.54,123.65Z"/><path id="_Path_3" data-name="&lt;Path&gt;" class="cls-1" d="M250.59,44c17,21.4,29.82,48.08,36.61,74.15C280.41,92.09,267.55,65.41,250.6,44Z"/><path id="_Path_4" data-name="&lt;Path&gt;" class="cls-2" d="M309.56,225H24.74c0,110,89.54,200,200,200s200-90,200-200H309.56Z"/><path id="_Path_5" data-name="&lt;Path&gt;" class="cls-3" d="M271.11,200h13.43a116.42,116.42,0,0,0,8.06-42.86c0-3.39-.15-6.86-.43-10.38-.12-1.54-.28-3.08-.45-4.63s-.4-3.38-.65-5.08c0-.15-.05-.29-.07-.44q-.45-3.06-1-6.14c0-.12,0-.24-.07-.36-.4-2.14-.86-4.3-1.36-6.46-.39-1.74-.82-3.48-1.27-5.22,0-.09,0-.18-.07-.27C280.41,92.09,267.55,65.41,250.59,44h0c39.63,30.39,67,91.25,67,138.13h0a118.71,118.71,0,0,1-.77,13.39c-.17,1.48-.37,3-.59,4.47h25a120,120,0,0,0,1.36-17.86C342.6,117.05,289.83,25,224.74,25S106.88,117.05,106.88,182.14A121.3,121.3,0,0,0,108.23,200H271.11Z"/><path id="_Path_6" data-name="&lt;Path&gt;" class="cls-2" d="M317.6,182.14h0c0-46.88-27.38-107.74-67-138.13h0c17,21.4,29.81,48.08,36.6,74.15,0,.09.05.18.07.27.45,1.74.88,3.48,1.27,5.22.5,2.16,1,4.32,1.36,6.46,0,.12.05.24.07.36q.58,3.08,1,6.14c0,.15.05.29.07.44.25,1.7.46,3.39.65,5.08s.33,3.09.45,4.63c.28,3.52.43,7,.43,10.38A116.42,116.42,0,0,1,284.54,200h31.7c.22-1.5.42-3,.59-4.47A118.71,118.71,0,0,0,317.6,182.14Z"/><rect class="cls-1" width="450" height="450"/></svg>