<svg width="400" height="400" viewBox="0 0 400 400" fill="none" xmlns="http://www.w3.org/2000/svg">
<path d="M200 0C89.54 0 0 89.55 0 200C0 310.45 89.54 400 200 400C310.46 400 400 310.45 400 200C400 89.55 310.45 0 200 0Z" fill="#091440"/>
<path d="M141.37 152.63H221.98V292.63H259.98V324.63H139.57V292.63H181.14V184.63H141.37V152.63ZM202.19 75.63C205.581 75.6131 208.944 76.255 212.09 77.52C215.086 78.7 217.854 80.3919 220.27 82.52C222.607 84.6156 224.504 87.1548 225.85 89.99C227.213 92.8584 227.92 95.9943 227.92 99.17C227.92 102.346 227.213 105.482 225.85 108.35C224.487 111.199 222.593 113.761 220.27 115.9C217.887 118.072 215.111 119.769 212.09 120.9C208.93 122.107 205.573 122.718 202.19 122.7C198.775 122.714 195.386 122.104 192.19 120.9C189.133 119.785 186.321 118.087 183.91 115.9C181.59 113.761 179.7 111.198 178.34 108.35C176.965 105.486 176.257 102.347 176.27 99.17C176.279 96.2446 176.828 93.3458 177.89 90.62C178.975 87.7957 180.625 85.2231 182.74 83.0601C185.053 80.7374 187.807 78.9013 190.84 77.66C194.448 76.2221 198.308 75.5249 202.19 75.61V75.63Z" fill="#C4CBD2"/>
</svg>
