<svg id="Layer_1" data-name="Layer 1" xmlns="http://www.w3.org/2000/svg" viewBox="0 0 450 450"><defs><style>.cls-1{fill:#121f3c;}.cls-2{fill:none;}.cls-3{fill:#8795a2;}</style></defs><title>Info</title><path id="_Compound_Path_" data-name="&lt;Compound Path&gt;" class="cls-1" d="M225.24,24.86c-110.46,0-200,89.55-200,200s89.54,200,200,200,200-89.55,200-200S335.69,24.86,225.24,24.86Z"/><rect class="cls-2" width="450" height="450"/><path class="cls-3" d="M166.61,177.49h80.61v140h38v32H164.81v-32h41.57v-108H166.61Zm60.82-77a26.19,26.19,0,0,1,9.9,1.89,27.78,27.78,0,0,1,8.18,5,23.68,23.68,0,0,1,5.58,7.47,21.39,21.39,0,0,1,0,18.36,24.83,24.83,0,0,1-5.58,7.55,25.32,25.32,0,0,1-8.18,5,27.34,27.34,0,0,1-9.9,1.8,28.06,28.06,0,0,1-10-1.8,25.15,25.15,0,0,1-8.28-5,24.8,24.8,0,0,1-5.57-7.55,21,21,0,0,1-2.07-9.18,23.74,23.74,0,0,1,1.62-8.55,22.19,22.19,0,0,1,4.85-7.56,24.55,24.55,0,0,1,8.1-5.4A28.94,28.94,0,0,1,227.43,100.47Z"/></svg>