<svg width="452" height="381" viewBox="0 0 452 381" fill="none" xmlns="http://www.w3.org/2000/svg">
<path d="M52.7156 225.054C47.5916 230.178 44.7129 237.127 44.7129 244.374C44.7129 251.62 47.5916 258.57 52.7156 263.694C57.8396 268.818 64.7892 271.696 72.0356 271.696C79.2821 271.696 86.2317 268.818 91.3557 263.694L99.3557 255.694L60.7556 217.054L52.7156 225.054Z" fill="#C4CBD2"/>
<path d="M200.286 372.634L208.286 364.634L169.646 325.994L161.596 334.044C156.614 339.198 153.856 346.104 153.917 353.272C153.978 360.441 156.854 367.298 161.923 372.367C166.993 377.435 173.851 380.309 181.02 380.368C188.189 380.427 195.093 377.667 200.246 372.684L200.286 372.634Z" fill="#C4CBD2"/>
<path d="M145.816 318.164L153.816 310.164L115.176 271.524L107.125 279.524C102.002 284.648 99.123 291.597 99.123 298.844C99.123 306.09 102.002 313.04 107.125 318.164C112.249 323.288 119.199 326.166 126.446 326.166C133.692 326.166 140.642 323.288 145.766 318.164H145.816Z" fill="#C4CBD2"/>
<path d="M360.375 264.054C362.912 266.591 365.924 268.603 369.239 269.977C372.554 271.35 376.107 272.056 379.695 272.056C383.283 272.056 386.836 271.35 390.151 269.977C393.466 268.603 396.478 266.591 399.015 264.054C401.552 261.517 403.565 258.505 404.938 255.19C406.311 251.875 407.018 248.322 407.018 244.734C407.018 241.146 406.311 237.593 404.938 234.278C403.565 230.963 401.552 227.951 399.015 225.414L390.615 217.014L373.255 199.654L311.445 137.844L266.445 140.694L215.995 191.164C211.178 195.981 205.46 199.802 199.166 202.408C192.872 205.015 186.127 206.357 179.315 206.357C172.503 206.357 165.757 205.015 159.464 202.408C153.17 199.802 147.452 195.981 142.635 191.164C137.818 186.347 133.997 180.628 131.39 174.335C128.783 168.041 127.441 161.296 127.441 154.484C127.441 147.672 128.783 140.926 131.39 134.633C133.997 128.339 137.818 122.621 142.635 117.804L199.635 60.8037L216.965 43.3938L199.645 26.0537L156.245 34.7336L34.7148 156.254L78.1248 199.654L225.685 347.224L251.445 372.984C253.982 375.521 256.994 377.533 260.309 378.906C263.624 380.28 267.177 380.986 270.765 380.986C274.353 380.986 277.906 380.28 281.221 378.906C284.536 377.533 287.548 375.521 290.085 372.984C292.622 370.447 294.634 367.435 296.008 364.12C297.381 360.805 298.087 357.252 298.087 353.664C298.087 350.076 297.381 346.523 296.008 343.208C294.634 339.893 292.622 336.881 290.085 334.344L264.325 308.584L280.155 292.764L305.915 318.524C311.039 323.648 317.988 326.526 325.235 326.526C332.481 326.526 339.431 323.648 344.555 318.524C349.679 313.4 352.557 306.45 352.557 299.204C352.557 291.957 349.679 285.008 344.555 279.884L318.795 254.124L334.615 238.294L360.375 264.054Z" fill="#091440"/>
<path d="M121.523 0.0180586L0 121.542L17.3593 138.901L138.883 17.3774L121.523 0.0180586Z" fill="#091440"/>
<path d="M295.136 34.7236L251.656 43.3337L217.007 78.1338L160.007 135.134C154.883 140.258 152.004 147.207 152.004 154.454C152.004 161.7 154.883 168.65 160.007 173.774C165.131 178.898 172.08 181.776 179.327 181.776C186.573 181.776 193.523 178.898 198.646 173.774L255.646 116.774L320.957 112.644L390.617 182.294L416.617 156.294L295.136 34.7236Z" fill="#C4CBD2"/>
<path d="M329.85 -8.63742e-06L312.49 17.3595L434.014 138.883L451.373 121.523L329.85 -8.63742e-06Z" fill="#C4CBD2"/>
</svg>
