<svg id="Layer_1" data-name="Layer 1" xmlns="http://www.w3.org/2000/svg" viewBox="0 0 450 450"><defs><style>.cls-1{fill:#8795a2;}.cls-2{fill:#121f3c;}.cls-3{fill:none;}</style></defs><title>Introductions</title><path id="_Path_" data-name="&lt;Path&gt;" class="cls-1" d="M51.76,258A27.32,27.32,0,0,0,90.4,296.65l8-8L59.81,250Z"/><path id="_Path_2" data-name="&lt;Path&gt;" class="cls-1" d="M199.33,405.58l8-8.05-38.64-38.64-8.05,8.05a27.32,27.32,0,1,0,38.64,38.64Z"/><path id="_Path_3" data-name="&lt;Path&gt;" class="cls-1" d="M144.87,351.11l8-8-38.64-38.64-8,8a27.32,27.32,0,0,0,38.64,38.64Z"/><path id="_Path_4" data-name="&lt;Path&gt;" class="cls-2" d="M359.43,297a27.32,27.32,0,1,0,38.63-38.64l-8.39-8.4h0L372.3,232.6l-61.81-61.81-45,2.85L215,224.11a51.87,51.87,0,1,1-73.36-73.36l57-57L216,76.32,198.69,59l-43.4,8.68L33.77,189.2l43.4,43.4h0L224.74,380.17l25.76,25.76a27.32,27.32,0,0,0,38.64-38.64l-25.76-25.76,15.82-15.82L305,351.47a27.32,27.32,0,0,0,38.64-38.64l-25.76-25.76,15.83-15.83Z"/><rect id="_Path_5" data-name="&lt;Path&gt;" class="cls-2" x="-17.44" y="90.12" width="171.86" height="24.55" transform="translate(-52.34 78.42) rotate(-45)"/><path id="_Path_6" data-name="&lt;Path&gt;" class="cls-1" d="M294.18,67.67,250.7,76.28l-34.64,34.8-57,57a27.32,27.32,0,0,0,38.64,38.64l57-57L320,145.59l69.66,69.65,26-26Z"/><rect id="_Path_7" data-name="&lt;Path&gt;" class="cls-1" x="368.71" y="16.46" width="24.55" height="171.86" transform="translate(39.18 299.39) rotate(-45)"/><rect class="cls-3" width="450" height="450"/></svg>