<svg id="Layer_1" data-name="Layer 1" xmlns="http://www.w3.org/2000/svg" viewBox="0 0 450 450"><defs><style>.cls-1{fill:#121f3c;}.cls-2{fill:#8997a5;}.cls-3{fill:none;}</style></defs><title>Location</title><path class="cls-1" d="M225,75.12a107,107,0,0,0-107,107v21.34h2.27C135.57,278.15,223.83,348.83,225,350c0,0,89.24-71.67,104.71-146.54H332V182.12A107,107,0,0,0,225,75.12Zm41,105.22h0c-.18.6-.38,1.19-.58,1.78h0a43,43,0,0,1-26,26.14l-.32.11q-.54.19-1.08.36l-.5.16-1,.29-.61.17-1,.24-.7.16-.89.19-.78.14c-.28.06-.57.11-.85.15l-.86.13-.8.1-1,.1-.73.07-1.1.07-.61,0c-.57,0-1.15,0-1.73,0s-1.16,0-1.73,0l-.61,0-1.1-.07-.73-.07-1-.1-.8-.1-.86-.13c-.28,0-.57-.09-.85-.15l-.78-.14-.89-.19-.7-.16-1-.24-.61-.17-1-.29-.5-.16q-.54-.16-1.08-.36l-.32-.11a43,43,0,0,1-26-26.14h0c-.2-.59-.4-1.18-.58-1.78h0A42.77,42.77,0,0,1,194.19,163a41.29,41.29,0,0,1,3.71-3.41,42.88,42.88,0,0,1,54.2,0,41.29,41.29,0,0,1,3.71,3.41A42.77,42.77,0,0,1,266,180.34Z"/><path id="_Path_" data-name="&lt;Path&gt;" class="cls-1" d="M225,210.77a42.89,42.89,0,0,1-41-30.43,42.89,42.89,0,1,0,82.08,0A42.89,42.89,0,0,1,225,210.77Z"/><path class="cls-2" d="M225,100A107,107,0,0,0,118,207c0,82,105.72,166.6,107,167.88,0,0,107-85.92,107-167.88A107,107,0,0,0,225,100Zm0,135.68a42.88,42.88,0,1,1,42.89-42.89A42.89,42.89,0,0,1,225,235.68Z"/><rect class="cls-3" width="450" height="450"/></svg>