<svg xmlns="http://www.w3.org/2000/svg" width="450" height="450" viewBox="0 0 450 450">
  <title>lockEye</title>
  <g>
    <rect width="450" height="450" fill="none"/>
    <g>
      <g>
        <rect x="75" y="171.876" width="300" height="196.11" fill="#c4cbd2"/>
        <path d="M75,221.286H375V424.995H75Z" fill="#091440"/>
        <path d="M103.385,147.485v49.389h48.6V147.485a73.757,73.757,0,0,1,73.6-73.8h.2a73.757,73.757,0,0,1,73.8,73.6v49.5h48.6V147.391a122.54,122.54,0,0,0-122.4-122.4h0A122.6,122.6,0,0,0,103.385,147.485Z" fill="#091440"/>
      </g>
      <g>
        <path d="M225.785,259.537A123.551,123.551,0,0,0,116.68,323.142a127.242,127.242,0,0,0,109.105,63.605A124.364,124.364,0,0,0,334.89,323.142,127.266,127.266,0,0,0,225.785,259.537Z" fill="#c4cbd2"/>
        <path d="M225.789,323.014l33.993-34.7a48.591,48.591,0,1,0,14.605,34.719v-.02Z" fill="#091440"/>
      </g>
    </g>
  </g>
</svg>
