<svg id="Layer_1" data-name="Layer 1" xmlns="http://www.w3.org/2000/svg" viewBox="0 0 450 450"><defs><style>.cls-1{fill:#121f3c;}.cls-2{fill:#8795a2;}.cls-3{fill:none;}</style></defs><title>Marketplace</title><polygon id="_Path_" data-name="&lt;Path&gt;" class="cls-1" points="75 143.28 75 143.28 75 143.28 75 143.28"/><path id="_Path_2" data-name="&lt;Path&gt;" class="cls-2" d="M100,125a24.88,24.88,0,0,0,25-25h0V25H75v75h0v0h0A24.88,24.88,0,0,0,100,125Z"/><path id="_Path_3" data-name="&lt;Path&gt;" class="cls-2" d="M175,99.92V100a25,25,0,0,0,50,0h0V25H175V99.92Z"/><polygon id="_Path_4" data-name="&lt;Path&gt;" class="cls-1" points="275 25 275 25 275 25 275 25"/><polygon id="_Path_5" data-name="&lt;Path&gt;" class="cls-1" points="375 25 375 25 375 25 375 25"/><path id="_Path_6" data-name="&lt;Path&gt;" class="cls-1" d="M125,100h0a25,25,0,0,0,50,0V25H125v75Z"/><rect id="_Path_7" data-name="&lt;Path&gt;" class="cls-2" x="75" y="375" width="300" height="50"/><path id="_Compound_Path_" data-name="&lt;Compound Path&gt;" class="cls-1" d="M375,350V143.28A48.69,48.69,0,0,1,350,150a49.76,49.76,0,0,1-25-6.71,49.9,49.9,0,0,1-50,0,49.9,49.9,0,0,1-50,0,49.9,49.9,0,0,1-50,0,49.83,49.83,0,0,1-50,0,49.86,49.86,0,0,1-50,0V350ZM125,200H325V300H125Z"/><rect id="_Path_8" data-name="&lt;Path&gt;" class="cls-2" x="125" y="200" width="200" height="100"/><path id="_Path_9" data-name="&lt;Path&gt;" class="cls-2" d="M275,100v0a25,25,0,0,0,50,0V25H275v75Z"/><path id="_Path_10" data-name="&lt;Path&gt;" class="cls-1" d="M225,99.88V100a25,25,0,0,0,50,0v0h0V25H225V99.88Z"/><path id="_Path_11" data-name="&lt;Path&gt;" class="cls-1" d="M325,99.84V100a25,25,0,0,0,50,0h0V25H325V99.84Z"/><rect class="cls-3" width="450" height="450"/></svg>