<svg width="401" height="401" viewBox="0 0 401 401" fill="none" xmlns="http://www.w3.org/2000/svg">
<path d="M400.26 200.13C400.26 89.6101 310.66 0 200.13 0C89.6001 0 0 89.6502 0 200.17C0 310.69 89.6201 400.35 200.13 400.35H400.26L375.41 376.35H200.13C160.287 376.532 121.551 363.251 90.2017 338.66C58.8521 314.07 36.7271 279.612 27.4133 240.873C18.0996 202.134 22.1431 161.384 38.8887 125.231C55.6342 89.0776 84.1 59.6399 119.671 41.6904C155.242 23.7409 195.833 18.332 234.863 26.3403C273.893 34.3486 309.074 55.3047 334.702 85.8113C360.331 116.318 374.904 154.586 376.06 194.413C377.216 234.239 364.886 273.288 341.07 305.23L358.62 322.35C385.686 287.364 400.336 244.363 400.26 200.13Z" fill="#091440"/>
<path d="M317.49 282.14L323.01 287.55C339.053 264.993 348.578 238.455 350.541 210.844C352.504 183.233 346.829 155.614 334.139 131.014C321.448 106.414 302.232 85.7815 278.594 71.377C254.957 56.9724 227.811 49.3519 200.13 49.3501C116.85 49.3501 49.3301 117.07 49.3301 200.35C49.3301 283.63 116.85 351.35 200.13 351.35H350.93L324.45 325.35H200.13C172.212 325.44 145.065 316.201 122.997 299.1C100.929 282 85.2064 258.018 78.3242 230.961C71.4421 203.905 73.7952 175.325 85.01 149.759C96.2248 124.192 115.659 103.105 140.226 89.8445C164.794 76.5837 193.087 71.9094 220.614 76.564C248.141 81.2186 273.324 94.9353 292.166 115.536C311.008 136.137 322.428 162.441 324.614 190.274C326.8 218.106 319.625 245.871 304.23 269.16L317.49 282.14Z" fill="#091440"/>
<path d="M200.13 100.27C173.598 100.27 148.152 110.81 129.391 129.571C110.63 148.332 100.09 173.778 100.09 200.31C100.09 226.842 110.63 252.288 129.391 271.049C148.152 289.81 173.598 300.35 200.13 300.35H300L270.44 271.23C284.501 257.284 294.104 239.478 298.032 220.068C301.961 200.658 300.038 180.518 292.507 162.202C284.976 143.886 272.176 128.219 255.731 117.186C239.285 106.153 219.934 100.252 200.13 100.23V100.27Z" fill="#C4CBD2"/>
</svg>
