<svg id="Layer_1" data-name="Layer 1" xmlns="http://www.w3.org/2000/svg" viewBox="0 0 450 450"><defs><style>.cls-1{fill:#121f3c;}.cls-2{fill:none;}</style></defs><title>Meta</title><path id="_Path_" data-name="&lt;Path&gt;" class="cls-1" d="M424.64,224.78c0-110.52-89.6-200.13-200.13-200.13S24.38,114.3,24.38,224.82,114,425,224.51,425H424.64l-24.85-24H224.51A176.06,176.06,0,0,1,156.08,62.82,175.79,175.79,0,0,1,365.45,329.88L383,347A199.19,199.19,0,0,0,424.64,224.78Z"/><path id="_Path_2" data-name="&lt;Path&gt;" class="cls-1" d="M341.87,306.79l5.52,5.41A150.8,150.8,0,0,0,224.51,74c-83.28,0-150.8,67.72-150.8,151s67.52,151,150.8,151h150.8l-26.48-26H224.51a125.27,125.27,0,1,1,104.1-56.19Z"/><path id="_Path_3" data-name="&lt;Path&gt;" class="cls-1" d="M224.51,124.92a100,100,0,0,0,0,200.08h99.87l-29.56-29.12a100,100,0,0,0-70.31-171Z"/><rect class="cls-2" width="450" height="450"/></svg>