<svg id="Layer_1" data-name="Layer 1" xmlns="http://www.w3.org/2000/svg" viewBox="0 0 450 450"><defs><style>.cls-1{fill:#121f3c;}.cls-2{fill:#8795a2;}.cls-3{fill:none;}</style></defs><title>Newsroom</title><path id="_Path_" data-name="&lt;Path&gt;" class="cls-1" d="M363,375v25a25,25,0,0,0,50,0V100H363Z"/><rect id="_Path_2" data-name="&lt;Path&gt;" class="cls-1" x="213" y="250" width="100" height="25"/><polygon id="_Path_3" data-name="&lt;Path&gt;" class="cls-1" points="155.57 300 88 300 88 325 155.57 325 187.74 325 313 325 313 300 187.74 300 155.57 300"/><polygon id="_Path_4" data-name="&lt;Path&gt;" class="cls-1" points="155.57 350 88 350 88 375 155.57 375 187.74 375 313 375 313 350 187.74 350 155.57 350"/><path id="_Compound_Path_" data-name="&lt;Compound Path&gt;" class="cls-2" d="M363,100h0V25H38V400a24.78,24.78,0,0,0,24.74,25h325A24.78,24.78,0,0,1,363,400V100ZM88,150H188V273H88ZM313,375H88V350H313Zm0-50H88V300H313Zm0-50H213V250H313Zm0-50H213V200H313Zm0-50H213V150H313Zm0-50H88V75H313Z"/><polygon id="_Path_5" data-name="&lt;Path&gt;" class="cls-1" points="88 100 88 125 313 125 313 75 88 75 88 100"/><rect id="_Path_6" data-name="&lt;Path&gt;" class="cls-1" x="88" y="150" width="100" height="123"/><rect id="_Path_7" data-name="&lt;Path&gt;" class="cls-1" x="213" y="150" width="100" height="25"/><rect id="_Path_8" data-name="&lt;Path&gt;" class="cls-1" x="213" y="200" width="100" height="25"/><rect class="cls-3" width="450" height="450"/></svg>