<svg id="Layer_1" data-name="Layer 1" xmlns="http://www.w3.org/2000/svg" viewBox="0 0 450 450"><defs><style>.cls-1{fill:none;}.cls-2{fill:#121f3c;}.cls-3{fill:#8795a2;}</style></defs><title>ObtainingDecred</title><path id="_Path_" data-name="&lt;Path&gt;" class="cls-1" d="M143.92,219l21.83,19.07.05,0Z"/><path id="_Path_2" data-name="&lt;Path&gt;" class="cls-2" d="M256.09,254.17A35.16,35.16,0,0,0,221,219H193.23l18.91,17H221a18.5,18.5,0,1,1,0,37H193.23l37.82,33h25l-21.88-19.14A35.35,35.35,0,0,0,256.09,254.17Z"/><path id="_Path_3" data-name="&lt;Path&gt;" class="cls-1" d="M144,270.75h0A35.22,35.22,0,0,0,179.11,306,35.24,35.24,0,0,1,144,270.75Z"/><g id="_Group_" data-name="&lt;Group&gt;"><path class="cls-2" d="M318.75,306.07l0,.09a56.22,56.22,0,0,0,55.87-50H375V99.94a37.45,37.45,0,0,0-37.45,37.45c0,.23,0,.46,0,.69h0v31.3h-.07V200a9.37,9.37,0,0,1-18.73.37l0,0V67.12a23.44,23.44,0,0,0-46.88,0V150h0a9.37,9.37,0,0,1-18.73,0h0V48.37a23.44,23.44,0,1,0-46.87,0V149.94h0v0h0a9.37,9.37,0,0,1-18.74,0h0v0h0V94.88h0V48.37a23.44,23.44,0,0,0-46.88,0V150h0a9.37,9.37,0,0,1-18.74,0h0V85.87a23.44,23.44,0,1,0-46.88,0V424.94l243.75.13ZM200,349.94a87.5,87.5,0,1,1,87.5-87.5A87.5,87.5,0,0,1,200,349.94Z"/></g><path id="_Compound_Path_" data-name="&lt;Compound Path&gt;" class="cls-3" d="M200,174.94a87.5,87.5,0,1,0,87.5,87.5A87.49,87.49,0,0,0,200,174.94ZM179,306a35.14,35.14,0,0,1-35-35.24h0a35.29,35.29,0,0,1,21.79-32.67L143.92,219h25l37.82,33H179a18.5,18.5,0,1,0,0,37h8.84l18.92,17Zm77.07,0h-25l-37.82-33H221a18.5,18.5,0,1,0,0-37h-8.84l-18.91-17H221a35.25,35.25,0,0,1,13.23,67.86Z"/><path id="_Path_4" data-name="&lt;Path&gt;" class="cls-2" d="M179,289a18.5,18.5,0,1,1,0-37h27.76L169,219h-25l21.88,19.05s0,0,0,0A35.29,35.29,0,0,0,144,270.74h0A35.16,35.16,0,0,0,179,306h27.76l-18.92-17Z"/><rect class="cls-1" width="450" height="450"/></svg>