<svg width="300" height="401" viewBox="0 0 300 401" fill="none" xmlns="http://www.w3.org/2000/svg">
<path d="M181.08 229.724C181.083 220.41 177.389 211.475 170.81 204.881C164.231 198.287 155.305 194.573 145.99 194.554H118.24L137.15 211.554H145.99C150.897 211.554 155.602 213.503 159.072 216.973C162.541 220.442 164.49 225.148 164.49 230.054C164.49 234.961 162.541 239.666 159.072 243.136C155.602 246.605 150.897 248.554 145.99 248.554H118.24L156.06 281.554H181.06L159.18 262.414C165.659 259.749 171.2 255.218 175.099 249.398C178.998 243.578 181.08 236.73 181.08 229.724Z" fill="#091440"/>
<path d="M243.74 281.624V281.714C257.573 281.713 270.919 276.612 281.227 267.387C291.535 258.163 298.08 245.462 299.61 231.714H299.97V75.4941C290.038 75.4941 280.512 79.4397 273.489 86.463C266.466 93.4862 262.52 103.012 262.52 112.944C262.52 113.174 262.52 113.404 262.52 113.634V144.934H262.45V175.554C262.435 177.997 261.466 180.337 259.75 182.076C258.035 183.815 255.708 184.815 253.265 184.864C250.823 184.912 248.458 184.004 246.675 182.334C244.892 180.665 243.832 178.364 243.72 175.924V42.6741C243.72 36.4575 241.25 30.4954 236.854 26.0995C232.459 21.7037 226.497 19.2341 220.28 19.2341C214.063 19.2341 208.101 21.7037 203.705 26.0995C199.309 30.4954 196.84 36.4575 196.84 42.6741V125.554C196.761 127.985 195.739 130.29 193.991 131.981C192.244 133.672 189.907 134.618 187.475 134.618C185.043 134.618 182.706 133.672 180.958 131.981C179.211 130.29 178.19 127.985 178.11 125.554V23.9241C178.175 20.8059 177.616 17.7061 176.467 14.8064C175.318 11.9068 173.602 9.26555 171.42 7.03747C169.237 4.8094 166.632 3.0393 163.757 1.83087C160.882 0.622446 157.794 0 154.675 0C151.556 0 148.468 0.622446 145.593 1.83087C142.718 3.0393 140.113 4.8094 137.93 7.03747C135.748 9.26555 134.032 11.9068 132.883 14.8064C131.734 17.7061 131.176 20.8059 131.24 23.9241V125.494C131.24 127.979 130.253 130.363 128.496 132.12C126.738 133.877 124.355 134.864 121.87 134.864C119.385 134.864 117.002 133.877 115.244 132.12C113.487 130.363 112.5 127.979 112.5 125.494V70.4341V23.9241C112.5 17.7074 110.03 11.7454 105.635 7.34954C101.239 2.95369 95.2766 0.484123 89.0599 0.484123C82.8433 0.484123 76.8812 2.95369 72.4854 7.34954C68.0895 11.7454 65.62 17.7074 65.62 23.9241V125.554C65.62 128.039 64.6328 130.423 62.8756 132.18C61.1184 133.937 58.7351 134.924 56.25 134.924C53.7649 134.924 51.3816 133.937 49.6244 132.18C47.8672 130.423 46.88 128.039 46.88 125.554V61.4241C46.88 55.2075 44.4104 49.2454 40.0145 44.8495C35.6187 40.4537 29.6566 37.9841 23.4399 37.9841C17.2233 37.9841 11.2612 40.4537 6.86536 44.8495C2.4695 49.2454 0 55.2075 0 61.4241V400.494L243.75 400.624L243.74 281.624ZM124.99 325.494C107.684 325.494 90.7669 320.362 76.3776 310.748C61.9883 301.133 50.7732 287.467 44.1505 271.479C37.5278 255.49 35.7951 237.897 39.1713 220.924C42.5475 203.95 50.8811 188.359 63.1182 176.122C75.3553 163.885 90.9462 155.552 107.92 152.175C124.893 148.799 142.486 150.532 158.475 157.155C174.463 163.777 188.129 174.992 197.744 189.382C207.358 203.771 212.49 220.688 212.49 237.994C212.49 261.201 203.271 283.457 186.862 299.866C170.452 316.275 148.196 325.494 124.99 325.494Z" fill="#091440"/>
<path d="M124.99 150.494C107.684 150.494 90.7672 155.626 76.3779 165.241C61.9886 174.855 50.7735 188.521 44.1508 204.509C37.5281 220.498 35.7954 238.091 39.1716 255.065C42.5478 272.038 50.8814 287.629 63.1185 299.866C75.3556 312.103 90.9465 320.437 107.92 323.813C124.893 327.189 142.486 325.456 158.475 318.834C174.464 312.211 188.129 300.996 197.744 286.607C207.359 272.217 212.49 255.3 212.49 237.994C212.492 226.503 210.229 215.124 205.832 204.508C201.436 193.891 194.99 184.245 186.865 176.119C178.74 167.994 169.093 161.549 158.477 157.152C147.86 152.755 136.481 150.493 124.99 150.494ZM103.99 281.554C94.6775 281.517 85.7603 277.785 79.1977 271.177C72.635 264.569 68.9637 255.627 68.9903 246.314C68.9776 239.323 71.0419 232.485 74.9213 226.668C78.8008 220.852 84.3206 216.319 90.7803 213.644L68.9103 194.554H93.9103L131.73 227.554H103.99C99.0838 227.554 94.3783 229.503 90.9089 232.973C87.4394 236.442 85.4903 241.148 85.4903 246.054C85.4903 250.961 87.4394 255.666 90.9089 259.136C94.3783 262.605 99.0838 264.554 103.99 264.554H112.83L131.75 281.554H103.99ZM181.06 281.554H156.06L118.24 248.554H145.99C150.897 248.554 155.602 246.605 159.072 243.136C162.541 239.666 164.49 234.961 164.49 230.054C164.49 225.148 162.541 220.442 159.072 216.973C155.602 213.503 150.897 211.554 145.99 211.554H137.15L118.24 194.554H145.99C154.142 194.59 162.03 197.45 168.31 202.647C174.59 207.844 178.875 215.057 180.435 223.058C181.995 231.06 180.733 239.354 176.865 246.53C172.997 253.706 166.762 259.319 159.22 262.414L181.06 281.554Z" fill="#C4CBD2"/>
<path d="M103.99 264.554C99.0839 264.554 94.3784 262.605 90.909 259.136C87.4395 255.666 85.4904 250.961 85.4904 246.054C85.4904 241.148 87.4395 236.442 90.909 232.973C94.3784 229.503 99.0839 227.554 103.99 227.554H131.75L93.9904 194.554H68.9904L90.8704 213.604C84.3906 216.266 78.8497 220.796 74.9533 226.618C71.0568 232.439 68.981 239.289 68.9904 246.294C68.9638 255.609 72.6345 264.553 79.1966 271.164C85.7586 277.775 94.6758 281.512 103.99 281.554H131.75L112.83 264.554H103.99Z" fill="#091440"/>
</svg>
