<svg id="Layer_1" data-name="Layer 1" xmlns="http://www.w3.org/2000/svg" viewBox="0 0 450 450"><defs><style>.cls-1{fill:#8795a2;}.cls-2{fill:#121f3c;}.cls-3{fill:none;}</style></defs><title>Offtopic</title><path id="_Path_" data-name="&lt;Path&gt;" class="cls-1" d="M41,226,66.81,327h0c5.16,34,34.57,60.39,70.09,60.39,38,0,69.08-30.39,70.82-67.39H208V233l-90.94-91.4Z"/><path id="_Path_2" data-name="&lt;Path&gt;" class="cls-1" d="M33.58,196.91,104,118.65V83h25v35.3l79,79.27V151h-.25v.06A91.4,91.4,0,1,0,30.87,186.25h0Z"/><polygon id="_Path_3" data-name="&lt;Path&gt;" class="cls-2" points="129 83 104 83 104 118.66 33.58 196.91 41.02 226.02 117.06 141.64 208 233.04 208 197.57 129 118.3 129 83"/><path id="_Path_4" data-name="&lt;Path&gt;" class="cls-1" d="M242.16,320c0,.77.1,1.48.16,2.24,0,.42.05.81.09,1.23.07.73.17,1.44.27,2.17,0,.44.1.88.16,1.31.11.7.24,1.39.36,2.09.08.45.15.91.24,1.36q.21,1,.45,2c.1.46.2.92.31,1.37.17.66.35,1.3.53,1.95.13.46.26.92.4,1.38.19.63.4,1.25.61,1.88.15.46.3.92.46,1.38s.46,1.21.69,1.82c.18.45.35.91.54,1.37s.5,1.17.76,1.75.41.91.62,1.36.55,1.13.83,1.69.45.9.69,1.34.59,1.09.89,1.63l.76,1.32c.32.53.64,1.05,1,1.56s.54.87.83,1.3.67,1,1,1.5.59.85.9,1.27.71,1,1.08,1.43.64.83,1,1.24.75.91,1.13,1.36.69.81,1,1.21.78.87,1.18,1.29l1.11,1.17,1.23,1.23,1.17,1.12,1.28,1.16c.4.37.82.72,1.24,1.08s.87.73,1.31,1.09l1.3,1,1.36,1,1.36,1c.46.32.92.64,1.39.95s.95.62,1.43.92l1.42.88c.49.29,1,.57,1.49.85s1,.55,1.45.81,1,.53,1.55.79,1,.5,1.47.73,1.07.49,1.61.73,1,.45,1.5.66,1.11.44,1.66.65,1,.4,1.52.58,1.15.4,1.73.59l1.52.5,1.8.51c.51.14,1,.29,1.53.42s1.24.29,1.87.43,1,.24,1.51.34,1.31.24,2,.35l1.48.26c.69.1,1.39.18,2.09.26l1.41.18c.78.08,1.57.13,2.35.18.4,0,.8.07,1.21.09q1.79.09,3.6.09c1.17,0,2.33,0,3.49-.09l1.15-.08c.77-.05,1.54-.1,2.3-.18.45,0,.89-.1,1.34-.15.69-.08,1.38-.16,2.06-.26l1.41-.23c.65-.11,1.3-.22,2-.35l1.42-.29,1.89-.44,1.4-.36c.62-.17,1.24-.34,1.86-.53l1.36-.41c.62-.2,1.24-.41,1.85-.63l1.3-.46c.64-.24,1.27-.49,1.9-.75.39-.16.79-.31,1.18-.48.7-.3,1.4-.62,2.09-1l.91-.41c1-.48,2-1,2.92-1.5l.47-.26c.8-.45,1.59-.9,2.37-1.37.34-.2.66-.41,1-.62.59-.37,1.19-.75,1.77-1.14.37-.24.73-.5,1.09-.75.53-.37,1.06-.74,1.59-1.13.37-.27.73-.56,1.1-.84s1-.77,1.48-1.16l1.09-.9,1.4-1.22,1.05-1q.69-.63,1.35-1.29c.34-.32.67-.65,1-1s.88-.92,1.31-1.38l.93-1c.44-.49.87-1,1.31-1.51.27-.32.55-.63.81-1q.73-.9,1.44-1.83c.19-.24.39-.48.57-.73.65-.87,1.28-1.75,1.88-2.65.17-.25.33-.5.49-.75.43-.66.87-1.32,1.28-2l.65-1.11c.33-.57.67-1.15,1-1.73.23-.41.44-.82.66-1.24s.58-1.11.85-1.67.42-.88.63-1.32.51-1.12.76-1.68.39-.91.58-1.37.45-1.13.66-1.7.36-.94.53-1.41.39-1.16.58-1.74.32-1,.46-1.44.35-1.19.51-1.79.27-.95.39-1.44.3-1.27.44-1.91c.1-.46.21-.91.31-1.37.15-.75.27-1.51.4-2.26.06-.37.13-.72.19-1.09v0h0l25.81-101-76-84.44-90.88,91.44,0,83.45.08,3.43h0S242.15,320,242.16,320Z"/><path id="_Path_5" data-name="&lt;Path&gt;" class="cls-1" d="M321,83h25v35.7L416.44,197l2.71-10.67h-.24a11.41,11.41,0,0,0,1.09-3.8h0c2-3.83,2.49-7.76,3.24-11.79,0,0,.13-.05.13-.08.23-1.27.5-2.54.68-3.83,0-.13.06-.27.08-.4.17-1.24.33-2.48.44-3.73l.06-.52c.11-1.24.2-2.49.26-3.75,0-.14,0-.29,0-.44,0-1.31.09-2.62.09-3.94a91.47,91.47,0,0,0-91.47-91.47c-1.36,0-2.71,0-4.06.1h-.39c-1.28.06-2.55.16-3.82.27l-.57.05c-1.23.12-2.45.26-3.67.43l-.62.09c-1.22.17-2.42.37-3.62.59l-.57.11c-1.22.23-2.43.48-3.62.77l-.43.1c-1.25.3-2.49.62-3.72,1l-.1,0c-1.23.35-2.46.73-3.67,1.14l-.29.09c-1.18.39-2.34.82-3.5,1.26l-.47.18c-1.12.43-2.23.89-3.33,1.37l-.52.23c-1.1.48-2.18,1-3.25,1.51l-.48.24c-1.08.54-2.16,1.1-3.21,1.68l-.36.2c-1.1.61-2.19,1.24-3.26,1.89l-.09.06c-1.11.67-2.2,1.37-3.27,2.09a.41.41,0,0,1-.11.07c-1,.71-2.07,1.43-3.08,2.18l-.3.22c-1,.72-1.95,1.47-2.9,2.24l-.35.28c-.94.76-1.87,1.55-2.78,2.35l-.32.28c-.92.82-1.82,1.65-2.71,2.51l-.21.21c-.92.89-1.83,1.8-2.71,2.73h0q-2.75,2.9-5.23,6l-.09.11c-.79,1-1.57,2-2.32,3.06l-.15.21c-.75,1-1.47,2.07-2.17,3.13l-.15.22c-.7,1.08-1.39,2.17-2.05,3.27a.57.57,0,0,1-.08.13,91.33,91.33,0,0,0-7,14.57l0,.08c-.47,1.25-.92,2.52-1.33,3.79,0,0,0,.09,0,.13-.42,1.28-.8,2.58-1.16,3.88l0,.06a90.65,90.65,0,0,0-2.48,12.29c-.39,3-.63,6-.73,9.1l0,46.46L321,118.34Z"/><polygon id="_Path_6" data-name="&lt;Path&gt;" class="cls-2" points="408.97 226.12 416.44 197.01 346 118.7 346 83 321 83 321 118.34 242.14 197.65 242.11 233.12 332.98 141.68 408.97 226.12"/><rect class="cls-3" width="450" height="450"/></svg>