<svg id="Layer_1" data-name="Layer 1" xmlns="http://www.w3.org/2000/svg" viewBox="0 0 450 450"><defs><style>.cls-1{fill:#121f3c;}.cls-2{fill:#8795a2;}.cls-3{fill:none;}</style></defs><title>Options2</title><path id="_Path_" data-name="&lt;Path&gt;" class="cls-1" d="M119.17,371.65A49.94,49.94,0,0,0,132,273.42V322H107V273.42a49.89,49.89,0,0,0,12.17,98.23Z"/><path id="_Compound_Path_" data-name="&lt;Compound Path&gt;" class="cls-2" d="M58.15,365l-14,14.09,17.67,17.71,14.2-14a71.64,71.64,0,0,0,31,12.82V415h25V395.58a75.78,75.78,0,0,0,30.69-12.81l13.95,14,17.63-17.68L180.22,365A71.45,71.45,0,0,0,193,334h20V309H193a76,76,0,0,0-12.82-30.73l14-14-17.68-17.64-13.86,14A75.9,75.9,0,0,0,132,247.9V228H107v19.9a71.64,71.64,0,0,0-31,12.82l-14.11-14L44.16,264.36l14,13.91A76,76,0,0,0,45.33,309H26v25H45.33A71.48,71.48,0,0,0,58.15,365ZM107,273.42V322h25V273.42a49.94,49.94,0,0,1-12.74,98.23A49.89,49.89,0,0,1,107,273.42Z"/><path id="_Path_2" data-name="&lt;Path&gt;" class="cls-1" d="M344,273.42V322H319V273.42a49.9,49.9,0,0,0,12.35,98.23,50,50,0,0,0,50-49.91C381.33,298.54,365,279,344,273.42Z"/><path id="_Compound_Path_2" data-name="&lt;Compound Path&gt;" class="cls-2" d="M425,334V309H405.15a76,76,0,0,0-12.82-30.73l14-14-17.67-17.64-13.94,14A76.1,76.1,0,0,0,344,247.9V228H319v19.9a71.45,71.45,0,0,0-30.95,12.82l-14.08-14-17.7,17.67,14,13.91A76.12,76.12,0,0,0,257.46,309H238v25h19.46a71.6,71.6,0,0,0,12.82,31l-14,14.09,17.68,17.71,14.12-14A71.45,71.45,0,0,0,319,395.58V415h25V395.58a76,76,0,0,0,30.75-12.81l14,14,17.66-17.68-14-14.15a71.57,71.57,0,0,0,12.8-31Zm-93.69,37.65A49.9,49.9,0,0,1,319,273.42V322h25V273.42c21,5.57,37.31,25.12,37.31,48.32A50.05,50.05,0,0,1,331.31,371.65Z"/><path id="_Compound_Path_3" data-name="&lt;Compound Path&gt;" class="cls-2" d="M238,222V202a75.85,75.85,0,0,0,30.72-12.81l14,14,17.65-17.68-14.05-13.85A75.49,75.49,0,0,0,299.08,141H319V116H299.08a71.76,71.76,0,0,0-12.81-31l14-14.12L282.62,53.13l-13.9,14A75.9,75.9,0,0,0,238,54.3V34H213V54.3a71.63,71.63,0,0,0-31,12.81l-14.09-14L150.22,70.76l14,14.21a71.78,71.78,0,0,0-12.83,31H132v25h19.4a75.64,75.64,0,0,0,12.81,30.67l-14,13.94,17.68,17.63L182,189.19A71.48,71.48,0,0,0,213,202v20Zm-62.54-93.86A49.56,49.56,0,0,1,213,79.82V128h25V79.82c21,5.57,37.28,25.12,37.28,48.32a49.91,49.91,0,1,1-99.82,0Z"/><path id="_Path_3" data-name="&lt;Path&gt;" class="cls-1" d="M275.28,128.14c0-23.2-16.28-42.75-37.28-48.32V128H213V79.82a49.9,49.9,0,1,0,62.28,48.32Z"/><rect class="cls-3" width="450" height="450"/></svg>