<svg width="399" height="381" viewBox="0 0 399 381" fill="none" xmlns="http://www.w3.org/2000/svg">
<path d="M93.1711 337.65C105.313 337.674 117.048 333.274 126.18 325.273C135.313 317.272 141.218 306.217 142.79 294.178C144.363 282.138 141.495 269.938 134.724 259.86C127.953 249.782 117.742 242.515 106.001 239.42V288H81.0012V239.42C69.238 242.422 58.9732 249.611 52.1301 259.639C45.287 269.667 42.3352 281.846 43.8279 293.894C45.3206 305.943 51.1553 317.033 60.2388 325.088C69.3222 333.143 81.0308 337.609 93.1711 337.65Z" fill="#091440"/>
<path d="M32.1499 331L18.1499 345.09L35.8201 362.8L50.02 348.8C59.1931 355.467 69.8177 359.86 81.02 361.62V381H106.02V361.58C117.072 359.635 127.555 355.26 136.71 348.77L150.66 362.77L168.29 345.09L154.22 331C160.886 321.829 165.273 311.203 167.02 300H187.02V275H167.02C165.071 263.935 160.692 253.44 154.2 244.27L168.2 230.27L150.52 212.63L136.66 226.63C127.504 220.176 117.034 215.829 106 213.9V194H81V213.9C69.7977 215.66 59.1731 220.053 50 226.72L35.8899 212.72L18.1699 230.39L32.1699 244.3C25.6746 253.459 21.2897 263.944 19.3301 275H0V300H19.3301C21.0838 311.204 25.478 321.83 32.1499 331ZM81 239.42V288H106V239.42C117.733 242.513 127.938 249.772 134.71 259.841C141.481 269.91 144.355 282.1 142.794 294.133C141.234 306.166 135.345 317.22 126.229 325.228C117.114 333.237 105.394 337.652 93.26 337.65C81.1121 337.631 69.3885 333.18 60.2886 325.132C51.1886 317.085 45.3375 305.993 43.833 293.939C42.3285 281.884 45.2739 269.695 52.1167 259.658C58.9595 249.62 69.2294 242.424 81 239.42Z" fill="#C4CBD2"/>
<path d="M318.001 239.42V288H293.001V239.42C281.239 242.442 270.982 249.65 264.154 259.693C257.326 269.737 254.394 281.925 255.909 293.975C257.424 306.024 263.281 317.108 272.383 325.148C281.485 333.188 293.207 337.633 305.351 337.65C318.597 337.65 331.301 332.394 340.675 323.037C350.049 313.68 355.327 300.985 355.351 287.74C355.331 264.54 339.001 245 318.001 239.42Z" fill="#091440"/>
<path d="M399 300V275H379.15C377.201 263.935 372.822 253.44 366.33 244.27L380.33 230.27L362.66 212.63L348.72 226.63C339.544 220.174 329.053 215.827 318 213.9V194H293V213.9C281.813 215.66 271.205 220.054 262.05 226.72L247.97 212.72L230.27 230.39L244.27 244.3C237.789 253.464 233.414 263.947 231.46 275H212V300H231.46C233.218 311.203 237.612 321.828 244.28 331L230.28 345.09L247.96 362.8L262.08 348.8C271.23 355.447 281.827 359.827 293 361.58V381H318V361.58C329.071 359.637 339.573 355.261 348.75 348.77L362.75 362.77L380.41 345.09L366.41 330.94C373.072 321.766 377.459 311.141 379.21 299.94L399 300ZM305.31 337.65C293.169 337.624 281.454 333.172 272.36 325.128C263.265 317.085 257.415 306.002 255.906 293.955C254.396 281.908 257.33 269.724 264.158 259.685C270.987 249.646 281.241 242.441 293 239.42V288H318V239.42C339 244.99 355.31 264.54 355.31 287.74C355.273 300.981 349.99 313.668 340.619 323.023C331.248 332.377 318.551 337.637 305.31 337.65Z" fill="#C4CBD2"/>
<path d="M212 188V168C223.062 166.057 233.555 161.682 242.72 155.19L256.72 169.19L274.37 151.51L260.37 137.66C266.862 128.514 271.235 118.037 273.17 106.99H293V82H273.08C271.319 70.7998 266.929 60.1763 260.27 51L274.27 36.88L256.59 19.16L242.69 33.16C233.537 26.656 223.055 22.2638 212 20.3V0H187V20.3C175.798 22.0563 165.174 26.4467 156 33.11L141.91 19.11L124.2 36.78L138.2 50.99C131.535 60.1647 127.138 70.7882 125.37 81.99H106V106.99H125.4C127.343 118.037 131.719 128.513 138.21 137.66L124.21 151.6L141.89 169.23L156.05 155.23C165.21 161.877 175.818 166.254 187 168V188H212ZM149.46 94.14C149.406 83.0463 153.076 72.2554 159.883 63.4948C166.689 54.7342 176.237 48.5105 187 45.82V94H212V45.82C233 51.39 249.28 70.94 249.28 94.14C249.28 107.377 244.022 120.072 234.662 129.432C225.302 138.792 212.607 144.05 199.37 144.05C186.133 144.05 173.438 138.792 164.078 129.432C154.718 120.072 149.46 107.377 149.46 94.14Z" fill="#C4CBD2"/>
<path d="M249.28 94.1401C249.28 70.9401 233 51.3901 212 45.8201V94.0001H187V45.8201C177.954 48.1368 169.74 52.9453 163.291 59.6989C156.842 66.4524 152.418 74.88 150.521 84.0233C148.624 93.1665 149.331 102.659 152.561 111.42C155.791 120.182 161.414 127.861 168.792 133.585C176.17 139.31 185.006 142.849 194.295 143.8C203.585 144.752 212.955 143.078 221.34 138.968C229.725 134.859 236.789 128.479 241.728 120.554C246.667 112.63 249.284 103.478 249.28 94.1401Z" fill="#091440"/>
</svg>
