<svg width="329" height="282" viewBox="0 0 329 282" fill="none" xmlns="http://www.w3.org/2000/svg">
<path d="M188 47C200.979 47 211.5 36.4787 211.5 23.5C211.5 10.5213 200.979 0 188 0C175.021 0 164.5 10.5213 164.5 23.5C164.5 36.4787 175.021 47 188 47Z" fill="#091440"/>
<path d="M329 94C329 118.93 319.096 142.84 301.468 160.468C283.84 178.096 259.93 188 235 188H211.5V235H164.5V141H235C247.465 141 259.42 136.048 268.234 127.234C277.048 118.42 282 106.465 282 94C282 81.5348 277.048 69.5802 268.234 60.766C259.42 51.9518 247.465 47 235 47H220.9V0H235C259.93 0 283.84 9.90355 301.468 27.532C319.096 45.1604 329 69.0697 329 94Z" fill="#091440"/>
<path d="M141 282C153.979 282 164.5 271.479 164.5 258.5C164.5 245.521 153.979 235 141 235C128.021 235 117.5 245.521 117.5 258.5C117.5 271.479 128.021 282 141 282Z" fill="#091440"/>
<path d="M0 188C0 163.07 9.90354 139.16 27.532 121.532C45.1604 103.904 69.0697 94 94 94H117.5V47H164.5V141H94C81.5348 141 69.5802 145.952 60.766 154.766C51.9518 163.58 47 175.535 47 188C47 200.465 51.9518 212.42 60.766 221.234C69.5802 230.048 81.5348 235 94 235H108.1V282H94C69.0697 282 45.1604 272.096 27.532 254.468C9.90354 236.84 0 212.93 0 188Z" fill="#091440"/>
</svg>
