<svg id="Layer_1" data-name="Layer 1" xmlns="http://www.w3.org/2000/svg" viewBox="0 0 450 450"><defs><style>.cls-1{fill:#8795a2;}.cls-2{fill:#121f3c;}.cls-3{fill:none;}</style></defs><title>Pool</title><path id="_Path_" data-name="&lt;Path&gt;" class="cls-1" d="M387.46,159.94A177.18,177.18,0,0,1,398.35,201,173.42,173.42,0,0,0,387.46,159.94Z"/><path id="_Path_2" data-name="&lt;Path&gt;" class="cls-1" d="M210.2,151.47a74.91,74.91,0,0,1,26.2-.61,73,73,0,0,0-26.2.61Z"/><path id="_Path_3" data-name="&lt;Path&gt;" class="cls-1" d="M62.53,290a176.55,176.55,0,0,1-10.88-41A173.29,173.29,0,0,0,62.53,290Z"/><polygon id="_Path_4" data-name="&lt;Path&gt;" class="cls-1" points="392.33 276.22 392.33 276.23 392.33 276.23 392.33 276.22"/><path id="_Path_5" data-name="&lt;Path&gt;" class="cls-1" d="M394,270.48v0h0Z"/><polygon id="_Path_6" data-name="&lt;Path&gt;" class="cls-1" points="392.82 274.62 392.82 274.62 392.82 274.62 392.82 274.62"/><polygon id="_Path_7" data-name="&lt;Path&gt;" class="cls-1" points="389.39 285.03 389.39 285.03 389.45 284.86 389.45 284.86 389.45 284.86 389.39 285.03"/><path id="_Path_8" data-name="&lt;Path&gt;" class="cls-1" d="M290,387.49a177.11,177.11,0,0,1-41,10.87A173.83,173.83,0,0,0,290,387.49Z"/><path id="_Path_9" data-name="&lt;Path&gt;" class="cls-1" d="M66.35,298.83a176,176,0,0,0,98.56,90.53L175,362l24-66.58h0l.07.28.1-.28A75.41,75.41,0,0,1,156,254.36c.32.77.66,1.53,1,2.28Z"/><path id="_Path_10" data-name="&lt;Path&gt;" class="cls-1" d="M239.78,298.54a75,75,0,0,1-26.16.6A73.35,73.35,0,0,0,225,300,74.52,74.52,0,0,0,239.78,298.54Z"/><path id="_Path_11" data-name="&lt;Path&gt;" class="cls-1" d="M151.46,239.78a75,75,0,0,1-.6-26.17A73.38,73.38,0,0,0,150,225,74.52,74.52,0,0,0,151.46,239.78Z"/><path id="_Path_12" data-name="&lt;Path&gt;" class="cls-1" d="M60.55,165.14c0,.13-.09.25-.13.37.07-.19.15-.38.22-.58h0Z"/><path id="_Path_13" data-name="&lt;Path&gt;" class="cls-1" d="M151.12,66.38a175.94,175.94,0,0,0-90.48,98.55l29.23,10.79,64.67,23.57A75.44,75.44,0,0,1,195.64,156c-.77.33-1.54.67-2.31,1Z"/><path id="_Path_14" data-name="&lt;Path&gt;" class="cls-1" d="M160,62.53a176.63,176.63,0,0,1,41-10.87A173.48,173.48,0,0,0,160,62.53Z"/><path id="_Path_15" data-name="&lt;Path&gt;" class="cls-2" d="M154.54,200l0-.28-.09.24.12,0Z"/><path id="_Path_16" data-name="&lt;Path&gt;" class="cls-2" d="M50.94,243.24c.07.68.16,1.36.24,2,.12,1.06.25,2.12.39,3.17,0,.18,0,.36.08.54a176.55,176.55,0,0,0,10.88,41c0,.11.09.23.14.34.47,1.17.95,2.33,1.45,3.49.28.67.58,1.33.87,2l.77,1.71.57,1.27h0L157,256.64c-.35-.75-.69-1.51-1-2.28-.08-.17-.15-.35-.23-.53-.39-.93-.76-1.88-1.11-2.83-.11-.28-.21-.57-.31-.86-.25-.7-.49-1.41-.72-2.12-.15-.46-.29-.93-.43-1.39-.22-.73-.43-1.47-.63-2.21-.1-.37-.2-.73-.29-1.1-.24-.94-.46-1.88-.66-2.83l-.15-.71A74.52,74.52,0,0,1,150,225a73.38,73.38,0,0,1,.9-11.38v0c.17-1.11.38-2.21.59-3.3.05-.21.09-.42.13-.63.18-.87.39-1.72.6-2.58.09-.36.17-.73.27-1.09.17-.66.36-1.31.55-2s.29-1,.45-1.52c.08-.27.18-.54.28-.82.22-.69.45-1.11.69-1.72L89.87,176.08l-29.24-11-.08.12C58.83,170,57.32,174.7,56,179.52c0,.16-.09.3-.13.46-.26,1-.51,1.93-.75,2.9-.1.43-.21.85-.31,1.28q-.28,1.16-.54,2.31c-.17.75-.33,1.5-.49,2.26-.11.48-.21,1-.31,1.45A173.54,173.54,0,0,0,50,225c0,5.68.3,11.37.86,17Z"/><path id="_Path_17" data-name="&lt;Path&gt;" class="cls-3" d="M299.94,228.49c-.1,2.12-.3,4.24-.58,6.34A36.56,36.56,0,0,0,299.94,228.49Z"/><path id="_Path_18" data-name="&lt;Path&gt;" class="cls-1" d="M299.94,228.49c0-.4,0-.8,0-1.21-.08,2.6-.29,5.15-.62,7.67a.5.5,0,0,1,0-.12C299.64,232.73,299.84,230.61,299.94,228.49Z"/><path id="_Path_19" data-name="&lt;Path&gt;" class="cls-1" d="M298.77,383.67A175.94,175.94,0,0,0,389.38,285l-93.94-34.24A75.4,75.4,0,0,1,254.36,294c.76-.32,1.52-.65,2.26-1Z"/><path id="_Path_20" data-name="&lt;Path&gt;" class="cls-1" d="M383.6,151.07a176,176,0,0,0-98.3-90.34L267.78,107.6,251,154.65l-.14-.05a75.42,75.42,0,0,1,43.13,41c-.33-.78-.67-1.55-1-2.32Z"/><path id="_Path_21" data-name="&lt;Path&gt;" class="cls-2" d="M199,295.42,175,362l-10.05,27.36v0l.22.07c1.58.58,3.17,1.12,4.76,1.65l.77.25c1.17.38,2.35.75,3.52,1.11l1,.3c1.43.43,2.87.84,4.31,1.23l.46.13,2.94.75,1.26.31,2.34.55,2.21.48,1.5.31A173.51,173.51,0,0,0,225,400c5.67,0,11.35-.3,17-.86l1.23-.12,2-.23,3.2-.4.5-.07a177.11,177.11,0,0,0,41-10.87l.29-.12q1.79-.72,3.54-1.47l2-.89,1.69-.76c.42-.19.84-.36,1.25-.56v0L256.62,293c-.74.35-1.5.68-2.26,1l-.54.23c-.92.38-1.84.75-2.77,1.1l-.92.32c-.69.25-1.4.49-2.1.71-.47.16-.93.3-1.4.44-.73.22-1.47.43-2.21.63l-1.11.3c-.93.23-1.87.45-2.81.65l-.72.15A74.52,74.52,0,0,1,225,300a73.35,73.35,0,0,1-11.37-.9h-.06c-1.1-.17-2.19-.37-3.27-.59l-.65-.13c-.86-.18-1.71-.38-2.55-.59l-1.12-.28c-.65-.17-1.3-.36-1.94-.55l-1.53-.45c-.34-.1-.68,0-1-.08a6.93,6.93,0,0,0-2.14-.47h-.21l-.07-.3-.07-.28Z"/><path id="_Path_22" data-name="&lt;Path&gt;" class="cls-2" d="M267.78,107.6,285.3,60.73v0l-.63-.23-.33-.12-.51-.17c-1.17-.42-2.34-.83-3.52-1.22l-1.54-.5-2.68-.85-1.59-.48c-1.37-.4-2.75-.8-4.13-1.17l-.44-.12-2.88-.74-1.3-.32-2.26-.52-2.27-.5-1.43-.3A174,174,0,0,0,225,50c-5.7,0-11.4.3-17.09.87l-1.14.11-2.13.24-3.09.39-.62.09a176.63,176.63,0,0,0-41,10.87l-.5.21c-1.12.45-2.22.91-3.32,1.38l-2.08.91-1.62.73-1.34.6v0L193.33,157c.77-.36,1.54-.7,2.31-1l.51-.21c.95-.39,1.9-.77,2.87-1.13l.82-.29c.72-.26,1.44-.5,2.17-.74l1.33-.42c.75-.22,1.5-.44,2.26-.64l1.06-.28c1-.24,1.91-.46,2.87-.66l.67-.14a73,73,0,0,1,26.2-.61h0c1.11.17,2.21.38,3.31.6l.62.12c.87.18,1.73.39,2.59.6l1.08.26c.67.18,1.34.38,2,.57.49.15,1,.28,1.48.44s1,.33,1.5.5,1.1.37,1.65.57l.23.08.14.05Z"/><path id="_Path_23" data-name="&lt;Path&gt;" class="cls-2" d="M389.39,285l.06-.17h0c.05-.13.18-.25.23-.37s.32-.44.32-.65h0c0-1.13,1-2.26,1-3.39h0a4.85,4.85,0,0,1,.46-1.41c0-.06-.14-.11-.13-.16a8.83,8.83,0,0,0,.67-2.65h0a1.64,1.64,0,0,1,.66-1.23h.08a22.52,22.52,0,0,1,1.21-4h0c0-1,0-.26,0-.27s.08-.4.12-.54c.26-1,.52-2,.76-3,.1-.4.2-.83.3-1.23.19-.79.38-1.6.56-2.4s.32-1.44.47-2.16l.33-1.56A174.14,174.14,0,0,0,400,225c0-5.66-.3-11.33-.86-17,0-.43-.08-.87-.13-1.3-.07-.67-.15-1.34-.22-2-.13-1.08-.26-2.16-.41-3.24,0-.17,0-.34-.07-.5a177.18,177.18,0,0,0-10.89-41.05c-.07-.18-.15-.35-.22-.53-.44-1.1-.91-2.2-1.37-3.3l-.9-2.05c-.24-.55-.49-1.09-.74-1.64s-.4-.91-.61-1.36h0L293,193.31c.36.77.7,1.54,1,2.32l.23.54c.39.94.76,1.88,1.12,2.83l.3.86c.25.71.49,1.41.72,2.13.15.46.3.93.44,1.41.22.72.42,1.44.62,2.17.1.37.2.74.29,1.1.24.94.46,1.88.66,2.83l.15.72A74.44,74.44,0,0,1,300,225c0,.76,0,1.52,0,2.27,0,.41,0,.81,0,1.21a36.56,36.56,0,0,1-.58,6.34.5.5,0,0,0,0,.12c-.1.49-.21,1-.34,1.46h0a17.79,17.79,0,0,1-.53,3.36c0,.18,0,.37-.08.55-.19.91-.38,1.81-.61,2.71-.08.32-.14.63-.22.95-.19.74-.41,1.47-.62,2.2-.13.43-.24.86-.38,1.28-.18.59-.39,1.18-.59,1.76s-.3.93-.47,1.39l-.07.18h0L389.38,285Z"/><rect class="cls-3" width="450" height="450"/></svg>