<svg width="350" height="350" viewBox="0 0 350 350" fill="none" xmlns="http://www.w3.org/2000/svg">
<path d="M16.3496 248.83C36.0008 290.807 71.4175 323.338 114.91 339.36L125 312L149 245.42L149.07 245.7L149.17 245.42C139.563 241.867 130.78 236.393 123.358 229.334C115.936 222.275 110.029 213.777 106 204.36C106.32 205.13 106.66 205.89 107 206.64L16.3496 248.83Z" fill="#C4CBD2"/>
<path d="M101.121 16.38C59.1603 36.0341 26.647 71.4473 10.6406 114.93L39.8706 125.72L104.541 149.29C108.084 139.654 113.556 130.843 120.624 123.396C127.691 115.949 136.203 110.023 145.641 105.98C144.871 106.31 144.101 106.65 143.331 106.98L101.121 16.38Z" fill="#C4CBD2"/>
<path d="M0.939957 193.24C1.00996 193.92 1.10007 194.6 1.18007 195.24C1.30007 196.3 1.42996 197.36 1.56996 198.41C1.56996 198.59 1.57004 198.77 1.65004 198.95C3.61574 213.004 7.26877 226.77 12.53 239.95C12.53 240.06 12.6201 240.18 12.6701 240.29C13.1401 241.46 13.62 242.62 14.12 243.78C14.4 244.45 14.7 245.11 14.99 245.78L15.76 247.49L16.33 248.76L107 206.64C106.65 205.89 106.31 205.13 106 204.36C105.92 204.19 105.85 204.01 105.77 203.83C105.38 202.9 105.01 201.95 104.66 201C104.55 200.72 104.45 200.43 104.35 200.14C104.1 199.44 103.86 198.73 103.63 198.02C103.48 197.56 103.34 197.09 103.2 196.63C102.98 195.9 102.77 195.16 102.57 194.42C102.47 194.05 102.37 193.69 102.28 193.32C102.04 192.38 101.82 191.44 101.62 190.49L101.47 189.78C100.489 184.915 99.9966 179.963 100 175C100.004 171.189 100.305 167.384 100.9 163.62C101.07 162.51 101.28 161.41 101.49 160.32C101.49 160.11 101.58 159.9 101.62 159.69C101.8 158.82 102.01 157.97 102.22 157.11C102.31 156.75 102.39 156.38 102.49 156.02C102.66 155.36 102.85 154.71 103.04 154.02C103.23 153.33 103.33 153.02 103.49 152.5C103.57 152.23 103.67 151.96 103.77 151.68C103.99 150.99 104.22 150.57 104.46 149.96L39.91 126.08L10.6701 115.08L10.59 115.2C8.86998 119.93 7.36006 124.67 6.05007 129.49C6.05007 129.65 5.96006 129.79 5.92006 129.95C5.66006 130.95 5.41006 131.88 5.17006 132.85C5.07006 133.28 4.96 133.7 4.86 134.13C4.67334 134.903 4.4933 135.673 4.31996 136.44C4.14996 137.19 3.98997 137.94 3.82997 138.7C3.71997 139.18 3.62004 139.7 3.52004 140.15C1.17435 151.618 -0.00500801 163.294 1.59835e-05 175C1.59835e-05 180.68 0.300001 186.37 0.860001 192L0.939957 193.24Z" fill="#091440"/>
<path d="M248.769 333.67C290.802 314.015 323.369 278.552 339.379 235L245.439 200.76C241.892 210.382 236.42 219.18 229.357 226.615C222.293 234.049 213.787 239.965 204.359 244C205.119 243.68 205.879 243.35 206.619 243L248.769 333.67Z" fill="#C4CBD2"/>
<path d="M333.599 101.07C313.969 59.2152 278.659 26.7645 235.299 10.73L217.779 57.6L200.999 104.65L200.859 104.6C210.453 108.152 219.224 113.618 226.639 120.666C234.054 127.715 239.957 136.198 243.989 145.6C243.659 144.82 243.319 144.05 242.989 143.28L333.599 101.07Z" fill="#C4CBD2"/>
<path d="M149 245.42L125 312L115 339.36L115.22 339.43C116.8 340.01 118.39 340.55 119.98 341.08L120.75 341.33C121.92 341.71 123.1 342.08 124.27 342.44L125.27 342.74C126.7 343.17 128.14 343.58 129.58 343.97L130.04 344.1L132.98 344.85L134.24 345.16L136.58 345.71L138.79 346.19L140.29 346.5C151.713 348.83 163.342 350.002 175 350C180.67 350 186.35 349.7 192 349.14L193.23 349.02L195.23 348.79L198.43 348.39L198.93 348.32C212.983 346.352 226.748 342.703 239.93 337.45L240.22 337.33C241.413 336.85 242.593 336.36 243.76 335.86L245.76 334.97L247.45 334.21C247.87 334.02 248.29 333.85 248.7 333.65L206.62 243C205.88 243.35 205.12 243.68 204.36 244L203.82 244.23C202.9 244.61 201.98 244.98 201.05 245.33L200.13 245.65C199.44 245.9 198.73 246.14 198.03 246.36C197.56 246.52 197.1 246.66 196.63 246.8C195.9 247.02 195.16 247.23 194.42 247.43L193.31 247.73C192.38 247.96 191.44 248.18 190.5 248.38L189.78 248.53C184.915 249.511 179.963 250.003 175 250C171.192 249.996 167.391 249.695 163.63 249.1H163.57C162.47 248.93 161.38 248.73 160.3 248.51L159.65 248.38C158.79 248.2 157.94 248 157.1 247.79L155.98 247.51C155.33 247.34 154.68 247.15 154.04 246.96L152.51 246.51C152.17 246.41 151.83 246.51 151.51 246.43C150.826 246.161 150.104 246.002 149.37 245.96H149.16L149.09 245.66L149.02 245.38L149 245.42Z" fill="#091440"/>
<path d="M217.78 57.6L235.3 10.73L234.67 10.5L234.34 10.38L233.83 10.21C232.66 9.79004 231.49 9.38004 230.31 8.99004L228.77 8.49004L226.09 7.64004L224.5 7.16004C223.13 6.76004 221.75 6.36004 220.37 5.99004L219.93 5.87004L217.05 5.13004L215.75 4.81004L213.49 4.29004L211.22 3.79004L209.79 3.49004C198.34 1.16155 186.685 -0.00768711 175 3.80293e-05C169.3 3.80293e-05 163.6 0.300037 157.91 0.870037L156.77 0.980038C156.06 1.05004 155.35 1.14004 154.64 1.22004C153.64 1.35004 152.58 1.47004 151.55 1.61004L150.93 1.70004C136.877 3.66328 123.111 7.31292 109.93 12.57L109.43 12.78C108.31 13.23 107.21 13.69 106.11 14.16L104.03 15.07L102.41 15.8L101.07 16.4L143.33 107C144.1 106.64 144.87 106.3 145.64 106L146.15 105.79C147.1 105.4 148.05 105.02 149.02 104.66L149.84 104.37C150.56 104.11 151.28 103.87 152.01 103.63L153.34 103.21C154.09 102.99 154.84 102.77 155.6 102.57L156.66 102.29C157.61 102.05 158.57 101.83 159.53 101.63L160.2 101.49C168.825 99.7079 177.702 99.5012 186.4 100.88C187.51 101.05 188.61 101.26 189.71 101.48L190.33 101.6C191.2 101.78 192.06 101.99 192.92 102.2L194 102.46C194.67 102.64 195.34 102.84 196 103.03C196.49 103.18 197 103.31 197.48 103.47C197.96 103.63 198.48 103.8 198.98 103.97L200.63 104.54L200.86 104.62L201 104.67L217.78 57.6Z" fill="#091440"/>
<path d="M339.39 235L339.45 234.83C339.45 234.7 339.63 234.58 339.68 234.46C339.73 234.34 340 234.02 340 233.81C340 232.68 341 231.55 341 230.42C341.08 229.929 341.235 229.454 341.46 229.01C341.46 228.95 341.32 228.9 341.33 228.85C341.689 228.007 341.916 227.113 342 226.2C342.013 225.959 342.079 225.724 342.193 225.511C342.307 225.299 342.466 225.114 342.66 224.97H342.74C343.018 223.602 343.424 222.263 343.95 220.97C343.95 219.97 343.95 220.71 343.95 220.7C343.95 220.69 344.03 220.3 344.07 220.16C344.33 219.16 344.59 218.16 344.83 217.16C344.93 216.76 345.03 216.33 345.13 215.93C345.32 215.14 345.51 214.33 345.69 213.53C345.87 212.73 346.01 212.09 346.16 211.37L346.49 209.81C348.826 198.354 350.002 186.692 350 175C350 169.34 349.7 163.67 349.14 158C349.14 157.57 349.06 157.13 349.01 156.7C348.94 156.03 348.86 155.36 348.79 154.7C348.66 153.62 348.53 152.54 348.38 151.46C348.38 151.29 348.38 151.12 348.31 150.96C346.339 136.89 342.683 123.107 337.42 109.91C337.35 109.73 337.27 109.56 337.2 109.38C336.76 108.28 336.29 107.18 335.83 106.08L334.93 104.03C334.69 103.48 334.44 102.94 334.19 102.39C333.94 101.84 333.79 101.48 333.58 101.03L243 143.31C243.36 144.08 243.7 144.85 244 145.63L244.23 146.17C244.62 147.11 244.99 148.05 245.35 149L245.65 149.86C245.9 150.57 246.14 151.27 246.37 151.99C246.52 152.45 246.67 152.92 246.81 153.4C247.03 154.12 247.23 154.84 247.43 155.57C247.53 155.94 247.63 156.31 247.72 156.67C247.96 157.61 248.18 158.55 248.38 159.5L248.53 160.22C249.512 165.085 250.004 170.037 250 175C250 175.76 250 176.52 250 177.27C250 177.68 250 178.08 250 178.48C249.991 180.606 249.797 182.728 249.42 184.82C249.415 184.86 249.415 184.9 249.42 184.94C249.32 185.43 249.21 185.94 249.08 186.4C249.011 187.534 248.834 188.66 248.55 189.76C248.55 189.94 248.55 190.13 248.47 190.31C248.28 191.22 248.09 192.12 247.86 193.02C247.78 193.34 247.72 193.65 247.64 193.97C247.45 194.71 247.23 195.44 247.02 196.17C246.89 196.6 246.78 197.03 246.64 197.45C246.46 198.04 246.25 198.63 246.05 199.21C245.85 199.79 245.75 200.14 245.58 200.6L245.51 200.78L339.38 235H339.39Z" fill="#091440"/>
</svg>
