<svg width="338" height="338" viewBox="0 0 338 338" fill="none" xmlns="http://www.w3.org/2000/svg">
<path d="M76.4698 42.6707C71.7356 40.1394 66.3124 39.1992 61.0024 39.9893C55.6924 40.7794 50.7778 43.2577 46.9857 47.0577C43.1936 50.8577 40.7254 55.7774 39.9463 61.089C39.1672 66.4005 40.1186 71.8218 42.6598 76.5507C52.5367 63.9481 63.8876 52.5737 76.4698 42.6707Z" fill="#132F4B"/>
<path d="M73.5101 126.551L91.1901 144.231L100.02 135.401L135.37 100.051L144.23 91.2007L126.58 73.4707L135.18 64.6507L199.58 0.000709088C154.914 -0.118966 111.528 14.913 76.5101 42.6407C63.912 52.5506 52.5476 63.9352 42.6601 76.5507C14.9929 111.749 -0.0325572 155.23 5.29694e-05 200.001L64.6501 135.361L73.5101 126.551Z" fill="#C4CBD2"/>
<path d="M100.02 135.351L294.47 329.781C299.166 334.435 305.514 337.039 312.125 337.023C318.737 337.008 325.073 334.374 329.747 329.699C334.422 325.023 337.054 318.686 337.067 312.075C337.081 305.463 334.475 299.115 329.82 294.421L135.38 100.001L100.02 135.351Z" fill="#091440"/>
</svg>
