<svg width="351" height="325" viewBox="0 0 351 325" fill="none" xmlns="http://www.w3.org/2000/svg">
<path d="M100.24 287.5C100.24 294.917 102.44 302.167 106.56 308.334C110.681 314.501 116.537 319.307 123.39 322.146C130.242 324.984 137.782 325.726 145.056 324.28C152.33 322.833 159.012 319.261 164.257 314.017C169.501 308.772 173.073 302.09 174.52 294.816C175.967 287.542 175.224 280.002 172.386 273.149C169.547 266.297 164.741 260.44 158.574 256.32C152.407 252.199 145.157 250 137.74 250C127.795 250 118.256 253.951 111.224 260.983C104.191 268.016 100.24 277.554 100.24 287.5ZM150.24 287.5C150.24 289.972 149.507 292.389 148.134 294.445C146.76 296.5 144.808 298.102 142.524 299.049C140.24 299.995 137.726 300.242 135.302 299.76C132.877 299.277 130.65 298.087 128.901 296.339C127.153 294.591 125.963 292.363 125.48 289.939C124.998 287.514 125.246 285.001 126.192 282.717C127.138 280.432 128.74 278.48 130.796 277.107C132.851 275.733 135.268 275 137.74 275C141.055 275 144.235 276.317 146.579 278.661C148.923 281.005 150.24 284.185 150.24 287.5Z" fill="#091440"/>
<path d="M137.74 300C144.644 300 150.24 294.404 150.24 287.5C150.24 280.596 144.644 275 137.74 275C130.837 275 125.24 280.596 125.24 287.5C125.24 294.404 130.837 300 137.74 300Z" fill="#C4CBD2"/>
<path d="M225.24 287.5C225.24 294.917 227.44 302.167 231.56 308.334C235.681 314.501 241.537 319.307 248.39 322.146C255.242 324.984 262.782 325.726 270.056 324.28C277.33 322.833 284.012 319.261 289.257 314.017C294.501 308.772 298.073 302.09 299.52 294.816C300.967 287.542 300.224 280.002 297.386 273.149C294.547 266.297 289.741 260.44 283.574 256.32C277.407 252.199 270.157 250 262.74 250C252.795 250 243.256 253.951 236.224 260.983C229.191 268.016 225.24 277.554 225.24 287.5ZM275.24 287.5C275.24 289.972 274.507 292.389 273.134 294.445C271.76 296.5 269.808 298.102 267.524 299.049C265.24 299.995 262.726 300.242 260.302 299.76C257.877 299.277 255.65 298.087 253.901 296.339C252.153 294.591 250.963 292.363 250.48 289.939C249.998 287.514 250.246 285.001 251.192 282.717C252.138 280.432 253.74 278.48 255.796 277.107C257.851 275.733 260.268 275 262.74 275C266.055 275 269.235 276.317 271.579 278.661C273.923 281.005 275.24 284.185 275.24 287.5Z" fill="#091440"/>
<path d="M262.74 300C269.644 300 275.24 294.404 275.24 287.5C275.24 280.596 269.644 275 262.74 275C255.837 275 250.24 280.596 250.24 287.5C250.24 294.404 255.837 300 262.74 300Z" fill="#C4CBD2"/>
<path d="M0 25H43.66L75.24 225H325.24L350.24 50H72.61L64.71 0H0V25ZM233.43 75C236.011 75 238.588 75.1939 241.14 75.58C253.096 77.4297 263.996 83.4947 271.871 92.6791C279.746 101.864 284.077 113.562 284.08 125.66C284.102 137.771 279.764 149.485 271.86 158.66C271.46 159.13 271.05 159.59 270.64 160.04C265.589 165.506 259.4 169.797 252.51 172.61L284.08 200.01H248L193.44 153.01H233.44C240.601 153.01 247.468 150.165 252.532 145.102C257.595 140.038 260.44 133.171 260.44 126.01C260.44 118.849 257.595 111.982 252.532 106.918C247.468 101.855 240.601 99.01 233.44 99.01H220.68L193.4 75.01L233.43 75ZM122.25 75H158.37L212.94 122H172.94C165.779 122 158.912 124.845 153.848 129.908C148.785 134.972 145.94 141.839 145.94 149C145.94 156.161 148.785 163.028 153.848 168.092C158.912 173.155 165.779 176 172.94 176H185.7L212.98 200H172.98C161.233 199.994 149.853 195.907 140.787 188.437C131.72 180.968 125.531 170.58 123.277 159.052C121.023 147.523 122.845 135.569 128.431 125.235C134.017 114.901 143.02 106.829 153.9 102.4L122.25 75Z" fill="#091440"/>
<path d="M233.43 99C240.591 99 247.458 101.845 252.521 106.908C257.585 111.972 260.43 118.839 260.43 126C260.43 133.161 257.585 140.028 252.521 145.092C247.458 150.155 240.591 153 233.43 153H193.43L247.99 200H284.12L252.55 172.6C259.44 169.787 265.629 165.496 270.68 160.03C271.09 159.58 271.5 159.12 271.9 158.65C279.804 149.475 284.142 137.761 284.12 125.65C284.116 113.552 279.786 101.853 271.911 92.6691C264.036 83.4846 253.136 77.4197 241.18 75.5699C238.628 75.1838 236.051 74.99 233.47 74.99H193.47L220.75 98.99L233.43 99Z" fill="#C4CBD2"/>
<path d="M122.251 149.34C122.25 155.992 123.559 162.58 126.104 168.726C128.648 174.872 132.379 180.457 137.083 185.161C141.786 189.866 147.37 193.598 153.516 196.144C159.662 198.69 166.249 200 172.901 200H212.901L185.621 176H172.901C165.74 176 158.873 173.155 153.809 168.092C148.746 163.028 145.901 156.161 145.901 149C145.901 141.839 148.746 134.972 153.809 129.908C158.873 124.845 165.74 122 172.901 122H212.901L158.331 75H122.211L153.781 102.4C144.456 106.206 136.477 112.703 130.861 121.064C125.245 129.424 122.248 139.268 122.251 149.34Z" fill="#C4CBD2"/>
</svg>
