<svg id="Layer_1" data-name="Layer 1" xmlns="http://www.w3.org/2000/svg" viewBox="0 0 450 450"><defs><style>.cls-1{fill:none;}.cls-2{fill:#121f3c;}.cls-3{fill:#8795a2;}</style></defs><title>PurchasingDCR</title><polygon id="_Path_" data-name="&lt;Path&gt;" class="cls-1" points="334.08 263 302.51 235.6 302.51 235.6 334.08 263"/><path id="_Compound_Path_" data-name="&lt;Compound Path&gt;" class="cls-2" d="M150.24,350.5a37.5,37.5,0,1,0,37.5-37.5A37.5,37.5,0,0,0,150.24,350.5Zm50,0a12.5,12.5,0,1,1-12.5-12.5A12.5,12.5,0,0,1,200.24,350.5Z"/><circle id="_Path_2" data-name="&lt;Path&gt;" class="cls-3" cx="187.74" cy="350.5" r="12.5"/><path id="_Compound_Path_2" data-name="&lt;Compound Path&gt;" class="cls-2" d="M275.24,350.5a37.5,37.5,0,1,0,37.5-37.5A37.5,37.5,0,0,0,275.24,350.5Zm50,0a12.5,12.5,0,1,1-12.5-12.5A12.5,12.5,0,0,1,325.24,350.5Z"/><circle id="_Path_3" data-name="&lt;Path&gt;" class="cls-3" cx="312.74" cy="350.5" r="12.5"/><path id="_Path_4" data-name="&lt;Path&gt;" class="cls-1" d="M334.08,188.66h0a50.42,50.42,0,0,1-12.22,33A50.42,50.42,0,0,0,334.08,188.66Z"/><path id="_Compound_Path_3" data-name="&lt;Compound Path&gt;" class="cls-2" d="M50,88H93.66l31.58,200h250l25-175H122.61l-7.9-50H50Zm233.43,50a51.54,51.54,0,0,1,7.71.58,50.69,50.69,0,0,1,42.94,50.08h0a50.42,50.42,0,0,1-12.22,33c-.4.47-.81.93-1.22,1.38a50.86,50.86,0,0,1-18.13,12.57L334.08,263H298l-54.56-47h40a27,27,0,0,0,0-54H270.67l-27.28-24Zm-111.18,0h36.12l54.57,47h-40a27,27,0,0,0,0,54h12.76l27.28,24h-40a50.67,50.67,0,0,1-19.08-97.6Z"/><path id="_Path_5" data-name="&lt;Path&gt;" class="cls-3" d="M283.43,162a27,27,0,0,1,0,54h-40L298,263h36.13l-31.57-27.4h0A50.86,50.86,0,0,0,320.64,223c.41-.45.82-.91,1.22-1.38a50.42,50.42,0,0,0,12.22-33h0a50.69,50.69,0,0,0-42.94-50.08,51.54,51.54,0,0,0-7.71-.58h-40l27.28,24Z"/><path id="_Path_6" data-name="&lt;Path&gt;" class="cls-3" d="M172.25,212.34A50.65,50.65,0,0,0,222.9,263h40l-27.28-24H222.9a27,27,0,0,1,0-54h40l-54.57-47H172.25l31.57,27.4A50.68,50.68,0,0,0,172.25,212.34Z"/><rect class="cls-1" width="450" height="450"/></svg>