<svg width="250" height="350" viewBox="0 0 250 350" fill="none" xmlns="http://www.w3.org/2000/svg">
<path d="M191.12 0C191.12 8.7224 189.402 17.3594 186.064 25.4178C182.726 33.4763 177.834 40.7984 171.666 46.966C165.498 53.1337 158.176 58.0262 150.118 61.3641C142.059 64.702 133.422 66.42 124.7 66.42V66.42C107.084 66.42 90.1901 59.4222 77.734 46.966C65.2778 34.5099 58.28 17.6157 58.28 0H0V349.56H58.28C58.28 331.944 65.2778 315.05 77.734 302.594C90.1901 290.138 107.084 283.14 124.7 283.14C142.316 283.14 159.21 290.138 171.666 302.594C184.122 315.05 191.12 331.944 191.12 349.56H249.4V0H191.12Z" fill="#091440"/>
<path d="M124.75 84.23C108.735 84.293 93.3912 90.6771 82.0578 101.994C70.7243 113.31 64.3173 128.644 64.2305 144.66H84.3405C84.3566 136.054 87.118 127.677 92.223 120.748C97.3281 113.819 104.51 108.7 112.726 106.134C120.941 103.569 129.76 103.691 137.901 106.483C146.042 109.276 153.08 114.592 157.99 121.66C162.677 128.38 165.187 136.377 165.18 144.57V144.57C165.157 155.27 160.884 165.522 153.302 173.072C145.72 180.622 135.45 184.851 124.75 184.83H114.5V225.05H134.61V204.53C149.575 202.012 163.049 193.969 172.367 181.991C181.684 170.014 186.167 154.976 184.927 139.852C183.688 124.728 176.816 110.62 165.673 100.32C154.529 90.0198 139.925 84.2778 124.75 84.23Z" fill="#C4CBD2"/>
<path d="M134.61 245.22H114.5V265.33H134.61V245.22Z" fill="#C4CBD2"/>
</svg>
