<svg id="Layer_1" data-name="Layer 1" xmlns="http://www.w3.org/2000/svg" viewBox="0 0 450 450"><defs><style>.cls-1{fill:#121f3c;}.cls-2{fill:none;}.cls-3{fill:#8795a2;}</style></defs><title>QuestionTicket</title><g id="Layer_2" data-name="Layer 2"><g id="Layer_1-2" data-name="Layer 1-2"><g id="Symbol_7_1" data-name="Symbol 7 1"><g id="Group_369" data-name="Group 369"><g id="_Group_2" data-name=" Group 2"><path id="_Path_2" data-name=" Path 2" class="cls-1" d="M291.42,50.22A66.42,66.42,0,0,1,225,116.64h0a66.42,66.42,0,0,1-66.42-66.42H100.3V399.78h58.28a66.42,66.42,0,0,1,132.84,0H349.7V50.22Z"/></g></g></g></g></g><rect class="cls-2" width="450" height="450"/><path id="_Path_" data-name="&lt;Path&gt;" class="cls-3" d="M225.05,134.45a60.76,60.76,0,0,0-60.52,60.43h20.11a40.44,40.44,0,0,1,73.65-23,40,40,0,0,1,7.19,22.91v0a40.35,40.35,0,0,1-40.43,40.26H214.8v40.22h20.11V254.75a60.57,60.57,0,0,0-9.86-120.3Z"/><rect id="_Path_2-2" data-name="&lt;Path&gt;" class="cls-3" x="214.8" y="295.44" width="20.11" height="20.11"/></svg>