<svg width="400" height="400" viewBox="0 0 400 400" fill="none" xmlns="http://www.w3.org/2000/svg">
<path d="M200 0C89.55 0 0 89.55 0 200C0 310.45 89.55 400 200 400H400L340.8 342C359.579 323.43 374.482 301.315 384.645 276.939C394.807 252.562 400.027 226.41 400 200C400 89.53 310.46 0 200 0ZM212.26 325H187.26V300H212.26V325ZM212.26 249.41V275H187.26V225H200C206.574 225 213.083 223.705 219.157 221.189C225.231 218.674 230.749 214.986 235.398 210.338C240.046 205.689 243.734 200.171 246.249 194.097C248.765 188.024 250.06 181.514 250.06 174.94C250.06 168.366 248.765 161.857 246.249 155.783C243.734 149.709 240.046 144.191 235.398 139.542C230.749 134.894 225.231 131.206 219.157 128.691C213.083 126.175 206.574 124.88 200 124.88C172.3 124.88 149.77 148 149.77 175H124.77C124.77 134 158.52 99.8799 200 99.8799C218.875 99.9174 237.047 107.044 250.915 119.847C264.783 132.651 273.336 150.197 274.879 169.008C276.421 187.82 270.84 206.525 259.243 221.416C247.645 236.307 230.876 246.299 212.26 249.41Z" fill="#091440"/>
<path d="M200 99.8799C158.52 99.8799 124.77 134 124.77 175H149.77C149.77 148 172.3 124.88 200 124.88C208.12 124.871 216.121 126.829 223.318 130.587C230.516 134.346 236.696 139.792 241.33 146.46C247.154 154.814 250.271 164.756 250.26 174.94C250.217 188.233 244.9 200.965 235.476 210.34C226.052 219.715 213.293 224.967 200 224.94H187.26V274.94H212.26V249.35C230.876 246.239 247.645 236.247 259.242 221.356C270.84 206.465 276.421 187.76 274.878 168.948C273.336 150.137 264.783 132.591 250.915 119.787C237.046 106.984 218.875 99.8575 200 99.8201V99.8799Z" fill="#C4CBD2"/>
<path d="M212.26 300H187.26V325H212.26V300Z" fill="#C4CBD2"/>
</svg>
