<svg id="Layer_1" data-name="Layer 1" xmlns="http://www.w3.org/2000/svg" viewBox="0 0 450 450"><defs><style>.cls-1{fill:#8795a2;}.cls-2{fill:#121f3c;}.cls-3{fill:none;}</style></defs><title>Rename</title><rect id="_Rectangle_" data-name="&lt;Rectangle&gt;" class="cls-1" x="75" y="75" width="300" height="300" rx="1.95" ry="1.95"/><g id="_Group_" data-name="&lt;Group&gt;"><path id="_Compound_Path_" data-name="&lt;Compound Path&gt;" class="cls-2" d="M155.62,150.51H185.7l63.56,149.37H215.15l-13.56-33.27H138.88l-13.56,33.27H92.06Zm34.32,87.29-19.71-48.09-19.7,48.09Z"/><path id="_Compound_Path_2" data-name="&lt;Compound Path&gt;" class="cls-2" d="M253.49,267.25v-.43c0-24.78,18.86-36.22,45.77-36.22A80.53,80.53,0,0,1,327,235.26v-1.91c0-13.35-8.26-20.76-24.36-20.76-12.29,0-21,2.33-31.36,6.14l-8.05-24.58c12.5-5.5,24.79-9.11,44.07-9.11,17.58,0,30.29,4.67,38.35,12.72,8.47,8.47,12.28,21,12.28,36.23v65.89H326.8V287.59C319,296.27,308.16,302,292.48,302,271.08,302,253.49,289.71,253.49,267.25Zm73.94-7.42v-5.72a49.93,49.93,0,0,0-20.55-4.24c-13.77,0-22.24,5.51-22.24,15.68V266c0,8.68,7.2,13.77,17.58,13.77C317.27,279.75,327.43,271.49,327.43,259.83Z"/></g><rect class="cls-3" width="450" height="450"/></svg>