<svg width="401" height="400" viewBox="0 0 401 400" fill="none" xmlns="http://www.w3.org/2000/svg">
<path d="M25 0.0100098L0 50H0.26001H49.99L25 0.0100098Z" fill="#C4CBD2"/>
<path d="M375.26 200H100.26V225H375.26V200Z" fill="#091440"/>
<path d="M237.26 250H100.26V275H237.26V250Z" fill="#091440"/>
<path d="M0.259766 400H50.2598V50H49.9897H0.259766V50.01V400Z" fill="#091440"/>
<path d="M75.2598 313.43V400H143.09H400.26V0H75.2598V313.43ZM100.26 100H375.26V125H100.26V100ZM100.26 150H375.26V175H100.26V150ZM100.26 200H375.26V225H100.26V200ZM100.26 250H237.26V275H100.26V250Z" fill="#C4CBD2"/>
<path d="M375.26 150H100.26V175H375.26V150Z" fill="#091440"/>
<path d="M375.26 100H100.26V125H375.26V100Z" fill="#091440"/>
</svg>
