<svg width="300" height="400" viewBox="0 0 300 400" fill="none" xmlns="http://www.w3.org/2000/svg">
<path d="M0 399.94L50 299.94L85.3601 286.86C68.9221 263.109 57.8553 236.062 52.9299 207.6L0 249.94V399.94Z" fill="#091440"/>
<path d="M214.641 286.86L250.001 299.94L300.001 399.94V249.94L247.331 206.04C242.542 235.065 231.377 262.667 214.641 286.86Z" fill="#091440"/>
<path d="M155.96 350L152.98 375H225V350H217H155.96Z" fill="#C4CBD2"/>
<path d="M143.79 350H83H75V375H146.9L146.89 374.94L143.79 350Z" fill="#C4CBD2"/>
<path d="M150 212.44C184.518 212.44 212.5 184.458 212.5 149.94C212.5 115.422 184.518 87.4399 150 87.4399C115.482 87.4399 87.5 115.422 87.5 149.94C87.5 184.458 115.482 212.44 150 212.44Z" fill="#091440"/>
<path d="M149.5 228.58L137 249.94V297.28L140.62 324.94L140.63 325L143.79 349.94V350L146.89 374.94L146.9 375L149.97 399.94L152.97 374.94L155.83 349.94L158.7 324.94L162 295.15V249.94L149.5 228.58Z" fill="#091440"/>
<path d="M150 0C119.586 17.5504 94.3302 42.8021 76.7754 73.214C59.2206 103.626 49.9858 138.125 50 173.24C49.998 184.739 50.9782 196.218 52.9299 207.55C57.8561 235.971 68.9236 262.976 85.3601 286.68C87.723 290.257 90.2975 293.69 93.0701 296.96H92.5701L87.5701 324.96H140.66V324.9L137.04 297.24V249.9L149.54 228.54L162.04 249.9V295.11L159 325H212.51L207.51 297H207.01C209.783 293.73 212.357 290.297 214.72 286.72C231.456 262.553 242.621 234.973 247.41 205.97C254.035 165.806 248.261 124.578 230.857 87.7791C213.454 50.9805 185.249 20.3604 150 0ZM212.5 149.9C212.5 162.261 208.834 174.345 201.967 184.623C195.099 194.901 185.338 202.912 173.918 207.642C162.497 212.373 149.931 213.611 137.807 211.199C125.683 208.788 114.547 202.835 105.806 194.094C97.0651 185.353 91.1125 174.217 88.7009 162.093C86.2894 149.969 87.5271 137.403 92.2576 125.982C96.9881 114.562 104.999 104.801 115.277 97.9331C125.555 91.0655 137.639 87.4 150 87.4C158.211 87.4 166.342 89.018 173.927 92.1614C181.512 95.3048 188.404 99.9121 194.208 105.72C200.012 111.528 204.615 118.423 207.754 126.01C210.892 133.597 212.505 141.729 212.5 149.94V149.9Z" fill="#C4CBD2"/>
</svg>
