<svg width="400" height="219" viewBox="0 0 400 219" fill="none" xmlns="http://www.w3.org/2000/svg">
<path d="M274 211.69L339.46 154.29C339.95 153.86 340.41 153.42 340.86 152.98L324.27 167.54C318.791 172.336 311.752 174.971 304.47 174.95H50V43.95H0V218.95H254.23C261.484 219.018 268.514 216.436 274 211.69Z" fill="#C4CBD2"/>
<path d="M150.651 52.4099C139.767 56.8296 130.758 64.8967 125.169 75.229C119.579 85.5613 117.756 97.5159 120.012 109.045C122.269 120.573 128.464 130.958 137.536 138.421C146.609 145.884 157.994 149.96 169.741 149.95H209.741L182.461 125.95H169.711C162.55 125.95 155.683 123.105 150.619 118.042C145.556 112.978 142.711 106.111 142.711 98.95C142.711 91.7891 145.556 84.9215 150.619 79.858C155.683 74.7945 162.55 71.95 169.711 71.95H209.711L155.151 24.95H119.031L150.651 52.4099Z" fill="#C4CBD2"/>
<path d="M304.49 174.95C311.772 174.971 318.811 172.336 324.29 167.54L340.88 152.98L389.75 110.07C392.942 107.255 395.499 103.792 397.25 99.9131C399.001 96.0338 399.907 91.8262 399.907 87.5699C399.907 83.3137 399.001 79.1061 397.25 75.2268C395.499 71.3475 392.942 67.8852 389.75 65.0699L324.29 7.51001C318.819 2.68942 311.782 0.0205676 304.49 0H50V175L304.49 174.95ZM365.8 75.0599C368.272 75.0599 370.689 75.7931 372.745 77.1666C374.8 78.5401 376.402 80.4923 377.348 82.7764C378.294 85.0604 378.542 87.5738 378.06 89.9985C377.577 92.4233 376.387 94.6507 374.639 96.3988C372.891 98.147 370.663 99.3375 368.239 99.8198C365.814 100.302 363.3 100.054 361.016 99.1084C358.732 98.1623 356.78 96.5603 355.407 94.5046C354.033 92.449 353.3 90.0322 353.3 87.5599C353.3 85.9184 353.623 84.2929 354.251 82.7764C354.88 81.2598 355.8 79.8818 356.961 78.7211C358.122 77.5603 359.5 76.6397 361.016 76.0115C362.533 75.3833 364.159 75.0599 365.8 75.0599ZM230.26 24.95C242.009 24.9563 253.391 29.0448 262.459 36.5161C271.527 43.9874 277.718 54.3773 279.971 65.9084C282.225 77.4396 280.402 89.3955 274.815 99.7312C269.227 110.067 260.222 118.14 249.34 122.57L280.92 149.95H244.79L190.23 102.95H230.23C237.391 102.95 244.258 100.105 249.322 95.0419C254.385 89.9784 257.23 83.1108 257.23 75.95C257.23 68.7891 254.385 61.9215 249.322 56.858C244.258 51.7945 237.391 48.95 230.23 48.95H217.48L190.2 24.95H230.26ZM155.21 24.95L209.77 71.95H169.77C162.609 71.95 155.742 74.7945 150.678 79.858C145.615 84.9215 142.77 91.7891 142.77 98.95C142.77 106.111 145.615 112.978 150.678 118.042C155.742 123.105 162.609 125.95 169.77 125.95H182.52L209.8 149.95H169.8C158.052 149.953 146.669 145.872 137.599 138.407C128.528 130.941 122.335 120.554 120.08 109.025C117.824 97.4964 119.646 85.5417 125.234 75.2081C130.821 64.8745 139.827 56.8047 150.71 52.38L119.09 24.95H155.21Z" fill="#091440"/>
<path d="M217.51 48.95H230.26C237.421 48.95 244.288 51.7945 249.352 56.858C254.415 61.9215 257.26 68.7891 257.26 75.95C257.26 83.1108 254.415 89.9784 249.352 95.0419C244.288 100.105 237.421 102.95 230.26 102.95H190.26L244.82 149.95H280.95L249.37 122.6C260.25 118.165 269.253 110.089 274.838 99.7521C280.424 89.4151 282.246 77.4589 279.993 65.9274C277.74 54.3958 271.551 44.0049 262.486 36.5306C253.42 29.0564 242.039 24.9629 230.29 24.95H190.29L217.51 48.95Z" fill="#C4CBD2"/>
</svg>
