<svg id="Layer_1" data-name="Layer 1" xmlns="http://www.w3.org/2000/svg" viewBox="0 0 450 450"><defs><style>.cls-1{fill:none;}.cls-2{fill:#8795a2;}.cls-3{fill:#121f3c;}</style></defs><title>SendFunds</title><polygon id="_Path_" data-name="&lt;Path&gt;" class="cls-1" points="149.73 357.1 175.73 331.08 149.72 357.09 149.73 357.1"/><path id="_Path_2" data-name="&lt;Path&gt;" class="cls-1" d="M253.35,243.34a112.51,112.51,0,0,0-31.68-42.63A112.8,112.8,0,0,1,253.35,243.34Z"/><path id="_Path_3" data-name="&lt;Path&gt;" class="cls-1" d="M254.17,245.34l.18.45Z"/><path id="_Path_4" data-name="&lt;Path&gt;" class="cls-1" d="M220.25,199.55l1,.81Z"/><path id="_Path_5" data-name="&lt;Path&gt;" class="cls-1" d="M218.82,198.42l.28.21Z"/><polygon id="_Path_6" data-name="&lt;Path&gt;" class="cls-1" points="197.02 274.34 197.02 274.35 199.55 276.86 197.02 274.34"/><path id="_Compound_Path_" data-name="&lt;Compound Path&gt;" class="cls-2" d="M254.35,245.79l-.18-.45c-.27-.67-.54-1.34-.82-2a112.8,112.8,0,0,0-31.68-42.63l-.42-.35-1-.81-1.15-.92c-.09-.07-.18,0-.28-.06A111.86,111.86,0,0,0,149.73,175h-.06a112.36,112.36,0,1,0,93.79,174.41c.08-.13.16-.27.25-.4a112.62,112.62,0,0,0,10.64-103.22ZM149.73,357.1h0L84.59,292l17.62-17.68L137,309.25V225h25v84.25l35-34.91h0l2.53,2.52L214.8,292l-39.07,39.06Z"/><polygon id="_Path_7" data-name="&lt;Path&gt;" class="cls-3" points="199.55 276.86 197.02 274.35 197.01 274.34 162 309.25 162 225 137 225 137 309.25 102.21 274.34 84.59 292.02 149.7 357.1 149.72 357.09 175.73 331.08 214.8 292.02 199.55 276.86"/><path id="_Path_8" data-name="&lt;Path&gt;" class="cls-2" d="M62.67,75a30.16,30.16,0,0,0,29.57,25H362V79.93A29.86,29.86,0,0,0,332.2,50h-240A30.13,30.13,0,0,0,62.67,75Z"/><path id="_Path_9" data-name="&lt;Path&gt;" class="cls-3" d="M62.84,75H63v0h-.17c-.06.36-.19.71-.24,1.08,0,.09-.07.18-.08.28,0,.31-.09.63-.12.94l-.06.59c0,.24-.16.48-.17.72,0,.46-.16.92-.16,1.38V216.49A112.81,112.81,0,0,1,149.61,175h.12a111.86,111.86,0,0,1,69.09,23.57c.1.07.19.06.28.14.38.3.76.57,1.15.88l1,.79.42.34a112.56,112.56,0,0,1,31.68,42.62c.28.66.55,1.33.82,2l.18.45A112.6,112.6,0,0,1,243.71,349H382.24A29.55,29.55,0,0,0,412,319.39V287.17c-34,0-62.5-28-62.5-62.5s28.5-62.5,62.5-62.5V129.9A29.8,29.8,0,0,0,382.24,100h-290A30,30,0,0,1,62.84,75Z"/><path id="_Path_10" data-name="&lt;Path&gt;" class="cls-2" d="M349.5,224.67c0,34.52,28.5,62.5,62.5,62.5v-125C378,162.17,349.5,190.16,349.5,224.67Z"/><rect class="cls-1" width="450" height="450"/></svg>