<svg id="Layer_1" data-name="Layer 1" xmlns="http://www.w3.org/2000/svg" viewBox="0 0 450 450"><defs><style>.cls-1{fill:#8795a2;}.cls-2{fill:#121f3c;}.cls-3{fill:none;}</style></defs><title>Servers</title><path id="_Compound_Path_" data-name="&lt;Compound Path&gt;" class="cls-1" d="M25,281H425V169H25Zm362.5-68.5A12.5,12.5,0,1,1,375,225,12.5,12.5,0,0,1,387.5,212.5Zm-50,0A12.5,12.5,0,1,1,325,225,12.5,12.5,0,0,1,337.5,212.5Zm-50,0A12.5,12.5,0,1,1,275,225,12.5,12.5,0,0,1,287.5,212.5Z"/><path id="_Compound_Path_2" data-name="&lt;Compound Path&gt;" class="cls-1" d="M25,425H425V306H25Zm362.5-75A12.5,12.5,0,1,1,375,362.5,12.5,12.5,0,0,1,387.5,350Zm-50,0A12.5,12.5,0,1,1,325,362.5,12.5,12.5,0,0,1,337.5,350Zm-50,0A12.5,12.5,0,1,1,275,362.5,12.5,12.5,0,0,1,287.5,350Z"/><path id="_Compound_Path_3" data-name="&lt;Compound Path&gt;" class="cls-1" d="M25,144H425V25H25ZM387.5,75A12.5,12.5,0,1,1,375,87.5,12.5,12.5,0,0,1,387.5,75Zm-50,0A12.5,12.5,0,1,1,325,87.5,12.5,12.5,0,0,1,337.5,75Zm-50,0A12.5,12.5,0,1,1,275,87.5,12.5,12.5,0,0,1,287.5,75Z"/><circle id="_Path_" data-name="&lt;Path&gt;" class="cls-2" cx="337.5" cy="87.5" r="12.5"/><circle id="_Path_2" data-name="&lt;Path&gt;" class="cls-2" cx="287.5" cy="87.5" r="12.5"/><circle id="_Path_3" data-name="&lt;Path&gt;" class="cls-2" cx="387.5" cy="87.5" r="12.5"/><circle id="_Path_4" data-name="&lt;Path&gt;" class="cls-2" cx="337.5" cy="225" r="12.5"/><circle id="_Path_5" data-name="&lt;Path&gt;" class="cls-2" cx="287.5" cy="225" r="12.5"/><circle id="_Path_6" data-name="&lt;Path&gt;" class="cls-2" cx="387.5" cy="225" r="12.5"/><circle id="_Path_7" data-name="&lt;Path&gt;" class="cls-2" cx="337.5" cy="362.5" r="12.5"/><circle id="_Path_8" data-name="&lt;Path&gt;" class="cls-2" cx="287.5" cy="362.5" r="12.5"/><circle id="_Path_9" data-name="&lt;Path&gt;" class="cls-2" cx="387.5" cy="362.5" r="12.5"/><rect class="cls-3" width="450" height="450"/></svg>