<svg width="400" height="400" viewBox="0 0 400 400" fill="none" xmlns="http://www.w3.org/2000/svg">
<path d="M0 256H400V144H0V256ZM362.5 187.5C364.972 187.5 367.389 188.233 369.445 189.607C371.5 190.98 373.102 192.932 374.049 195.216C374.995 197.501 375.242 200.014 374.76 202.439C374.277 204.863 373.087 207.091 371.339 208.839C369.591 210.587 367.363 211.778 364.939 212.26C362.514 212.742 360.001 212.495 357.717 211.549C355.432 210.602 353.48 209 352.107 206.945C350.733 204.889 350 202.472 350 200C350 196.685 351.317 193.505 353.661 191.161C356.005 188.817 359.185 187.5 362.5 187.5ZM312.5 187.5C314.972 187.5 317.389 188.233 319.445 189.607C321.5 190.98 323.102 192.932 324.049 195.216C324.995 197.501 325.242 200.014 324.76 202.439C324.277 204.863 323.087 207.091 321.339 208.839C319.591 210.587 317.363 211.778 314.939 212.26C312.514 212.742 310.001 212.495 307.717 211.549C305.432 210.602 303.48 209 302.107 206.945C300.733 204.889 300 202.472 300 200C300 196.685 301.317 193.505 303.661 191.161C306.005 188.817 309.185 187.5 312.5 187.5ZM262.5 187.5C264.972 187.5 267.389 188.233 269.445 189.607C271.5 190.98 273.102 192.932 274.049 195.216C274.995 197.501 275.242 200.014 274.76 202.439C274.277 204.863 273.087 207.091 271.339 208.839C269.591 210.587 267.363 211.778 264.939 212.26C262.514 212.742 260.001 212.495 257.717 211.549C255.432 210.602 253.48 209 252.107 206.945C250.733 204.889 250 202.472 250 200C250 196.685 251.317 193.505 253.661 191.161C256.005 188.817 259.185 187.5 262.5 187.5Z" fill="#C4CBD2"/>
<path d="M0 400H400V281H0V400ZM362.5 325C364.972 325 367.389 325.733 369.445 327.107C371.5 328.48 373.102 330.432 374.049 332.716C374.995 335.001 375.242 337.514 374.76 339.939C374.277 342.363 373.087 344.591 371.339 346.339C369.591 348.087 367.363 349.278 364.939 349.76C362.514 350.242 360.001 349.995 357.717 349.049C355.432 348.102 353.48 346.5 352.107 344.445C350.733 342.389 350 339.972 350 337.5C350 334.185 351.317 331.005 353.661 328.661C356.005 326.317 359.185 325 362.5 325ZM312.5 325C314.972 325 317.389 325.733 319.445 327.107C321.5 328.48 323.102 330.432 324.049 332.716C324.995 335.001 325.242 337.514 324.76 339.939C324.277 342.363 323.087 344.591 321.339 346.339C319.591 348.087 317.363 349.278 314.939 349.76C312.514 350.242 310.001 349.995 307.717 349.049C305.432 348.102 303.48 346.5 302.107 344.445C300.733 342.389 300 339.972 300 337.5C300 334.185 301.317 331.005 303.661 328.661C306.005 326.317 309.185 325 312.5 325ZM262.5 325C264.972 325 267.389 325.733 269.445 327.107C271.5 328.48 273.102 330.432 274.049 332.716C274.995 335.001 275.242 337.514 274.76 339.939C274.277 342.363 273.087 344.591 271.339 346.339C269.591 348.087 267.363 349.278 264.939 349.76C262.514 350.242 260.001 349.995 257.717 349.049C255.432 348.102 253.48 346.5 252.107 344.445C250.733 342.389 250 339.972 250 337.5C250 334.185 251.317 331.005 253.661 328.661C256.005 326.317 259.185 325 262.5 325Z" fill="#C4CBD2"/>
<path d="M0 119H400V0H0V119ZM362.5 50C364.972 50 367.389 50.7331 369.445 52.1066C371.5 53.4801 373.102 55.4324 374.049 57.7164C374.995 60.0005 375.242 62.5138 374.76 64.9386C374.277 67.3634 373.087 69.5907 371.339 71.3388C369.591 73.087 367.363 74.2775 364.939 74.7598C362.514 75.2421 360.001 74.9946 357.717 74.0485C355.432 73.1024 353.48 71.5003 352.107 69.4446C350.733 67.389 350 64.9723 350 62.5C350 59.1848 351.317 56.0054 353.661 53.6612C356.005 51.317 359.185 50 362.5 50ZM312.5 50C314.972 50 317.389 50.7331 319.445 52.1066C321.5 53.4801 323.102 55.4324 324.049 57.7164C324.995 60.0005 325.242 62.5138 324.76 64.9386C324.277 67.3634 323.087 69.5907 321.339 71.3388C319.591 73.087 317.363 74.2775 314.939 74.7598C312.514 75.2421 310.001 74.9946 307.717 74.0485C305.432 73.1024 303.48 71.5003 302.107 69.4446C300.733 67.389 300 64.9723 300 62.5C300 59.1848 301.317 56.0054 303.661 53.6612C306.005 51.317 309.185 50 312.5 50ZM262.5 50C264.972 50 267.389 50.7331 269.445 52.1066C271.5 53.4801 273.102 55.4324 274.049 57.7164C274.995 60.0005 275.242 62.5138 274.76 64.9386C274.277 67.3634 273.087 69.5907 271.339 71.3388C269.591 73.087 267.363 74.2775 264.939 74.7598C262.514 75.2421 260.001 74.9946 257.717 74.0485C255.432 73.1024 253.48 71.5003 252.107 69.4446C250.733 67.389 250 64.9723 250 62.5C250 59.1848 251.317 56.0054 253.661 53.6612C256.005 51.317 259.185 50 262.5 50Z" fill="#C4CBD2"/>
<path d="M312.5 75C319.404 75 325 69.4036 325 62.5C325 55.5964 319.404 50 312.5 50C305.596 50 300 55.5964 300 62.5C300 69.4036 305.596 75 312.5 75Z" fill="#091440"/>
<path d="M262.5 75C269.404 75 275 69.4036 275 62.5C275 55.5964 269.404 50 262.5 50C255.596 50 250 55.5964 250 62.5C250 69.4036 255.596 75 262.5 75Z" fill="#091440"/>
<path d="M362.5 75C369.404 75 375 69.4036 375 62.5C375 55.5964 369.404 50 362.5 50C355.596 50 350 55.5964 350 62.5C350 69.4036 355.596 75 362.5 75Z" fill="#091440"/>
<path d="M312.5 212.5C319.404 212.5 325 206.904 325 200C325 193.096 319.404 187.5 312.5 187.5C305.596 187.5 300 193.096 300 200C300 206.904 305.596 212.5 312.5 212.5Z" fill="#091440"/>
<path d="M262.5 212.5C269.404 212.5 275 206.904 275 200C275 193.096 269.404 187.5 262.5 187.5C255.596 187.5 250 193.096 250 200C250 206.904 255.596 212.5 262.5 212.5Z" fill="#091440"/>
<path d="M362.5 212.5C369.404 212.5 375 206.904 375 200C375 193.096 369.404 187.5 362.5 187.5C355.596 187.5 350 193.096 350 200C350 206.904 355.596 212.5 362.5 212.5Z" fill="#091440"/>
<path d="M312.5 350C319.404 350 325 344.404 325 337.5C325 330.596 319.404 325 312.5 325C305.596 325 300 330.596 300 337.5C300 344.404 305.596 350 312.5 350Z" fill="#091440"/>
<path d="M262.5 350C269.404 350 275 344.404 275 337.5C275 330.596 269.404 325 262.5 325C255.596 325 250 330.596 250 337.5C250 344.404 255.596 350 262.5 350Z" fill="#091440"/>
<path d="M362.5 350C369.404 350 375 344.404 375 337.5C375 330.596 369.404 325 362.5 325C355.596 325 350 330.596 350 337.5C350 344.404 355.596 350 362.5 350Z" fill="#091440"/>
</svg>
