<svg id="Layer_1" data-name="Layer 1" xmlns="http://www.w3.org/2000/svg" viewBox="0 0 450 450"><defs><style>.cls-1{fill:#8795a2;}.cls-2{fill:none;}.cls-3{fill:#121f3c;}</style></defs><title>SignUpForPool</title><path id="_Path_" data-name="&lt;Path&gt;" class="cls-1" d="M290,387.49a177.11,177.11,0,0,1-41,10.87A174,174,0,0,0,290,387.49Z"/><path id="_Path_2" data-name="&lt;Path&gt;" class="cls-1" d="M387.46,160a176.1,176.1,0,0,1,10.88,41A173,173,0,0,0,387.46,160Z"/><path id="_Path_3" data-name="&lt;Path&gt;" class="cls-2" d="M253.83,294.24l.53-.22a75.42,75.42,0,0,0,41.05-43.16h0l0-.15c.27-.73.51-1.55.76-2.29.1-.31.21-.61.31-.92.16-.51.3-1,.45-1.54s.38-1.29.55-1.94c.1-.37.18-.74.28-1.11.21-.85.41-1.7.59-2.56,0-.21.08-.43.13-.64.22-1.09.42-2.19.59-3.29v0a74.85,74.85,0,0,0-.61-26.19c0-.23-.09-.46-.14-.69q-.3-1.42-.66-2.85c-.09-.35-.19-.71-.28-1.07-.2-.75-.42-1.49-.64-2.23l-.42-1.35c-.24-.73-.48-1.45-.74-2.17l-.29-.83c-.36-1-.74-1.92-1.13-2.86l-.21-.51a75.41,75.41,0,0,0-43.17-41l-.2-.07c-.51-.19-1-.35-1.53-.52l-1.63-.56c-.48-.15-1-.28-1.46-.42-.67-.2-1.33-.4-2-.58l-1.07-.26c-.87-.21-1.73-.42-2.61-.6l-.6-.12c-1.1-.22-2.21-.43-3.33-.6h0a75,75,0,0,0-26.21.61l-.66.14c-1,.2-1.92.42-2.87.66l-1,.28c-.77.21-1.53.42-2.28.65l-1.31.41c-.74.24-1.47.48-2.19.74l-.81.29c-1,.36-1.92.74-2.87,1.13l-.5.21a75.43,75.43,0,0,0-41.12,43.32h0c-.23.63-.43,1.27-.64,1.91a112.56,112.56,0,0,1,94.91,94.9c.45-.15.9-.29,1.34-.45l.88-.32C252,295,252.9,294.62,253.83,294.24Z"/><path id="_Path_4" data-name="&lt;Path&gt;" class="cls-1" d="M299.14,236.39a73,73,0,0,0-.61-26.19,74.85,74.85,0,0,1,.61,26.19Z"/><path id="_Path_5" data-name="&lt;Path&gt;" class="cls-1" d="M236.4,150.86A73.6,73.6,0,0,0,225,150a74.83,74.83,0,0,0-14.82,1.51,75,75,0,0,1,26.21-.61Z"/><path id="_Path_6" data-name="&lt;Path&gt;" class="cls-1" d="M295.41,251l0-.13h0A75.42,75.42,0,0,1,254.36,294l2.26-1,42.15,90.65A176,176,0,0,0,389.39,285l-94-34Z"/><path id="_Path_7" data-name="&lt;Path&gt;" class="cls-1" d="M251.16,154.7l-.31-.11a75.41,75.41,0,0,1,43.17,41c-.34-.78-.68-1.56-1-2.33l90.62-42.24a176,176,0,0,0-98.44-90.4l-17.38,46.92Z"/><path id="_Path_8" data-name="&lt;Path&gt;" class="cls-1" d="M195.65,156c-.78.33-1.55.67-2.32,1L151.12,66.38a175.92,175.92,0,0,0-90.53,98.67l93.94,34.25A75.43,75.43,0,0,1,195.65,156Z"/><path id="_Path_9" data-name="&lt;Path&gt;" class="cls-1" d="M160,62.53a176.63,176.63,0,0,1,41-10.87A173.48,173.48,0,0,0,160,62.53Z"/><path id="_Path_10" data-name="&lt;Path&gt;" class="cls-3" d="M294,195.64l.21.51c.39.94.77,1.9,1.13,2.86l.29.83c.26.72.5,1.44.74,2.17l.42,1.35c.22.74.44,1.48.64,2.23.09.36.19.72.28,1.07q.36,1.43.66,2.85c.05.23.1.46.14.69a73,73,0,0,1,.61,26.19v0c-.17,1.1-.37,2.2-.59,3.29-.05.21-.09.43-.13.64-.18.86-.38,1.71-.59,2.56-.1.37-.18.74-.28,1.11-.17.65-.36,1.3-.55,1.94s-.29,1-.45,1.54c-.1.31-.21.61-.31.92-.25.74-.49,1.56-.76,2.29l0,.15,0,.13h0l94,34h0v0l0-.11c.05-.12.09-.25.13-.37l.21-.61c.41-1.14.81-2.28,1.19-3.43l.51-1.56c.29-.88.57-1.77.84-2.66l.49-1.6q.62-2.07,1.17-4.14c0-.14.09-.29.12-.44.27-1,.52-2,.76-2.95.11-.41.21-.83.31-1.25.18-.77.37-1.55.54-2.33s.33-1.49.49-2.23c.11-.5.21-1,.31-1.49A173.44,173.44,0,0,0,400,225a170.42,170.42,0,0,0-.87-17c0-.41-.07-.81-.11-1.21l-.24-2.09c-.13-1-.25-2.09-.39-3.14l-.09-.59a176.1,176.1,0,0,0-10.88-41c-.08-.21-.16-.41-.25-.61-.43-1.08-.88-2.15-1.33-3.22-.31-.71-.62-1.41-.94-2.12l-.69-1.55c-.21-.47-.41-.94-.63-1.4h0L293,193.31C293.34,194.08,293.68,194.86,294,195.64Z"/><path id="_Path_11" data-name="&lt;Path&gt;" class="cls-3" d="M137.5,200a112.12,112.12,0,0,1,16.39,1.2c.21-.64.41-1.28.64-1.91h0L60.59,165.05h0l0,.15-.12.34-.24.69c-.4,1.11-.78,2.22-1.16,3.34-.17.53-.35,1.06-.52,1.59-.28.88-.56,1.75-.82,2.63-.17.54-.34,1.08-.5,1.63-.41,1.37-.8,2.74-1.17,4.12l-.12.45c-.26,1-.51,1.94-.76,2.92-.1.42-.2.85-.31,1.27l-.54,2.31c-.17.75-.33,1.5-.49,2.25-.1.49-.21,1-.3,1.46A173.51,173.51,0,0,0,50,225q0,8,.76,15.94A112.24,112.24,0,0,1,137.5,200Z"/><path id="_Path_12" data-name="&lt;Path&gt;" class="cls-3" d="M195.65,156l.5-.21c.95-.39,1.9-.77,2.87-1.13l.81-.29c.72-.26,1.45-.5,2.19-.74l1.31-.41c.75-.23,1.51-.44,2.28-.65l1-.28c1-.24,1.91-.46,2.87-.66l.66-.14A74.83,74.83,0,0,1,225,150a73.6,73.6,0,0,1,11.39.9h0c1.12.17,2.23.38,3.33.6l.6.12c.88.18,1.74.39,2.61.6l1.07.26c.68.18,1.34.38,2,.58.49.14,1,.27,1.46.42l1.63.56c.51.17,1,.33,1.53.52l.2.07.31.11,16.62-47.11,17.38-46.92h0l-.58-.21-.31-.11-.57-.2c-1.15-.41-2.3-.81-3.46-1.19-.52-.18-1-.34-1.56-.51-.89-.29-1.77-.57-2.66-.84-.54-.16-1.07-.33-1.61-.48-1.37-.41-2.75-.8-4.13-1.17l-.39-.11c-1-.26-1.92-.5-2.88-.74l-1.3-.31-2.25-.53-2.25-.49-1.44-.3A173.84,173.84,0,0,0,225,50c-5.7,0-11.41.3-17.1.87l-1.13.11-2.13.24-3.09.39-.62.09a176.63,176.63,0,0,0-41,10.87l-.5.2c-1.11.45-2.22.92-3.33,1.39l-2.07.91-1.62.73-1.34.6v0L193.33,157C194.1,156.65,194.87,156.31,195.65,156Z"/><path id="_Path_13" data-name="&lt;Path&gt;" class="cls-3" d="M254.36,294l-.53.22c-.93.38-1.86.75-2.81,1.1l-.88.32-1.34.47a112.6,112.6,0,0,1-39.75,103.18Q217,400,225,400c5.67,0,11.35-.3,17-.86l1.24-.12,2-.23,3.21-.4.5-.07a177.11,177.11,0,0,0,41-10.87l.28-.12c1.19-.47,2.37-1,3.55-1.47l2-.88,1.71-.77c.41-.19.83-.36,1.24-.56v0L256.62,293Z"/><path id="_Compound_Path_" data-name="&lt;Compound Path&gt;" class="cls-1" d="M137.5,425A112.47,112.47,0,0,0,250,312.5a113.25,113.25,0,0,0-1.19-16.37l1.34-.47c-.44.16-.89.3-1.34.45A112.49,112.49,0,1,0,137.5,425ZM75,300h50V250h25v50h50v25H150v50H125V325H75Z"/><polygon id="_Path_14" data-name="&lt;Path&gt;" class="cls-3" points="125 375 150 375 150 325 200 325 200 300 150 300 150 250 125 250 125 300 75 300 75 325 125 325 125 375"/><rect class="cls-2" width="450" height="450"/></svg>