<svg width="375" height="375" viewBox="0 0 375 375" fill="none" xmlns="http://www.w3.org/2000/svg">
<path d="M270.379 201V200.87C266.831 210.47 261.366 219.246 254.317 226.666C247.269 234.086 238.784 239.994 229.379 244.03L231.639 243.03L273.789 333.68C315.805 314.009 348.355 278.545 364.359 235L270.359 201H270.379Z" fill="#C4CBD2"/>
<path d="M226.128 104.7L225.818 104.59C235.42 108.137 244.199 113.601 251.621 120.649C259.043 127.698 264.952 136.184 268.988 145.59C268.648 144.81 268.308 144.03 267.988 143.26L358.608 101.02C338.961 59.1095 303.589 26.6297 260.158 10.62L242.788 57.54L226.128 104.7Z" fill="#C4CBD2"/>
<path d="M170.619 106C169.839 106.33 169.069 106.67 168.299 107L126.089 16.37C84.0846 36.0398 51.5481 71.5018 35.5586 115.04L129.499 149.29C133.046 139.656 138.522 130.847 145.593 123.403C152.664 115.96 161.179 110.038 170.619 106Z" fill="#C4CBD2"/>
<path d="M268.969 145.64L269.179 146.15C269.569 147.09 269.949 148.05 270.309 149.01L270.599 149.84C270.859 150.56 271.099 151.28 271.339 152.01L271.759 153.36C271.979 154.1 272.199 154.84 272.399 155.59C272.489 155.95 272.589 156.31 272.679 156.66C272.919 157.613 273.139 158.563 273.339 159.51C273.389 159.74 273.439 159.97 273.479 160.2C275.26 168.822 275.466 177.695 274.089 186.39C273.919 187.49 273.719 188.59 273.499 189.68C273.499 189.89 273.409 190.11 273.369 190.32C273.189 191.18 272.989 192.03 272.779 192.88C272.679 193.25 272.599 193.62 272.499 193.99C272.329 194.64 272.139 195.29 271.949 195.93C271.759 196.57 271.659 196.93 271.499 197.47C271.399 197.78 271.289 198.08 271.189 198.39C270.939 199.13 270.699 199.95 270.429 200.68V200.83V200.96L364.429 234.96V234.85C364.429 234.73 364.519 234.6 364.559 234.48L364.769 233.87C365.179 232.73 365.579 231.59 365.959 230.44L366.469 228.88C366.759 228 367.039 227.11 367.309 226.22L367.799 224.62C368.205 223.24 368.595 221.86 368.969 220.48C368.969 220.34 369.059 220.19 369.089 220.04C369.359 219.04 369.609 218.04 369.849 217.09C369.959 216.68 370.059 216.26 370.159 215.84C370.339 215.07 370.529 214.29 370.699 213.51C370.869 212.73 371.029 212.02 371.189 211.28C371.299 210.78 371.399 210.28 371.499 209.79C373.824 198.34 374.987 186.684 374.969 175C374.962 169.322 374.672 163.649 374.099 158C374.099 157.59 374.029 157.19 373.989 156.79L373.749 154.7C373.619 153.7 373.499 152.61 373.359 151.56L373.269 150.97C371.307 136.915 367.654 123.148 362.389 109.97C362.309 109.76 362.229 109.56 362.139 109.36C361.709 108.28 361.259 107.21 360.809 106.14C360.499 105.43 360.189 104.73 359.869 104.02L359.179 102.47C358.969 102 358.769 101.53 358.549 101.07L267.969 143.31C268.309 144.08 268.649 144.86 268.969 145.64Z" fill="#091440"/>
<path d="M112.469 150C117.954 149.999 123.432 150.4 128.859 151.2C129.069 150.56 129.269 149.92 129.499 149.29L35.5589 115.04L35.5088 115.19L35.3888 115.53L35.1488 116.22C34.7488 117.33 34.3689 118.44 33.9889 119.56C33.8189 120.09 33.6388 120.62 33.4688 121.15C33.1888 122.03 32.9088 122.9 32.6488 123.78C32.4788 124.32 32.3088 124.86 32.1488 125.41C31.7388 126.78 31.3489 128.15 30.9789 129.53L30.8589 129.98C30.5989 130.98 30.3489 131.92 30.1089 132.9C29.9989 133.32 29.8989 133.75 29.7889 134.17L29.2489 136.48C29.0789 137.23 28.9188 137.98 28.7588 138.73C28.6588 139.22 28.5488 139.73 28.4588 140.19C26.1257 151.646 24.9564 163.309 24.9688 175C24.9688 180.333 25.2222 185.647 25.7289 190.94C36.2643 178.131 49.5073 167.817 64.5054 160.738C79.5035 153.659 95.8841 149.992 112.469 150Z" fill="#091440"/>
<path d="M170.619 106L171.119 105.79C172.119 105.4 173.019 105.02 173.989 104.66L174.799 104.37C175.519 104.11 176.249 103.87 176.989 103.63L178.299 103.22C179.049 102.99 179.809 102.78 180.579 102.57L181.579 102.29C182.579 102.05 183.489 101.83 184.449 101.63L185.109 101.49C190 100.499 194.978 99.9999 199.969 100C203.783 100.004 207.591 100.305 211.359 100.9C212.479 101.07 213.589 101.28 214.689 101.5L215.289 101.62C216.169 101.8 217.029 102.01 217.899 102.22L218.969 102.48C219.649 102.66 220.309 102.86 220.969 103.06C221.459 103.2 221.969 103.33 222.429 103.48L224.059 104.04C224.569 104.21 225.059 104.37 225.589 104.56L225.789 104.63L226.099 104.74L242.719 57.63L260.089 10.71L259.509 10.5L259.199 10.39L258.629 10.19C257.479 9.78 256.329 9.38 255.169 9C254.649 8.82 254.169 8.65999 253.609 8.48999C252.719 8.19999 251.839 7.92002 250.949 7.65002C250.409 7.49002 249.879 7.31998 249.339 7.16998C247.969 6.75998 246.589 6.37 245.209 6L244.819 5.89001C243.819 5.63001 242.899 5.39002 241.939 5.15002L240.639 4.84003L238.389 4.31L236.139 3.82001L234.699 3.52002C223.27 1.18439 211.635 0.00509146 199.969 0C194.269 0 188.559 0.299995 182.869 0.869995L181.739 0.97998L179.609 1.21997C178.609 1.34997 177.549 1.46999 176.519 1.60999L175.899 1.70001C161.845 3.66326 148.079 7.31289 134.899 12.57L134.399 12.77C133.289 13.22 132.179 13.69 131.069 14.16L128.999 15.07L127.379 15.8L126.039 16.4L168.299 107C169.069 106.65 169.839 106.31 170.619 106Z" fill="#091440"/>
<path d="M229.328 244L228.798 244.22C227.868 244.6 226.938 244.97 225.988 245.32L225.108 245.64L223.768 246.11C226.576 265.275 224.393 284.84 217.43 302.915C210.467 320.99 198.958 336.963 184.018 349.29C189.311 349.77 194.624 350.013 199.958 350.02C205.628 350.02 211.308 349.72 216.958 349.16L218.198 349.04L220.198 348.81L223.408 348.41L223.908 348.34C237.96 346.372 251.726 342.723 264.908 337.47L265.188 337.35C266.378 336.88 267.558 336.35 268.738 335.88L270.738 335L272.448 334.23C272.858 334.04 273.278 333.87 273.688 333.67L231.588 243L229.328 244Z" fill="#091440"/>
<path d="M112.468 375C127.243 375.004 141.874 372.097 155.525 366.444C169.176 360.792 181.579 352.506 192.026 342.058C202.474 331.611 210.76 319.207 216.413 305.557C222.065 291.906 224.972 277.275 224.968 262.5C224.968 257.022 224.57 251.551 223.778 246.13L225.118 245.66C224.678 245.82 224.228 245.96 223.778 246.11C220.637 224.793 211.439 204.827 197.279 188.586C183.119 172.345 164.593 160.512 143.903 154.495C123.213 148.478 101.23 148.53 80.569 154.644C59.9076 160.759 41.437 172.678 27.3537 188.986C13.2704 205.293 4.16697 225.303 1.126 246.634C-1.91497 267.966 1.23446 289.722 10.1998 309.315C19.1651 328.908 33.5691 345.515 51.6988 357.159C69.8285 368.803 90.9211 374.996 112.468 375ZM49.9682 250H99.9682V200H124.968V250H174.968V275H124.968V325H99.9682V275H49.9682V250Z" fill="#C4CBD2"/>
<path d="M99.9688 325H124.969V275H174.969V250H124.969V200H99.9688V250H49.9688V275H99.9688V325Z" fill="#091440"/>
</svg>
