<svg width="376" height="361" viewBox="0 0 376 361" fill="none" xmlns="http://www.w3.org/2000/svg">
<path d="M68.7826 142.569C70.5326 142.569 72.2526 142.479 73.9626 142.359C58.7226 121.139 52.5326 93.0691 60.8526 63.5791C43.1026 70.7791 28.1626 67.7991 12.5626 70.2691C10.5575 70.5805 8.63744 71.2998 6.92127 72.3826C5.2051 73.4654 3.72919 74.8887 2.58484 76.5645C1.44049 78.2402 0.652021 80.1329 0.268072 82.1254C-0.115878 84.118 -0.0871192 86.1681 0.352605 88.1491C3.93042 103.618 12.643 117.419 25.0699 127.302C37.4968 137.185 52.9051 142.566 68.7826 142.569Z" fill="#091440"/>
<path d="M73.9619 142.359C74.1519 142.619 74.3319 142.879 74.5219 143.129C76.083 145.238 76.7628 147.872 76.4176 150.473C76.0723 153.075 74.7292 155.44 72.672 157.069C47.672 176.949 24.872 212.149 25.042 248.069C25.342 310.249 76.7719 360.069 138.962 360.069H180.602C288.012 360.069 375.092 273.069 375.092 165.639C375.089 161.631 374.296 157.663 372.758 153.963C371.221 150.262 368.968 146.9 366.129 144.071C363.291 141.242 359.922 139 356.216 137.474C352.51 135.949 348.54 135.169 344.532 135.179H325.162C325.302 177.594 308.888 218.39 279.412 248.889C249.012 280.299 207.532 297.599 162.532 297.599C239.642 297.599 300.062 212.279 300.152 135.149H240.732C239.112 135.147 237.516 134.752 236.083 133.997C234.649 133.242 233.421 132.15 232.503 130.815C231.585 129.48 231.005 127.941 230.813 126.333C230.622 124.724 230.824 123.093 231.402 121.579C235.178 111.496 237.109 100.816 237.102 90.0491C237.102 27.8391 173.982 -19.7009 108.302 8.14914C91.662 15.1991 72.192 34.6591 65.182 51.2991C63.4865 55.3139 62.0371 59.4281 60.8419 63.6191C52.5319 93.0691 58.7219 121.139 73.9619 142.359ZM125.062 60.0691C128.77 60.0691 132.395 61.1688 135.479 63.2291C138.562 65.2894 140.966 68.2177 142.385 71.6438C143.804 75.0699 144.175 78.8399 143.452 82.4771C142.728 86.1142 140.942 89.4552 138.32 92.0774C135.698 94.6996 132.357 96.4854 128.72 97.2089C125.083 97.9323 121.313 97.561 117.887 96.1419C114.461 94.7227 111.532 92.3195 109.472 89.2361C107.412 86.1527 106.312 82.5275 106.312 78.8191C106.312 73.8463 108.287 69.0772 111.804 65.5609C115.32 62.0446 120.089 60.0691 125.062 60.0691Z" fill="#C4CBD2"/>
<path d="M125.062 97.5991C135.418 97.5991 143.812 89.2045 143.812 78.8491C143.812 68.4938 135.418 60.0991 125.062 60.0991C114.707 60.0991 106.312 68.4938 106.312 78.8491C106.312 89.2045 114.707 97.5991 125.062 97.5991Z" fill="#091440"/>
</svg>
