<svg id="Layer_1" data-name="Layer 1" xmlns="http://www.w3.org/2000/svg" viewBox="0 0 450 450"><defs><style>.cls-1{fill:#121f3c;}.cls-2{fill:#8795a2;}.cls-3{fill:none;}</style></defs><title>Solo</title><path id="_Path_" data-name="&lt;Path&gt;" class="cls-1" d="M106.25,187.5c1.75,0,3.47-.09,5.18-.21C96.19,166.07,90,138,98.32,108.51c-17.75,7.2-32.69,4.22-48.29,6.69a14.84,14.84,0,0,0-12.21,17.88A70.25,70.25,0,0,0,106.25,187.5Z"/><path id="_Compound_Path_" data-name="&lt;Compound Path&gt;" class="cls-2" d="M111.43,187.29c.19.26.37.52.56.77A10.11,10.11,0,0,1,110.14,202c-25,19.88-47.8,55.08-47.63,91,.3,62.18,51.73,112,113.92,112h41.64c107.41,0,194.49-87,194.49-194.43A30.48,30.48,0,0,0,382,180.11H362.63a162.85,162.85,0,0,1-45.75,113.71C286.48,325.23,245,342.53,200,342.53c77.11,0,137.53-85.32,137.62-162.45l-59.42,0a10,10,0,0,1-9.33-13.57,89.74,89.74,0,0,0,5.7-31.53c0-62.21-63.12-109.75-128.8-81.9-16.64,7.05-36.11,26.51-43.12,43.15a107.3,107.3,0,0,0-4.34,12.32C90,138,96.19,166.07,111.43,187.29ZM162.53,105a18.75,18.75,0,1,1-18.75,18.75A18.75,18.75,0,0,1,162.53,105Z"/><circle id="_Path_2" data-name="&lt;Path&gt;" class="cls-1" cx="162.53" cy="123.78" r="18.75"/><rect class="cls-3" width="450" height="450"/></svg>