<svg width="351" height="401" viewBox="0 0 351 401" fill="none" xmlns="http://www.w3.org/2000/svg">
<path d="M0.320068 27.54C0.320068 27.74 0.320068 27.93 0.320068 28.13C0.320068 28.33 0.169912 28.6101 0.159912 28.8401C0.159912 29.3001 0 29.7601 0 30.2301V369.97C0.0649808 377.978 3.26904 385.642 8.92358 391.313C14.5781 396.984 22.2318 400.211 30.24 400.3H349.95V50.3H149.95V199.97L112.45 174.97L74.95 199.97V50.3H30.1899C28.8845 50.2829 27.5818 50.1792 26.29 49.99C25.93 49.99 25.5599 49.99 25.1899 49.99C19.0009 49.9901 13.0318 47.6945 8.43774 43.5475C3.84366 39.4004 0.951346 33.6968 0.320068 27.54Z" fill="#091440"/>
<path d="M74.9514 50.3V199.97L112.451 174.97L149.951 199.97V50.3H350.191L325.191 0.300049H30.1914C29.7814 0.300049 29.3714 0.300049 28.9714 0.300049C27.7203 0.109159 26.457 0.00884957 25.1914 0C18.561 0 12.2021 2.63398 7.51367 7.32239C2.82526 12.0108 0.191406 18.3696 0.191406 25C0.191406 25.86 0.241533 26.71 0.321533 27.55C0.955127 33.705 3.84854 39.4063 8.44238 43.5513C13.0362 47.6963 19.004 49.9903 25.1914 49.99C25.5614 49.99 25.9315 49.99 26.2915 49.99C27.5832 50.1792 28.886 50.2829 30.1914 50.3H74.9514Z" fill="#C4CBD2"/>
</svg>
