<svg xmlns="http://www.w3.org/2000/svg" viewBox="0 0 450 450"><defs><style>.cls-1{isolation:isolate;}.cls-2{fill:#121f3c;}.cls-3{fill:#8795a2;}.cls-4{fill:#fff;}.cls-5{opacity:0.2;mix-blend-mode:multiply;}.cls-6{fill:#2971ff;}.cls-7{opacity:0.1;}</style></defs><title>StakeyBaby</title><g class="cls-1"><g id="Layer_1" data-name="Layer 1"><path class="cls-2" d="M107.48,70.93a20.1,20.1,0,0,0,20.09-20.09H151a20.09,20.09,0,1,0,40.17,0h23.44a20.09,20.09,0,0,0,40.18,0h23.44a20.09,20.09,0,1,0,40.17,0h23.44a20.1,20.1,0,0,0,20.09,20.09l11.52,145.64H157.7Z"/><path class="cls-3" d="M194.89,306.2c-12.39-1.8-24.27-1.05-33.85,7.89-7.66,7.16-9.73,18.12-11.06,28-.61,4.57-.83,9.19-1.11,13.78-.13,2.06-.28,4.11-.45,6.17-.11,1.18-.24,2.37-.37,3.55.3-2.63-.2,1-.25,1.26a38.15,38.15,0,0,1-1.33,5c.92-2.77,0-.09-.31.51-1.41,2.64,1.79-1.88-.14.3s2.31-1.39-.16.14,2.68-.78-.35,0c3.1-.82-3.61-.29-3-.17-15.83-2.85-22.54,21.34-6.62,24.2,10.35,1.87,22,1.12,29-7.89,6.37-8.18,7.78-17.92,8.64-28,.8-9.59.66-17.06,2.87-24.76.93-3.26-.3-.14,1.26-3,.28-.52,2.3-3,.44-.77.38-.46,2.85-2.4.49-.69.44-.31,3.44-1.72.74-.65a20.48,20.48,0,0,1,3.46-.91c-1.26.26,4.16,0,5.38.18,6.77,1,13.45-1.61,15.42-8.79,1.64-6-2-14.44-8.79-15.42Z"/><path class="cls-3" d="M260,320.41c7.79,10.81,7.57,28.8,10.14,42.54,3,16.1,10.76,33.3,28.49,36.77,15.82,3.1,22.51-21.09,6.63-24.2-4.1-.81-5.7-2.08-7.33-6-2.64-6.38-3.71-13.44-4.79-20.22-2.2-13.88-3-29.76-11.49-41.57-9.37-13-31.13-.45-21.65,12.7Z"/><path class="cls-3" d="M351.9,266.5V70.93a20.09,20.09,0,0,1-20.09-20.09H308.37a20.09,20.09,0,0,1-40.18,0H244.75a20.09,20.09,0,1,1-40.17,0H181.14a20.09,20.09,0,1,1-40.18,0H117.52A20.09,20.09,0,0,1,97.43,70.93V333.76H317.22l30-22.71Z"/><path class="cls-2" d="M197,151.46A16.93,16.93,0,1,1,180,134.52,16.93,16.93,0,0,1,197,151.46Z"/><path class="cls-4" d="M192.92,145.74a4.42,4.42,0,1,1-4.42-4.42A4.42,4.42,0,0,1,192.92,145.74Z"/><path class="cls-4" d="M187.87,151a1.43,1.43,0,1,1-1.43-1.42A1.43,1.43,0,0,1,187.87,151Z"/><path class="cls-2" d="M284.77,150.16a16.93,16.93,0,1,1-16.93-16.93A16.93,16.93,0,0,1,284.77,150.16Z"/><path class="cls-4" d="M280.74,144.45a4.42,4.42,0,1,1-4.42-4.42A4.41,4.41,0,0,1,280.74,144.45Z"/><path class="cls-4" d="M275.68,149.71a1.43,1.43,0,1,1-1.42-1.43A1.42,1.42,0,0,1,275.68,149.71Z"/><g class="cls-5"><polygon class="cls-2" points="347.2 311.05 351.9 266.5 317.22 333.76 347.2 311.05"/></g><path class="cls-6" d="M226.46,208.44c.78,13.44-12.42,25.15-29.49,26.14s-31.54-9.12-32.32-22.56,12.43-25.16,29.5-26.15S225.68,195,226.46,208.44Z"/><path class="cls-2" d="M226.46,208.44c.78,13.44-12.42,25.15-29.49,26.14s-31.54-9.12-32.32-22.56,12.43-25.16,29.5-26.15S225.68,195,226.46,208.44Z"/><path class="cls-3" d="M206.7,209a12.53,12.53,0,1,1-13.23-11.79A12.52,12.52,0,0,1,206.7,209Z"/><path class="cls-6" d="M195,251.81c-12,.7-22.38-9.5-23.14-22.74s8.37-24.56,20.36-25.26,22.38,9.51,23.15,22.74S207,251.12,195,251.81Zm-2.31-39.88c-7.52.44-13.22,7.91-12.72,16.67s7,15.53,14.56,15.1,13.23-7.92,12.73-16.68-7-15.53-14.57-15.09Z"/><path class="cls-2" d="M195,251.81c-12,.7-22.38-9.5-23.14-22.74s8.37-24.56,20.36-25.26,22.38,9.51,23.15,22.74S207,251.12,195,251.81Zm-2.31-39.88c-7.52.44-13.22,7.91-12.72,16.67s7,15.53,14.56,15.1,13.23-7.92,12.73-16.68-7-15.53-14.57-15.09Z"/><g class="cls-7"><path class="cls-2" d="M260.25,196.77c-15.42,1.49-27.42,22.25-14.22,34,4,3.59,9.94-2.31,5.91-5.91-7.26-6.49-.47-18.91,8.31-19.76,5.32-.51,5.37-8.88,0-8.36Z"/></g><path class="cls-3" d="M102.55,126.65c-17.7-1.85-35.28-5-53.11-5.14-16.21-.17-16.34,24.93-.18,25.1,17.83.19,35.41,3.29,53.1,5.14,16.12,1.69,16.11-23.43.19-25.1Z"/><path class="cls-3" d="M348.65,160.3A337,337,0,0,1,403.79,141c15.68-4,9.17-28.23-6.5-24.24a376.38,376.38,0,0,0-61.35,21.86c-6.25,2.81-7.64,11.76-4.47,17.17,3.73,6.37,10.94,7.27,17.18,4.47Z"/></g></g></svg>