<svg id="Layer_1" data-name="Layer 1" xmlns="http://www.w3.org/2000/svg" viewBox="0 0 450 450"><defs><style>.cls-1{fill:#121f3c;}.cls-2{fill:#8795a2;}.cls-3{fill:none;}</style></defs><title>StoppingProgram</title><path id="_Compound_Path_" data-name="&lt;Compound Path&gt;" class="cls-1" d="M225.24,24.86c-110.46,0-200,89.55-200,200s89.54,200,200,200,200-89.55,200-200S335.69,24.86,225.24,24.86ZM213,69h25V225H213ZM322.41,322A137.43,137.43,0,0,1,128.06,127.69l17.68,17.68a112.43,112.43,0,1,0,159,0l17.67-17.68C376,181.27,376,268.46,322.41,322Z"/><path id="_Path_" data-name="&lt;Path&gt;" class="cls-2" d="M304.74,145.37a112.43,112.43,0,1,1-159,0l-17.68-17.68A137.43,137.43,0,0,0,322.41,322c53.59-53.58,53.59-140.77,0-194.35Z"/><rect id="_Path_2" data-name="&lt;Path&gt;" class="cls-2" x="213" y="69" width="25" height="156"/><rect class="cls-3" width="450" height="450"/></svg>