<svg width="401" height="351" viewBox="0 0 401 351" fill="none" xmlns="http://www.w3.org/2000/svg">
<path d="M28.25 350H341.25V349.79L350 349.89L400.25 275H325.25V312H255.46C243.46 295 223.24 282.67 200.27 282.67C177.3 282.67 157.04 295 145.07 312H75.25V275H50.25L0 350.08L28.25 350Z" fill="#18173F"/>
<path d="M145.07 312C157.07 295 177.29 282.67 200.27 282.67C223.25 282.67 243.49 295 255.46 312H325.25V0H266.84C266.84 0 266.84 0.279922 266.84 0.419922C266.948 9.23265 265.306 17.9792 262.008 26.1523C258.71 34.3255 253.823 41.7626 247.629 48.0327C241.435 54.3028 234.058 59.281 225.926 62.6787C217.794 66.0764 209.068 67.8262 200.255 67.8262C191.442 67.8262 182.716 66.0764 174.584 62.6787C166.452 59.281 159.075 54.3028 152.881 48.0327C146.687 41.7626 141.8 34.3255 138.502 26.1523C135.204 17.9792 133.562 9.23265 133.67 0.419922C133.67 0.289922 133.67 0.00976562 133.67 0.00976562H75.25V312.01L145.07 312ZM200.25 100.22C215.05 100.218 229.518 104.605 241.825 112.827C254.131 121.049 263.722 132.736 269.386 146.41C275.049 160.084 276.53 175.13 273.641 189.645C270.752 204.16 263.622 217.493 253.155 227.957C242.688 238.42 229.352 245.543 214.836 248.426C200.319 251.31 185.274 249.823 171.602 244.154C157.931 238.486 146.248 228.889 138.031 216.58C129.814 204.27 125.432 189.8 125.44 175C125.451 155.165 133.337 136.146 147.365 122.124C161.393 108.101 180.415 100.223 200.25 100.22Z" fill="#C4CBD2"/>
<path d="M253.154 227.946C282.373 198.726 282.374 151.353 253.155 122.134C223.936 92.9151 176.562 92.9153 147.343 122.134C118.124 151.353 118.124 198.727 147.343 227.946C176.562 257.165 223.935 257.165 253.154 227.946Z" fill="#18173F"/>
</svg>
