<svg width="250" height="350" viewBox="0 0 250 350" fill="none" xmlns="http://www.w3.org/2000/svg">
<path d="M191.12 0C191.12 8.72193 189.402 17.3586 186.064 25.4165C182.726 33.4744 177.833 40.7955 171.665 46.9624C165.498 53.1293 158.175 58.0211 150.117 61.3579C142.059 64.6947 133.422 66.4115 124.7 66.4102C115.978 66.4115 107.341 64.6947 99.2829 61.3579C91.2245 58.0211 83.9024 53.1293 77.7346 46.9624C71.5668 40.7955 66.6742 33.4744 63.3361 25.4165C59.9981 17.3586 58.28 8.72193 58.28 0H0V349.55H58.28C58.28 331.934 65.2778 315.04 77.734 302.584C90.1901 290.128 107.084 283.13 124.7 283.13C142.316 283.13 159.21 290.128 171.666 302.584C184.122 315.04 191.12 331.934 191.12 349.55H249.4V0H191.12Z" fill="#C4CBD2"/>
<path d="M50.1602 174.77C50.1602 160.028 54.5319 145.616 62.7224 133.358C70.913 121.1 82.5545 111.546 96.1749 105.904C109.795 100.262 124.783 98.7862 139.242 101.662C153.702 104.538 166.983 111.638 177.408 122.063C187.832 132.487 194.932 145.769 197.808 160.228C200.684 174.688 199.208 189.675 193.566 203.296C187.924 216.916 178.37 228.557 166.112 236.748C153.854 244.938 139.443 249.31 124.7 249.31C104.931 249.31 85.9714 241.457 71.9924 227.478C58.0135 213.499 50.1602 194.539 50.1602 174.77Z" fill="#091440"/>
</svg>
