<svg id="Layer_1" data-name="Layer 1" xmlns="http://www.w3.org/2000/svg" viewBox="0 0 450 450"><defs><style>.cls-1{fill:#121f3c;}.cls-2{fill:#8795a2;}.cls-3{fill:none;}</style></defs><title>TicketVoted</title><path id="_Path_" data-name="&lt;Path&gt;" class="cls-1" d="M53,400H366v-.22l8.75.11L425,325H350v37H280.21c-12-17-32.22-29.33-55.19-29.33S181.79,345,169.82,362H100V325H75L24.75,400.07,53,400Z"/><path id="_Compound_Path_" data-name="&lt;Compound Path&gt;" class="cls-2" d="M169.82,362c12-17,32.22-29.33,55.2-29.33S268.24,345,280.21,362H350V50H291.59s0,.28,0,.41a66.59,66.59,0,1,1-133.17,0c0-.13,0-.41,0-.41H100V362ZM225,150.22A74.82,74.82,0,1,1,150.19,225,74.81,74.81,0,0,1,225,150.22Z"/><circle id="_Path_2" data-name="&lt;Path&gt;" class="cls-1" cx="225" cy="225.03" r="74.82" transform="translate(-93.22 225.01) rotate(-45)"/><rect class="cls-3" width="450" height="450"/></svg>