<svg id="Layer_1" data-name="Layer 1" xmlns="http://www.w3.org/2000/svg" viewBox="0 0 450 450"><defs><style>.cls-1{fill:#8795a2;}.cls-2{fill:#091440;}.cls-3{fill:none;}</style></defs><title>TransmitLive</title><path class="cls-1" d="M87.94,239.74A160.89,160.89,0,0,1,64.78,32.63L87,47.63a134.08,134.08,0,0,0,19.32,172.59Z"/><path class="cls-1" d="M122.12,183.43a107.24,107.24,0,0,1,.28-122.12l22,15.33a80.45,80.45,0,0,0-.21,91.56Z"/><path class="cls-1" d="M362.06,239.74l-18.37-19.52A134.08,134.08,0,0,0,363,47.63l22.21-15a160.89,160.89,0,0,1-23.16,207.11Z"/><path class="cls-1" d="M325.62,183.43,303.57,168.2a80.43,80.43,0,0,0-.22-91.56l22-15.33a107.22,107.22,0,0,1,.29,122.12Z"/><path class="cls-2" d="M243.48,172.79a53.54,53.54,0,1,0-37.22,0L88.9,417.37h29.73l9.26-19.3,6.87-6.81H315l6.91,6.86,9.24,19.25h29.73Zm43.86,153.33L243.9,283l15.43-15.3ZM198.09,122.58a26.75,26.75,0,1,1,26.75,26.75A26.79,26.79,0,0,1,198.09,122.58ZM224.88,196l22.18,46.21-22.2,22-22.17-22Zm-34.46,71.81L205.83,283l-43.39,43Zm-28.63,96.69,63.07-62.55L288,364.46Z"/><path class="cls-1" d="M224.84,95.82a26.76,26.76,0,1,1-26.75,26.76,26.79,26.79,0,0,1,26.75-26.76"/><rect class="cls-3" width="450" height="450"/></svg>