<svg id="Layer_1" data-name="Layer 1" xmlns="http://www.w3.org/2000/svg" viewBox="0 0 450 450"><defs><style>.cls-1{fill:none;}.cls-2{fill:#121f3c;}.cls-3{fill:#8795a2;}</style></defs><title>UserProjects</title><path id="_Path_" data-name="&lt;Path&gt;" class="cls-1" d="M274.84,311.29A112.37,112.37,0,0,0,162.48,200h0A112.45,112.45,0,0,1,274.84,311.29Z"/><rect id="_Path_2" data-name="&lt;Path&gt;" class="cls-2" x="125" y="125" width="250" height="25"/><rect id="_Path_3" data-name="&lt;Path&gt;" class="cls-2" x="250" y="175" width="125" height="25"/><path id="_Path_4" data-name="&lt;Path&gt;" class="cls-3" d="M212.25,274.83A49.88,49.88,0,0,0,165.3,225c-1,0-2,0-2.93,0s-2,0-2.93,0a49.88,49.88,0,0,0-25.17,91,112.37,112.37,0,0,0-52.49,30.49,87.49,87.49,0,0,0,161.18,0A112.27,112.27,0,0,0,190.46,316,49.83,49.83,0,0,0,212.25,274.83Z"/><path id="_Compound_Path_" data-name="&lt;Compound Path&gt;" class="cls-2" d="M274.84,311.29A112.45,112.45,0,0,0,162.44,200h-.07A112,112,0,0,0,100,218.86l-.23.15a112.49,112.49,0,1,0,175.09,93.47h0C274.86,312.08,274.84,311.68,274.84,311.29ZM162.37,400a87.63,87.63,0,0,1-80.59-53.43A112.37,112.37,0,0,1,134.27,316a49.88,49.88,0,0,1,25.17-91c1,0,1.95,0,2.93,0s1.95,0,2.93,0a49.87,49.87,0,0,1,25.16,91A112.27,112.27,0,0,1,243,346.53,87.63,87.63,0,0,1,162.37,400Z"/><path id="_Compound_Path_2" data-name="&lt;Compound Path&gt;" class="cls-3" d="M400,25H100V218.85A112,112,0,0,1,162.37,200h.11A112.37,112.37,0,0,1,274.84,311.29c0,.39,0,.79,0,1.19h0A112.38,112.38,0,0,1,162.48,425H400ZM375,200H250V175H375Zm0-50H125V125H375Zm0-50H125V75H375Z"/><rect id="_Path_5" data-name="&lt;Path&gt;" class="cls-2" x="125" y="75" width="250" height="25"/><rect class="cls-1" width="450" height="450"/></svg>