<svg width="400" height="400" viewBox="0 0 400 400" fill="none" xmlns="http://www.w3.org/2000/svg">
<path d="M252.98 207.14C267.554 196.048 278.279 180.664 283.647 163.154C289.015 145.645 288.754 126.892 282.901 109.539C277.049 92.1853 265.899 77.1053 251.023 66.4232C236.147 55.7412 218.294 49.9954 199.98 49.9954C181.667 49.9954 163.814 55.7412 148.938 66.4232C134.062 77.1053 122.912 92.1853 117.06 109.539C111.207 126.892 110.946 145.645 116.314 163.154C121.682 180.664 132.407 196.048 146.98 207.14C105.623 218.518 69.0164 242.886 42.5605 276.65C56.9692 306.116 79.3599 330.945 107.185 348.312C135.009 365.679 167.151 374.886 199.95 374.886C232.75 374.886 264.892 365.679 292.716 348.312C320.541 330.945 342.932 306.116 357.34 276.65C330.899 242.898 294.316 218.531 252.98 207.14Z" fill="#C4CBD2"/>
<path d="M200 0C89.55 0 0 89.54 0 200C0 310.46 89.54 400 200 400C310.46 400 400 310.46 400 200C400 89.54 310.45 0 200 0ZM323.76 323.73C304.027 343.417 279.881 358.111 253.328 366.592C226.775 375.073 198.582 377.096 171.09 372.494C143.598 367.891 117.602 356.794 95.2594 340.127C72.9173 323.459 54.8746 301.701 42.63 276.66C69.0791 242.896 105.678 218.524 147.03 207.14C132.46 196.049 121.737 180.666 116.371 163.158C111.005 145.651 111.267 126.901 117.12 109.551C122.973 92.2001 134.121 77.1228 148.995 66.4426C163.869 55.7625 181.719 50.0178 200.03 50.0178C218.341 50.0178 236.191 55.7625 251.065 66.4426C265.939 77.1228 277.087 92.2001 282.94 109.551C288.793 126.901 289.055 145.651 283.689 163.158C278.323 180.666 267.6 196.049 253.03 207.14C294.384 218.521 330.986 242.889 357.44 276.65C348.899 294.101 337.518 310.011 323.76 323.73Z" fill="#091440"/>
</svg>
