<svg id="Layer_1" data-name="Layer 1" xmlns="http://www.w3.org/2000/svg" viewBox="0 0 450 450"><defs><style>.cls-1{fill:#8795a3;}.cls-2{fill:#8795a2;}.cls-3{fill:#121f3c;}.cls-4{fill:none;}</style></defs><title>Wallet</title><g id="_Group_" data-name="&lt;Group&gt;"><path id="_Path_" data-name="&lt;Path&gt;" class="cls-1" d="M37.86,92.57c0-.39.11-.77.18-1.16C38,91.8,37.91,92.18,37.86,92.57Z"/><path id="_Path_2" data-name="&lt;Path&gt;" class="cls-2" d="M69.71,118.16H358.83V96.77A32.23,32.23,0,0,0,326.7,64.64h-257A32.24,32.24,0,0,0,38,91.4,32.24,32.24,0,0,0,69.71,118.16Z"/><path id="_Path_3" data-name="&lt;Path&gt;" class="cls-1" d="M37.72,93.89c0-.34.06-.68.1-1C37.78,93.21,37.75,93.55,37.72,93.89Z"/><path id="_Path_4" data-name="&lt;Path&gt;" class="cls-1" d="M37.62,95.29c0-.26,0-.51.05-.77C37.65,94.78,37.63,95,37.62,95.29Z"/><path id="_Path_5" data-name="&lt;Path&gt;" class="cls-2" d="M345.48,251.79a66.93,66.93,0,0,0,66.94,66.93V184.85A66.94,66.94,0,0,0,345.48,251.79Z"/></g><path id="_Path_6" data-name="&lt;Path&gt;" class="cls-3" d="M380.29,118.16H69.71A32.24,32.24,0,0,1,38,91.4h0c-.07.39-.13.77-.18,1.16,0,.1,0,.21,0,.31,0,.33-.07.67-.1,1s0,.42,0,.63,0,.51-.05.77c0,.49,0,1,0,1.48V353.23a32.23,32.23,0,0,0,32.13,32.13H380.29a32.23,32.23,0,0,0,32.13-32.13V318.72a66.94,66.94,0,1,1,0-133.87V150.29A32.23,32.23,0,0,0,380.29,118.16Z"/><rect class="cls-4" width="450" height="450"/></svg>