<svg width="375" height="321" viewBox="0 0 375 321" fill="none" xmlns="http://www.w3.org/2000/svg">
<path d="M0.240234 27.93C0.240234 27.54 0.350166 27.16 0.420166 26.77C0.380166 27.16 0.290234 27.54 0.240234 27.93Z" fill="#8795A3"/>
<path d="M32.0889 53.52H321.209V32.13C321.183 23.6167 317.789 15.4596 311.769 9.4398C305.749 3.41996 297.592 0.0263735 289.079 0H32.0789C24.4907 0.0166799 17.1517 2.70938 11.3533 7.60419C5.55486 12.499 1.66869 19.2822 0.378906 26.76C1.66899 34.2395 5.55645 41.024 11.3569 45.919C17.1574 50.814 24.499 53.5057 32.0889 53.52Z" fill="#C4CBD2"/>
<path d="M0.0996094 29.25C0.0996094 28.91 0.159707 28.57 0.199707 28.25C0.159707 28.57 0.129609 28.91 0.0996094 29.25Z" fill="#8795A3"/>
<path d="M1.17366e-08 30.65C1.17366e-08 30.39 -0.000195302 30.14 0.0498047 29.88C0.0298047 30.14 0.01 30.36 1.17366e-08 30.65Z" fill="#8795A3"/>
<path d="M307.859 187.15C307.859 195.94 309.591 204.644 312.955 212.765C316.319 220.886 321.25 228.265 327.466 234.48C333.682 240.695 341.062 245.625 349.183 248.988C357.305 252.351 366.009 254.081 374.799 254.08V120.21C357.046 120.21 340.019 127.263 327.466 139.816C314.912 152.37 307.859 169.396 307.859 187.15Z" fill="#C4CBD2"/>
<path d="M342.671 53.52H32.0908C24.5009 53.5057 17.1594 50.814 11.3589 45.919C5.5584 41.024 1.67094 34.2395 0.380859 26.76C0.310859 27.15 0.250928 27.53 0.200928 27.92C0.200928 28.02 0.200928 28.13 0.200928 28.23C0.200928 28.56 0.13083 28.9 0.10083 29.23C0.0708301 29.56 0.10083 29.65 0.10083 29.86C0.10083 30.07 0.100781 30.37 0.0507812 30.63C0.0507812 31.12 0.0507812 31.63 0.0507812 32.11V288.59C0.0771547 297.103 3.47089 305.26 9.49072 311.28C15.5106 317.3 23.6676 320.694 32.1809 320.72H342.761C351.274 320.694 359.431 317.3 365.451 311.28C371.471 305.26 374.865 297.103 374.891 288.59V254.08C366.032 254.188 357.24 252.537 349.024 249.222C340.808 245.907 333.332 240.993 327.029 234.767C320.726 228.541 315.722 221.125 312.307 212.951C308.891 204.776 307.133 196.005 307.133 187.145C307.133 178.285 308.891 169.514 312.307 161.339C315.722 153.165 320.726 145.749 327.029 139.523C333.332 133.297 340.808 128.384 349.024 125.068C357.24 121.753 366.032 120.102 374.891 120.21V85.65C374.864 77.1211 371.458 68.9505 365.419 62.9281C359.38 56.9057 351.2 53.5226 342.671 53.52Z" fill="#091440"/>
</svg>
