<?xml version="1.0" encoding="utf-8"?>
<svg version="1.1" id="Layer_1" xmlns="http://www.w3.org/2000/svg" xmlns:xlink="http://www.w3.org/1999/xlink" x="0px" y="0px"
	 viewBox="0 0 128 128" style="enable-background:new 0 0 128 128;" xml:space="preserve">
<style type="text/css">
	.st0{fill:#FFFFFF;}
</style>
<title>decred logo symbol - 128</title>
<path class="st0" d="M101,91.3l25.7,25.7h-25.3L59,74.6h26.2c11.7,0,21.2-9.5,21.2-21.2c0-11.7-9.5-21.2-21.2-21.2h-8.5L55.5,11
	h28.8c23.4,0,42.4,19,42.4,42.4C126.7,70.6,119.1,84.1,101,91.3z"/>
<path class="st0" d="M27,36.7L1.3,11h25.3L69,53.4H42.8c-11.7,0-21.2,9.5-21.2,21.2c0,11.7,9.5,21.2,21.2,21.2h8.5L72.5,117H43.7
	C20.3,117,1.3,98,1.3,74.6C1.3,57.4,8.9,43.9,27,36.7z"/>
</svg>
