<?xml version="1.0" encoding="UTF-8" standalone="no"?>
<!-- Generator: Adobe Illustrator 22.0.0, SVG Export Plug-In . SVG Version: 6.00 Build 0)  -->

<svg
   xmlns:dc="http://purl.org/dc/elements/1.1/"
   xmlns:cc="http://creativecommons.org/ns#"
   xmlns:rdf="http://www.w3.org/1999/02/22-rdf-syntax-ns#"
   xmlns:svg="http://www.w3.org/2000/svg"
   xmlns="http://www.w3.org/2000/svg"
   xmlns:sodipodi="http://sodipodi.sourceforge.net/DTD/sodipodi-0.dtd"
   xmlns:inkscape="http://www.inkscape.org/namespaces/inkscape"
   version="1.1"
   id="katman_2"
   x="0px"
   y="0px"
   viewBox="0 0 1249.3463 759.28888"
   xml:space="preserve"
   sodipodi:docname="ticket_voting_chart.svg"
   inkscape:version="0.92.2 5c3e80d, 2017-08-06"
   width="1249.3463"
   height="759.28888"><metadata
     id="metadata663"><rdf:RDF><cc:Work
         rdf:about=""><dc:format>image/svg+xml</dc:format><dc:type
           rdf:resource="http://purl.org/dc/dcmitype/StillImage" /><dc:title></dc:title></cc:Work></rdf:RDF></metadata><defs
     id="defs661" /><sodipodi:namedview
     pagecolor="#ffffff"
     bordercolor="#666666"
     borderopacity="1"
     objecttolerance="10"
     gridtolerance="10"
     guidetolerance="10"
     inkscape:pageopacity="0"
     inkscape:pageshadow="2"
     inkscape:window-width="1155"
     inkscape:window-height="776"
     id="namedview659"
     showgrid="false"
     inkscape:zoom="0.53642384"
     inkscape:cx="308.44529"
     inkscape:cy="415.67425"
     inkscape:window-x="0"
     inkscape:window-y="0"
     inkscape:window-maximized="0"
     inkscape:current-layer="katman_2" /><style
     type="text/css"
     id="style2">
	.st0{fill:#BED4FF;stroke:#2971FF;stroke-width:2.0035;stroke-miterlimit:10;}
	.st1{fill:#22324F;}
	.st2{fill:#2971FF;}
	.st3{fill:#FFFFFF;}
	.st4{fill:none;stroke:#707070;stroke-width:0.9973;stroke-miterlimit:10;}
</style><path
     class="st0"
     d="m 196.34049,642.57882 c 0,0 100.7,-333.5 364.30002,-454.80001 156.3,-71.9 364.2,-87 685.09999,-91.599997 V 642.57882"
     id="path4"
     inkscape:connector-curvature="0"
     style="fill:#bed4ff;stroke:#2971ff;stroke-width:2.00349998;stroke-miterlimit:10" /><g
     id="g132"
     transform="matrix(1.2755921,0,0,1.2755921,161.42899,-25.023299)" /><g
     id="g168"
     transform="matrix(2.7272727,0,0,2.7272727,-97.636365,-677.18583)"><g
       id="g166"
       transform="matrix(1.0833333,0,0,1.0833333,-3.5333338,-35.458338)"><path
         d="m 44,423.1 v 2.4 h -0.8 v -5.8 H 44 v 2.4 h 7 v 1 z"
         id="path134"
         inkscape:connector-curvature="0" /><path
         d="m 43.3,418.6 c -0.4,0 -0.6,-0.3 -0.6,-0.7 0,-0.4 0.2,-0.7 0.6,-0.7 0.4,0 0.6,0.3 0.6,0.7 0.1,0.4 -0.2,0.7 -0.6,0.7 z m 1.9,-0.2 v -1 H 51 v 1 z"
         id="path136"
         inkscape:connector-curvature="0" /><path
         d="m 48.1,415.9 c -1.9,0 -3.1,-1.3 -3.1,-2.8 0,-0.8 0.3,-1.3 0.7,-1.7 l 0.7,0.5 c -0.3,0.3 -0.5,0.7 -0.5,1.2 0,1.1 0.9,1.8 2.2,1.8 1.3,0 2.2,-0.7 2.2,-1.8 0,-0.5 -0.3,-1 -0.6,-1.4 l 0.7,-0.4 c 0.5,0.5 0.7,1.2 0.7,1.9 0,1.5 -1.1,2.7 -3,2.7 z"
         id="path138"
         inkscape:connector-curvature="0" /><path
         d="m 42.4,410 v -1 h 5.8 v 0 l -3.1,-2.5 v -1.1 l 2.3,2 3.5,-2.2 v 1.1 l -2.8,1.7 1.3,1.1 H 51 v 1 h -8.6 z"
         id="path140"
         inkscape:connector-curvature="0" /><path
         d="m 48.1,404.7 c -1.9,0 -3.1,-1.3 -3.1,-2.6 0,-1.5 1.1,-2.3 2.7,-2.3 0.2,0 0.4,0 0.6,0 v 3.9 c 1.2,-0.1 2,-0.8 2,-1.9 0,-0.6 -0.2,-1 -0.5,-1.5 l 0.6,-0.4 c 0.3,0.5 0.6,1.1 0.6,1.9 0.1,1.7 -1,2.9 -2.9,2.9 z m -0.5,-4.1 c -1.2,0 -1.8,0.5 -1.8,1.4 0,0.8 0.7,1.6 1.8,1.7 z"
         id="path142"
         inkscape:connector-curvature="0" /><path
         d="M 49.2,398.3 H 46 v 0.9 h -0.7 l -0.1,-0.9 -1.6,-0.1 v -0.8 h 1.6 v -1.6 H 46 v 1.6 h 3.2 c 0.7,0 1.1,-0.2 1.1,-0.9 0,-0.2 -0.1,-0.5 -0.2,-0.7 l 0.7,-0.2 c 0.1,0.3 0.2,0.7 0.2,1.1 0.1,1.1 -0.7,1.6 -1.8,1.6 z"
         id="path144"
         inkscape:connector-curvature="0" /><path
         d="m 43.1,393 v -1.1 l 4.3,-1.3 c 0.9,-0.3 1.7,-0.5 2.6,-0.8 v 0 c -0.9,-0.3 -1.7,-0.5 -2.6,-0.8 l -4.3,-1.3 v -1 l 7.9,2.5 v 1.2 z"
         id="path146"
         inkscape:connector-curvature="0" /><path
         d="m 48.1,386.4 c -1.9,0 -3.1,-1.3 -3.1,-2.7 0,-1.4 1.1,-2.7 3.1,-2.7 1.9,0 3.1,1.3 3.1,2.7 -0.1,1.4 -1.2,2.7 -3.1,2.7 z m 0,-4.4 c -1.3,0 -2.2,0.7 -2.2,1.7 0,1 0.9,1.7 2.2,1.7 1.3,0 2.2,-0.7 2.2,-1.7 0,-1 -0.9,-1.7 -2.2,-1.7 z"
         id="path148"
         inkscape:connector-curvature="0" /><path
         d="M 49.2,379.5 H 46 v 0.9 h -0.7 l -0.1,-0.9 -1.6,-0.1 v -0.8 h 1.6 V 377 H 46 v 1.6 h 3.2 c 0.7,0 1.1,-0.2 1.1,-0.9 0,-0.2 -0.1,-0.5 -0.2,-0.7 l 0.7,-0.2 c 0.1,0.3 0.2,0.7 0.2,1.1 0.1,1.2 -0.7,1.6 -1.8,1.6 z"
         id="path150"
         inkscape:connector-curvature="0" /><path
         d="m 48.1,376.2 c -1.9,0 -3.1,-1.3 -3.1,-2.6 0,-1.5 1.1,-2.3 2.7,-2.3 0.2,0 0.4,0 0.6,0 v 3.9 c 1.2,-0.1 2,-0.8 2,-1.9 0,-0.6 -0.2,-1 -0.5,-1.5 l 0.6,-0.4 c 0.3,0.5 0.6,1.1 0.6,1.9 0.1,1.7 -1,2.9 -2.9,2.9 z m -0.5,-4.1 c -1.2,0 -1.8,0.5 -1.8,1.4 0,0.8 0.7,1.6 1.8,1.7 z"
         id="path152"
         inkscape:connector-curvature="0" /><path
         d="m 47.1,367.8 c -2.5,0 -4.1,-1.5 -4.1,-3.5 0,-1 0.5,-1.7 1,-2.2 l 0.7,0.5 c -0.4,0.4 -0.7,0.9 -0.7,1.6 0,1.5 1.2,2.5 3.2,2.5 2,0 3.2,-0.9 3.2,-2.4 0,-0.8 -0.3,-1.3 -0.9,-1.8 L 50,362 c 0.7,0.6 1.1,1.4 1.1,2.4 0,1.9 -1.5,3.4 -4,3.4 z"
         id="path154"
         inkscape:connector-curvature="0" /><path
         d="m 42.4,360.6 v -1 h 2.3 1.2 c -0.5,-0.5 -1,-1.1 -1,-1.9 0,-1.2 0.8,-1.8 2.3,-1.8 H 51 v 1 h -3.6 c -1.1,0 -1.6,0.3 -1.6,1.1 0,0.6 0.3,1 0.9,1.6 H 51 v 1 z"
         id="path156"
         inkscape:connector-curvature="0" /><path
         d="m 49.5,354.4 c -1.3,0 -1.9,-1.1 -2.2,-3.6 -0.8,0 -1.5,0.3 -1.5,1.2 0,0.7 0.3,1.3 0.6,1.7 l -0.7,0.4 c -0.4,-0.5 -0.8,-1.4 -0.8,-2.3 0,-1.4 0.9,-2 2.4,-2 H 51 v 0.8 l -0.7,0.1 v 0 c 0.5,0.6 0.8,1.2 0.8,1.9 0,1.1 -0.6,1.8 -1.6,1.8 z m 0.1,-3.6 H 48 c 0.2,2 0.7,2.6 1.5,2.6 0.7,0 0.9,-0.4 0.9,-1 -0.1,-0.5 -0.3,-1 -0.8,-1.6 z"
         id="path158"
         inkscape:connector-curvature="0" /><path
         d="m 45.2,348 v -0.8 l 0.8,-0.1 v 0 c -0.5,-0.6 -1,-1.2 -1,-2 0,-1.2 0.8,-1.8 2.3,-1.8 H 51 v 1 h -3.6 c -1.1,0 -1.6,0.3 -1.6,1.1 0,0.6 0.3,1 0.9,1.6 H 51 v 1 z"
         id="path160"
         inkscape:connector-curvature="0" /><path
         d="m 48.1,341.9 c -1.9,0 -3.1,-1.3 -3.1,-2.8 0,-0.8 0.3,-1.3 0.7,-1.7 l 0.7,0.5 c -0.3,0.3 -0.5,0.7 -0.5,1.2 0,1.1 0.9,1.8 2.2,1.8 1.3,0 2.2,-0.7 2.2,-1.8 0,-0.5 -0.3,-1 -0.6,-1.4 l 0.7,-0.4 c 0.5,0.5 0.7,1.2 0.7,1.9 0,1.5 -1.1,2.7 -3,2.7 z"
         id="path162"
         inkscape:connector-curvature="0" /><path
         d="m 48.1,336.7 c -1.9,0 -3.1,-1.3 -3.1,-2.6 0,-1.5 1.1,-2.3 2.7,-2.3 0.2,0 0.4,0 0.6,0 v 3.9 c 1.2,-0.1 2,-0.8 2,-1.9 0,-0.6 -0.2,-1 -0.5,-1.5 l 0.6,-0.4 c 0.3,0.5 0.6,1.1 0.6,1.9 0.1,1.6 -1,2.9 -2.9,2.9 z m -0.5,-4.1 c -1.2,0 -1.8,0.5 -1.8,1.4 0,0.8 0.7,1.6 1.8,1.7 z"
         id="path164"
         inkscape:connector-curvature="0" /></g></g><g
     id="g178"
     transform="matrix(2.4390244,0,0,2.4390244,-73.169504,-147.96749)"><path
       d="m 71.5,99.1 h 1.8 v -5.6 h -1.4 v -0.6 c 0.7,-0.1 1.2,-0.3 1.6,-0.6 h 0.8 v 6.8 h 1.6 v 0.8 h -4.3 v -0.8 z"
       id="path170"
       inkscape:connector-curvature="0" /><path
       d="m 77,96.1 c 0,-2.6 0.9,-3.9 2.5,-3.9 1.6,0 2.5,1.4 2.5,3.9 0,2.6 -0.9,4 -2.5,4 -1.6,0 -2.5,-1.4 -2.5,-4 z m 4,0 C 81,93.9 80.4,93 79.5,93 78.6,93 78,93.9 78,96.1 c 0,2.2 0.6,3.2 1.5,3.2 0.9,0 1.5,-1 1.5,-3.2 z"
       id="path172"
       inkscape:connector-curvature="0" /><path
       d="m 83,96.1 c 0,-2.6 0.9,-3.9 2.5,-3.9 1.6,0 2.5,1.4 2.5,3.9 0,2.6 -0.9,4 -2.5,4 -1.6,0 -2.5,-1.4 -2.5,-4 z m 3.9,0 c 0,-2.2 -0.6,-3.1 -1.5,-3.1 -0.9,0 -1.4,0.9 -1.4,3.1 0,2.2 0.6,3.2 1.5,3.2 0.9,0 1.4,-1 1.4,-3.2 z"
       id="path174"
       inkscape:connector-curvature="0" /><path
       d="m 88.9,94.4 c 0,-1.6 0.7,-2.5 1.8,-2.5 1.1,0 1.8,0.9 1.8,2.5 0,1.6 -0.7,2.5 -1.8,2.5 -1.1,0 -1.8,-0.9 -1.8,-2.5 z m 2.8,0 c 0,-1.3 -0.4,-1.9 -1,-1.9 -0.6,0 -1,0.6 -1,1.9 0,1.3 0.4,1.9 1,1.9 0.6,0 1,-0.6 1,-1.9 z m 3.5,-2.5 h 0.7 l -4.3,8.2 h -0.7 z m -0.9,5.7 c 0,-1.6 0.7,-2.5 1.8,-2.5 1.1,0 1.8,0.9 1.8,2.5 0,1.6 -0.7,2.5 -1.8,2.5 -1.1,0 -1.8,-0.9 -1.8,-2.5 z m 2.9,0 c 0,-1.3 -0.4,-1.9 -1,-1.9 -0.6,0 -1,0.6 -1,1.9 0,1.3 0.4,1.9 1,1.9 0.6,0 1,-0.7 1,-1.9 z"
       id="path176"
       inkscape:connector-curvature="0" /></g><g
     id="g186"
     transform="matrix(2.4096386,0,0,2.4096386,-86.494004,-329.12508)"><path
       d="M 80.8,230.5 H 77 v -0.8 h 5 v 0.6 c -1.8,2.3 -2.2,4.1 -2.3,7 h -1 c 0.1,-2.8 0.6,-4.7 2.1,-6.8 z"
       id="path180"
       inkscape:connector-curvature="0" /><path
       d="m 82.8,236.4 0.5,-0.6 c 0.5,0.5 1,0.9 1.9,0.9 0.9,0 1.7,-0.7 1.7,-1.7 0,-1.1 -0.6,-1.7 -1.6,-1.7 -0.5,0 -0.9,0.2 -1.3,0.5 l -0.5,-0.3 0.3,-3.7 h 3.8 v 0.8 h -3 l -0.2,2.3 c 0.4,-0.2 0.7,-0.3 1.2,-0.3 1.3,0 2.4,0.7 2.4,2.4 0,1.7 -1.2,2.6 -2.6,2.6 -1.3,-0.1 -2.1,-0.6 -2.6,-1.2 z"
       id="path182"
       inkscape:connector-curvature="0" /><path
       d="m 88.9,231.8 c 0,-1.6 0.7,-2.5 1.8,-2.5 1.1,0 1.8,0.9 1.8,2.5 0,1.6 -0.7,2.5 -1.8,2.5 -1.1,0 -1.8,-0.9 -1.8,-2.5 z m 2.8,0 c 0,-1.3 -0.4,-1.9 -1,-1.9 -0.6,0 -1,0.6 -1,1.9 0,1.3 0.4,1.9 1,1.9 0.6,0 1,-0.6 1,-1.9 z m 3.5,-2.5 h 0.7 l -4.3,8.2 h -0.7 z m -0.9,5.7 c 0,-1.6 0.7,-2.5 1.8,-2.5 1.1,0 1.8,0.9 1.8,2.5 0,1.6 -0.7,2.5 -1.8,2.5 -1.1,0 -1.8,-0.9 -1.8,-2.5 z m 2.9,0 c 0,-1.3 -0.4,-1.9 -1,-1.9 -0.6,0 -1,0.6 -1,1.9 0,1.3 0.4,1.9 1,1.9 0.6,0 1,-0.7 1,-1.9 z"
       id="path184"
       inkscape:connector-curvature="0" /></g><g
     id="g194"
     transform="matrix(2.4096386,0,0,2.4096386,-87.119804,-533.80436)"><path
       d="m 76.8,374.7 0.5,-0.6 c 0.5,0.5 1,0.9 1.9,0.9 0.9,0 1.7,-0.7 1.7,-1.7 0,-1.1 -0.6,-1.7 -1.6,-1.7 -0.5,0 -0.9,0.2 -1.3,0.5 l -0.5,-0.3 0.3,-3.7 h 3.8 v 0.8 h -3 l -0.2,2.3 c 0.4,-0.2 0.7,-0.3 1.2,-0.3 1.3,0 2.4,0.7 2.4,2.4 0,1.7 -1.2,2.6 -2.6,2.6 -1.3,-0.1 -2.1,-0.7 -2.6,-1.2 z"
       id="path188"
       inkscape:connector-curvature="0" /><path
       d="m 83,371.8 c 0,-2.6 0.9,-3.9 2.5,-3.9 1.6,0 2.5,1.4 2.5,3.9 0,2.6 -0.9,4 -2.5,4 -1.6,0 -2.5,-1.5 -2.5,-4 z m 3.9,0 c 0,-2.2 -0.6,-3.1 -1.5,-3.1 -0.9,0 -1.5,0.9 -1.5,3.1 0,2.2 0.6,3.2 1.5,3.2 0.9,0 1.5,-1 1.5,-3.2 z"
       id="path190"
       inkscape:connector-curvature="0" /><path
       d="m 88.9,370.1 c 0,-1.6 0.7,-2.5 1.8,-2.5 1.1,0 1.8,0.9 1.8,2.5 0,1.6 -0.7,2.5 -1.8,2.5 -1.1,0 -1.8,-0.9 -1.8,-2.5 z m 2.8,0 c 0,-1.3 -0.4,-1.9 -1,-1.9 -0.6,0 -1,0.6 -1,1.9 0,1.3 0.4,1.9 1,1.9 0.6,0 1,-0.7 1,-1.9 z m 3.5,-2.5 h 0.7 l -4.3,8.2 h -0.7 z m -0.9,5.7 c 0,-1.6 0.7,-2.5 1.8,-2.5 1.1,0 1.8,0.9 1.8,2.5 0,1.6 -0.7,2.5 -1.8,2.5 -1.1,0 -1.8,-0.9 -1.8,-2.5 z m 2.9,0 c 0,-1.3 -0.4,-1.9 -1,-1.9 -0.6,0 -1,0.6 -1,1.9 0,1.3 0.4,1.9 1,1.9 0.6,0 1,-0.7 1,-1.9 z"
       id="path192"
       inkscape:connector-curvature="0" /></g><g
     id="g202"
     transform="matrix(2.4096386,0,0,2.4096386,-81.918904,-723.90116)"><path
       d="m 77,512.5 c 2.3,-2.3 3.6,-3.7 3.6,-4.9 0,-0.9 -0.5,-1.5 -1.5,-1.5 -0.6,0 -1.2,0.4 -1.6,0.9 l -0.6,-0.6 c 0.6,-0.7 1.3,-1.2 2.3,-1.2 1.4,0 2.3,0.9 2.3,2.3 0,1.4 -1.3,2.9 -3.1,4.8 0.4,0 0.9,-0.1 1.3,-0.1 h 2.2 V 513 H 77 Z"
       id="path196"
       inkscape:connector-curvature="0" /><path
       d="m 82.8,512.2 0.5,-0.6 c 0.5,0.5 1,0.9 1.9,0.9 0.9,0 1.7,-0.7 1.7,-1.7 0,-1.1 -0.6,-1.7 -1.6,-1.7 -0.5,0 -0.9,0.2 -1.3,0.5 l -0.5,-0.3 0.3,-3.7 h 3.8 v 0.8 h -3 l -0.2,2.3 c 0.4,-0.2 0.7,-0.3 1.2,-0.3 1.3,0 2.4,0.7 2.4,2.4 0,1.7 -1.2,2.6 -2.6,2.6 -1.3,-0.1 -2.1,-0.7 -2.6,-1.2 z"
       id="path198"
       inkscape:connector-curvature="0" /><path
       d="m 88.9,507.6 c 0,-1.6 0.7,-2.5 1.8,-2.5 1.1,0 1.8,0.9 1.8,2.5 0,1.6 -0.7,2.5 -1.8,2.5 -1.1,0 -1.8,-0.9 -1.8,-2.5 z m 2.8,0 c 0,-1.3 -0.4,-1.9 -1,-1.9 -0.6,0 -1,0.6 -1,1.9 0,1.3 0.4,1.9 1,1.9 0.6,0 1,-0.7 1,-1.9 z m 3.5,-2.5 h 0.7 l -4.3,8.2 h -0.7 z m -0.9,5.7 c 0,-1.6 0.7,-2.5 1.8,-2.5 1.1,0 1.8,0.9 1.8,2.5 0,1.6 -0.7,2.5 -1.8,2.5 -1.1,0 -1.8,-0.9 -1.8,-2.5 z m 2.9,0 c 0,-1.3 -0.4,-1.9 -1,-1.9 -0.6,0 -1,0.6 -1,1.9 0,1.3 0.4,1.9 1,1.9 0.6,0 1,-0.7 1,-1.9 z"
       id="path200"
       inkscape:connector-curvature="0" /></g><g
     id="g208"
     transform="matrix(2.4096386,0,0,2.4096386,-99.513804,-920.89096)"><path
       d="m 83,646.4 c 0,-2.6 0.9,-3.9 2.5,-3.9 1.6,0 2.5,1.4 2.5,3.9 0,2.6 -0.9,4 -2.5,4 -1.6,0 -2.5,-1.4 -2.5,-4 z m 4,0 c 0,-2.2 -0.6,-3.1 -1.5,-3.1 -0.9,0 -1.5,0.9 -1.5,3.1 0,2.2 0.6,3.2 1.5,3.2 0.9,0 1.5,-0.9 1.5,-3.2 z"
       id="path204"
       inkscape:connector-curvature="0" /><path
       d="m 88.9,644.7 c 0,-1.6 0.7,-2.5 1.8,-2.5 1.1,0 1.8,0.9 1.8,2.5 0,1.6 -0.7,2.5 -1.8,2.5 -1.1,0 -1.8,-0.9 -1.8,-2.5 z m 2.8,0 c 0,-1.3 -0.4,-1.9 -1,-1.9 -0.6,0 -1,0.6 -1,1.9 0,1.3 0.4,1.9 1,1.9 0.6,0 1,-0.6 1,-1.9 z m 3.5,-2.4 h 0.7 l -4.3,8.2 h -0.7 z m -0.9,5.6 c 0,-1.6 0.7,-2.5 1.8,-2.5 1.1,0 1.8,0.9 1.8,2.5 0,1.6 -0.7,2.5 -1.8,2.5 -1.1,0 -1.8,-0.9 -1.8,-2.5 z m 2.9,0 c 0,-1.3 -0.4,-1.9 -1,-1.9 -0.6,0 -1,0.6 -1,1.9 0,1.3 0.4,1.9 1,1.9 0.6,0 1,-0.6 1,-1.9 z"
       id="path206"
       inkscape:connector-curvature="0" /></g><g
     id="g218"
     transform="matrix(3.3817003,0,0,3.3817003,-1470.5549,-1632.5877)"><path
       d="m 625.8,699.61153 h 1.47855 c 1.77426,0 2.73532,1.03499 2.73532,2.88318 0,1.84819 -0.96106,2.9571 -2.73532,2.9571 H 625.8 Z m 1.40462,5.24886 c 1.3307,0 2.06998,-0.88713 2.06998,-2.29176 0,-1.47855 -0.66535,-2.29175 -2.06998,-2.29175 h -0.66534 v 4.58351 z"
       id="path210"
       inkscape:connector-curvature="0"
       style="stroke-width:0.73927593" /><path
       d="m 630.901,704.3429 c 0,-0.96106 0.81321,-1.40463 2.6614,-1.62641 0,-0.59142 -0.22179,-1.10891 -0.88713,-1.10891 -0.5175,0 -0.96106,0.22178 -1.25677,0.44356 l -0.29571,-0.51749 c 0.36963,-0.29571 1.03498,-0.59142 1.70033,-0.59142 1.03499,0 1.47855,0.66535 1.47855,1.77426 v 2.66139 h -0.59142 l -0.0739,-0.51749 v 0 c -0.44356,0.36964 -0.88713,0.59142 -1.40462,0.59142 -0.73928,0.0739 -1.3307,-0.36964 -1.3307,-1.10891 z m 2.6614,0.0739 v -1.18284 c -1.47855,0.14786 -1.92212,0.5175 -1.92212,1.10892 0,0.51749 0.36964,0.66534 0.73928,0.66534 0.44356,-0.0739 0.8132,-0.22178 1.18284,-0.59142 z"
       id="path212"
       inkscape:connector-curvature="0"
       style="stroke-width:0.73927593" /><path
       d="m 635.26273,707.22607 0.14786,-0.59142 c 0.0739,0 0.22178,0.0739 0.29571,0.0739 0.51749,0 0.8132,-0.36964 0.96106,-0.96106 l 0.0739,-0.29571 -1.70033,-4.2878 h 0.73927 l 0.88714,2.36568 c 0.14785,0.36964 0.29571,0.81321 0.44356,1.18284 v 0 c 0.14786,-0.36963 0.22178,-0.8132 0.36964,-1.18284 l 0.73928,-2.36568 h 0.73927 l -1.62641,4.65744 c -0.29571,0.88713 -0.73927,1.47855 -1.6264,1.47855 -0.14786,0 -0.29571,-0.0739 -0.44357,-0.0739 z"
       id="path214"
       inkscape:connector-curvature="0"
       style="stroke-width:0.73927593" /><path
       d="m 639.32875,704.93432 0.36964,-0.44357 c 0.36964,0.29571 0.73927,0.51749 1.25677,0.51749 0.59142,0 0.8132,-0.29571 0.8132,-0.66534 0,-0.44357 -0.51749,-0.66535 -0.96106,-0.81321 -0.59142,-0.22178 -1.25677,-0.51749 -1.25677,-1.25677 0,-0.66534 0.5175,-1.25677 1.47855,-1.25677 0.5175,0 1.03499,0.22179 1.3307,0.5175 l -0.36964,0.44356 c -0.29571,-0.22178 -0.59142,-0.36963 -0.96106,-0.36963 -0.51749,0 -0.8132,0.29571 -0.8132,0.59142 0,0.44356 0.44357,0.59142 0.96106,0.73927 0.59142,0.22178 1.3307,0.5175 1.3307,1.3307 0,0.66535 -0.59142,1.25677 -1.55248,1.25677 -0.59142,0 -1.18285,-0.22178 -1.62641,-0.59142 z"
       id="path216"
       inkscape:connector-curvature="0"
       style="stroke-width:0.73927593" /></g><g
     id="g230"
     transform="translate(87.140496,-3.9211792)"><path
       d="m 90.4,672.8 c -1.3,-2.2 -1.2,-3.9 0.2,-4.6 1.3,-0.8 2.8,0 4.1,2.2 1.3,2.2 1.2,3.9 -0.1,4.7 -1.4,0.7 -3,-0.1 -4.2,-2.3 z m 3.4,-1.9 c -1.1,-1.9 -2.1,-2.4 -2.9,-2 -0.8,0.4 -0.8,1.5 0.3,3.5 1.1,1.9 2.1,2.5 2.9,2 0.8,-0.5 0.8,-1.6 -0.3,-3.5 z"
       id="path220"
       inkscape:connector-curvature="0" /><path
       d="m 97.4,672.5 c -0.2,-0.4 -0.1,-0.8 0.2,-1 0.3,-0.2 0.8,-0.1 1,0.3 0.2,0.4 0.1,0.8 -0.2,1 -0.3,0.2 -0.8,0.1 -1,-0.3 z"
       id="path222"
       inkscape:connector-curvature="0" /><path
       d="m 98.1,668.3 c -1.3,-2.2 -1.2,-3.9 0.2,-4.6 1.4,-0.7 2.8,0 4.1,2.2 1.3,2.2 1.2,3.9 -0.1,4.7 -1.3,0.8 -2.9,0 -4.2,-2.3 z m 3.4,-1.9 c -1.1,-1.9 -2.1,-2.4 -2.9,-2 -0.8,0.4 -0.8,1.5 0.3,3.5 1.1,1.9 2.1,2.5 2.9,2 0.8,-0.5 0.9,-1.6 -0.3,-3.5 z"
       id="path224"
       inkscape:connector-curvature="0" /><path
       d="m 103.3,665.4 c -1.3,-2.2 -1.2,-3.9 0.2,-4.6 1.4,-0.7 2.8,0 4.1,2.2 1.3,2.2 1.2,3.9 -0.1,4.7 -1.3,0.8 -2.9,-0.1 -4.2,-2.3 z m 3.4,-2 c -1.1,-1.9 -2.1,-2.4 -2.9,-2 -0.8,0.4 -0.8,1.5 0.3,3.5 1.1,1.9 2.1,2.5 2.9,2 0.8,-0.4 0.8,-1.6 -0.3,-3.5 z"
       id="path226"
       inkscape:connector-curvature="0" /><path
       d="m 109.7,665 0.1,-0.8 c 0.6,0.2 1.4,0.3 2.1,-0.2 0.8,-0.5 1.1,-1.3 0.7,-2 -0.5,-0.8 -1.3,-1 -2.9,-0.1 l -0.4,-0.7 c 1.4,-0.8 1.6,-1.6 1.2,-2.3 -0.4,-0.6 -1,-0.8 -1.8,-0.4 -0.6,0.3 -0.9,0.9 -1,1.5 l -0.8,-0.3 c 0.2,-0.8 0.6,-1.5 1.4,-1.9 1.2,-0.7 2.3,-0.5 3,0.5 0.5,0.8 0.3,1.6 -0.3,2.3 v 0 c 0.9,-0.3 1.9,-0.1 2.4,0.9 0.7,1.2 0.1,2.5 -1.1,3.2 -0.9,0.6 -1.8,0.5 -2.6,0.3 z"
       id="path228"
       inkscape:connector-curvature="0" /></g><g
     id="g240"
     transform="matrix(2.7264794,0,0,2.7264794,-217.23771,-1136.0718)"><path
       d="m 179.1,667.8 1.5,-0.9 -2.8,-4.9 -1.2,0.7 -0.3,-0.5 c 0.5,-0.5 0.9,-0.9 1.1,-1.3 l 0.7,-0.4 3.4,5.9 1.4,-0.8 0.4,0.7 -3.7,2.2 z"
       id="path236"
       inkscape:connector-curvature="0" /><path
       d="m 182.4,662.4 c -1.3,-2.2 -1.2,-3.9 0.2,-4.6 1.3,-0.8 2.8,0 4.1,2.2 1.3,2.2 1.2,3.9 -0.1,4.7 -1.4,0.7 -3,-0.1 -4.2,-2.3 z m 3.4,-2 c -1.1,-1.9 -2.1,-2.4 -2.9,-2 -0.8,0.4 -0.8,1.5 0.3,3.5 1.1,1.9 2.1,2.5 2.9,2 0.8,-0.4 0.8,-1.5 -0.3,-3.5 z"
       id="path238"
       inkscape:connector-curvature="0" /></g><g
     id="g252"
     transform="matrix(2.6778062,0,0,2.6778062,-328.63321,-1105.8701)"><path
       d="m 252,668.2 c 0.8,-3.1 1.3,-5 0.7,-6.1 -0.4,-0.8 -1.2,-1.1 -2,-0.6 -0.6,0.3 -0.8,0.9 -0.9,1.6 L 249,663 c 0.2,-0.9 0.6,-1.7 1.4,-2.2 1.2,-0.7 2.4,-0.4 3.1,0.8 0.7,1.2 0.3,3.1 -0.3,5.7 0.3,-0.2 0.7,-0.5 1.1,-0.7 l 1.9,-1.1 0.4,0.7 -4.3,2.5 z"
       id="path248"
       inkscape:connector-curvature="0" /><path
       d="m 255.6,662.4 c -1.3,-2.2 -1.2,-3.9 0.2,-4.6 1.3,-0.8 2.8,0 4.1,2.2 1.3,2.2 1.2,3.9 -0.1,4.7 -1.4,0.7 -2.9,-0.1 -4.2,-2.3 z m 3.4,-2 c -1.1,-1.9 -2.1,-2.4 -2.9,-2 -0.8,0.4 -0.8,1.5 0.3,3.5 1.1,1.9 2.1,2.5 2.9,2 0.8,-0.4 0.8,-1.5 -0.3,-3.5 z"
       id="path250"
       inkscape:connector-curvature="0" /></g><g
     id="g264"
     transform="matrix(2.8147749,0,0,2.8147749,-498.30591,-1198.4717)"><path
       d="m 325.4,668 0.1,-0.8 c 0.6,0.2 1.4,0.3 2.1,-0.2 0.8,-0.5 1.1,-1.3 0.7,-2 -0.5,-0.8 -1.3,-1 -2.9,-0.1 l -0.4,-0.7 c 1.4,-0.8 1.6,-1.6 1.2,-2.3 -0.4,-0.6 -1,-0.8 -1.8,-0.4 -0.6,0.3 -0.9,0.9 -1,1.5 l -0.8,-0.3 c 0.2,-0.8 0.6,-1.5 1.4,-1.9 1.2,-0.7 2.3,-0.5 3,0.5 0.5,0.8 0.3,1.6 -0.3,2.3 v 0 c 0.9,-0.3 1.9,-0.1 2.4,0.9 0.7,1.2 0.1,2.5 -1.1,3.2 -1,0.6 -1.9,0.5 -2.6,0.3 z"
       id="path260"
       inkscape:connector-curvature="0" /><path
       d="m 329.3,662.4 c -1.3,-2.2 -1.2,-3.9 0.2,-4.6 1.3,-0.8 2.8,0 4.1,2.2 1.3,2.2 1.2,3.9 -0.1,4.7 -1.4,0.7 -3,-0.1 -4.2,-2.3 z m 3.4,-2 c -1.1,-1.9 -2.1,-2.4 -2.9,-2 -0.8,0.4 -0.8,1.5 0.3,3.5 1.1,1.9 2.1,2.5 2.9,2 0.8,-0.4 0.8,-1.5 -0.3,-3.5 z"
       id="path262"
       inkscape:connector-curvature="0" /></g><g
     id="g276"
     transform="matrix(3.1239585,0,0,3.1239585,-759.46931,-1402.8138)"><path
       d="m 400.3,662.7 c -0.2,-0.3 -0.5,-0.9 -0.7,-1.3 v 0 c 0,0.4 0,0.8 0,1.2 l -0.2,3.2 3.8,-2.2 0.4,0.7 -4.7,2.7 -0.3,-0.6 0.4,-5.9 0.9,-0.5 3.8,6.6 -0.8,0.5 z"
       id="path272"
       inkscape:connector-curvature="0" /><path
       d="m 403.4,662.4 c -1.3,-2.2 -1.2,-3.9 0.2,-4.6 1.3,-0.8 2.8,0 4.1,2.2 1.3,2.2 1.2,3.9 -0.1,4.7 -1.4,0.7 -2.9,-0.1 -4.2,-2.3 z m 3.4,-2 c -1.1,-1.9 -2.1,-2.4 -2.9,-2 -0.8,0.4 -0.8,1.5 0.3,3.5 1.1,1.9 2.1,2.5 2.9,2 0.8,-0.4 0.8,-1.5 -0.3,-3.5 z"
       id="path274"
       inkscape:connector-curvature="0" /></g><g
     id="g288"
     transform="matrix(2.8123953,0,0,2.8123953,-764.32281,-1196.8982)"><path
       d="m 472.3,668 0.1,-0.8 c 0.6,0.2 1.3,0.2 2.1,-0.2 0.8,-0.5 1.1,-1.4 0.6,-2.3 -0.5,-0.9 -1.4,-1.1 -2.2,-0.6 -0.5,0.3 -0.7,0.6 -0.9,1.1 h -0.6 l -1.6,-3.3 3.3,-1.9 0.4,0.7 -2.6,1.5 1,2.1 c 0.2,-0.3 0.5,-0.6 0.9,-0.9 1.1,-0.7 2.4,-0.5 3.3,0.9 0.8,1.4 0.2,2.9 -0.9,3.5 -1.3,0.5 -2.2,0.4 -2.9,0.2 z"
       id="path284"
       inkscape:connector-curvature="0" /><path
       d="m 476.2,662.4 c -1.3,-2.2 -1.2,-3.9 0.2,-4.6 1.3,-0.8 2.8,0 4.1,2.2 1.3,2.2 1.2,3.9 -0.1,4.7 -1.4,0.7 -3,-0.1 -4.2,-2.3 z m 3.4,-2 c -1.1,-1.9 -2.1,-2.4 -2.9,-2 -0.8,0.4 -0.8,1.5 0.3,3.5 1.1,1.9 2.1,2.5 2.9,2 0.8,-0.4 0.8,-1.5 -0.3,-3.5 z"
       id="path286"
       inkscape:connector-curvature="0" /></g><g
     id="g300"
     transform="matrix(2.8895484,0,0,2.8895484,-941.56261,-1247.9109)"><path
       d="m 545.3,665.6 c -1.5,-2.7 -0.9,-4.4 0.4,-5.1 0.7,-0.4 1.4,-0.4 2,-0.2 l -0.2,0.8 c -0.5,-0.2 -1,-0.1 -1.4,0.1 -1,0.5 -1.3,1.8 0,4 0.9,1.6 2,2.2 2.9,1.7 0.6,-0.4 0.8,-1.2 0.3,-2.1 -0.5,-0.9 -1.2,-1.2 -2,-0.7 -0.4,0.2 -0.8,0.8 -0.9,1.8 l -0.4,-0.7 c 0.1,-0.8 0.5,-1.5 1.1,-1.8 1.1,-0.7 2.3,-0.4 3.1,1 0.7,1.3 0.3,2.6 -0.7,3.3 -1.4,0.5 -3,0 -4.2,-2.1 z"
       id="path296"
       inkscape:connector-curvature="0" /><path
       d="m 550.3,662.4 c -1.3,-2.2 -1.2,-3.9 0.2,-4.6 1.3,-0.8 2.8,0 4.1,2.2 1.3,2.2 1.2,3.9 -0.1,4.7 -1.4,0.7 -2.9,-0.1 -4.2,-2.3 z m 3.4,-2 c -1.1,-1.9 -2.1,-2.4 -2.9,-2 -0.8,0.4 -0.8,1.5 0.3,3.5 1.1,1.9 2.1,2.5 2.9,2 0.8,-0.4 0.8,-1.5 -0.3,-3.5 z"
       id="path298"
       inkscape:connector-curvature="0" /></g><g
     id="g312"
     transform="matrix(2.8837279,0,0,2.8837279,-1074.5545,-1244.063)"><path
       d="m 620.4,660.9 -3.3,1.9 -0.4,-0.7 4.3,-2.5 0.3,0.5 c -0.4,2.9 0.1,4.6 1.5,7.3 l -0.9,0.5 c -1.4,-2.6 -1.8,-4.4 -1.5,-7 z"
       id="path308"
       inkscape:connector-curvature="0" /><path
       d="m 623.7,662.4 c -1.3,-2.2 -1.2,-3.9 0.2,-4.6 1.3,-0.8 2.8,0 4.1,2.2 1.3,2.2 1.2,3.9 -0.1,4.7 -1.4,0.7 -2.9,-0.1 -4.2,-2.3 z m 3.4,-2 c -1.1,-1.9 -2.1,-2.4 -2.9,-2 -0.8,0.4 -0.8,1.5 0.3,3.5 1.1,1.9 2.1,2.5 2.9,2 0.8,-0.4 0.9,-1.5 -0.3,-3.5 z"
       id="path310"
       inkscape:connector-curvature="0" /></g><g
     id="g324"
     transform="matrix(2.8599209,0,0,2.8599209,-1199.4064,-1228.3233)"><path
       d="m 693.6,667 c -0.5,-0.9 -0.2,-1.8 0.2,-2.5 v 0 c -0.7,-0.1 -1.4,-0.3 -1.8,-1 -0.6,-1 -0.2,-2.2 0.9,-2.8 1.2,-0.7 2.3,-0.3 2.9,0.7 0.4,0.7 0.2,1.6 0,2.1 v 0 c 0.8,0 1.6,0.2 2.1,1 0.6,1 0.2,2.3 -1.1,3 -1.2,0.8 -2.6,0.6 -3.2,-0.5 z m 1.4,-5.1 c -0.4,-0.7 -1.1,-0.9 -1.8,-0.5 -0.6,0.4 -0.8,1 -0.5,1.7 0.5,0.8 1.4,0.7 2.4,0.6 0.2,-0.8 0.2,-1.4 -0.1,-1.8 z m 2.1,3.1 c -0.5,-0.9 -1.5,-0.7 -2.7,-0.5 -0.3,0.7 -0.4,1.4 -0.1,2 0.4,0.7 1.3,0.9 2.1,0.4 0.8,-0.4 1.1,-1.2 0.7,-1.9 z"
       id="path320"
       inkscape:connector-curvature="0" /><path
       d="m 697.8,662.4 c -1.3,-2.2 -1.2,-3.9 0.2,-4.6 1.3,-0.8 2.8,0 4.1,2.2 1.3,2.2 1.2,3.9 -0.1,4.7 -1.4,0.7 -2.9,-0.1 -4.2,-2.3 z m 3.4,-2 c -1.1,-1.9 -2.1,-2.4 -2.9,-2 -0.8,0.4 -0.8,1.5 0.3,3.5 1.1,1.9 2.1,2.5 2.9,2 0.8,-0.4 0.9,-1.5 -0.3,-3.5 z"
       id="path322"
       inkscape:connector-curvature="0" /></g><g
     id="g336"
     transform="matrix(2.7977726,0,0,2.7977726,-1287.1627,-1187.228)"><path
       d="m 767.3,668.1 0.2,-0.8 c 0.5,0.2 1,0.1 1.4,-0.1 1,-0.6 1.3,-1.8 0,-4 -0.9,-1.6 -2,-2.2 -2.9,-1.7 -0.6,0.4 -0.8,1.2 -0.3,2.1 0.5,0.9 1.2,1.2 2,0.7 0.4,-0.2 0.8,-0.8 0.9,-1.8 l 0.4,0.7 c -0.1,0.8 -0.5,1.5 -1.1,1.8 -1.1,0.7 -2.3,0.4 -3.1,-1 -0.7,-1.3 -0.3,-2.6 0.7,-3.3 1.3,-0.8 2.9,-0.3 4.1,1.9 1.5,2.7 0.9,4.4 -0.4,5.1 -0.6,0.6 -1.3,0.6 -1.9,0.4 z"
       id="path332"
       inkscape:connector-curvature="0" /><path
       d="m 770.8,662.4 c -1.3,-2.2 -1.2,-3.9 0.2,-4.6 1.3,-0.8 2.8,0 4.1,2.2 1.3,2.2 1.2,3.9 -0.1,4.7 -1.4,0.7 -2.9,-0.1 -4.2,-2.3 z m 3.5,-2 c -1.1,-1.9 -2.1,-2.4 -2.9,-2 -0.8,0.4 -0.8,1.5 0.3,3.5 1.1,1.9 2.1,2.5 2.9,2 0.7,-0.4 0.8,-1.5 -0.3,-3.5 z"
       id="path334"
       inkscape:connector-curvature="0" /></g><g
     id="g350"
     transform="matrix(2.1423674,0,0,2.1423674,-864.22301,-753.02086)"><path
       d="m 835.6,670.8 1.5,-0.9 -2.8,-4.9 -1.2,0.7 -0.3,-0.5 c 0.5,-0.5 0.9,-0.9 1.1,-1.3 l 0.7,-0.4 3.4,5.9 1.4,-0.8 0.4,0.7 -3.7,2.2 z"
       id="path344"
       inkscape:connector-curvature="0" /><path
       d="m 838.9,665.4 c -1.3,-2.2 -1.2,-3.9 0.2,-4.6 1.4,-0.7 2.8,0 4.1,2.2 1.3,2.2 1.2,3.9 -0.1,4.7 -1.3,0.8 -2.9,-0.1 -4.2,-2.3 z m 3.4,-2 c -1.1,-1.9 -2.1,-2.4 -2.9,-2 -0.8,0.4 -0.8,1.5 0.3,3.5 1.1,1.9 2.1,2.5 2.9,2 0.8,-0.5 0.8,-1.6 -0.3,-3.5 z"
       id="path346"
       inkscape:connector-curvature="0" /><path
       d="m 844.1,662.4 c -1.3,-2.2 -1.2,-3.9 0.2,-4.6 1.3,-0.8 2.8,0 4.1,2.2 1.3,2.2 1.2,3.9 -0.1,4.7 -1.4,0.7 -2.9,-0.1 -4.2,-2.3 z m 3.4,-2 c -1.1,-1.9 -2.1,-2.4 -2.9,-2 -0.8,0.4 -0.8,1.5 0.3,3.5 1.1,1.9 2.1,2.5 2.9,2 0.8,-0.4 0.8,-1.5 -0.3,-3.5 z"
       id="path348"
       inkscape:connector-curvature="0" /></g><g
     id="g366"
     transform="matrix(2.1423674,0,0,2.1423674,-949.67211,-753.02086)"><path
       d="m 910.4,670.8 1.5,-0.9 -2.8,-4.9 -1.2,0.7 -0.3,-0.5 c 0.5,-0.5 0.9,-0.9 1.1,-1.3 l 0.7,-0.4 3.4,5.9 1.4,-0.8 0.4,0.7 -3.7,2.2 z"
       id="path360"
       inkscape:connector-curvature="0" /><path
       d="m 915.6,667.8 1.5,-0.9 -2.8,-4.9 -1.2,0.7 -0.3,-0.5 c 0.5,-0.5 0.9,-0.9 1.1,-1.3 l 0.7,-0.4 3.4,5.9 1.4,-0.8 0.4,0.7 -3.7,2.2 z"
       id="path362"
       inkscape:connector-curvature="0" /><path
       d="m 918.8,662.4 c -1.3,-2.2 -1.2,-3.9 0.2,-4.6 1.3,-0.8 2.8,0 4.1,2.2 1.3,2.2 1.2,3.9 -0.1,4.7 -1.4,0.7 -2.9,-0.1 -4.2,-2.3 z m 3.5,-2 c -1.1,-1.9 -2.1,-2.4 -2.9,-2 -0.8,0.4 -0.8,1.5 0.3,3.5 1.1,1.9 2.1,2.5 2.9,2 0.7,-0.4 0.8,-1.5 -0.3,-3.5 z"
       id="path364"
       inkscape:connector-curvature="0" /></g><g
     id="g382"
     transform="matrix(2.1423674,0,0,2.1423674,-1032.608,-753.02086)"><path
       d="m 983,670.8 1.5,-0.9 -2.8,-4.9 -1.2,0.7 -0.3,-0.5 c 0.5,-0.5 0.9,-0.9 1.1,-1.3 l 0.7,-0.4 3.4,5.9 1.4,-0.8 0.4,0.7 -3.7,2.2 z"
       id="path376"
       inkscape:connector-curvature="0" /><path
       d="m 987.8,668.2 c 0.8,-3.1 1.3,-5 0.7,-6.1 -0.4,-0.8 -1.2,-1.1 -2,-0.6 -0.6,0.3 -0.8,0.9 -1,1.6 l -0.8,-0.2 c 0.2,-0.9 0.6,-1.7 1.4,-2.2 1.2,-0.7 2.4,-0.4 3.1,0.8 0.7,1.2 0.3,3.1 -0.3,5.7 0.3,-0.2 0.7,-0.5 1.1,-0.7 l 1.9,-1.1 0.4,0.7 -4.3,2.5 z"
       id="path378"
       inkscape:connector-curvature="0" /><path
       d="m 991.4,662.4 c -1.3,-2.2 -1.2,-3.9 0.2,-4.6 1.3,-0.8 2.8,0 4.1,2.2 1.3,2.2 1.2,3.9 -0.1,4.7 -1.4,0.7 -2.9,-0.1 -4.2,-2.3 z m 3.4,-2 c -1.1,-1.9 -2.1,-2.4 -2.9,-2 -0.8,0.4 -0.8,1.5 0.3,3.5 1.1,1.9 2.1,2.5 2.9,2 0.8,-0.4 0.9,-1.5 -0.3,-3.5 z"
       id="path380"
       inkscape:connector-curvature="0" /></g><g
     id="g398"
     transform="matrix(2.1423674,0,0,2.1423674,-1116.9147,-753.02086)"><path
       d="m 1056.8,670.8 1.5,-0.9 -2.8,-4.9 -1.2,0.7 -0.3,-0.5 c 0.5,-0.5 0.9,-0.9 1.1,-1.3 l 0.7,-0.4 3.4,5.9 1.4,-0.8 0.4,0.7 -3.7,2.2 z"
       id="path392"
       inkscape:connector-curvature="0" /><path
       d="m 1061.4,668 0.1,-0.8 c 0.6,0.2 1.4,0.3 2.1,-0.2 0.8,-0.5 1.1,-1.3 0.7,-2 -0.5,-0.8 -1.3,-1 -2.9,-0.1 l -0.4,-0.7 c 1.4,-0.8 1.6,-1.6 1.2,-2.3 -0.4,-0.6 -1,-0.8 -1.8,-0.4 -0.6,0.3 -0.9,0.9 -1,1.5 l -0.8,-0.3 c 0.2,-0.8 0.6,-1.5 1.4,-1.9 1.2,-0.7 2.3,-0.5 3,0.5 0.5,0.8 0.3,1.6 -0.3,2.3 v 0 c 0.9,-0.3 1.9,-0.1 2.4,0.9 0.7,1.2 0.1,2.5 -1.1,3.2 -0.9,0.6 -1.9,0.5 -2.6,0.3 z"
       id="path394"
       inkscape:connector-curvature="0" /><path
       d="m 1065.3,662.4 c -1.3,-2.2 -1.2,-3.9 0.2,-4.6 1.3,-0.8 2.8,0 4.1,2.2 1.3,2.2 1.2,3.9 -0.1,4.7 -1.4,0.7 -2.9,-0.1 -4.2,-2.3 z m 3.4,-2 c -1.1,-1.9 -2.1,-2.4 -2.9,-2 -0.8,0.4 -0.8,1.5 0.3,3.5 1.1,1.9 2.1,2.5 2.9,2 0.8,-0.4 0.8,-1.5 -0.3,-3.5 z"
       id="path396"
       inkscape:connector-curvature="0" /></g><g
     id="g414"
     transform="matrix(2.1423674,0,0,2.1423674,-1200.079,-753.02086)"><path
       d="m 1129.6,670.8 1.5,-0.9 -2.8,-4.9 -1.2,0.7 -0.3,-0.5 c 0.5,-0.5 0.9,-0.9 1.1,-1.3 l 0.7,-0.4 3.4,5.9 1.4,-0.8 0.4,0.7 -3.7,2.2 z"
       id="path408"
       inkscape:connector-curvature="0" /><path
       d="m 1135,662.7 c -0.2,-0.3 -0.5,-0.9 -0.7,-1.3 v 0 c 0,0.4 0,0.8 0,1.2 l -0.2,3.2 3.8,-2.2 0.4,0.7 -4.7,2.7 -0.3,-0.6 0.4,-5.9 0.9,-0.5 3.8,6.6 -0.8,0.5 z"
       id="path410"
       inkscape:connector-curvature="0" /><path
       d="m 1138.1,662.4 c -1.3,-2.2 -1.2,-3.9 0.2,-4.6 1.3,-0.8 2.8,0 4.1,2.2 1.3,2.2 1.2,3.9 -0.1,4.7 -1.4,0.7 -2.9,-0.1 -4.2,-2.3 z m 3.4,-2 c -1.1,-1.9 -2.1,-2.4 -2.9,-2 -0.8,0.4 -0.8,1.5 0.3,3.5 1.1,1.9 2.1,2.5 2.9,2 0.8,-0.4 0.8,-1.5 -0.3,-3.5 z"
       id="path412"
       inkscape:connector-curvature="0" /></g><g
     id="g440"
     transform="matrix(1.6666667,0,0,1.6666667,185.66379,-338.77904)"
     style="fill:#000000"><path
       class="st2"
       d="m 65.3,486.1 h 2.3 v -6.7 h -1.9 v -1.2 c 1,-0.2 1.7,-0.4 2.3,-0.8 h 1.4 v 8.7 h 2 v 1.5 h -6.1 z"
       id="path416"
       inkscape:connector-curvature="0"
       style="fill:#000000" /><path
       class="st2"
       d="m 73,482.5 c 0,-3.4 1.3,-5.2 3.5,-5.2 2.2,0 3.5,1.8 3.5,5.2 0,3.4 -1.3,5.3 -3.5,5.3 -2.2,0 -3.5,-1.9 -3.5,-5.3 z m 5.1,0 c 0,-2.9 -0.7,-3.8 -1.7,-3.8 -1,0 -1.7,0.9 -1.7,3.8 0,2.9 0.7,3.9 1.7,3.9 1,0 1.7,-1 1.7,-3.9 z"
       id="path418"
       inkscape:connector-curvature="0"
       style="fill:#000000" /><path
       class="st2"
       d="m 84.4,483.7 c 0,-2.6 1.6,-4.1 3.3,-4.1 0.9,0 1.5,0.3 2.1,0.9 l -0.1,-1.3 v -2.8 h 1.8 v 11.3 H 90 l -0.1,-0.9 h -0.1 c -0.6,0.6 -1.4,1 -2.2,1 -1.9,0 -3.2,-1.5 -3.2,-4.1 z m 5.3,1.7 v -3.7 c -0.5,-0.5 -1.1,-0.7 -1.6,-0.7 -1,0 -1.8,0.9 -1.8,2.6 0,1.7 0.7,2.6 1.8,2.6 0.6,0.1 1.1,-0.2 1.6,-0.8 z"
       id="path420"
       inkscape:connector-curvature="0"
       style="fill:#000000" /><path
       class="st2"
       d="m 93.5,485.5 c 0,-1.7 1.4,-2.6 4.6,-2.9 0,-0.8 -0.4,-1.5 -1.4,-1.5 -0.8,0 -1.5,0.4 -2.2,0.8 l -0.7,-1.2 c 0.9,-0.5 2,-1 3.2,-1 2,0 2.9,1.2 2.9,3.4 v 4.7 h -1.5 l -0.1,-0.9 h -0.1 c -0.7,0.6 -1.5,1.1 -2.4,1.1 -1.4,-0.2 -2.3,-1.1 -2.3,-2.5 z m 4.6,0 v -1.8 c -2.1,0.3 -2.8,0.8 -2.8,1.6 0,0.7 0.5,1 1.1,1 0.6,0.1 1.1,-0.3 1.7,-0.8 z"
       id="path422"
       inkscape:connector-curvature="0"
       style="fill:#000000" /><path
       class="st2"
       d="m 101.7,490.7 0.3,-1.4 c 0.2,0 0.4,0.1 0.6,0.1 0.8,0 1.3,-0.6 1.6,-1.4 l 0.1,-0.5 -3.1,-7.8 h 1.9 l 1.4,3.9 c 0.2,0.7 0.5,1.5 0.7,2.2 h 0.1 c 0.2,-0.7 0.4,-1.5 0.6,-2.2 l 1.2,-3.9 h 1.8 l -2.8,8.2 c -0.7,1.8 -1.5,2.9 -3.2,2.9 -0.6,0 -0.9,0 -1.2,-0.1 z"
       id="path424"
       inkscape:connector-curvature="0"
       style="fill:#000000" /><path
       class="st2"
       d="m 109.3,486.7 0.9,-1.2 c 0.7,0.5 1.4,0.9 2.2,0.9 0.9,0 1.3,-0.4 1.3,-0.9 0,-0.7 -0.9,-1 -1.7,-1.3 -1,-0.4 -2.2,-1 -2.2,-2.3 0,-1.4 1.1,-2.4 2.9,-2.4 1.1,0 2,0.4 2.6,0.9 l -0.8,1.1 c -0.6,-0.4 -1.1,-0.7 -1.7,-0.7 -0.8,0 -1.2,0.4 -1.2,0.9 0,0.6 0.8,0.9 1.6,1.2 1.1,0.4 2.3,0.9 2.3,2.4 0,1.4 -1.1,2.4 -3.1,2.4 -1.2,0.1 -2.3,-0.4 -3.1,-1 z"
       id="path426"
       inkscape:connector-curvature="0"
       style="fill:#000000" /><path
       class="st2"
       d="m 119.7,482.9 h 3.8 v 1.3 h -3.8 z"
       id="path428"
       inkscape:connector-curvature="0"
       style="fill:#000000" /><path
       class="st2"
       d="m 127.8,486.5 c 2.8,-2.7 4.6,-4.5 4.6,-6.1 0,-1.1 -0.6,-1.8 -1.7,-1.8 -0.8,0 -1.4,0.5 -2,1.1 l -1,-1 c 0.9,-1 1.9,-1.6 3.3,-1.6 1.9,0 3.2,1.2 3.2,3.1 0,1.8 -1.7,3.7 -3.7,5.8 0.5,-0.1 1.2,-0.1 1.7,-0.1 h 2.5 v 1.6 h -6.9 z"
       id="path430"
       inkscape:connector-curvature="0"
       style="fill:#000000" /><path
       class="st2"
       d="m 136.1,486.7 1,-1.1 c 0.4,0.4 1,0.8 1.6,0.8 1.3,0 2.4,-1 2.4,-4.1 0,-2.5 -0.8,-3.6 -2,-3.6 -0.8,0 -1.5,0.7 -1.5,1.9 0,1.2 0.6,1.8 1.6,1.8 0.6,0 1.3,-0.3 1.9,-1.3 l 0.1,1.3 c -0.6,0.8 -1.5,1.3 -2.3,1.3 -1.8,0 -3,-1 -3,-3.2 0,-2 1.5,-3.3 3.2,-3.3 2,0 3.7,1.5 3.7,5 0,4 -1.9,5.6 -4,5.6 -1.2,0 -2.1,-0.5 -2.7,-1.1 z"
       id="path432"
       inkscape:connector-curvature="0"
       style="fill:#000000" /><path
       class="st2"
       d="m 144.6,486.6 c 0,-0.7 0.5,-1.3 1.2,-1.3 0.7,0 1.2,0.5 1.2,1.3 0,0.7 -0.5,1.2 -1.2,1.2 -0.7,0 -1.2,-0.5 -1.2,-1.2 z"
       id="path434"
       inkscape:connector-curvature="0"
       style="fill:#000000" /><path
       class="st2"
       d="m 148.7,482.8 c 0,-4 1.9,-5.6 4,-5.6 1.2,0 2.1,0.5 2.7,1.2 l -1,1.1 c -0.4,-0.4 -1,-0.8 -1.6,-0.8 -1.3,0 -2.4,1 -2.4,4.1 0,2.5 0.8,3.6 2,3.6 0.8,0 1.5,-0.7 1.5,-1.9 0,-1.2 -0.6,-1.8 -1.6,-1.8 -0.6,0 -1.3,0.3 -1.9,1.3 l -0.1,-1.3 c 0.6,-0.8 1.5,-1.3 2.3,-1.3 1.8,0 3,1 3,3.2 0,2 -1.5,3.3 -3.2,3.3 -2,-0.1 -3.7,-1.6 -3.7,-5.1 z"
       id="path436"
       inkscape:connector-curvature="0"
       style="fill:#000000" /><path
       class="st2"
       d="m 156.7,480.3 c 0,-2.1 1,-3.3 2.5,-3.3 1.5,0 2.5,1.2 2.5,3.3 0,2.1 -1,3.3 -2.5,3.3 -1.5,0 -2.5,-1.2 -2.5,-3.3 z m 3.6,0 c 0,-1.6 -0.5,-2.2 -1.2,-2.2 -0.7,0 -1.2,0.7 -1.2,2.2 0,1.6 0.5,2.3 1.2,2.3 0.7,0 1.2,-0.8 1.2,-2.3 z m 4.9,-3.3 h 1.1 l -5.7,10.9 h -1.1 z m -1,7.5 c 0,-2.1 1,-3.3 2.5,-3.3 1.5,0 2.5,1.2 2.5,3.3 0,2.1 -1,3.3 -2.5,3.3 -1.5,0 -2.5,-1.2 -2.5,-3.3 z m 3.6,0 c 0,-1.6 -0.5,-2.2 -1.2,-2.2 -0.7,0 -1.2,0.7 -1.2,2.2 0,1.5 0.5,2.3 1.2,2.3 0.7,0 1.2,-0.7 1.2,-2.3 z"
       id="path438"
       inkscape:connector-curvature="0"
       style="fill:#000000" /></g><g
     id="g466"
     transform="matrix(1.6618863,0,0,1.6618863,130.00999,-217.43086)"
     style="fill:#000000"><path
       class="st2"
       d="m 194.7,303.9 c 2.8,-2.7 4.6,-4.5 4.6,-6.1 0,-1.1 -0.6,-1.8 -1.7,-1.8 -0.8,0 -1.4,0.5 -2,1.1 l -1,-1 c 0.9,-1 1.9,-1.6 3.3,-1.6 1.9,0 3.2,1.2 3.2,3.1 0,1.8 -1.7,3.7 -3.7,5.8 0.5,-0.1 1.2,-0.1 1.7,-0.1 h 2.5 v 1.6 h -6.9 z"
       id="path442"
       inkscape:connector-curvature="0"
       style="fill:#000000" /><path
       class="st2"
       d="m 202.9,302.3 c 0,-1.3 0.9,-2.1 1.8,-2.6 v -0.1 c -0.8,-0.6 -1.4,-1.3 -1.4,-2.4 0,-1.7 1.3,-2.7 3.1,-2.7 1.8,0 3,1.1 3,2.8 0,1 -0.7,1.9 -1.4,2.3 v 0.1 c 0.9,0.5 1.8,1.3 1.8,2.6 0,1.6 -1.4,2.8 -3.4,2.8 -2,0 -3.5,-1.1 -3.5,-2.8 z m 5.2,0 c 0,-1.1 -1.1,-1.5 -2.4,-2.1 -0.6,0.5 -1.1,1.1 -1.1,1.9 0,1 0.8,1.7 1.9,1.7 0.9,0 1.6,-0.6 1.6,-1.5 z m -0.2,-4.9 c 0,-0.9 -0.6,-1.6 -1.5,-1.6 -0.8,0 -1.4,0.5 -1.4,1.4 0,1 0.9,1.5 2,1.9 0.6,-0.5 0.9,-1 0.9,-1.7 z"
       id="path444"
       inkscape:connector-curvature="0"
       style="fill:#000000" /><path
       class="st2"
       d="m 214.4,301 c 0,-2.6 1.6,-4.1 3.3,-4.1 0.9,0 1.5,0.3 2.1,0.9 l -0.1,-1.3 v -2.8 h 1.8 V 305 H 220 l -0.1,-0.9 h -0.1 c -0.6,0.6 -1.4,1 -2.2,1 -2,0 -3.2,-1.5 -3.2,-4.1 z m 5.3,1.7 V 299 c -0.5,-0.5 -1.1,-0.7 -1.6,-0.7 -1,0 -1.8,0.9 -1.8,2.6 0,1.7 0.7,2.6 1.8,2.6 0.6,0.1 1.1,-0.2 1.6,-0.8 z"
       id="path446"
       inkscape:connector-curvature="0"
       style="fill:#000000" /><path
       class="st2"
       d="m 223.5,302.8 c 0,-1.7 1.4,-2.6 4.6,-2.9 0,-0.8 -0.4,-1.5 -1.4,-1.5 -0.8,0 -1.5,0.4 -2.2,0.8 l -0.7,-1.2 c 0.9,-0.5 2,-1 3.2,-1 2,0 2.9,1.2 2.9,3.4 v 4.7 h -1.5 l -0.1,-0.9 h -0.1 c -0.7,0.6 -1.5,1.1 -2.4,1.1 -1.4,-0.2 -2.3,-1.1 -2.3,-2.5 z m 4.6,0 V 301 c -2.1,0.3 -2.8,0.8 -2.8,1.6 0,0.7 0.5,1 1.1,1 0.6,0.1 1.1,-0.2 1.7,-0.8 z"
       id="path448"
       inkscape:connector-curvature="0"
       style="fill:#000000" /><path
       class="st2"
       d="m 231.6,308 0.3,-1.4 c 0.2,0 0.4,0.1 0.6,0.1 0.8,0 1.3,-0.6 1.6,-1.4 l 0.1,-0.5 -3.1,-7.8 h 1.9 l 1.4,3.9 c 0.2,0.7 0.5,1.5 0.7,2.2 h 0.1 c 0.2,-0.7 0.4,-1.5 0.6,-2.2 L 237,297 h 1.8 l -2.8,8.2 c -0.7,1.8 -1.5,2.9 -3.2,2.9 -0.6,0.1 -0.9,0 -1.2,-0.1 z"
       id="path450"
       inkscape:connector-curvature="0"
       style="fill:#000000" /><path
       class="st2"
       d="m 239.3,304 0.9,-1.2 c 0.7,0.5 1.4,0.9 2.2,0.9 0.9,0 1.3,-0.4 1.3,-0.9 0,-0.7 -0.9,-1 -1.7,-1.3 -1,-0.4 -2.2,-1 -2.2,-2.3 0,-1.4 1.1,-2.4 2.9,-2.4 1.1,0 2,0.4 2.6,0.9 l -0.8,1.1 c -0.6,-0.4 -1.1,-0.7 -1.7,-0.7 -0.8,0 -1.2,0.4 -1.2,0.9 0,0.6 0.8,0.9 1.6,1.2 1.1,0.4 2.3,0.9 2.3,2.4 0,1.4 -1.1,2.4 -3.1,2.4 -1.2,0.1 -2.4,-0.3 -3.1,-1 z"
       id="path452"
       inkscape:connector-curvature="0"
       style="fill:#000000" /><path
       class="st2"
       d="m 249.7,300.2 h 3.8 v 1.3 h -3.8 z"
       id="path454"
       inkscape:connector-curvature="0"
       style="fill:#000000" /><path
       class="st2"
       d="m 257.8,300.1 c 0,-4 1.9,-5.6 4,-5.6 1.2,0 2.1,0.5 2.7,1.2 l -1,1.1 c -0.4,-0.4 -1,-0.8 -1.6,-0.8 -1.3,0 -2.4,1 -2.4,4.1 0,2.5 0.8,3.6 2,3.6 0.8,0 1.5,-0.7 1.5,-1.9 0,-1.2 -0.6,-1.8 -1.6,-1.8 -0.6,0 -1.3,0.3 -1.9,1.3 l -0.1,-1.3 c 0.6,-0.8 1.5,-1.3 2.3,-1.3 1.8,0 3,1 3,3.2 0,2 -1.5,3.3 -3.2,3.3 -2,-0.1 -3.7,-1.6 -3.7,-5.1 z"
       id="path456"
       inkscape:connector-curvature="0"
       style="fill:#000000" /><path
       class="st2"
       d="m 266,303.9 c 2.8,-2.7 4.6,-4.5 4.6,-6.1 0,-1.1 -0.6,-1.8 -1.7,-1.8 -0.8,0 -1.4,0.5 -2,1.1 l -1,-1 c 0.9,-1 1.9,-1.6 3.3,-1.6 1.9,0 3.2,1.2 3.2,3.1 0,1.8 -1.7,3.7 -3.7,5.8 0.5,-0.1 1.2,-0.1 1.7,-0.1 h 2.5 v 1.6 H 266 Z"
       id="path458"
       inkscape:connector-curvature="0"
       style="fill:#000000" /><path
       class="st2"
       d="m 274.6,303.9 c 0,-0.7 0.5,-1.3 1.2,-1.3 0.7,0 1.2,0.5 1.2,1.3 0,0.7 -0.5,1.2 -1.2,1.2 -0.7,0 -1.2,-0.5 -1.2,-1.2 z"
       id="path460"
       inkscape:connector-curvature="0"
       style="fill:#000000" /><path
       class="st2"
       d="m 278.7,300.1 c 0,-4 1.9,-5.6 4,-5.6 1.2,0 2.1,0.5 2.7,1.2 l -1,1.1 c -0.4,-0.4 -1,-0.8 -1.6,-0.8 -1.3,0 -2.4,1 -2.4,4.1 0,2.5 0.8,3.6 2,3.6 0.8,0 1.5,-0.7 1.5,-1.9 0,-1.2 -0.6,-1.8 -1.6,-1.8 -0.6,0 -1.3,0.3 -1.9,1.3 l -0.1,-1.3 c 0.6,-0.8 1.5,-1.3 2.3,-1.3 1.8,0 3,1 3,3.2 0,2 -1.5,3.3 -3.2,3.3 -2,-0.1 -3.7,-1.6 -3.7,-5.1 z"
       id="path462"
       inkscape:connector-curvature="0"
       style="fill:#000000" /><path
       class="st2"
       d="m 286.6,297.6 c 0,-2.1 1,-3.3 2.5,-3.3 1.5,0 2.5,1.2 2.5,3.3 0,2.1 -1,3.3 -2.5,3.3 -1.5,0 -2.5,-1.2 -2.5,-3.3 z m 3.7,0 c 0,-1.6 -0.5,-2.2 -1.2,-2.2 -0.7,0 -1.2,0.7 -1.2,2.2 0,1.6 0.5,2.3 1.2,2.3 0.7,0 1.2,-0.8 1.2,-2.3 z m 4.9,-3.3 h 1.1 l -5.7,10.9 h -1.1 z m -1.1,7.5 c 0,-2.1 1,-3.3 2.5,-3.3 1.5,0 2.5,1.2 2.5,3.3 0,2.1 -1,3.3 -2.5,3.3 -1.5,0 -2.5,-1.2 -2.5,-3.3 z m 3.7,0 c 0,-1.6 -0.5,-2.2 -1.2,-2.2 -0.7,0 -1.2,0.7 -1.2,2.2 0,1.5 0.5,2.3 1.2,2.3 0.7,0 1.2,-0.7 1.2,-2.3 z"
       id="path464"
       inkscape:connector-curvature="0"
       style="fill:#000000" /></g><g
     id="g492"
     transform="matrix(1.6666667,0,0,1.6666667,20.661596,-137.81254)"
     style="fill:#000000"><path
       class="st2"
       d="m 320.7,207.2 c 0,-0.6 0.1,-1.5 0.1,-2.1 h -0.1 c -0.3,0.5 -0.5,1 -0.8,1.6 l -1.9,2.8 h 5.7 v 1.4 h -7.5 v -1.3 l 4,-6.3 h 2.2 v 10.2 h -1.7 z"
       id="path468"
       inkscape:connector-curvature="0"
       style="fill:#000000" /><path
       class="st2"
       d="m 324.5,212.4 0.9,-1.2 c 0.6,0.6 1.4,1.1 2.4,1.1 1.1,0 2,-0.7 2,-2 0,-1.2 -0.8,-1.9 -1.9,-1.9 -0.6,0 -1,0.2 -1.6,0.6 l -0.9,-0.6 0.3,-5 h 5.4 v 1.6 h -3.8 l -0.2,2.5 c 0.4,-0.2 0.8,-0.3 1.3,-0.3 1.7,0 3.2,1 3.2,3.2 0,2.2 -1.7,3.5 -3.6,3.5 -1.6,-0.1 -2.7,-0.8 -3.5,-1.5 z"
       id="path470"
       inkscape:connector-curvature="0"
       style="fill:#000000" /><path
       class="st2"
       d="m 336.3,209.7 c 0,-2.6 1.6,-4.1 3.3,-4.1 0.9,0 1.5,0.3 2.1,0.9 l -0.1,-1.3 v -2.8 h 1.8 v 11.3 h -1.5 l -0.1,-0.9 h -0.1 c -0.6,0.6 -1.4,1 -2.2,1 -2,0 -3.2,-1.5 -3.2,-4.1 z m 5.3,1.7 v -3.7 c -0.5,-0.5 -1.1,-0.7 -1.6,-0.7 -1,0 -1.8,0.9 -1.8,2.6 0,1.7 0.7,2.6 1.8,2.6 0.6,0.1 1.1,-0.2 1.6,-0.8 z"
       id="path472"
       inkscape:connector-curvature="0"
       style="fill:#000000" /><path
       class="st2"
       d="m 345.3,211.5 c 0,-1.7 1.4,-2.6 4.6,-2.9 0,-0.8 -0.4,-1.5 -1.4,-1.5 -0.8,0 -1.5,0.4 -2.2,0.8 l -0.7,-1.2 c 0.9,-0.5 2,-1 3.2,-1 2,0 2.9,1.2 2.9,3.4 v 4.7 h -1.5 l -0.1,-0.9 H 350 c -0.7,0.6 -1.5,1.1 -2.4,1.1 -1.3,-0.2 -2.3,-1.1 -2.3,-2.5 z m 4.7,0 v -1.8 c -2.1,0.3 -2.8,0.8 -2.8,1.6 0,0.7 0.5,1 1.1,1 0.6,0 1.1,-0.3 1.7,-0.8 z"
       id="path474"
       inkscape:connector-curvature="0"
       style="fill:#000000" /><path
       class="st2"
       d="m 353.5,216.7 0.3,-1.4 c 0.2,0 0.4,0.1 0.6,0.1 0.8,0 1.3,-0.6 1.6,-1.4 l 0.1,-0.5 -3.1,-7.8 h 1.9 l 1.4,3.9 c 0.2,0.7 0.5,1.5 0.7,2.2 h 0.1 c 0.2,-0.7 0.4,-1.5 0.6,-2.2 l 1.2,-3.9 h 1.8 l -2.8,8.2 c -0.7,1.8 -1.5,2.9 -3.2,2.9 -0.6,0 -0.9,0 -1.2,-0.1 z"
       id="path476"
       inkscape:connector-curvature="0"
       style="fill:#000000" /><path
       class="st2"
       d="m 361.2,212.7 0.9,-1.2 c 0.7,0.5 1.4,0.9 2.2,0.9 0.9,0 1.3,-0.4 1.3,-0.9 0,-0.7 -0.9,-1 -1.7,-1.3 -1,-0.4 -2.2,-1 -2.2,-2.3 0,-1.4 1.1,-2.4 2.9,-2.4 1.1,0 2,0.4 2.6,0.9 l -0.8,1.1 c -0.6,-0.4 -1.1,-0.7 -1.7,-0.7 -0.8,0 -1.2,0.4 -1.2,0.9 0,0.6 0.8,0.9 1.6,1.2 1.1,0.4 2.3,0.9 2.3,2.4 0,1.4 -1.1,2.4 -3.1,2.4 -1.2,0.1 -2.4,-0.4 -3.1,-1 z"
       id="path478"
       inkscape:connector-curvature="0"
       style="fill:#000000" /><path
       class="st2"
       d="m 371.5,208.9 h 3.8 v 1.3 h -3.8 z"
       id="path480"
       inkscape:connector-curvature="0"
       style="fill:#000000" /><path
       class="st2"
       d="m 384.5,205 h -4.8 v -1.6 h 6.8 v 1.1 c -2.4,3 -2.8,5.1 -3,9.1 h -1.9 c 0.3,-3.6 1,-5.9 2.9,-8.6 z"
       id="path482"
       inkscape:connector-curvature="0"
       style="fill:#000000" /><path
       class="st2"
       d="m 388,212.6 1,-1.1 c 0.4,0.4 1,0.8 1.6,0.8 1.3,0 2.4,-1 2.4,-4.1 0,-2.5 -0.8,-3.6 -2,-3.6 -0.8,0 -1.5,0.7 -1.5,1.9 0,1.2 0.6,1.8 1.6,1.8 0.6,0 1.3,-0.3 1.9,-1.3 l 0.1,1.3 c -0.6,0.8 -1.5,1.3 -2.3,1.3 -1.8,0 -3,-1 -3,-3.2 0,-2 1.5,-3.3 3.2,-3.3 2,0 3.7,1.5 3.7,5 0,4 -1.9,5.6 -4,5.6 -1.2,0.1 -2.1,-0.4 -2.7,-1.1 z"
       id="path484"
       inkscape:connector-curvature="0"
       style="fill:#000000" /><path
       class="st2"
       d="m 396.4,212.5 c 0,-0.7 0.5,-1.3 1.2,-1.3 0.7,0 1.2,0.5 1.2,1.3 0,0.7 -0.5,1.2 -1.2,1.2 -0.7,0 -1.2,-0.4 -1.2,-1.2 z"
       id="path486"
       inkscape:connector-curvature="0"
       style="fill:#000000" /><path
       class="st2"
       d="m 404.6,207.2 c 0,-0.6 0.1,-1.5 0.1,-2.1 h -0.1 c -0.3,0.5 -0.5,1 -0.8,1.6 l -1.9,2.8 h 5.7 v 1.4 h -7.5 v -1.3 l 4,-6.3 h 2.2 v 10.2 h -1.7 z"
       id="path488"
       inkscape:connector-curvature="0"
       style="fill:#000000" /><path
       class="st2"
       d="m 408.5,206.2 c 0,-2.1 1,-3.3 2.5,-3.3 1.5,0 2.5,1.2 2.5,3.3 0,2.1 -1,3.3 -2.5,3.3 -1.5,0 -2.5,-1.2 -2.5,-3.3 z m 3.7,0 c 0,-1.6 -0.5,-2.2 -1.2,-2.2 -0.7,0 -1.2,0.7 -1.2,2.2 0,1.6 0.5,2.3 1.2,2.3 0.7,0 1.2,-0.7 1.2,-2.3 z m 4.9,-3.3 h 1.1 l -5.7,10.9 h -1.1 z m -1.1,7.6 c 0,-2.1 1,-3.3 2.5,-3.3 1.5,0 2.5,1.2 2.5,3.3 0,2.1 -1,3.3 -2.5,3.3 -1.5,0 -2.5,-1.2 -2.5,-3.3 z m 3.7,0 c 0,-1.6 -0.5,-2.2 -1.2,-2.2 -0.7,0 -1.2,0.7 -1.2,2.2 0,1.5 0.5,2.3 1.2,2.3 0.7,0 1.2,-0.8 1.2,-2.3 z"
       id="path490"
       inkscape:connector-curvature="0"
       style="fill:#000000" /></g><g
     id="g518"
     transform="matrix(1.1954118,0,0,1.1954118,206.97849,-11.189259)"
     style="fill:#000000"><path
       class="st2"
       d="m 405.60901,146.6965 c 0,-5.56088 2.64142,-7.78523 5.56088,-7.78523 1.66827,0 2.91947,0.69511 3.7536,1.66826 l -1.39022,1.52925 c -0.55609,-0.55609 -1.39022,-1.11218 -2.22436,-1.11218 -1.80728,0 -3.33653,1.39022 -3.33653,5.6999 0,3.47556 1.11218,5.0048 2.78045,5.0048 1.11217,0 2.08533,-0.97316 2.08533,-2.64142 0,-1.66827 -0.83414,-2.5024 -2.22436,-2.5024 -0.83413,0 -1.80728,0.41707 -2.64142,1.80729 l -0.13902,-1.80729 c 0.83414,-1.11217 2.08533,-1.80728 3.19751,-1.80728 2.5024,0 4.17066,1.39022 4.17066,4.4487 0,2.78044 -2.08533,4.58773 -4.4487,4.58773 -2.78045,-0.13902 -5.14382,-2.36338 -5.14382,-7.09013 z"
       id="path494"
       inkscape:connector-curvature="0"
       style="fill:#000000;stroke-width:1.39022052" /><path
       class="st2"
       d="m 416.8698,146.14042 c 0,-4.72675 1.80728,-7.22915 4.86577,-7.22915 3.05848,0 4.86577,2.5024 4.86577,7.22915 0,4.72675 -1.80729,7.36816 -4.86577,7.36816 -3.05849,0 -4.86577,-2.50239 -4.86577,-7.36816 z m 7.22914,0 c 0,-4.03164 -0.97315,-5.28284 -2.36337,-5.28284 -1.39022,0 -2.36338,1.2512 -2.36338,5.28284 0,4.03164 0.97316,5.42186 2.36338,5.42186 1.39022,0 2.36337,-1.39022 2.36337,-5.42186 z"
       id="path496"
       inkscape:connector-curvature="0"
       style="fill:#000000;stroke-width:1.39022052" /><path
       class="st2"
       d="m 432.85733,147.80868 c 0,-3.61457 2.22435,-5.6999 4.58773,-5.6999 1.2512,0 2.08533,0.41706 2.91946,1.2512 l -0.13902,-1.80729 v -3.89262 h 2.5024 v 15.70949 h -2.08533 l -0.13903,-1.2512 h -0.13902 c -0.83413,0.83414 -1.94631,1.39022 -3.05848,1.39022 -2.78044,0.13903 -4.44871,-2.08533 -4.44871,-5.6999 z m 7.36817,2.36338 v -5.14382 c -0.69511,-0.69511 -1.52924,-0.97315 -2.22435,-0.97315 -1.39022,0 -2.5024,1.25119 -2.5024,3.61457 0,2.36337 0.97316,3.61457 2.5024,3.61457 0.83413,0.13902 1.52924,-0.13902 2.22435,-1.11217 z"
       id="path498"
       inkscape:connector-curvature="0"
       style="fill:#000000;stroke-width:1.39022052" /><path
       class="st2"
       d="m 445.36932,150.31108 c 0,-2.36338 1.94631,-3.61458 6.39501,-4.03164 0,-1.11218 -0.55609,-2.08533 -1.94631,-2.08533 -1.11217,0 -2.08533,0.55609 -3.05848,1.11217 l -0.97316,-1.66826 c 1.2512,-0.69511 2.78044,-1.39022 4.44871,-1.39022 2.78044,0 4.03164,1.66826 4.03164,4.72675 v 6.53403 h -2.08533 l -0.13902,-1.25119 h -0.13903 c -0.97315,0.83413 -2.08533,1.52924 -3.33653,1.52924 -1.80728,-0.13902 -3.1975,-1.52924 -3.1975,-3.47555 z m 6.53403,0.13902 v -2.5024 c -2.91946,0.41707 -3.89261,1.11218 -3.89261,2.22436 0,0.97315 0.69511,1.39022 1.52924,1.39022 0.83413,0 1.52924,-0.41707 2.36337,-1.11218 z"
       id="path500"
       inkscape:connector-curvature="0"
       style="fill:#000000;stroke-width:1.39022052" /><path
       class="st2"
       d="m 456.76913,157.54022 0.41706,-1.9463 c 0.27805,0 0.55609,0.13902 0.83413,0.13902 1.11218,0 1.80729,-0.83413 2.22436,-1.94631 l 0.13902,-0.69511 -4.30969,-10.84372 h 2.64142 l 1.94631,5.42186 c 0.27805,0.97315 0.69511,2.08533 0.97316,3.05848 h 0.13902 c 0.27804,-0.97315 0.55609,-2.08533 0.83413,-3.05848 l 1.66827,-5.42186 h 2.50239 l -3.89261,11.39981 c -0.97316,2.50239 -2.08534,4.03164 -4.44871,4.03164 -0.83413,0.13902 -1.2512,0 -1.66826,-0.13903 z"
       id="path502"
       inkscape:connector-curvature="0"
       style="fill:#000000;stroke-width:1.39022052" /><path
       class="st2"
       d="m 467.47382,152.11836 1.2512,-1.66826 c 0.97316,0.69511 1.94631,1.2512 3.05849,1.2512 1.2512,0 1.80728,-0.55609 1.80728,-1.2512 0,-0.97315 -1.2512,-1.39022 -2.36337,-1.80729 -1.39022,-0.55609 -3.05849,-1.39022 -3.05849,-3.1975 0,-1.94631 1.52925,-3.33653 4.03164,-3.33653 1.52925,0 2.78044,0.55608 3.61458,1.2512 l -1.11218,1.52924 c -0.83413,-0.55609 -1.52924,-0.97316 -2.36338,-0.97316 -1.11217,0 -1.66826,0.55609 -1.66826,1.2512 0,0.83413 1.11218,1.2512 2.22435,1.66827 1.52925,0.55608 3.19751,1.25119 3.19751,3.33653 0,1.9463 -1.52924,3.33652 -4.30968,3.33652 -1.66827,0.13903 -3.33653,-0.55608 -4.30969,-1.39022 z"
       id="path504"
       inkscape:connector-curvature="0"
       style="fill:#000000;stroke-width:1.39022052" /><path
       class="st2"
       d="m 481.79309,146.83553 h 5.28284 v 1.80728 h -5.28284 z"
       id="path506"
       inkscape:connector-curvature="0"
       style="fill:#000000;stroke-width:1.39022052" /><path
       class="st2"
       d="m 493.1929,149.75499 c 0,-1.80729 1.2512,-2.91946 2.5024,-3.61457 v -0.13903 c -1.11218,-0.83413 -1.94631,-1.80728 -1.94631,-3.33653 0,-2.36337 1.80729,-3.75359 4.30968,-3.75359 2.5024,0 4.17067,1.52924 4.17067,3.89262 0,1.39022 -0.97316,2.64142 -1.94631,3.1975 v 0.13903 c 1.2512,0.69511 2.50239,1.80728 2.50239,3.61457 0,2.22435 -1.9463,3.89262 -4.72675,3.89262 -2.78044,0 -4.86577,-1.66827 -4.86577,-3.89262 z m 7.09013,-0.13902 c 0,-1.52925 -1.52925,-2.08533 -3.33653,-2.91947 -0.83413,0.69511 -1.52924,1.52925 -1.52924,2.64142 0,1.39022 1.11217,2.36338 2.64141,2.36338 1.39022,0 2.22436,-0.69511 2.22436,-2.08533 z m -0.13902,-6.67306 c 0,-1.2512 -0.83414,-2.22435 -2.08534,-2.22435 -1.11217,0 -1.9463,0.69511 -1.9463,1.9463 0,1.39023 1.25119,2.08534 2.78044,2.64142 0.83413,-0.69511 1.2512,-1.52924 1.2512,-2.36337 z"
       id="path508"
       inkscape:connector-curvature="0"
       style="fill:#000000;stroke-width:1.39022052" /><path
       class="st2"
       d="m 511.26577,141.27464 h -6.67306 v -2.22435 h 9.4535 v 1.52924 c -3.33653,4.17067 -3.89262,7.09013 -4.17066,12.65101 h -2.64142 c 0.41707,-4.86577 1.39022,-8.06328 4.03164,-11.9559 z"
       id="path510"
       inkscape:connector-curvature="0"
       style="fill:#000000;stroke-width:1.39022052" /><path
       class="st2"
       d="m 516.40959,151.84032 c 0,-0.97315 0.69511,-1.80729 1.66826,-1.80729 0.97315,0 1.66826,0.69511 1.66826,1.80729 0,0.97315 -0.69511,1.66826 -1.66826,1.66826 -0.97315,0 -1.66826,-0.69511 -1.66826,-1.66826 z"
       id="path512"
       inkscape:connector-curvature="0"
       style="fill:#000000;stroke-width:1.39022052" /><path
       class="st2"
       d="m 522.24851,151.97934 1.39022,-1.52924 c 0.55609,0.55609 1.39022,1.11218 2.22435,1.11218 1.80729,0 3.33653,-1.39022 3.33653,-5.69991 0,-3.47555 -1.11217,-5.00479 -2.78044,-5.00479 -1.11217,0 -2.08533,0.97315 -2.08533,2.64142 0,1.66826 0.83413,2.50239 2.22436,2.50239 0.83413,0 1.80728,-0.41706 2.64141,-1.80728 l 0.13903,1.80728 c -0.83414,1.11218 -2.08533,1.80729 -3.19751,1.80729 -2.5024,0 -4.17066,-1.39022 -4.17066,-4.4487 0,-2.78045 2.08533,-4.58773 4.4487,-4.58773 2.78044,0 5.14382,2.08533 5.14382,6.9511 0,5.56088 -2.64142,7.78523 -5.56088,7.78523 -1.66827,0.13903 -2.91947,-0.69511 -3.7536,-1.52924 z"
       id="path514"
       inkscape:connector-curvature="0"
       style="fill:#000000;stroke-width:1.39022052" /><path
       class="st2"
       d="m 533.23125,143.08193 c 0,-2.91946 1.39022,-4.58773 3.47555,-4.58773 2.08534,0 3.47556,1.66827 3.47556,4.58773 0,2.91946 -1.39022,4.58773 -3.47556,4.58773 -2.08533,0 -3.47555,-1.66827 -3.47555,-4.58773 z m 5.14382,0 c 0,-2.22435 -0.69511,-3.05848 -1.66827,-3.05848 -0.97315,0 -1.66826,0.97315 -1.66826,3.05848 0,2.22435 0.69511,3.19751 1.66826,3.19751 0.97316,0 1.66827,-0.97316 1.66827,-3.19751 z m 6.81208,-4.58773 h 1.52924 l -7.92425,15.15341 h -1.52925 z m -1.52924,10.42666 c 0,-2.91947 1.39022,-4.58773 3.47555,-4.58773 2.08533,0 3.47555,1.66826 3.47555,4.58773 0,2.91946 -1.39022,4.58772 -3.47555,4.58772 -2.08533,0 -3.47555,-1.66826 -3.47555,-4.58772 z m 5.14381,0 c 0,-2.22436 -0.69511,-3.05849 -1.66826,-3.05849 -0.97316,0 -1.66827,0.97316 -1.66827,3.05849 0,2.08533 0.69511,3.1975 1.66827,3.1975 0.97315,0 1.66826,-0.97315 1.66826,-3.1975 z"
       id="path516"
       inkscape:connector-curvature="0"
       style="fill:#000000;stroke-width:1.39022052" /></g><g
     id="g584"
     transform="matrix(1.2001485,0,0,1.2001485,191.33949,1.9941808)"
     style="fill:#000000"><g
       id="g582"
       transform="matrix(1.3847339,0,0,1.3847339,-323.35044,-50.57699)"
       style="fill:#000000"><path
         class="st2"
         d="m 645.7,121.6 1,-1.1 c 0.4,0.4 1,0.8 1.6,0.8 1.3,0 2.4,-1 2.4,-4.1 0,-2.5 -0.8,-3.6 -2,-3.6 -0.8,0 -1.5,0.7 -1.5,1.9 0,1.2 0.6,1.8 1.6,1.8 0.6,0 1.3,-0.3 1.9,-1.3 l 0.1,1.3 c -0.6,0.8 -1.5,1.3 -2.3,1.3 -1.8,0 -3,-1 -3,-3.2 0,-2 1.5,-3.3 3.2,-3.3 2,0 3.7,1.5 3.7,5 0,4 -1.9,5.6 -4,5.6 -1.2,0 -2.1,-0.5 -2.7,-1.1 z"
         id="path558"
         inkscape:connector-curvature="0"
         style="fill:#000000" /><path
         class="st2"
         d="m 653.8,117.4 c 0,-3.4 1.3,-5.2 3.5,-5.2 2.2,0 3.5,1.8 3.5,5.2 0,3.4 -1.3,5.3 -3.5,5.3 -2.2,0 -3.5,-1.9 -3.5,-5.3 z m 5.2,0 c 0,-2.9 -0.7,-3.8 -1.7,-3.8 -1,0 -1.7,0.9 -1.7,3.8 0,2.9 0.7,3.9 1.7,3.9 1,0 1.7,-1 1.7,-3.9 z"
         id="path560"
         inkscape:connector-curvature="0"
         style="fill:#000000" /><path
         class="st2"
         d="m 665.3,118.6 c 0,-2.6 1.6,-4.1 3.3,-4.1 0.9,0 1.5,0.3 2.1,0.9 l -0.1,-1.3 v -2.8 h 1.8 v 11.3 h -1.5 l -0.1,-0.9 h -0.1 c -0.6,0.6 -1.4,1 -2.2,1 -2,0 -3.2,-1.5 -3.2,-4.1 z m 5.3,1.7 v -3.7 c -0.5,-0.5 -1.1,-0.7 -1.6,-0.7 -1,0 -1.8,0.9 -1.8,2.6 0,1.7 0.7,2.6 1.8,2.6 0.6,0.1 1.1,-0.2 1.6,-0.8 z"
         id="path562"
         inkscape:connector-curvature="0"
         style="fill:#000000" /><path
         class="st2"
         d="m 674.3,120.4 c 0,-1.7 1.4,-2.6 4.6,-2.9 0,-0.8 -0.4,-1.5 -1.4,-1.5 -0.8,0 -1.5,0.4 -2.2,0.8 l -0.7,-1.2 c 0.9,-0.5 2,-1 3.2,-1 2,0 2.9,1.2 2.9,3.4 v 4.7 h -1.5 l -0.1,-0.9 H 679 c -0.7,0.6 -1.5,1.1 -2.4,1.1 -1.3,-0.2 -2.3,-1.1 -2.3,-2.5 z m 4.7,0 v -1.8 c -2.1,0.3 -2.8,0.8 -2.8,1.6 0,0.7 0.5,1 1.1,1 0.6,0.1 1.1,-0.2 1.7,-0.8 z"
         id="path564"
         inkscape:connector-curvature="0"
         style="fill:#000000" /><path
         class="st2"
         d="m 682.5,125.6 0.3,-1.4 c 0.2,0 0.4,0.1 0.6,0.1 0.8,0 1.3,-0.6 1.6,-1.4 l 0.1,-0.5 -3.1,-7.8 h 1.9 l 1.4,3.9 c 0.2,0.7 0.5,1.5 0.7,2.2 h 0.1 c 0.2,-0.7 0.4,-1.5 0.6,-2.2 l 1.2,-3.9 h 1.8 l -2.8,8.2 c -0.7,1.8 -1.5,2.9 -3.2,2.9 -0.6,0.1 -0.9,0 -1.2,-0.1 z"
         id="path566"
         inkscape:connector-curvature="0"
         style="fill:#000000" /><path
         class="st2"
         d="m 690.2,121.6 0.9,-1.2 c 0.7,0.5 1.4,0.9 2.2,0.9 0.9,0 1.3,-0.4 1.3,-0.9 0,-0.7 -0.9,-1 -1.7,-1.3 -1,-0.4 -2.2,-1 -2.2,-2.3 0,-1.4 1.1,-2.4 2.9,-2.4 1.1,0 2,0.4 2.6,0.9 l -0.8,1.1 c -0.6,-0.4 -1.1,-0.7 -1.7,-0.7 -0.8,0 -1.2,0.4 -1.2,0.9 0,0.6 0.8,0.9 1.6,1.2 1.1,0.4 2.3,0.9 2.3,2.4 0,1.4 -1.1,2.4 -3.1,2.4 -1.2,0.1 -2.4,-0.3 -3.1,-1 z"
         id="path568"
         inkscape:connector-curvature="0"
         style="fill:#000000" /><path
         class="st2"
         d="m 700.5,117.8 h 3.8 v 1.3 h -3.8 z"
         id="path570"
         inkscape:connector-curvature="0"
         style="fill:#000000" /><path
         class="st2"
         d="m 708.8,121.6 1,-1.1 c 0.4,0.4 1,0.8 1.6,0.8 1.3,0 2.4,-1 2.4,-4.1 0,-2.5 -0.8,-3.6 -2,-3.6 -0.8,0 -1.5,0.7 -1.5,1.9 0,1.2 0.6,1.8 1.6,1.8 0.6,0 1.3,-0.3 1.9,-1.3 l 0.1,1.3 c -0.6,0.8 -1.5,1.3 -2.3,1.3 -1.8,0 -3,-1 -3,-3.2 0,-2 1.5,-3.3 3.2,-3.3 2,0 3.7,1.5 3.7,5 0,4 -1.9,5.6 -4,5.6 -1.2,0 -2.1,-0.5 -2.7,-1.1 z"
         id="path572"
         inkscape:connector-curvature="0"
         style="fill:#000000" /><path
         class="st2"
         d="m 716.6,121.3 0.9,-1.2 c 0.6,0.6 1.3,1.1 2.4,1.1 1.1,0 2,-0.7 2,-2 0,-1.2 -0.8,-1.9 -1.9,-1.9 -0.6,0 -1,0.2 -1.6,0.6 l -0.9,-0.6 0.3,-5 h 5.4 v 1.6 h -3.8 l -0.2,2.5 c 0.4,-0.2 0.8,-0.3 1.3,-0.3 1.7,0 3.2,1 3.2,3.2 0,2.2 -1.7,3.5 -3.6,3.5 -1.7,-0.1 -2.7,-0.7 -3.5,-1.5 z"
         id="path574"
         inkscape:connector-curvature="0"
         style="fill:#000000" /><path
         class="st2"
         d="m 725.4,121.5 c 0,-0.7 0.5,-1.3 1.2,-1.3 0.7,0 1.2,0.5 1.2,1.3 0,0.7 -0.5,1.2 -1.2,1.2 -0.6,0 -1.2,-0.5 -1.2,-1.2 z"
         id="path576"
         inkscape:connector-curvature="0"
         style="fill:#000000" /><path
         class="st2"
         d="m 729.5,119.9 c 0,-1.3 0.9,-2.1 1.8,-2.6 v -0.1 c -0.8,-0.6 -1.4,-1.3 -1.4,-2.4 0,-1.7 1.3,-2.7 3.1,-2.7 1.8,0 3,1.1 3,2.8 0,1 -0.7,1.9 -1.4,2.3 v 0.1 c 0.9,0.5 1.8,1.3 1.8,2.6 0,1.6 -1.4,2.8 -3.4,2.8 -2,0 -3.5,-1.1 -3.5,-2.8 z m 5.2,0 c 0,-1.1 -1.1,-1.5 -2.4,-2.1 -0.6,0.5 -1.1,1.1 -1.1,1.9 0,1 0.8,1.7 1.9,1.7 0.9,0 1.6,-0.6 1.6,-1.5 z m -0.2,-4.9 c 0,-0.9 -0.6,-1.6 -1.5,-1.6 -0.8,0 -1.4,0.5 -1.4,1.4 0,1 0.9,1.5 2,1.9 0.6,-0.4 0.9,-1 0.9,-1.7 z"
         id="path578"
         inkscape:connector-curvature="0"
         style="fill:#000000" /><path
         class="st2"
         d="m 737.5,115.2 c 0,-2.1 1,-3.3 2.5,-3.3 1.5,0 2.5,1.2 2.5,3.3 0,2.1 -1,3.3 -2.5,3.3 -1.5,0 -2.5,-1.2 -2.5,-3.3 z m 3.7,0 c 0,-1.6 -0.5,-2.2 -1.2,-2.2 -0.7,0 -1.2,0.7 -1.2,2.2 0,1.6 0.5,2.3 1.2,2.3 0.7,-0.1 1.2,-0.7 1.2,-2.3 z m 4.9,-3.3 h 1.1 l -5.7,10.9 h -1.1 z m -1.1,7.5 c 0,-2.1 1,-3.3 2.5,-3.3 1.5,0 2.5,1.2 2.5,3.3 0,2.1 -1,3.3 -2.5,3.3 -1.5,0 -2.5,-1.2 -2.5,-3.3 z m 3.7,0 c 0,-1.6 -0.5,-2.2 -1.2,-2.2 -0.7,0 -1.2,0.7 -1.2,2.2 0,1.5 0.5,2.3 1.2,2.3 0.7,0 1.2,-0.7 1.2,-2.3 z"
         id="path580"
         inkscape:connector-curvature="0"
         style="fill:#000000" /></g></g><line
     class="st4"
     x1="196.34047"
     y1="91.578804"
     x2="1245.7405"
     y2="91.578804"
     id="line586"
     style="fill:none;stroke:#707070;stroke-width:0.99730003;stroke-miterlimit:10" /><line
     class="st4"
     x1="196.34047"
     y1="229.57881"
     x2="1245.7405"
     y2="229.57881"
     id="line588"
     style="fill:none;stroke:#707070;stroke-width:0.99730003;stroke-miterlimit:10" /><line
     class="st4"
     x1="196.34047"
     y1="368.37878"
     x2="1245.7405"
     y2="368.37878"
     id="line590"
     style="fill:none;stroke:#707070;stroke-width:0.99730003;stroke-miterlimit:10" /><line
     class="st4"
     x1="196.34047"
     y1="504.87878"
     x2="1245.7405"
     y2="504.87878"
     id="line592"
     style="fill:none;stroke:#707070;stroke-width:0.99730003;stroke-miterlimit:10" /><line
     class="st4"
     x1="196.34047"
     y1="642.5788"
     x2="1245.7405"
     y2="642.5788"
     id="line594"
     style="fill:none;stroke:#707070;stroke-width:0.99730003;stroke-miterlimit:10" /><g
     id="g656"
     transform="matrix(1.6618863,0,0,1.6618863,172.94889,-268.60623)"
     style="fill:#000000"><path
       class="st2"
       d="m 130.9,371.2 c 2.8,-2.7 4.6,-4.5 4.6,-6.1 0,-1.1 -0.6,-1.8 -1.7,-1.8 -0.8,0 -1.4,0.5 -2,1.1 l -1,-1 c 0.9,-1 1.9,-1.6 3.3,-1.6 1.9,0 3.2,1.2 3.2,3.1 0,1.8 -1.7,3.7 -3.7,5.8 0.5,-0.1 1.2,-0.1 1.7,-0.1 h 2.5 v 1.6 h -6.9 z"
       id="path632"
       inkscape:connector-curvature="0"
       style="fill:#000000" /><path
       class="st2"
       d="m 139.2,367.1 c 0,-3.4 1.3,-5.2 3.5,-5.2 2.2,0 3.5,1.8 3.5,5.2 0,3.4 -1.3,5.3 -3.5,5.3 -2.2,0 -3.5,-1.8 -3.5,-5.3 z m 5.1,0 c 0,-2.9 -0.7,-3.8 -1.7,-3.8 -1,0 -1.7,0.9 -1.7,3.8 0,2.9 0.7,3.9 1.7,3.9 1,0 1.7,-1 1.7,-3.9 z"
       id="path634"
       inkscape:connector-curvature="0"
       style="fill:#000000" /><path
       class="st2"
       d="m 150.6,368.3 c 0,-2.6 1.6,-4.1 3.3,-4.1 0.9,0 1.5,0.3 2.1,0.9 l -0.1,-1.3 V 361 h 1.8 v 11.3 h -1.5 l -0.1,-0.9 H 156 c -0.6,0.6 -1.4,1 -2.2,1 -1.9,0.1 -3.2,-1.5 -3.2,-4.1 z m 5.3,1.7 v -3.7 c -0.5,-0.5 -1.1,-0.7 -1.6,-0.7 -1,0 -1.8,0.9 -1.8,2.6 0,1.7 0.7,2.6 1.8,2.6 0.6,0.1 1.1,-0.1 1.6,-0.8 z"
       id="path636"
       inkscape:connector-curvature="0"
       style="fill:#000000" /><path
       class="st2"
       d="m 159.7,370.1 c 0,-1.7 1.4,-2.6 4.6,-2.9 0,-0.8 -0.4,-1.5 -1.4,-1.5 -0.8,0 -1.5,0.4 -2.2,0.8 l -0.7,-1.2 c 0.9,-0.5 2,-1 3.2,-1 2,0 2.9,1.2 2.9,3.4 v 4.7 h -1.5 l -0.1,-0.9 h -0.1 c -0.7,0.6 -1.5,1.1 -2.4,1.1 -1.4,-0.1 -2.3,-1.1 -2.3,-2.5 z m 4.6,0.1 v -1.8 c -2.1,0.3 -2.8,0.8 -2.8,1.6 0,0.7 0.5,1 1.1,1 0.6,0 1.1,-0.3 1.7,-0.8 z"
       id="path638"
       inkscape:connector-curvature="0"
       style="fill:#000000" /><path
       class="st2"
       d="m 167.9,375.3 0.3,-1.4 c 0.2,0 0.4,0.1 0.6,0.1 0.8,0 1.3,-0.6 1.6,-1.4 l 0.1,-0.5 -3.1,-7.8 h 1.9 l 1.4,3.9 c 0.2,0.7 0.5,1.5 0.7,2.2 h 0.1 c 0.2,-0.7 0.4,-1.5 0.6,-2.2 l 1.2,-3.9 h 1.8 l -2.8,8.2 c -0.7,1.8 -1.5,2.9 -3.2,2.9 -0.7,0.1 -1,0 -1.2,-0.1 z"
       id="path640"
       inkscape:connector-curvature="0"
       style="fill:#000000" /><path
       class="st2"
       d="m 175.5,371.4 0.9,-1.2 c 0.7,0.5 1.4,0.9 2.2,0.9 0.9,0 1.3,-0.4 1.3,-0.9 0,-0.7 -0.9,-1 -1.7,-1.3 -1,-0.4 -2.2,-1 -2.2,-2.3 0,-1.4 1.1,-2.4 2.9,-2.4 1.1,0 2,0.4 2.6,0.9 l -0.8,1.1 c -0.6,-0.4 -1.1,-0.7 -1.7,-0.7 -0.8,0 -1.2,0.4 -1.2,0.9 0,0.6 0.8,0.9 1.6,1.2 1.1,0.4 2.3,0.9 2.3,2.4 0,1.4 -1.1,2.4 -3.1,2.4 -1.2,0.1 -2.3,-0.4 -3.1,-1 z"
       id="path642"
       inkscape:connector-curvature="0"
       style="fill:#000000" /><path
       class="st2"
       d="m 185.9,367.6 h 3.8 v 1.3 h -3.8 z"
       id="path644"
       inkscape:connector-curvature="0"
       style="fill:#000000" /><path
       class="st2"
       d="m 193.7,371 0.9,-1.2 c 0.6,0.6 1.4,1.1 2.4,1.1 1.1,0 2,-0.7 2,-2 0,-1.2 -0.8,-1.9 -1.9,-1.9 -0.6,0 -1,0.2 -1.6,0.6 l -0.9,-0.6 0.3,-5 h 5.4 v 1.6 h -3.8 l -0.2,2.5 c 0.4,-0.2 0.8,-0.3 1.3,-0.3 1.7,0 3.2,1 3.2,3.2 0,2.2 -1.7,3.5 -3.6,3.5 -1.6,0 -2.7,-0.7 -3.5,-1.5 z"
       id="path646"
       inkscape:connector-curvature="0"
       style="fill:#000000" /><path
       class="st2"
       d="m 202.2,367.1 c 0,-3.4 1.3,-5.2 3.5,-5.2 2.2,0 3.5,1.8 3.5,5.2 0,3.4 -1.3,5.3 -3.5,5.3 -2.2,0 -3.5,-1.8 -3.5,-5.3 z m 5.2,0 c 0,-2.9 -0.7,-3.8 -1.7,-3.8 -1,0 -1.7,0.9 -1.7,3.8 0,2.9 0.7,3.9 1.7,3.9 1,0 1.7,-1 1.7,-3.9 z"
       id="path648"
       inkscape:connector-curvature="0"
       style="fill:#000000" /><path
       class="st2"
       d="m 210.8,371.2 c 0,-0.7 0.5,-1.3 1.2,-1.3 0.7,0 1.2,0.5 1.2,1.3 0,0.7 -0.5,1.2 -1.2,1.2 -0.7,0 -1.2,-0.5 -1.2,-1.2 z"
       id="path650"
       inkscape:connector-curvature="0"
       style="fill:#000000" /><path
       class="st2"
       d="m 214.5,371 0.9,-1.2 c 0.6,0.6 1.4,1.1 2.4,1.1 1.1,0 2,-0.7 2,-2 0,-1.2 -0.8,-1.9 -1.9,-1.9 -0.6,0 -1,0.2 -1.6,0.6 l -0.9,-0.6 0.3,-5 h 5.4 v 1.6 h -3.8 l -0.2,2.5 c 0.4,-0.2 0.8,-0.3 1.3,-0.3 1.7,0 3.2,1 3.2,3.2 0,2.2 -1.7,3.5 -3.6,3.5 -1.6,0 -2.7,-0.7 -3.5,-1.5 z"
       id="path652"
       inkscape:connector-curvature="0"
       style="fill:#000000" /><path
       class="st2"
       d="m 222.9,364.9 c 0,-2.1 1,-3.3 2.5,-3.3 1.5,0 2.5,1.2 2.5,3.3 0,2.1 -1,3.3 -2.5,3.3 -1.5,0 -2.5,-1.2 -2.5,-3.3 z m 3.6,0 c 0,-1.6 -0.5,-2.2 -1.2,-2.2 -0.7,0 -1.2,0.7 -1.2,2.2 0,1.6 0.5,2.3 1.2,2.3 0.7,0 1.2,-0.7 1.2,-2.3 z m 4.9,-3.3 h 1.1 l -5.7,10.9 h -1.1 z m -1,7.5 c 0,-2.1 1,-3.3 2.5,-3.3 1.5,0 2.5,1.2 2.5,3.3 0,2.1 -1,3.3 -2.5,3.3 -1.5,0 -2.5,-1.2 -2.5,-3.3 z m 3.6,0 c 0,-1.6 -0.5,-2.2 -1.2,-2.2 -0.7,0 -1.2,0.7 -1.2,2.2 0,1.5 0.5,2.3 1.2,2.3 0.7,0 1.2,-0.7 1.2,-2.3 z"
       id="path654"
       inkscape:connector-curvature="0"
       style="fill:#000000" /></g><rect
     style="fill:none"
     id="rect297"
     width="173.37038"
     height="48.469135"
     x="323.89359"
     y="243.47389" /></svg>